<svg width="24" height="24" viewBox="0 0 24 24" fill="none" xmlns="http://www.w3.org/2000/svg">
<rect width="24" height="24" rx="12" fill="url(#paint0_linear_27875_213689)"/>
<g clip-path="url(#clip0_27875_213689)">
<path fill-rule="evenodd" clip-rule="evenodd" d="M6.38871 7.71947C6.25537 7.98052 6.13162 8.36029 6.04853 8.84959C5.93629 9.51051 5.91217 10.2897 5.99521 11.0635C6.0785 11.8396 6.26608 12.5779 6.55431 13.1709C6.61894 13.3039 6.68728 13.4269 6.75902 13.54C6.75922 13.4711 6.75979 13.4019 6.76036 13.3325C6.76054 13.3101 6.76072 13.2877 6.76089 13.2652C6.76164 13.1667 6.76231 13.0793 6.76231 13.0024C6.76231 12.6659 6.79864 12.0908 7.16774 11.5964C7.56822 11.0599 8.22874 10.7818 9.121 10.7818H10.2006C9.72817 10.1882 8.97074 9.35685 8.16488 8.70009C7.74159 8.35513 7.32701 8.07656 6.95133 7.90196C6.72592 7.7972 6.53938 7.74139 6.38871 7.71947ZM13.7994 10.7818H14.879C15.7713 10.7818 16.4318 11.0599 16.8323 11.5964C17.2014 12.0908 17.2377 12.6659 17.2377 13.0024C17.2377 13.0793 17.2384 13.1667 17.2391 13.2652C17.2393 13.2877 17.2395 13.3101 17.2396 13.3325C17.2402 13.4019 17.2408 13.4711 17.241 13.54C17.3127 13.4269 17.3811 13.3039 17.4457 13.1709C17.7339 12.5779 17.9215 11.8396 18.0048 11.0635C18.0878 10.2897 18.0637 9.51051 17.9515 8.84959C17.8684 8.36029 17.7446 7.98052 17.6113 7.71947C17.4606 7.74139 17.2741 7.7972 17.0487 7.90196C16.673 8.07656 16.2584 8.35513 15.8351 8.70009C15.0293 9.35685 14.2718 10.1882 13.7994 10.7818ZM16.1123 15.7403C16.0265 15.7726 15.9386 15.8006 15.851 15.825C15.508 15.9206 15.1091 15.9772 14.717 15.9914C14.3267 16.0056 13.9085 15.9789 13.5327 15.887C13.1838 15.8017 12.7372 15.6278 12.4598 15.2414C12.3274 15.0569 12.2052 14.9769 12.1324 14.9425C12.1006 14.9275 12.0763 14.9203 12.0622 14.9171L12 14.9256L11.9378 14.9171C11.9237 14.9203 11.8994 14.9275 11.8676 14.9425C11.7948 14.9769 11.6726 15.0569 11.5402 15.2414C11.2628 15.6278 10.8162 15.8017 10.4673 15.887C10.0915 15.9789 9.67332 16.0056 9.28299 15.9914C8.89089 15.9772 8.49201 15.9206 8.14896 15.825C8.06136 15.8006 7.97352 15.7726 7.88768 15.7403C7.81062 16.057 7.74092 16.2959 7.67897 16.4741L7.67885 16.4745C8.33658 17.2351 9.83086 18.3709 11.9806 18.3131L12 18.3126L12.0194 18.3131C14.1691 18.3709 15.6634 17.2351 16.3212 16.4745L16.321 16.4741C16.2591 16.2959 16.1894 16.057 16.1123 15.7403ZM6.49202 15.3606C5.95044 14.9631 5.54683 14.4057 5.25411 13.8035C4.87439 13.0223 4.65366 12.1122 4.55769 11.2179C4.46148 10.3214 4.48715 9.40832 4.62317 8.60733C4.75551 7.82802 5.00718 7.06592 5.43193 6.54837L5.59986 6.34375L5.86016 6.29596C6.45182 6.18734 7.0462 6.35118 7.56045 6.59018C8.08432 6.83365 8.60273 7.19133 9.078 7.57866C9.84351 8.20253 10.5544 8.95064 11.0703 9.56224C11.1635 9.53998 11.2515 9.52399 11.329 9.51206C11.5848 9.4727 11.8316 9.46285 12 9.46656C12.1684 9.46285 12.4152 9.4727 12.671 9.51206C12.7485 9.52399 12.8365 9.53998 12.9297 9.56224C13.4456 8.95064 14.1565 8.20253 14.922 7.57866C15.3973 7.19133 15.9157 6.83365 16.4396 6.59018C16.9538 6.35118 17.5482 6.18734 18.1398 6.29596L18.4001 6.34375L18.5681 6.54837C18.9928 7.06592 19.2445 7.82802 19.3768 8.60733C19.5129 9.40832 19.5385 10.3214 19.4423 11.2179C19.3463 12.1122 19.1256 13.0223 18.7459 13.8035C18.4532 14.4057 18.0496 14.9631 17.508 15.3606C17.564 15.5939 17.6125 15.7683 17.6526 15.8958L18.3918 16.0044L17.772 16.9516C17.1105 17.9625 15.0852 19.8344 12 19.7595C8.91484 19.8344 6.88953 17.9625 6.22803 16.9516L5.60824 16.0043L6.34741 15.8958C6.38745 15.7683 6.43597 15.5939 6.49202 15.3606ZM8.32611 12.4619C8.24809 12.5664 8.20809 12.74 8.20809 13.0024C8.20809 13.0854 8.20738 13.178 8.20665 13.2744L8.20663 13.2763C8.2036 13.6744 8.2019 13.9151 8.22599 14.1038C8.24235 14.2319 8.2667 14.2974 8.29306 14.3408C8.29653 14.3427 8.30049 14.3448 8.30494 14.347C8.35206 14.371 8.42863 14.4014 8.53699 14.4316C8.75352 14.492 9.03758 14.5352 9.33524 14.546C9.63467 14.5568 9.91304 14.5335 10.1241 14.4819C10.3153 14.4352 10.3726 14.3852 10.3739 14.3866C10.8715 13.7002 11.5226 13.4464 12 13.47C12.4774 13.4464 13.1284 13.7003 13.6261 14.3866C13.6274 14.3852 13.6847 14.4352 13.8759 14.4819C14.087 14.5335 14.3653 14.5568 14.6648 14.546C14.9624 14.5352 15.2465 14.492 15.463 14.4316C15.5714 14.4014 15.6479 14.371 15.6951 14.347C15.6995 14.3448 15.7035 14.3427 15.7069 14.3408C15.7333 14.2974 15.7577 14.2319 15.774 14.1038C15.7981 13.9151 15.7964 13.6744 15.7934 13.2763L15.7934 13.2742C15.7926 13.1779 15.7919 13.0853 15.7919 13.0024C15.7919 12.74 15.7519 12.5664 15.6739 12.4619C15.6272 12.3994 15.4699 12.2283 14.879 12.2283H9.121C8.53013 12.2283 8.37275 12.3994 8.32611 12.4619Z" fill="white"/>
</g>
<defs>
<linearGradient id="paint0_linear_27875_213689" x1="-17.28" y1="-15.36" x2="37.2853" y2="28.8231" gradientUnits="userSpaceOnUse">
<stop stop-color="#EF2FDF"/>
<stop offset="1" stop-color="#3F8FFF"/>
</linearGradient>
<clipPath id="clip0_27875_213689">
<rect width="15" height="15" fill="white" transform="translate(4.5 5.5)"/>
</clipPath>
</defs>
</svg>
