<svg width="138" height="110" viewBox="0 0 138 110" fill="none" xmlns="http://www.w3.org/2000/svg">
<path fill-rule="evenodd" clip-rule="evenodd" d="M45.5548 9.73505C45.0215 10.7793 44.5265 12.2984 44.1941 14.2555C43.7452 16.8992 43.6487 20.016 43.9809 23.1113C44.314 26.2155 45.0643 29.1689 46.2172 31.5408C46.4758 32.0727 46.7491 32.5648 47.0361 33.0171C47.0369 32.7418 47.0392 32.4647 47.0414 32.1872C47.0422 32.0975 47.0429 32.0078 47.0436 31.9181C47.0466 31.524 47.0492 31.1743 47.0492 30.8668C47.0492 29.5207 47.1946 27.2203 48.6709 25.2427C50.2729 23.0968 52.9149 21.9846 56.484 21.9846H60.8024C58.9127 19.6098 55.883 16.2846 52.6595 13.6575C50.9664 12.2777 49.308 11.1634 47.8053 10.465C46.9037 10.046 46.1575 9.82273 45.5548 9.73505ZM75.1977 21.9846H79.516C83.0851 21.9846 85.7271 23.0968 87.3291 25.2427C88.8054 27.2203 88.9508 29.5207 88.9508 30.8668C88.9508 31.1743 88.9534 31.524 88.9564 31.9181C88.9571 32.0078 88.9578 32.0975 88.9586 32.1872C88.9608 32.4646 88.9631 32.7417 88.9639 33.0171C89.2509 32.5648 89.5242 32.0727 89.7828 31.5408C90.9357 29.1689 91.686 26.2155 92.0191 23.1113C92.3513 20.016 92.2548 16.8992 91.8059 14.2555C91.4735 12.2984 90.9785 10.7793 90.4452 9.73505C89.8425 9.82273 89.0963 10.046 88.1947 10.465C86.692 11.1634 85.0336 12.2777 83.3405 13.6575C80.117 16.2846 77.0873 19.6098 75.1977 21.9846ZM84.4493 41.8186C84.1059 41.9474 83.7546 42.0595 83.4042 42.1572C82.032 42.5396 80.4365 42.7662 78.868 42.8229C77.3067 42.8794 75.6339 42.7728 74.1307 42.4052C72.735 42.0639 70.9486 41.3682 69.8391 39.8227C69.3094 39.085 68.8207 38.7647 68.5298 38.6273C68.4022 38.567 68.3053 38.5383 68.2486 38.5254L68 38.5595L67.7514 38.5254C67.6947 38.5383 67.5978 38.567 67.4703 38.6273C67.1793 38.7647 66.6906 39.085 66.1609 39.8227C65.0514 41.3682 63.265 42.0639 61.8693 42.4052C60.3661 42.7728 58.6933 42.8794 57.132 42.8229C55.5635 42.7662 53.968 42.5396 52.5958 42.1572C52.2454 42.0595 51.8941 41.9474 51.5507 41.8186C51.2425 43.085 50.9637 44.0406 50.7159 44.7536L50.7154 44.755C53.3463 47.7974 59.3235 52.3409 67.9223 52.1098L68 52.1077L68.0777 52.1098C76.6765 52.3409 82.6537 47.7974 85.2846 44.755L85.2841 44.7536C85.0363 44.0406 84.7575 43.085 84.4493 41.8186ZM45.9681 40.2995C43.8018 38.7097 42.1873 36.4798 41.0164 34.071C39.4976 30.9463 38.6147 27.306 38.2308 23.7289C37.8459 20.1428 37.9486 16.4905 38.4927 13.2865C39.022 10.1693 40.0287 7.12086 41.7277 5.05064L42.3995 4.23216L43.4406 4.04101C45.8073 3.60652 48.1848 4.26189 50.2418 5.21788C52.3373 6.19178 54.4109 7.62251 56.312 9.17184C59.374 11.6673 62.2175 14.6597 64.2811 17.1061C64.6538 17.0171 65.0058 16.9532 65.3161 16.9054C66.3394 16.748 67.3263 16.7086 68 16.7234C68.6737 16.7086 69.6606 16.748 70.6839 16.9054C70.9942 16.9532 71.3462 17.0171 71.7189 17.1061C73.7825 14.6597 76.626 11.6673 79.688 9.17184C81.5891 7.62251 83.6627 6.19178 85.7582 5.21788C87.8152 4.26189 90.1927 3.60652 92.5594 4.04101L93.6005 4.23216L94.2723 5.05064C95.9713 7.12086 96.978 10.1693 97.5073 13.2865C98.0514 16.4905 98.1541 20.1428 97.7692 23.7289C97.3853 27.306 96.5024 30.9463 94.9836 34.071C93.8127 36.4798 92.1982 38.7097 90.0319 40.2995C90.2561 41.2327 90.4502 41.9303 90.6104 42.4403L93.567 42.8746L91.0879 46.6634C88.4419 50.7071 80.3406 58.1948 68 57.8953C55.6594 58.1948 47.5581 50.7071 44.9121 46.6634L42.433 42.8746L45.3896 42.4403C45.5498 41.9303 45.7439 41.2327 45.9681 40.2995ZM53.3045 28.7047C52.9924 29.1228 52.8324 29.8171 52.8324 30.8668C52.8324 31.1986 52.8295 31.5693 52.8266 31.9546L52.8265 31.9623C52.8144 33.5548 52.8076 34.5174 52.904 35.2723C52.9694 35.7846 53.0668 36.0467 53.1722 36.2203C53.1861 36.2279 53.2019 36.2362 53.2198 36.2453C53.4082 36.3414 53.7145 36.4629 54.1479 36.5838C55.0141 36.8252 56.1503 36.9979 57.341 37.041C58.5387 37.0844 59.6521 36.9914 60.4963 36.7849C61.2613 36.5979 61.4902 36.3979 61.4954 36.4036C63.4862 33.6582 66.0906 32.6429 68 32.7373C69.9094 32.6429 72.5138 33.6583 74.5045 36.4037C74.5097 36.398 74.7387 36.5979 75.5037 36.7849C76.3479 36.9914 77.4613 37.0844 78.659 37.041C79.8497 36.9979 80.9859 36.8252 81.8521 36.5838C82.2855 36.4629 82.5918 36.3414 82.7802 36.2453C82.7981 36.2362 82.8139 36.2279 82.8278 36.2203C82.9332 36.0467 83.0306 35.7846 83.096 35.2723C83.1924 34.5174 83.1856 33.5548 83.1735 31.9623L83.1734 31.954C83.1705 31.5689 83.1676 31.1984 83.1676 30.8668C83.1676 29.8171 83.0076 29.1228 82.6955 28.7047C82.509 28.4548 81.8795 27.7702 79.516 27.7702H56.484C54.1205 27.7702 53.491 28.4548 53.3045 28.7047Z" fill="#E6E7EA"/>
<path d="M119.228 92.0001C120.6 92.0001 121.514 92.9143 121.514 94.2858V100.629C121.514 102 120.6 102.914 119.228 102.914H103.571C102.2 102.914 101.285 102 101.285 100.629V94.2858C101.285 92.9143 102.2 92.0001 103.571 92.0001H119.228ZM117.714 100C117.971 100 118.142 99.8286 118.142 99.5715V95.3429C118.142 95.0858 117.971 94.9143 117.714 94.9143H105.085C104.828 94.9143 104.657 95.0858 104.657 95.3429V99.5715C104.657 99.8286 104.828 100 105.085 100H117.714ZM113.142 86.8001H122.114V89.7143H100.971L100.714 86.8001H109.657V83.6001H99.0853L98.8281 80.6286H109.657V77.7715H113.142V80.6286H124V83.6001H113.142V86.8001Z" fill="#E6E7EA"/>
<path d="M87.5717 99.6572C89.9717 100.143 92.8002 100.457 96.2574 100.6L95.4002 103.572C90.4574 103.343 86.5717 102.743 83.2574 101.514C80.0002 102.543 75.9431 103.229 70.9716 103.629L70.1145 100.714C73.6288 100.457 76.6002 100.029 79.1145 99.4286C77.7717 98.5715 76.5145 97.5429 75.3145 96.3144C74.0002 97.1144 72.5716 97.8286 70.9716 98.5144L70.0859 95.4001C73.1145 94.2858 75.6574 92.6858 77.4574 90.5715H70.4288L70.1431 87.8286H81.2288V86.6001H72.6859L72.4002 83.9144H81.2288V82.5715H71.4288L71.1431 79.8858H81.2288V77.7144H84.6002V79.8858H94.3431V82.5715H84.6002V83.9144H93.4859V86.6001H84.6002V87.8286H95.5145V90.5715H81.4574C81.1145 91.0858 80.7431 91.5715 80.3431 92.0572H90.9717C92.7431 92.0572 93.6859 93.5715 92.6002 95.1715C91.3717 96.9715 89.7145 98.4572 87.5717 99.6572ZM82.9716 98.2858C85.4288 97.3715 87.3431 96.2001 88.9145 94.7715H77.5431C77.2002 95.0286 76.8574 95.2858 76.4859 95.5429H78.4859C79.8288 96.6572 81.2859 97.5715 82.9716 98.2858Z" fill="#E6E7EA"/>
<path d="M63.1418 97.7144C64.2847 98.7715 65.7132 99.6858 67.4561 100.514L66.3989 104.029C64.1132 103.029 62.2275 101.857 60.7132 100.4C59.0847 101.8 57.0561 103 54.5132 104.057L53.5418 101.029C53.1989 101.772 52.7989 102.514 52.3704 103.257H48.5132C48.9704 102.514 49.3989 101.772 49.7704 101.057L41.7989 102.314L41.4275 99.2572L50.1418 97.8858L50.1132 100.343C52.1989 96.0286 52.8847 92.0001 52.9989 86.4001L53.0847 81.7144H51.3704L50.9989 78.7144H62.8275C64.5132 78.7144 65.4561 80.0572 64.5989 81.5429L62.1418 85.8286H64.3704C65.9704 85.8286 66.6847 86.8286 66.4561 88.4286C65.9132 92.1715 64.9132 95.2001 63.1418 97.7144ZM60.7704 94.8286C61.7704 93.1429 62.4561 91.1429 62.8847 88.8286H59.1418L58.6275 85.8858L60.7989 81.7144H56.5704L56.4847 86.3429C56.4561 87.4858 56.4275 88.5715 56.3418 89.6001H58.6847C59.2275 91.6001 59.8561 93.3144 60.7704 94.8286ZM58.4561 97.6858C57.4561 96.1429 56.6847 94.3715 56.0847 92.3144C55.6847 95.2858 54.9704 97.9429 53.7132 100.657C55.6275 99.8286 57.1989 98.8572 58.4561 97.6858ZM47.5704 85.7715C48.0275 84.7144 48.3989 83.6001 48.7418 82.4286H51.8847C51.1132 86.4001 49.3132 89.7429 46.5704 92.4286L50.6847 92.0286V95.0858L41.9989 95.8286L41.5989 92.8858L42.3418 92.8286C43.8275 91.6001 44.9989 90.2572 45.9704 88.7429L41.7132 88.9715L41.3418 86.0286L41.7132 86.0001C43.7132 83.3429 44.7704 80.8286 45.6275 77.7144H48.6561C47.9418 80.7715 46.6847 83.5429 45.1132 85.8858L47.5704 85.7715Z" fill="#E6E7EA"/>
<path d="M35.342 89.1429C36.6277 89.1429 37.342 89.8572 37.342 91.1429V96.5715C37.342 97.8572 36.6277 98.5715 35.342 98.5715H28.0277C26.742 98.5715 26.0277 97.8572 26.0277 96.5715V91.1429C26.0277 89.8572 26.742 89.1429 28.0277 89.1429H35.342ZM29.6277 91.8858C29.3706 91.8858 29.2277 92.0286 29.2277 92.2858V95.4286C29.2277 95.6858 29.3706 95.8286 29.6277 95.8286H33.742C33.9992 95.8286 34.142 95.6858 34.142 95.4286V92.2858C34.142 92.0286 33.9992 91.8858 33.742 91.8858H29.6277ZM31.142 81.4C31.1135 84.4858 29.8277 86.6286 26.2277 88.8L25.142 85.8572C27.1134 84.7143 27.9706 83.5143 27.9992 81.4H25.6563L25.3992 78.6572H35.742C37.0277 78.6572 37.6277 79.2572 37.7992 80.5715C37.9992 82.1429 37.9992 84.1429 37.6849 85.6C37.3706 87.0572 36.6563 87.8858 35.3992 88.0286C34.1992 88.1715 32.9706 88.0572 31.9134 87.8286L31.1992 85.0858C32.0563 85.3143 32.942 85.3715 33.7134 85.2858C34.2563 85.2286 34.342 84.9429 34.4563 84.4286C34.6277 83.5715 34.6563 82.6858 34.5706 81.8286C34.542 81.5715 34.3992 81.4 34.142 81.4H31.142ZM22.4277 99.6001C23.3134 99.8001 24.2849 99.8858 25.342 99.8858H38.8277L38.142 103H25.342C21.0563 103 18.2563 101.943 16.6563 98.8572C16.0563 100.514 15.1706 102.114 13.742 103.686L12.4277 100C14.3706 97.6001 14.542 94.9429 14.4849 90.5143H17.5706C17.5992 91.4572 17.5992 92.4001 17.5706 93.3429C17.7134 95.4001 18.2849 96.8858 19.2277 97.8858V89.4001H13.0849L12.7992 86.6572H18.0563V84.0286H13.9992L13.7134 81.2858H18.0563V77.8H21.2563V81.2858H24.5706V84.0286H21.2563V86.6572H25.142V89.4001H22.4277V92.8858H24.9135V95.6286H22.4277V99.6001Z" fill="#E6E7EA"/>
<path d="M130.331 81.242C130.332 81.8257 131.104 82.0327 131.397 81.5275L133.088 78.606C133.19 78.4298 133.379 78.3212 133.582 78.321L136.958 78.3169C137.542 78.3162 137.749 77.5437 137.244 77.2512L134.322 75.5598C134.146 75.4577 134.037 75.2697 134.037 75.0661L134.033 71.6902C134.032 71.1065 133.26 70.8995 132.967 71.4047L131.276 74.3262C131.174 74.5024 130.986 74.611 130.782 74.6112L127.406 74.6153C126.822 74.616 126.615 75.3885 127.121 75.681L130.042 77.3724C130.218 77.4745 130.327 77.6625 130.327 77.8661L130.331 81.242Z" fill="#E6E7EA"/>
</svg>
