<svg
    width="200"
    height="200"
    viewBox="0 0 200 200"
    fill="none"
    xmlns="http://www.w3.org/2000/svg"
>
    <path d="M200 152.96H0V153.06H200V152.96Z" fill="#EBEBEB" />
    <path
        d="M94.7999 135.12H17.5639C16.9589 135.119 16.379 134.878 15.9515 134.45C15.524 134.021 15.2839 133.441 15.2839 132.836V24.264C15.2892 23.6624 15.5316 23.0872 15.9585 22.6633C16.3854 22.2394 16.9623 22.001 17.5639 22H94.7999C95.4057 22 95.9866 22.2406 96.415 22.669C96.8433 23.0973 97.0839 23.6782 97.0839 24.284V132.836C97.0839 133.442 96.8433 134.023 96.415 134.451C95.9866 134.879 95.4057 135.12 94.7999 135.12ZM17.5639 22.08C16.9854 22.0811 16.4309 22.3116 16.0222 22.7211C15.6135 23.1306 15.3839 23.6855 15.3839 24.264V132.836C15.3839 133.415 15.6135 133.969 16.0222 134.379C16.4309 134.788 16.9854 135.019 17.5639 135.02H94.7999C95.3788 135.019 95.9337 134.789 96.3431 134.379C96.7524 133.97 96.9829 133.415 96.9839 132.836V24.264C96.9829 23.6851 96.7524 23.1302 96.3431 22.7208C95.9337 22.3115 95.3788 22.0811 94.7999 22.08H17.5639Z"
        fill="#EBEBEB"
    />
    <path
        d="M181.324 135.12H104.084C103.479 135.119 102.898 134.878 102.47 134.45C102.042 134.022 101.801 133.441 101.8 132.836V24.264C101.806 23.662 102.05 23.0868 102.477 22.663C102.905 22.2392 103.482 22.001 104.084 22H181.324C181.925 22.0021 182.501 22.2409 182.927 22.6647C183.353 23.0885 183.595 23.6631 183.6 24.264V132.836C183.6 133.44 183.361 134.02 182.934 134.448C182.507 134.876 181.928 135.118 181.324 135.12ZM104.084 22.08C103.505 22.0811 102.95 22.3115 102.541 22.7208C102.132 23.1302 101.901 23.6851 101.9 24.264V132.836C101.901 133.415 102.132 133.97 102.541 134.379C102.95 134.789 103.505 135.019 104.084 135.02H181.324C181.903 135.019 182.458 134.789 182.867 134.379C183.277 133.97 183.507 133.415 183.508 132.836V24.264C183.507 23.6851 183.277 23.1302 182.867 22.7208C182.458 22.3115 181.903 22.0811 181.324 22.08H104.084Z"
        fill="#EBEBEB"
    />
    <path d="M30.912 156.768H20.512V156.868H30.912V156.768Z" fill="#EBEBEB" />
    <path
        d="M76.0721 155.684H58.0601V155.784H76.0721V155.684Z"
        fill="#EBEBEB"
    />
    <path d="M55.628 160.484H31.312V160.584H55.628V160.484Z" fill="#EBEBEB" />
    <path
        d="M179.488 159.812H171.796V159.912H179.488V159.812Z"
        fill="#EBEBEB"
    />
    <path
        d="M168.232 159.812H146.116V159.912H168.232V159.812Z"
        fill="#EBEBEB"
    />
    <path d="M132.608 158.124H102.82V158.224H132.608V158.124Z" fill="#EBEBEB" />
    <path
        d="M76.332 86.176L71.272 152.976H120.072L125.132 86.176H76.332ZM107.016 133.376C106.78 136.042 105.564 138.527 103.603 140.349C101.643 142.172 99.0765 143.203 96.4 143.244C95.1327 143.264 93.8756 143.016 92.7105 142.517C91.5455 142.018 90.4987 141.279 89.6385 140.348C88.7783 139.418 88.124 138.316 87.7183 137.115C87.3126 135.915 87.1646 134.642 87.284 133.38L89.064 109.9C89.3 107.234 90.5152 104.751 92.475 102.928C94.4348 101.106 97.0002 100.074 99.676 100.032C100.944 100.012 102.202 100.259 103.368 100.758C104.534 101.257 105.582 101.996 106.443 102.927C107.304 103.859 107.959 104.961 108.365 106.162C108.771 107.364 108.919 108.637 108.8 109.9L107.016 133.376Z"
        fill="#E6E6E6"
    />
    <path
        d="M135.552 152.96H64.3999L64.8119 148.576H135.96L135.552 152.96Z"
        fill="#E6E6E6"
    />
    <path
        d="M162.888 128.164H169.2C169.285 128.164 169.368 128.147 169.446 128.114C169.524 128.08 169.594 128.031 169.652 127.97C169.71 127.908 169.755 127.836 169.784 127.756C169.813 127.677 169.825 127.592 169.82 127.508L169.796 127.06C169.786 126.885 169.71 126.72 169.583 126.599C169.456 126.478 169.288 126.41 169.112 126.408H162.8C162.716 126.407 162.632 126.424 162.554 126.457C162.476 126.49 162.406 126.538 162.347 126.599C162.289 126.66 162.244 126.733 162.214 126.812C162.185 126.891 162.172 126.976 162.176 127.06L162.2 127.508C162.21 127.684 162.287 127.85 162.415 127.972C162.542 128.094 162.712 128.162 162.888 128.164Z"
        fill="#E0E0E0"
    />
    <path
        d="M152.356 128.164H158.656C158.741 128.165 158.825 128.148 158.902 128.115C158.98 128.082 159.051 128.033 159.109 127.971C159.167 127.91 159.212 127.837 159.241 127.757C159.269 127.677 159.281 127.593 159.276 127.508L159.252 127.06C159.242 126.885 159.165 126.72 159.039 126.599C158.912 126.478 158.743 126.41 158.568 126.408H152.268C152.183 126.407 152.1 126.424 152.022 126.457C151.944 126.49 151.874 126.538 151.815 126.599C151.757 126.66 151.711 126.733 151.682 126.812C151.652 126.891 151.64 126.976 151.644 127.06L151.668 127.508C151.679 127.684 151.756 127.849 151.883 127.971C152.011 128.092 152.18 128.161 152.356 128.164Z"
        fill="#E0E0E0"
    />
    <path
        d="M174.092 127.668H27.04C26.2135 127.659 25.4211 127.337 24.8227 126.767C24.2243 126.197 23.8645 125.421 23.816 124.596L19.388 36.2679C19.3632 35.8714 19.4204 35.4741 19.5562 35.1007C19.692 34.7274 19.9033 34.386 20.177 34.0981C20.4507 33.8101 20.7808 33.5818 21.1468 33.4272C21.5128 33.2727 21.9067 33.1953 22.304 33.1999H169.356C170.182 33.2076 170.974 33.5286 171.573 34.0982C172.171 34.6677 172.531 35.4432 172.58 36.2679L177.008 124.596C177.033 124.993 176.975 125.39 176.84 125.764C176.704 126.137 176.493 126.479 176.219 126.767C175.945 127.055 175.615 127.284 175.249 127.439C174.883 127.594 174.489 127.672 174.092 127.668Z"
        fill="#E0E0E0"
    />
    <path
        d="M175.892 127.668H28.844C28.0146 127.663 27.2183 127.342 26.616 126.772C26.0138 126.202 25.6506 125.424 25.6 124.596L21.2 36.2681C21.1752 35.8723 21.2323 35.4756 21.3676 35.1028C21.5028 34.73 21.7135 34.389 21.9863 34.1012C22.2591 33.8134 22.5883 33.5848 22.9533 33.4298C23.3183 33.2747 23.7114 33.1965 24.108 33.2001H171.156C171.985 33.2046 172.781 33.524 173.384 34.0937C173.986 34.6633 174.349 35.4406 174.4 36.2681L178.8 124.596C178.825 124.992 178.768 125.389 178.632 125.762C178.497 126.135 178.287 126.476 178.014 126.764C177.741 127.052 177.412 127.281 177.047 127.437C176.682 127.592 176.289 127.671 175.892 127.668Z"
        fill="#E6E6E6"
    />
    <path
        d="M29.7039 121.504L25.5999 39.364C25.5851 39.1156 25.6215 38.8668 25.7069 38.633C25.7922 38.3992 25.9247 38.1855 26.0962 38.0051C26.2676 37.8247 26.4742 37.6814 26.7033 37.5842C26.9324 37.487 27.179 37.4379 27.4279 37.44H168.276C168.794 37.4442 169.291 37.6454 169.666 38.0028C170.041 38.3601 170.266 38.8468 170.296 39.364L174.4 121.504C174.415 121.752 174.379 122.001 174.294 122.235C174.21 122.468 174.077 122.682 173.906 122.863C173.735 123.043 173.529 123.187 173.3 123.284C173.071 123.381 172.825 123.43 172.576 123.428H31.7239C31.2061 123.423 30.7096 123.221 30.3347 122.864C29.9597 122.507 29.7343 122.021 29.7039 121.504Z"
        fill="#F5F5F5"
    />
    <path
        d="M34.2639 41.6399C34.2782 41.8586 34.2473 42.0779 34.1733 42.2842C34.0993 42.4905 33.9837 42.6794 33.8337 42.8392C33.6837 42.9989 33.5025 43.1262 33.3012 43.213C33.1 43.2998 32.8831 43.3444 32.6639 43.3439C32.2057 43.3387 31.7664 43.16 31.4346 42.8438C31.1029 42.5276 30.9032 42.0974 30.8759 41.6399C30.8623 41.4216 30.8935 41.2027 30.9678 40.9969C31.042 40.7911 31.1577 40.6027 31.3077 40.4434C31.4576 40.284 31.6387 40.1571 31.8396 40.0706C32.0406 39.984 32.2571 39.9395 32.4759 39.9399C32.9341 39.9432 33.3739 40.1208 33.706 40.4365C34.038 40.7522 34.2375 41.1825 34.2639 41.6399Z"
        fill="white"
    />
    <path
        d="M41.9719 41.6399C41.9862 41.8586 41.9553 42.0779 41.8813 42.2842C41.8073 42.4905 41.6917 42.6794 41.5417 42.8392C41.3917 42.9989 41.2105 43.1262 41.0092 43.213C40.808 43.2998 40.5911 43.3444 40.3719 43.3439C39.9137 43.3387 39.4744 43.16 39.1426 42.8438C38.8109 42.5276 38.6112 42.0974 38.5839 41.6399C38.5703 41.4216 38.6015 41.2027 38.6758 40.9969C38.75 40.7911 38.8657 40.6027 39.0157 40.4434C39.1657 40.284 39.3467 40.1571 39.5476 40.0706C39.7486 39.984 39.9651 39.9395 40.1839 39.9399C40.6421 39.9432 41.0819 40.1208 41.414 40.4365C41.746 40.7522 41.9455 41.1825 41.9719 41.6399Z"
        fill="white"
    />
    <path
        d="M49.684 41.6399C49.6982 41.8586 49.6674 42.0779 49.5934 42.2842C49.5194 42.4905 49.4038 42.6794 49.2538 42.8392C49.1038 42.9989 48.9225 43.1262 48.7213 43.213C48.5201 43.2998 48.3032 43.3444 48.084 43.3439C47.6258 43.3396 47.1865 43.161 46.8552 42.8446C46.5239 42.5281 46.3254 42.0974 46.3 41.6399C46.2863 41.4216 46.3176 41.2027 46.3918 40.9969C46.4661 40.7911 46.5818 40.6027 46.7318 40.4434C46.8817 40.284 47.0628 40.1571 47.2637 40.0706C47.4646 39.984 47.6812 39.9395 47.9 39.9399C48.3572 39.9452 48.7955 40.1235 49.1265 40.4389C49.4575 40.7544 49.6567 41.1835 49.684 41.6399Z"
        fill="white"
    />
    <g opacity="0.6">
        <path
            d="M44.3521 123.428H64.6521L83.2121 37.4399H62.9121L44.3521 123.428Z"
            fill="white"
        />
        <path
            d="M131.712 123.428H136.852L155.412 37.4399H150.272L131.712 123.428Z"
            fill="white"
        />
        <path
            d="M69.1641 123.428H97.9641L116.524 37.4399H87.7241L69.1641 123.428Z"
            fill="white"
        />
    </g>
    <path
        d="M100 171.024C142.833 171.024 177.556 168.997 177.556 166.496C177.556 163.995 142.833 161.968 100 161.968C57.1671 161.968 22.4441 163.995 22.4441 166.496C22.4441 168.997 57.1671 171.024 100 171.024Z"
        fill="#F5F5F5"
    />
    <path
        d="M144.24 105.22H144.096C133.44 104.348 126.096 95.22 125.8 94.852C125.527 94.4789 125.41 94.0147 125.471 93.5568C125.533 93.0988 125.77 92.6826 126.132 92.3954C126.495 92.1083 126.954 91.9726 127.414 92.0167C127.874 92.0608 128.299 92.2813 128.6 92.632C128.684 92.74 134.96 100.476 143.652 101.58C146.452 98.78 148.852 91.388 148.584 89.152C148.584 89.128 148.584 89.108 148.584 89.088C148.528 88.368 148.392 85.888 149.1 84.428C149.333 84.0526 149.697 83.777 150.122 83.6542C150.546 83.5314 151.001 83.5701 151.399 83.763C151.797 83.9558 152.109 84.2891 152.275 84.6985C152.442 85.1079 152.45 85.5644 152.3 85.98C152.124 86.348 152.04 87.672 152.124 88.78C152.524 92.46 149.324 101.748 145.324 104.856C145.012 105.093 144.632 105.221 144.24 105.22Z"
        fill="#263238"
    />
    <path
        d="M59.528 95.5281C55.8472 95.4835 52.2166 94.6673 48.8708 93.1322C45.525 91.5971 42.5384 89.3773 40.104 86.6161C39.8291 86.3097 39.6686 85.9178 39.6496 85.5066C39.6306 85.0954 39.7544 84.6904 40 84.3601C42.888 80.4761 48 71.3041 48.8 68.3161C48.4204 67.5955 47.8468 66.9956 47.144 66.5841C46.863 66.4531 46.621 66.2509 46.4421 65.9976C46.2632 65.7444 46.1535 65.4487 46.124 65.1401L45.836 62.2121C45.8081 61.7505 45.9601 61.2962 46.26 60.9443C46.5599 60.5924 46.9845 60.3704 47.4446 60.3249C47.9047 60.2793 48.3646 60.4138 48.7277 60.7C49.0908 60.9863 49.3289 61.402 49.392 61.8601L49.592 63.8961C50.7744 64.8041 51.7109 65.9936 52.316 67.3561C52.436 67.6413 52.4801 67.9527 52.444 68.2601C52.076 71.4321 46.928 80.6201 43.76 85.2641C51.156 92.6361 59.996 91.9641 60.384 91.9281C60.8501 91.8958 61.3103 92.0472 61.6661 92.3499C62.022 92.6526 62.2452 93.0825 62.2881 93.5477C62.3309 94.0129 62.19 94.4765 61.8955 94.8391C61.6009 95.2017 61.1761 95.4346 60.712 95.4881C60.608 95.4961 60.196 95.5281 59.528 95.5281Z"
        fill="#263238"
    />
    <path
        d="M117.148 166.436H112.348C112.073 166.436 111.801 166.372 111.554 166.25C111.307 166.128 111.092 165.95 110.925 165.731C110.758 165.512 110.644 165.257 110.592 164.987C110.54 164.716 110.551 164.437 110.624 164.172C111.876 159.676 112.492 156.016 112.952 150.288C111.256 142.288 109.66 135.004 109.644 134.932C109.557 134.475 109.652 134.001 109.909 133.613C110.166 133.225 110.564 132.952 111.019 132.852C111.473 132.753 111.949 132.834 112.345 133.08C112.74 133.326 113.024 133.716 113.136 134.168C113.136 134.24 114.784 141.712 116.5 149.8C116.537 149.968 116.548 150.141 116.532 150.312C116.132 155.456 115.608 159.012 114.664 162.864H117.136C117.595 162.886 118.028 163.083 118.345 163.416C118.663 163.748 118.84 164.19 118.84 164.65C118.84 165.109 118.663 165.551 118.345 165.884C118.028 166.217 117.595 166.414 117.136 166.436H117.148Z"
        fill="#263238"
    />
    <path
        d="M80.1281 166.436H77.4241C77.1686 166.437 76.9158 166.383 76.6831 166.277C76.4504 166.172 76.2431 166.017 76.0753 165.824C75.9076 165.632 75.7833 165.405 75.711 165.16C75.6386 164.915 75.6199 164.657 75.6561 164.404C76.1161 161.124 78.4561 155.152 80.9761 149.148C81.8681 141.228 82.5961 134.428 82.6041 134.348C82.6239 134.11 82.6913 133.878 82.8023 133.666C82.9134 133.454 83.0659 133.266 83.2507 133.114C83.4355 132.963 83.6489 132.849 83.8783 132.781C84.1077 132.713 84.3484 132.692 84.5861 132.719C84.8238 132.746 85.0538 132.82 85.2623 132.937C85.4708 133.054 85.6537 133.212 85.8001 133.402C85.9465 133.591 86.0534 133.807 86.1146 134.039C86.1758 134.27 86.1899 134.511 86.1561 134.748C86.1561 134.816 85.4041 141.772 84.4961 149.808C84.4776 149.976 84.4345 150.141 84.3681 150.296C82.5961 154.548 80.5721 159.556 79.6481 162.872H80.1281C80.3698 162.861 80.6112 162.898 80.8379 162.983C81.0645 163.068 81.2717 163.197 81.4467 163.364C81.6218 163.531 81.7611 163.732 81.8564 163.954C81.9516 164.177 82.0007 164.416 82.0007 164.658C82.0007 164.9 81.9516 165.139 81.8564 165.362C81.7611 165.584 81.6218 165.785 81.4467 165.952C81.2717 166.119 81.0645 166.249 80.8379 166.333C80.6112 166.418 80.3698 166.455 80.1281 166.444V166.436Z"
        fill="#263238"
    />
    <path
        d="M81.6841 44.3999L60.8601 65.2279C59.8121 88.3119 59.8961 112.56 60.8601 137.7H129.724C128.36 105.26 128.232 74.0319 129.724 44.3999H81.6841Z"
        fill="white"
    />
    <path
        d="M129.724 138.052H60.8599C60.7672 138.052 60.6779 138.016 60.6109 137.952C60.5438 137.888 60.5041 137.801 60.4999 137.708C59.5039 111.6 59.5039 87.2 60.4999 65.2C60.5053 65.1106 60.5438 65.0265 60.6079 64.964L81.4319 44.136C81.465 44.1029 81.5043 44.0768 81.5476 44.0589C81.5908 44.0411 81.6372 44.0319 81.6839 44.032H129.724C129.773 44.0321 129.821 44.0421 129.865 44.0614C129.91 44.0806 129.95 44.1087 129.984 44.144C130.017 44.1789 130.043 44.2204 130.06 44.2659C130.076 44.3113 130.083 44.3597 130.08 44.408C128.644 72.944 128.644 103.452 130.08 137.676C130.082 137.724 130.074 137.771 130.056 137.816C130.039 137.861 130.013 137.902 129.98 137.936C129.948 137.972 129.908 138.001 129.864 138.021C129.82 138.041 129.772 138.052 129.724 138.052ZM61.1999 137.336H129.352C127.936 103.392 127.932 73.1 129.352 44.748H81.8319L61.1999 65.372C60.2199 87.228 60.2199 111.436 61.1999 137.336Z"
        fill="#263238"
    />
    <path
        d="M85.7121 87.6761C85.6321 85.9321 84.6441 84.5561 83.5001 84.5961C82.3561 84.6361 81.5001 86.0801 81.5721 87.8241C81.6441 89.5681 82.6401 90.9441 83.7841 90.9001C84.9281 90.8561 85.7921 89.4161 85.7121 87.6761Z"
        fill="#407BFF"
    />
    <path
        d="M109.86 87.1281C109.78 85.3881 108.792 84.0121 107.648 84.0521C106.504 84.0921 105.648 85.5361 105.72 87.2801C105.792 89.0241 106.792 90.4001 107.932 90.3561C109.072 90.3121 109.94 88.8721 109.86 87.1281Z"
        fill="#407BFF"
    />
    <path
        d="M91.7401 94.8001C93.5855 94.1107 95.5512 93.8014 97.5192 93.8908C99.4871 93.9801 101.417 94.4663 103.192 95.3201C103.251 95.3526 103.303 95.3964 103.345 95.4491C103.386 95.5019 103.417 95.5623 103.436 95.6271C103.454 95.6918 103.459 95.7596 103.451 95.8263C103.443 95.8931 103.421 95.9576 103.388 96.0161C103.32 96.1337 103.209 96.2201 103.078 96.2567C102.947 96.2933 102.807 96.2773 102.688 96.2121C102.628 96.1801 96.9281 93.1081 90.1241 96.6121C90.0027 96.6734 89.8623 96.6852 89.7324 96.6449C89.6025 96.6045 89.4934 96.5153 89.4281 96.3961C89.397 96.3365 89.378 96.2714 89.3722 96.2045C89.3665 96.1375 89.374 96.0701 89.3945 96.0061C89.415 95.9422 89.4479 95.8829 89.4914 95.8317C89.535 95.7805 89.5882 95.7385 89.6481 95.7081C90.3239 95.358 91.0229 95.0547 91.7401 94.8001Z"
        fill="#407BFF"
    />
    <path
        d="M82.2559 71.336C82.4334 71.3409 82.6067 71.3904 82.7599 71.48C82.9938 71.6185 83.1636 71.8436 83.2325 72.1064C83.3014 72.3693 83.2638 72.6487 83.1279 72.884C82.3319 74.3027 81.2054 75.5085 79.8441 76.3991C78.4828 77.2897 76.9267 77.8389 75.3079 78C75.0358 78.0109 74.7703 77.9142 74.5689 77.7308C74.3675 77.5474 74.2465 77.292 74.2319 77.02C74.226 76.8861 74.2466 76.7522 74.2925 76.6262C74.3384 76.5002 74.4086 76.3845 74.4993 76.2856C74.5899 76.1868 74.6992 76.1068 74.8208 76.0503C74.9424 75.9937 75.074 75.9617 75.2079 75.956C75.3639 75.956 79.0559 75.724 81.3519 71.848C81.4419 71.6887 81.5736 71.5568 81.7329 71.4666C81.8922 71.3764 82.073 71.3313 82.2559 71.336Z"
        fill="#407BFF"
    />
    <path
        d="M106.42 70.7479C106.587 70.715 106.76 70.7241 106.922 70.7743C107.085 70.8246 107.233 70.9145 107.352 71.0359C110.552 74.2359 114.208 73.5919 114.36 73.5639C114.625 73.5163 114.897 73.573 115.121 73.7221C115.345 73.8713 115.502 74.1013 115.56 74.3639C115.587 74.4953 115.587 74.6307 115.561 74.7622C115.536 74.8938 115.484 75.0189 115.41 75.1305C115.335 75.242 115.24 75.3378 115.128 75.4122C115.017 75.4865 114.892 75.5381 114.76 75.5639C114.56 75.5999 109.904 76.4879 105.876 72.4639C105.744 72.3337 105.651 72.1701 105.606 71.9906C105.56 71.8112 105.565 71.6228 105.619 71.4458C105.673 71.2687 105.774 71.1098 105.912 70.9861C106.049 70.8624 106.218 70.7787 106.4 70.7439L106.42 70.7479Z"
        fill="#407BFF"
    />
    <path
        opacity="0.2"
        d="M83.6 67.0761C81.564 61.5201 79.528 52.6281 81.676 44.3921L60.8521 65.2201C66.7441 67.2001 76.128 68.0441 83.6 67.0761Z"
        fill="black"
    />
    <path
        d="M81.6841 65.2201C79.4001 58.4761 80.3321 49.3081 81.6841 44.3921L60.8601 65.2201C67.1641 66.3681 74.2081 66.1841 81.6841 65.2201Z"
        fill="white"
    />
    <path
        d="M70.4 66.3681C67.1824 66.392 63.9693 66.1243 60.8 65.5681C60.7357 65.5576 60.6756 65.5293 60.6263 65.4866C60.5771 65.4438 60.5407 65.3883 60.5212 65.326C60.5017 65.2638 60.4999 65.1974 60.5159 65.1342C60.532 65.071 60.5652 65.0135 60.612 64.9681L81.436 44.1401C81.4915 44.0837 81.5643 44.0473 81.6428 44.0368C81.7213 44.0263 81.801 44.0423 81.8694 44.0823C81.9378 44.1222 81.9909 44.1838 82.0204 44.2573C82.0498 44.3308 82.0539 44.412 82.032 44.4881C80.776 49.0641 79.732 58.3281 82.032 65.1041C82.0479 65.1545 82.053 65.2076 82.0468 65.26C82.0406 65.3124 82.0233 65.3629 81.996 65.4081C81.9686 65.4531 81.9312 65.4912 81.8869 65.5196C81.8426 65.548 81.7923 65.5659 81.74 65.5721C77.9809 66.0796 74.1932 66.3454 70.4 66.3681ZM61.6 64.9841C67.136 65.9001 73.564 65.8801 81.2 64.9201C79.316 58.9441 79.744 51.0361 81.008 45.5601L61.6 64.9841Z"
        fill="#263238"
    />
    <path
        d="M153.24 95.6439C153.108 95.6438 152.981 95.6002 152.876 95.5199C152.772 95.4396 152.698 95.3271 152.664 95.1999L146.528 72.4479C146.488 72.2946 146.51 72.1316 146.59 71.9947C146.67 71.8578 146.801 71.7582 146.954 71.7179C147.107 71.6776 147.27 71.6998 147.407 71.7797C147.544 71.8596 147.644 71.9906 147.684 72.1439L153.82 94.8959C153.84 94.9718 153.844 95.0509 153.834 95.1286C153.823 95.2063 153.797 95.2811 153.757 95.3488C153.717 95.4164 153.665 95.4755 153.602 95.5227C153.539 95.57 153.468 95.6043 153.392 95.6239C153.343 95.6387 153.291 95.6454 153.24 95.6439Z"
        fill="#263238"
    />
    <path
        d="M158.678 66.7653L134.616 73.0777C133.496 73.3715 132.827 74.5173 133.121 75.637L134.629 81.3865C134.923 82.5062 136.068 83.1757 137.188 82.882L161.25 76.5695C162.37 76.2757 163.039 75.1299 162.745 74.0102L161.237 68.2608C160.943 67.1411 159.797 66.4715 158.678 66.7653Z"
        fill="#407BFF"
    />
    <path
        d="M136.86 75.1761L140.152 74.3201L140.372 75.1681L138.312 75.7041L138.476 76.3361L140.4 75.8401L140.612 76.6401L138.7 77.1401L138.904 77.9201L141.024 77.3721L141.256 78.2721L137.908 79.1441L136.86 75.1761Z"
        fill="white"
    />
    <path
        d="M141.924 78.1041L140.888 74.1281L142.936 73.5961C143.227 73.5093 143.529 73.4662 143.832 73.4681C144.046 73.4794 144.251 73.5625 144.412 73.7041C144.571 73.8553 144.689 74.0457 144.752 74.2562C144.815 74.4667 144.822 74.69 144.772 74.9041C144.721 75.0905 144.622 75.2602 144.484 75.3961C144.366 75.5067 144.231 75.5972 144.084 75.6641C144.195 75.6591 144.306 75.6763 144.411 75.7148C144.515 75.7532 144.611 75.8122 144.692 75.8881C144.777 75.9484 144.857 76.0153 144.932 76.0881L145.824 77.0841L144.436 77.4481L143.472 76.4001C143.391 76.2971 143.288 76.2126 143.172 76.1521C143.065 76.1181 142.951 76.1181 142.844 76.1521L142.736 76.1801L143.156 77.7801L141.924 78.1041ZM142.54 75.4161L143.06 75.2841C143.168 75.2468 143.272 75.1999 143.372 75.1441C143.447 75.109 143.506 75.0458 143.536 74.9681C143.577 74.8753 143.581 74.7704 143.548 74.6745C143.514 74.5787 143.446 74.4992 143.356 74.4521C143.198 74.4021 143.029 74.4021 142.872 74.4521L142.332 74.5921L142.54 75.4161Z"
        fill="white"
    />
    <path
        d="M146.24 76.98L145.2 73.004L147.248 72.472C147.539 72.3871 147.841 72.344 148.144 72.344C148.357 72.3556 148.56 72.4387 148.72 72.58C148.898 72.7358 149.022 72.9447 149.072 73.176C149.128 73.3748 149.128 73.5852 149.072 73.784C149.02 73.9679 148.922 74.1357 148.788 74.272C148.669 74.3817 148.534 74.4734 148.388 74.544C148.509 74.5452 148.629 74.5655 148.744 74.604C148.833 74.6481 148.918 74.7018 148.996 74.764C149.08 74.824 149.159 74.8909 149.232 74.964L150.128 75.964L148.74 76.324L147.768 75.28C147.686 75.1759 147.582 75.0912 147.464 75.032C147.359 74.998 147.245 74.998 147.14 75.032L147.032 75.06L147.452 76.66L146.24 76.98ZM146.86 74.296L147.38 74.16C147.486 74.1216 147.589 74.0748 147.688 74.02C147.726 74.0032 147.761 73.979 147.79 73.9488C147.818 73.9186 147.841 73.883 147.856 73.844C147.896 73.7517 147.899 73.6477 147.866 73.5528C147.833 73.4579 147.765 73.3791 147.676 73.332C147.518 73.2781 147.346 73.2781 147.188 73.332L146.652 73.472L146.86 74.296Z"
        fill="white"
    />
    <path
        d="M149.78 73.94C149.681 73.6706 149.642 73.3826 149.667 73.0966C149.693 72.8106 149.781 72.5338 149.926 72.286C150.071 72.0382 150.269 71.8255 150.506 71.6633C150.743 71.5012 151.012 71.3935 151.296 71.348C151.569 71.2585 151.857 71.2245 152.144 71.2479C152.43 71.2712 152.709 71.3515 152.964 71.484C153.201 71.6356 153.405 71.8335 153.564 72.0658C153.722 72.2981 153.833 72.5601 153.888 72.836C154.003 73.2254 154.025 73.6365 153.952 74.036C153.876 74.37 153.702 74.6737 153.452 74.908C153.157 75.1723 152.799 75.3568 152.412 75.444C152.033 75.5563 151.634 75.5809 151.244 75.516C150.904 75.4469 150.593 75.2768 150.352 75.028C150.069 74.722 149.872 74.3467 149.78 73.94ZM151.008 73.628C151.06 73.9385 151.219 74.2212 151.456 74.428C151.556 74.4908 151.668 74.5326 151.784 74.5508C151.901 74.5691 152.02 74.5635 152.135 74.5343C152.249 74.5052 152.357 74.453 152.45 74.3811C152.544 74.3092 152.622 74.219 152.68 74.116C152.781 73.7957 152.772 73.451 152.656 73.136C152.605 72.8381 152.449 72.5683 152.216 72.376C152.117 72.3098 152.005 72.2665 151.887 72.2492C151.77 72.2319 151.65 72.2411 151.536 72.276C151.422 72.3012 151.315 72.3521 151.223 72.4249C151.132 72.4977 151.058 72.5904 151.008 72.696C150.901 72.9974 150.901 73.3266 151.008 73.628Z"
        fill="white"
    />
    <path
        d="M155.092 74.676L154.056 70.704L156.104 70.172C156.394 70.0829 156.697 70.0398 157 70.044C157.215 70.0544 157.419 70.1376 157.58 70.28C157.74 70.4307 157.858 70.6212 157.92 70.8319C157.983 71.0427 157.988 71.2663 157.936 71.48C157.884 71.6651 157.786 71.8343 157.652 71.972C157.534 72.0826 157.399 72.1731 157.252 72.24C157.375 72.2442 157.496 72.2657 157.612 72.304C157.701 72.3459 157.784 72.3983 157.86 72.46C157.945 72.5201 158.024 72.5885 158.096 72.664L158.992 73.66L157.604 74.024L156.632 72.98C156.549 72.8761 156.446 72.7903 156.328 72.728C156.223 72.6958 156.11 72.6958 156.004 72.728L155.896 72.756L156.316 74.356L155.092 74.676ZM155.708 71.992L156.228 71.86C156.335 71.8209 156.44 71.7741 156.54 71.72C156.615 71.6836 156.673 71.6209 156.704 71.544C156.745 71.4512 156.749 71.3463 156.716 71.2505C156.683 71.1546 156.614 71.0751 156.524 71.028C156.367 70.9761 156.197 70.9761 156.04 71.028L155.5 71.168L155.708 71.992Z"
        fill="white"
    />
</svg>