<svg width="61" height="60" viewBox="0 0 61 60" fill="none" xmlns="http://www.w3.org/2000/svg">
<path d="M16.5 9H51C54.5 9 56.25 10.75 56.25 14.25V42.75C56.25 46.25 54.5 48 51 48H16.5C13 48 11.25 46.25 11.25 42.75V14.25C11.25 10.75 13 9 16.5 9Z" fill="#FF9C55"/>
<path d="M16.7898 14.8429L47.7905 10.6726C50.9355 10.2495 52.7198 11.6123 53.1434 14.7608L56.5923 40.3991C57.0159 43.5477 55.6551 45.3335 52.5101 45.7566L21.5094 49.9269C18.3644 50.35 16.5801 48.9872 16.1565 45.8387L12.7076 20.2004C12.284 17.0518 13.6448 15.266 16.7898 14.8429Z" fill="white"/>
<path d="M2.25 11.3333C2.25 9.91879 2.81189 8.56225 3.81207 7.56207C4.81225 6.56189 6.16878 6 7.58325 6H23.1675C24.326 6.00007 25.4529 6.37733 26.3779 7.07474C27.3029 7.77215 27.9757 8.75178 28.2945 9.8655L29.733 14.8883H53.9175C54.6179 14.8884 55.3115 15.0264 55.9585 15.2946C56.6056 15.5627 57.1935 15.9557 57.6887 16.4511C58.1839 16.9465 58.5766 17.5346 58.8445 18.1818C59.1124 18.829 59.2502 19.5226 59.25 20.223V48.6675C59.2498 50.0818 58.6878 51.4382 57.6876 52.4382C56.6875 53.4382 55.3311 54 53.9167 54H7.5825C6.16816 53.9998 4.81182 53.4378 3.81181 52.4377C2.81179 51.4375 2.25 50.0811 2.25 48.6668V11.3325V11.3333Z" fill="#FFD977"/>
<path d="M9.75 39H14.25C15.25 39 15.75 39.5 15.75 40.5C15.75 41.5 15.25 42 14.25 42H9.75C8.75 42 8.25 41.5 8.25 40.5C8.25 39.5 8.75 39 9.75 39Z" fill="#FFF1C9"/>
<path d="M9.75 45H20.25C21.25 45 21.75 45.5 21.75 46.5C21.75 47.5 21.25 48 20.25 48H9.75C8.75 48 8.25 47.5 8.25 46.5C8.25 45.5 8.75 45 9.75 45Z" fill="#FFF1C9"/>
<path d="M11.25 28.5C13.25 28.5 14.25 29.5 14.25 31.5C14.25 33.5 13.25 34.5 11.25 34.5C9.25 34.5 8.25 33.5 8.25 31.5C8.25 29.5 9.25 28.5 11.25 28.5Z" fill="#FFA86A"/>
</svg>
