<svg width="16" height="16" viewBox="0 0 16 16" fill="none" xmlns="http://www.w3.org/2000/svg">
<path d="M10.6667 12C11.0203 12 11.3594 12.1404 11.6095 12.3905C11.8595 12.6405 12 12.9797 12 13.3333C12 12.9797 12.1405 12.6405 12.3905 12.3905C12.6406 12.1404 12.9797 12 13.3333 12C12.9797 12 12.6406 11.8595 12.3905 11.6094C12.1405 11.3594 12 11.0202 12 10.6666C12 11.0202 11.8595 11.3594 11.6095 11.6094C11.3594 11.8595 11.0203 12 10.6667 12ZM10.6667 3.99996C11.0203 3.99996 11.3594 4.14043 11.6095 4.39048C11.8595 4.64053 12 4.97967 12 5.33329C12 4.97967 12.1405 4.64053 12.3905 4.39048C12.6406 4.14043 12.9797 3.99996 13.3333 3.99996C12.9797 3.99996 12.6406 3.85948 12.3905 3.60944C12.1405 3.35939 12 3.02025 12 2.66663C12 3.02025 11.8595 3.35939 11.6095 3.60944C11.3594 3.85948 11.0203 3.99996 10.6667 3.99996ZM6 12C6 10.9391 6.42143 9.92168 7.17157 9.17153C7.92172 8.42139 8.93913 7.99996 10 7.99996C8.93913 7.99996 7.92172 7.57853 7.17157 6.82839C6.42143 6.07824 6 5.06083 6 3.99996C6 5.06083 5.57857 6.07824 4.82843 6.82839C4.07828 7.57853 3.06087 7.99996 2 7.99996C3.06087 7.99996 4.07828 8.42139 4.82843 9.17153C5.57857 9.92168 6 10.9391 6 12Z" fill="url(#paint0_linear_1_219330)" stroke="url(#paint1_linear_1_219330)" stroke-width="1.5" stroke-linecap="round" stroke-linejoin="round"/>
<defs>
<linearGradient id="paint0_linear_1_219330" x1="2.61446" y1="3.28572" x2="13.2567" y2="12.2372" gradientUnits="userSpaceOnUse">
<stop stop-color="#3F8FFF"/>
<stop offset="1" stop-color="#EF2FDF"/>
</linearGradient>
<linearGradient id="paint1_linear_1_219330" x1="2.61446" y1="3.28572" x2="13.2567" y2="12.2372" gradientUnits="userSpaceOnUse">
<stop stop-color="#3F8FFF"/>
<stop offset="1" stop-color="#EF2FDF"/>
</linearGradient>
</defs>
</svg>
