<svg width="16" height="16" viewBox="0 0 16 16" fill="none" xmlns="http://www.w3.org/2000/svg">
<path d="M6.40992 13.3334H4.66659C4.31296 13.3334 3.97382 13.1929 3.72378 12.9428C3.47373 12.6928 3.33325 12.3536 3.33325 12V4.00002C3.33325 3.6464 3.47373 3.30726 3.72378 3.05721C3.97382 2.80716 4.31296 2.66669 4.66659 2.66669H9.99992C10.3535 2.66669 10.6927 2.80716 10.9427 3.05721C11.1928 3.30726 11.3333 3.6464 11.3333 4.00002V5.00006" stroke="#1C1D23" stroke-opacity="0.6" stroke-linecap="round" stroke-linejoin="round"/>
<path d="M11.3 14C11.476 13.2725 11.8492 12.6076 12.3784 12.0784C12.9077 11.5491 13.5726 11.176 14.3 11C13.5726 10.824 12.9077 10.4509 12.3784 9.92165C11.8492 9.39239 11.476 8.72749 11.3 8C11.1241 8.72749 10.7509 9.39239 10.2217 9.92165C9.69244 10.4509 9.02754 10.824 8.30005 11C9.02754 11.176 9.69244 11.5491 10.2217 12.0784C10.7509 12.6076 11.1241 13.2725 11.3 14Z" stroke="#1C1D23" stroke-opacity="0.6" stroke-linecap="round" stroke-linejoin="round"/>
<path d="M6 5.33331H8.66667" stroke="#1C1D23" stroke-opacity="0.6" stroke-linecap="round" stroke-linejoin="round"/>
<path d="M6 8H7.33333" stroke="#1C1D23" stroke-opacity="0.6" stroke-linecap="round" stroke-linejoin="round"/>
</svg>
