<svg
    xmlns="http://www.w3.org/2000/svg"
    width="20"
    height="20"
    viewBox="0 0 20 20"
    fill="none"
>
    <g clipPath="url(#clip0_28008_133161)">
        <path
            d="M4.37957 0H15.6204C18.5401 0 20 1.45986 20 4.37957V15.6204C20 18.5401 18.5401 20 15.6204 20H4.37957C1.45986 20 0 18.5401 0 15.6204V4.37957C0 1.45986 1.45986 0 4.37957 0Z"
            fill="#D4E4E9"
        />
        <path
            d="M4.61394 0.999756H15.3856C17.795 0.999756 18.9998 2.20448 18.9998 4.61394V15.3856C18.9998 17.795 17.795 18.9998 15.3856 18.9998H4.61394C2.20448 18.9998 0.999756 17.795 0.999756 15.3856V4.61394C0.999756 2.20448 2.20448 0.999756 4.61394 0.999756Z"
            fill="black"
        />
        <path
            d="M4.26367 2H15.7354C17.2448 2 17.9995 2.75472 17.9995 4.26416V15.7358C17.9995 17.2453 17.2448 18 15.7354 18H4.26367C2.75423 18 1.99951 17.2453 1.99951 15.7358V4.26416C1.99951 2.75472 2.75423 2 4.26367 2Z"
            fill="#222B2D"
        />
        <path
            d="M4.30079 3.13965H4.67919V3.68623C4.78431 3.69674 4.89292 3.71775 5.00503 3.7493C5.12171 3.78268 5.23447 3.82849 5.34138 3.88594L5.18897 4.29063C4.95073 4.16447 4.71772 4.10141 4.48999 4.10141C4.33233 4.10141 4.20269 4.13645 4.10108 4.20652C4.00298 4.2766 3.95394 4.38172 3.95394 4.52186C3.95394 4.65148 3.99772 4.74783 4.08532 4.81092C4.17642 4.87047 4.30255 4.92652 4.46372 4.97908L4.70548 5.05791C4.97524 5.14551 5.17847 5.26287 5.31511 5.41002C5.45524 5.55717 5.52532 5.74463 5.52532 5.97236C5.52532 6.0985 5.50255 6.2141 5.457 6.31924C5.41056 6.4221 5.34451 6.51491 5.26255 6.5925C5.18196 6.66959 5.08562 6.73266 4.97349 6.7817C4.86138 6.83076 4.737 6.86229 4.60036 6.87631V7.44389H4.22194V6.87631C4.06429 6.86928 3.92413 6.84652 3.80151 6.80799C3.67888 6.76943 3.55101 6.71338 3.41786 6.6398L3.60706 6.23512C3.7472 6.31922 3.88384 6.37703 4.01698 6.40855C4.15362 6.4401 4.278 6.45586 4.39013 6.45586C4.56532 6.45586 4.7072 6.41908 4.81581 6.34551C4.92442 6.27191 4.97874 6.16156 4.97874 6.01439C4.97874 5.88477 4.93319 5.7849 4.8421 5.71484C4.75101 5.64127 4.61085 5.57469 4.42165 5.51514L4.16938 5.43105C4.06254 5.39817 3.95879 5.35596 3.85933 5.30492C3.77138 5.25813 3.69007 5.1998 3.61757 5.13148C3.55081 5.06111 3.49739 4.9792 3.45991 4.88973C3.42136 4.79863 3.4021 4.69527 3.4021 4.57967C3.4021 4.31689 3.48442 4.10842 3.64909 3.95426C3.81378 3.7966 4.03101 3.70725 4.30077 3.68623V3.13965H4.30079Z"
            fill="#6BE34D"
        />
        <path
            d="M6.49658 3.13843H8.68637V7.37202H6.49658V3.13843Z"
            fill="#35712C"
        />
    </g>
    <defs>
        <clipPath id="clip0_28008_133161">
            <rect width="20" height="20" fill="white" />
        </clipPath>
    </defs>
</svg>