<svg width="20" height="20" viewBox="0 0 20 20" fill="none" xmlns="http://www.w3.org/2000/svg">
<rect width="20" height="20" rx="4" fill="url(#paint0_linear_27875_213713)"/>
<path d="M8.83333 14.0832C8.83333 13.7738 8.71042 13.477 8.49162 13.2582C8.27283 13.0394 7.97609 12.9165 7.66667 12.9165C7.35725 12.9165 7.0605 13.0394 6.84171 13.2582C6.62292 13.477 6.5 13.7738 6.5 14.0832C6.5 14.3926 6.62292 14.6893 6.84171 14.9081C7.0605 15.1269 7.35725 15.2498 7.66667 15.2498C7.97609 15.2498 8.27283 15.1269 8.49162 14.9081C8.71042 14.6893 8.83333 14.3926 8.83333 14.0832Z" stroke="white" stroke-linecap="round" stroke-linejoin="round"/>
<path d="M13.4998 5.91667C13.4998 5.60725 13.3769 5.3105 13.1581 5.09171C12.9393 4.87292 12.6426 4.75 12.3332 4.75C12.0238 4.75 11.727 4.87292 11.5082 5.09171C11.2894 5.3105 11.1665 5.60725 11.1665 5.91667C11.1665 6.22609 11.2894 6.52283 11.5082 6.74162C11.727 6.96042 12.0238 7.08333 12.3332 7.08333C12.6426 7.08333 12.9393 6.96042 13.1581 6.74162C13.3769 6.52283 13.4998 6.22609 13.4998 5.91667Z" stroke="white" stroke-linecap="round" stroke-linejoin="round"/>
<path d="M8.83333 5.91667C8.83333 5.60725 8.71042 5.3105 8.49162 5.09171C8.27283 4.87292 7.97609 4.75 7.66667 4.75C7.35725 4.75 7.0605 4.87292 6.84171 5.09171C6.62292 5.3105 6.5 5.60725 6.5 5.91667C6.5 6.22609 6.62292 6.52283 6.84171 6.74162C7.0605 6.96042 7.35725 7.08333 7.66667 7.08333C7.97609 7.08333 8.27283 6.96042 8.49162 6.74162C8.71042 6.52283 8.83333 6.22609 8.83333 5.91667Z" stroke="white" stroke-linecap="round" stroke-linejoin="round"/>
<path d="M6.49984 10.0002C6.49984 9.69074 6.37692 9.394 6.15813 9.17521C5.93934 8.95641 5.64259 8.8335 5.33317 8.8335C5.02375 8.8335 4.72701 8.95641 4.50821 9.17521C4.28942 9.394 4.1665 9.69074 4.1665 10.0002C4.1665 10.3096 4.28942 10.6063 4.50821 10.8251C4.72701 11.0439 5.02375 11.1668 5.33317 11.1668C5.64259 11.1668 5.93934 11.0439 6.15813 10.8251C6.37692 10.6063 6.49984 10.3096 6.49984 10.0002Z" stroke="white" stroke-linecap="round" stroke-linejoin="round"/>
<path d="M13.4998 14.0832C13.4998 13.7738 13.3769 13.477 13.1581 13.2582C12.9393 13.0394 12.6426 12.9165 12.3332 12.9165C12.0238 12.9165 11.727 13.0394 11.5082 13.2582C11.2894 13.477 11.1665 13.7738 11.1665 14.0832C11.1665 14.3926 11.2894 14.6893 11.5082 14.9081C11.727 15.1269 12.0238 15.2498 12.3332 15.2498C12.6426 15.2498 12.9393 15.1269 13.1581 14.9081C13.3769 14.6893 13.4998 14.3926 13.4998 14.0832Z" stroke="white" stroke-linecap="round" stroke-linejoin="round"/>
<path d="M11.1668 10.0002C11.1668 9.69074 11.0439 9.394 10.8251 9.17521C10.6063 8.95641 10.3096 8.8335 10.0002 8.8335C9.69074 8.8335 9.394 8.95641 9.17521 9.17521C8.95641 9.394 8.8335 9.69074 8.8335 10.0002C8.8335 10.3096 8.95641 10.6063 9.17521 10.8251C9.394 11.0439 9.69074 11.1668 10.0002 11.1668C10.3096 11.1668 10.6063 11.0439 10.8251 10.8251C11.0439 10.6063 11.1668 10.3096 11.1668 10.0002Z" stroke="white" stroke-linecap="round" stroke-linejoin="round"/>
<path d="M15.8333 10.0002C15.8333 9.69074 15.7104 9.394 15.4916 9.17521C15.2728 8.95641 14.9761 8.8335 14.6667 8.8335C14.3572 8.8335 14.0605 8.95641 13.8417 9.17521C13.6229 9.394 13.5 9.69074 13.5 10.0002C13.5 10.3096 13.6229 10.6063 13.8417 10.8251C14.0605 11.0439 14.3572 11.1668 14.6667 11.1668C14.9761 11.1668 15.2728 11.0439 15.4916 10.8251C15.7104 10.6063 15.8333 10.3096 15.8333 10.0002Z" stroke="white" stroke-linecap="round" stroke-linejoin="round"/>
<path d="M6.5 10H8.83333" stroke="white" stroke-linecap="round" stroke-linejoin="round"/>
<path d="M11.1665 10H13.4998" stroke="white" stroke-linecap="round" stroke-linejoin="round"/>
<path d="M11.7502 7.0835L10.5835 8.8335" stroke="white" stroke-linecap="round" stroke-linejoin="round"/>
<path d="M8.25 7.0835L9.41667 8.8335" stroke="white" stroke-linecap="round" stroke-linejoin="round"/>
<path d="M9.41667 11.1665L8.25 12.9165" stroke="white" stroke-linecap="round" stroke-linejoin="round"/>
<path d="M10.5835 11.1665L11.7502 12.9165" stroke="white" stroke-linecap="round" stroke-linejoin="round"/>
<path d="M8.8335 5.9165H11.1668" stroke="white" stroke-linecap="round" stroke-linejoin="round"/>
<path d="M8.8335 14.0835H11.1668" stroke="white" stroke-linecap="round" stroke-linejoin="round"/>
<path d="M12.9165 12.9165L14.0832 11.1665" stroke="white" stroke-linecap="round" stroke-linejoin="round"/>
<path d="M14.0832 8.8335L12.9165 7.0835" stroke="white" stroke-linecap="round" stroke-linejoin="round"/>
<path d="M7.08317 7.0835L5.9165 8.8335" stroke="white" stroke-linecap="round" stroke-linejoin="round"/>
<path d="M5.9165 11.1665L7.08317 12.9165" stroke="white" stroke-linecap="round" stroke-linejoin="round"/>
<defs>
<linearGradient id="paint0_linear_27875_213713" x1="0" y1="10" x2="20" y2="10" gradientUnits="userSpaceOnUse">
<stop stop-color="#4776E6"/>
<stop offset="1" stop-color="#8E54E9"/>
</linearGradient>
</defs>
</svg>
