<svg xmlns="http://www.w3.org/2000/svg" width="18" height="18" viewBox="0 0 18 18" fill="none">
<path d="M8.77074 0.0151367C5.43218 0.0151367 2.72498 2.73699 2.72498 6.09699C2.72498 7.77532 3.40263 9.29551 4.4959 10.3967L8.77073 14.6975L13.0467 10.3967C14.1826 9.25479 14.8191 7.70883 14.8165 6.09813C14.8165 2.73813 12.1104 0.0162441 8.77074 0.0162441V0.0151367ZM8.77074 8.79857C8.41686 8.79769 8.06661 8.72711 7.74 8.59086C7.41339 8.45461 7.11681 8.25537 6.86721 8.0045C6.6176 7.75363 6.41985 7.45606 6.28525 7.12877C6.15065 6.80148 6.08183 6.45088 6.08273 6.09699V6.09476C6.08169 5.74093 6.15037 5.39036 6.28485 5.06307C6.41933 4.73579 6.61697 4.43821 6.86649 4.18733C7.116 3.93645 7.4125 3.73719 7.73905 3.60093C8.06559 3.46467 8.41578 3.39408 8.76962 3.3932H8.77074C9.12463 3.39408 9.47487 3.46467 9.80148 3.60091C10.1281 3.73716 10.4247 3.9364 10.6743 4.18727C10.9239 4.43813 11.1216 4.7357 11.2562 5.06299C11.3908 5.39028 11.4596 5.74088 11.4587 6.09476V6.09701C11.4605 6.81102 11.1788 7.49653 10.6754 8.0029C10.172 8.50926 9.48814 8.79504 8.77414 8.79743H8.77076L8.77074 8.79857ZM6.08273 16.6739C6.08273 16.8223 6.15226 16.9691 6.28734 17.1061C6.42243 17.2432 6.62042 17.3677 6.87003 17.4725C7.11963 17.5774 7.41596 17.6606 7.74208 17.7174C8.0682 17.7741 8.41774 17.8033 8.77073 17.8033C9.12373 17.8033 9.47327 17.7741 9.79939 17.7174C10.1255 17.6606 10.4218 17.5774 10.6714 17.4725C10.921 17.3677 11.119 17.2432 11.2541 17.1061C11.3892 16.9691 11.4587 16.8223 11.4587 16.6739C11.4587 16.3744 11.1755 16.0871 10.6714 15.8753C10.1673 15.6635 9.48364 15.5445 8.77073 15.5445C8.05783 15.5445 7.37413 15.6635 6.87003 15.8753C6.36593 16.0871 6.08273 16.3744 6.08273 16.6739Z" fill="#737373"/>
</svg>
