<svg width="188" height="59" viewBox="0 0 188 59" fill="none" xmlns="http://www.w3.org/2000/svg">
<path d="M50.9791 45.1495C54.2681 45.8257 58.1821 46.2633 63.0012 46.4622L61.3663 50.5994C54.4798 50.2812 49.1276 49.4458 44.6674 47.7352C39.9568 49.1673 34.1765 50.1221 27.158 50.679L26.3844 46.6213C31.3421 46.2633 35.5648 45.6666 39.1726 44.8312C37.418 43.6378 35.8085 42.2057 34.3083 40.4951C32.3513 41.609 30.2467 42.6035 27.9064 43.5582L27.1221 39.2221C31.5252 37.6707 35.3193 35.4429 38.1487 32.4991H28.3087L28.3101 28.6802H43.8301L44.0099 26.9696H32.0499L32.0429 23.2302H44.4029L44.5995 21.3605H30.8795L30.8725 17.6211H44.9925L45.3102 14.5977H50.0303L49.7125 17.6211H63.3525L62.9595 21.3605H49.3195L49.1229 23.2302H61.5629L61.1699 26.9696H48.7299L48.5501 28.6802H63.8301L63.4287 32.4991H43.7487C43.1935 33.2152 42.6024 33.8915 41.9713 34.5677H56.8513C59.3313 34.5677 60.4297 36.6761 58.6756 38.9039C56.6922 41.4101 54.1547 43.4787 50.9791 45.1495ZM44.7398 43.24C48.3136 41.967 51.1651 40.336 53.5741 38.3469H37.6541C37.1365 38.705 36.6188 39.063 36.0612 39.421H38.8612C40.5782 40.9725 42.4844 42.2455 44.7398 43.24ZM96.4197 34.4882C98.3397 34.4882 99.4859 35.7612 99.2852 37.6707L98.357 46.502C98.1563 48.4115 96.7425 49.6845 94.8225 49.6845H72.9025C70.9825 49.6845 69.8363 48.4115 70.037 46.502L70.9652 37.6707C71.1659 35.7612 72.5797 34.4882 74.4997 34.4882H96.4197ZM93.129 45.6268C93.489 45.6268 93.754 45.3881 93.7917 45.0301L94.4105 39.1425C94.4481 38.7845 94.2332 38.5458 93.8732 38.5458H76.1932C75.8332 38.5458 75.5681 38.7845 75.5305 39.1425L74.9117 45.0301C74.874 45.3881 75.089 45.6268 75.449 45.6268H93.129ZM88.6606 27.2481H101.221L100.794 31.3057H71.1942L71.2606 27.2481H83.7806L84.2489 22.7926H69.4489L69.5238 18.6554H84.6838L85.1019 14.6773H89.9819L89.5638 18.6554H104.764L104.329 22.7926H89.1289L88.6606 27.2481ZM135.752 37.0342H127.632L127.285 40.336H134.805C135.165 40.336 135.43 40.0973 135.468 39.7393L135.752 37.0342ZM136.162 33.1356L136.442 30.4703C136.48 30.1123 136.265 29.8736 135.905 29.8736H128.385L128.042 33.1356H136.162ZM129.704 17.7007H141.504C143.424 17.7007 144.57 18.9736 144.37 20.8831L143.91 25.259H139.11L139.423 22.2755C139.461 21.9174 139.246 21.6787 138.886 21.6787H114.806C114.446 21.6787 114.181 21.9174 114.143 22.2755L113.83 25.259H109.03L109.49 20.8831C109.69 18.9736 111.104 17.7007 113.024 17.7007H124.904L125.222 14.6773H130.022L129.704 17.7007ZM126.884 44.1549L126.219 50.4801H121.419L122.084 44.1549H112.444C110.364 44.1549 109.361 43.0411 109.578 40.9725L110.812 29.2371C111.029 27.1685 112.266 26.0546 114.346 26.0546H123.986L124.341 22.6733H129.141L128.786 26.0546H138.426C140.506 26.0546 141.509 27.1685 141.292 29.2371L140.058 40.9725C139.841 43.0411 138.604 44.1549 136.524 44.1549H126.884ZM122.485 40.336L122.832 37.0342H114.712L114.428 39.7393C114.39 40.0973 114.605 40.336 114.965 40.336H122.485ZM123.242 33.1356L123.585 29.8736H116.065C115.705 29.8736 115.44 30.1123 115.402 30.4703L115.122 33.1356H123.242ZM176.142 32.1809L174.875 44.2345C174.804 44.9108 175.011 45.229 175.718 45.3484C176.15 45.4279 176.67 45.4279 177.078 45.3484C177.815 45.1892 178.124 44.9108 178.195 44.2345L178.714 39.3017L182.959 40.0177L182.365 45.6666C182.143 47.775 180.841 49.1275 178.679 49.5254C177.13 49.8038 174.61 49.8038 173.079 49.5254C171.001 49.1275 169.703 47.775 169.925 45.6666L173.165 14.8364H177.965L176.343 30.2714C177.961 26.2933 179.327 22.4346 180.463 18.8543H184.903C183.584 23.0313 181.947 27.5663 179.902 32.1809H176.142ZM166.305 29.8736L165.335 39.1028C165.096 41.3703 164.708 43.1604 164.239 44.1947L168.653 42.9217L168.181 47.417L158.516 50.321L158.011 45.9849L159.497 45.5473C159.943 44.3538 160.209 42.9615 160.439 40.7736L163.165 14.8364H167.885L166.74 25.7364H170.62L170.185 29.8736H166.305ZM155.715 35.4827L154.54 46.6611C154.327 48.69 152.44 50.2812 150.311 50.3608C149.067 50.4005 148.084 50.2414 146.802 49.8834L146.156 45.7462C147.043 46.0644 147.946 46.2235 148.75 46.1838C149.475 46.144 149.996 45.7462 150.067 45.0699L150.946 36.7159L147.614 37.5911L147.358 33.1754L151.418 32.2207L152.133 25.4181H149.013L149.048 21.2809H152.568L153.262 14.6773H157.902L157.208 21.2809H160.488L160.053 25.4181H156.773L156.175 31.1068L159.459 30.3112L159.007 34.6075L155.715 35.4827Z" fill="url(#paint0_linear_32841_174641)"/>
<path d="M8.37886 11.8279C8.93573 10.323 11.0643 10.323 11.6211 11.8279L13.3035 16.3744C13.4786 16.8476 13.8516 17.2206 14.3248 17.3957L18.8713 19.0781C20.3762 19.6349 20.3762 21.7635 18.8713 22.3204L14.3248 24.0027C13.8516 24.1778 13.4786 24.5509 13.3035 25.024L11.6211 29.5705C11.0643 31.0755 8.93573 31.0755 8.37886 29.5705L6.69649 25.024C6.52141 24.5509 6.14837 24.1778 5.67522 24.0027L1.12869 22.3204C-0.376231 21.7635 -0.376231 19.6349 1.12869 19.0781L5.67522 17.3957C6.14837 17.2206 6.52141 16.8476 6.69649 16.3744L8.37886 11.8279Z" fill="url(#paint1_linear_32841_174641)"/>
<path d="M24.0839 1.33707C24.3986 0.486601 25.6014 0.486602 25.9161 1.33707L26.691 3.43108C26.7899 3.69846 27.0008 3.90928 27.2681 4.00822L29.3621 4.78307C30.2126 5.09777 30.2126 6.30066 29.3621 6.61537L27.2681 7.39022C27.0008 7.48916 26.7899 7.69997 26.691 7.96736L25.9161 10.0614C25.6014 10.9118 24.3986 10.9118 24.0839 10.0614L23.309 7.96736C23.2101 7.69997 22.9992 7.48916 22.7319 7.39022L20.6379 6.61536C19.7874 6.30066 19.7874 5.09777 20.6379 4.78307L22.7319 4.00822C22.9992 3.90928 23.2101 3.69846 23.309 3.43108L24.0839 1.33707Z" fill="url(#paint2_linear_32841_174641)"/>
<defs>
<linearGradient id="paint0_linear_32841_174641" x1="36.3835" y1="13.4699" x2="66.1818" y2="95.6679" gradientUnits="userSpaceOnUse">
<stop stop-color="#3F8FFF"/>
<stop offset="1" stop-color="#EF2FDF"/>
</linearGradient>
<linearGradient id="paint1_linear_32841_174641" x1="1.08434" y1="11.86" x2="20.7974" y2="27.4659" gradientUnits="userSpaceOnUse">
<stop stop-color="#3F8FFF"/>
<stop offset="1" stop-color="#EF2FDF"/>
</linearGradient>
<linearGradient id="paint2_linear_32841_174641" x1="31.838" y1="5.69922" x2="18.162" y2="5.69922" gradientUnits="userSpaceOnUse">
<stop stop-color="#FFF73F"/>
<stop offset="1" stop-color="#FF5F5F"/>
</linearGradient>
</defs>
</svg>
