<svg width="200" height="200" viewBox="0 0 200 200" fill="none" xmlns="http://www.w3.org/2000/svg">
<path d="M200 152.96H0V153.06H200V152.96Z" fill="#EBEBEB"/>
<path d="M179.961 159.396H166.713V159.496H179.961V159.396Z" fill="#EBEBEB"/>
<path d="M132.488 160.484H129.012V160.584H132.488V160.484Z" fill="#EBEBEB"/>
<path d="M166.313 155.684H158.637V155.784H166.313V155.684Z" fill="#EBEBEB"/>
<path d="M38.2604 156.356H20.9844V156.456H38.2604V156.356Z" fill="#EBEBEB"/>
<path d="M44.3562 156.356H41.8242V156.456H44.3562V156.356Z" fill="#EBEBEB"/>
<path d="M90.0599 158.044H52.5879V158.144H90.0599V158.044Z" fill="#EBEBEB"/>
<path d="M94.7992 135.12H17.5632C16.9581 135.119 16.3782 134.878 15.9508 134.45C15.5233 134.021 15.2832 133.441 15.2832 132.836V24.264C15.2885 23.6624 15.5309 23.0872 15.9578 22.6633C16.3847 22.2394 16.9616 22.001 17.5632 22H94.7992C95.405 22 95.9859 22.2406 96.4142 22.669C96.8426 23.0973 97.0832 23.6782 97.0832 24.284V132.836C97.0832 133.442 96.8426 134.023 96.4142 134.451C95.9859 134.879 95.405 135.12 94.7992 135.12ZM17.5632 22.08C16.9847 22.0811 16.4302 22.3116 16.0215 22.7211C15.6128 23.1306 15.3832 23.6855 15.3832 24.264V132.836C15.3832 133.415 15.6128 133.969 16.0215 134.379C16.4302 134.788 16.9847 135.019 17.5632 135.02H94.7992C95.3781 135.019 95.933 134.789 96.3424 134.379C96.7517 133.97 96.9821 133.415 96.9832 132.836V24.264C96.9821 23.6851 96.7517 23.1302 96.3424 22.7208C95.933 22.3115 95.3781 22.0811 94.7992 22.08H17.5632Z" fill="#EBEBEB"/>
<path d="M181.325 135.12H104.085C103.479 135.119 102.899 134.878 102.471 134.45C102.043 134.022 101.802 133.441 101.801 132.836V24.264C101.807 23.662 102.05 23.0868 102.478 22.663C102.905 22.2392 103.483 22.001 104.085 22H181.325C181.926 22.0021 182.502 22.2409 182.928 22.6647C183.354 23.0885 183.596 23.6631 183.601 24.264V132.836C183.601 133.44 183.361 134.02 182.935 134.448C182.508 134.876 181.929 135.118 181.325 135.12ZM104.085 22.08C103.506 22.0811 102.951 22.3115 102.542 22.7208C102.132 23.1302 101.902 23.6851 101.901 24.264V132.836C101.902 133.415 102.132 133.97 102.542 134.379C102.951 134.789 103.506 135.019 104.085 135.02H181.325C181.904 135.019 182.459 134.789 182.868 134.379C183.277 133.97 183.508 133.415 183.509 132.836V24.264C183.508 23.6851 183.277 23.1302 182.868 22.7208C182.459 22.3115 181.904 22.0811 181.325 22.08H104.085Z" fill="#EBEBEB"/>
<path d="M115.876 69.624H170.988V33.532L115.876 33.532V69.624Z" fill="#E6E6E6"/>
<path d="M114.191 69.624H170.199V33.532L114.191 33.532V69.624Z" fill="#F0F0F0"/>
<path d="M115.876 76.7041H170.988V69.6201H115.876V76.7041Z" fill="#E6E6E6"/>
<path d="M111.396 76.7041H167.404V69.6201H111.396V76.7041Z" fill="#F0F0F0"/>
<path d="M167.848 67.2719V35.8879H116.548V67.2719H167.848Z" fill="#FAFAFA"/>
<path d="M156.28 67.2679L149.728 35.8879H139.504L146.056 67.2679H156.28Z" fill="white"/>
<path d="M166.76 64.928C166.782 64.928 166.804 64.9235 166.825 64.9148C166.846 64.9061 166.864 64.8934 166.88 64.8774C166.896 64.8614 166.908 64.8424 166.916 64.8215C166.924 64.8007 166.928 64.7784 166.928 64.756V37.42C166.928 37.3754 166.91 37.3327 166.879 37.3012C166.847 37.2697 166.804 37.252 166.76 37.252C166.738 37.2515 166.716 37.2554 166.695 37.2637C166.674 37.2719 166.656 37.2843 166.64 37.3C166.624 37.3157 166.612 37.3344 166.604 37.3551C166.595 37.3757 166.591 37.3978 166.592 37.42V64.756C166.591 64.7784 166.595 64.8007 166.603 64.8215C166.612 64.8424 166.624 64.8614 166.64 64.8774C166.655 64.8934 166.674 64.9061 166.695 64.9148C166.715 64.9235 166.737 64.928 166.76 64.928Z" fill="#F0F0F0"/>
<path d="M143.86 67.2679L137.308 35.8879H133.32L139.876 67.2679H143.86Z" fill="white"/>
<path d="M116.848 67.2719V35.8879H116.548V67.2719H116.848Z" fill="#E6E6E6"/>
<path opacity="0.6" d="M113.641 39.436H168.753L168.969 36.8H113.857L113.641 39.436Z" fill="#EBEBEB"/>
<path opacity="0.6" d="M113.641 43.756H168.753L168.969 41.124H113.857L113.641 43.756Z" fill="#EBEBEB"/>
<path opacity="0.6" d="M113.641 48.0761H168.753L168.969 45.4441H113.857L113.641 48.0761Z" fill="#EBEBEB"/>
<path opacity="0.6" d="M113.641 52.3999H168.753L168.969 49.7639H113.857L113.641 52.3999Z" fill="#EBEBEB"/>
<path opacity="0.6" d="M113.641 56.72H168.753L168.969 54.084H113.857L113.641 56.72Z" fill="#EBEBEB"/>
<path opacity="0.6" d="M113.641 61.0401H168.753L168.969 58.4041H113.857L113.641 61.0401Z" fill="#EBEBEB"/>
<path d="M163.076 126.712H151.52V128.992H163.076V126.712Z" fill="#E6E6E6"/>
<path d="M129.723 152.96H131.855V100.532H129.723V152.96Z" fill="#E6E6E6"/>
<path d="M122.332 128.992H151.516V126.712H122.332V128.992Z" fill="#F5F5F5"/>
<path d="M163.076 139.18H151.52V141.46H163.076V139.18Z" fill="#E6E6E6"/>
<path d="M122.332 141.456H151.516V139.176H122.332V141.456Z" fill="#F5F5F5"/>
<path d="M163.076 101.78H151.52V104.06H163.076V101.78Z" fill="#E6E6E6"/>
<path d="M122.332 104.056H151.516V101.776H122.332V104.056Z" fill="#F5F5F5"/>
<path d="M163.076 114.244H151.52V116.524H163.076V114.244Z" fill="#E6E6E6"/>
<path d="M122.332 116.524H151.516V114.244H122.332V116.524Z" fill="#F5F5F5"/>
<path d="M158.913 152.96H161.045V100.532H158.913V152.96Z" fill="#E6E6E6"/>
<path d="M149.384 152.96H151.516V100.532H149.384V152.96Z" fill="#F5F5F5"/>
<path d="M122.333 152.96H124.465V100.532H122.333V152.96Z" fill="#F5F5F5"/>
<path d="M26.1524 152.96H47.9844L47.9844 110.604H26.1524L26.1524 152.96Z" fill="#E6E6E6"/>
<path d="M31.9804 152.96H26.1484V147.112H38.0924L31.9804 152.96Z" fill="#FAFAFA"/>
<path d="M85.6719 152.96H107.504V110.604H85.6719V152.96Z" fill="#E6E6E6"/>
<path d="M26.1517 150.944H90.7637V110.6H26.1517V150.944Z" fill="#FAFAFA"/>
<path d="M84.9323 152.96H90.7603V147.112H78.8203L84.9323 152.96Z" fill="#FAFAFA"/>
<path d="M30.6722 135.732H86.2402V125.636H30.6722V135.732Z" fill="#F0F0F0"/>
<path d="M30.6722 147.984H86.2402V137.888H30.6722V147.984Z" fill="#F0F0F0"/>
<path d="M75.6798 126.716H41.2358C40.7499 126.716 40.284 126.523 39.9404 126.179C39.5968 125.836 39.4038 125.37 39.4038 124.884V124.76H77.5078V124.884C77.5078 125.369 77.3153 125.835 76.9726 126.178C76.6299 126.522 76.165 126.715 75.6798 126.716Z" fill="#FAFAFA"/>
<path d="M30.6722 123.476H86.2402V113.38H30.6722V123.476Z" fill="#F0F0F0"/>
<path d="M75.6798 114.46H41.2358C40.7499 114.46 40.284 114.267 39.9404 113.923C39.5968 113.58 39.4038 113.114 39.4038 112.628V112.504H77.5078V112.628C77.5078 113.113 77.3153 113.579 76.9726 113.922C76.6299 114.265 76.165 114.459 75.6798 114.46Z" fill="#FAFAFA"/>
<path d="M75.6798 138.972H41.2358C40.7499 138.972 40.284 138.779 39.9404 138.435C39.5968 138.092 39.4038 137.626 39.4038 137.14V137.016H77.5078V137.14C77.5078 137.625 77.3153 138.09 76.9726 138.434C76.6299 138.777 76.165 138.971 75.6798 138.972Z" fill="#FAFAFA"/>
<path d="M29.6282 69.624H84.7402V33.532L29.6282 33.532L29.6282 69.624Z" fill="#E6E6E6"/>
<path d="M27.9471 69.624H83.9551V33.532L27.9471 33.532L27.9471 69.624Z" fill="#F0F0F0"/>
<path d="M29.6282 76.7041H84.7402V69.6201H29.6282V76.7041Z" fill="#E6E6E6"/>
<path d="M25.1443 76.7041H81.1523V69.6201H25.1443V76.7041Z" fill="#F0F0F0"/>
<path d="M81.5996 67.2719V35.8879H30.2996V67.2719H81.5996Z" fill="#FAFAFA"/>
<path d="M70.0319 67.2679L63.4799 35.8879H53.2559L59.8079 67.2679H70.0319Z" fill="white"/>
<path d="M80.5079 64.928C80.5303 64.928 80.5525 64.9235 80.5731 64.9148C80.5938 64.9061 80.6125 64.8934 80.6281 64.8774C80.6438 64.8614 80.6561 64.8424 80.6643 64.8215C80.6725 64.8007 80.6764 64.7784 80.6759 64.756V37.42C80.6764 37.3978 80.6725 37.3757 80.6642 37.3551C80.656 37.3344 80.6436 37.3157 80.6279 37.3C80.6122 37.2843 80.5935 37.2719 80.5728 37.2637C80.5522 37.2554 80.5301 37.2515 80.5079 37.252C80.4633 37.252 80.4206 37.2697 80.3891 37.3012C80.3576 37.3327 80.3399 37.3754 80.3399 37.42V64.756C80.3394 64.7784 80.3433 64.8007 80.3515 64.8215C80.3597 64.8424 80.372 64.8614 80.3877 64.8774C80.4033 64.8934 80.422 64.9061 80.4427 64.9148C80.4633 64.9235 80.4855 64.928 80.5079 64.928Z" fill="#F0F0F0"/>
<path d="M57.6123 67.2679L51.0603 35.8879H47.0723L53.6243 67.2679H57.6123Z" fill="white"/>
<path d="M30.5996 67.2719L30.5996 35.8879H30.2996L30.2996 67.2719H30.5996Z" fill="#E6E6E6"/>
<path opacity="0.6" d="M27.3887 39.436H82.5007L82.7167 36.8H27.6047L27.3887 39.436Z" fill="#EBEBEB"/>
<path opacity="0.6" d="M27.3887 40.9241H82.5007L82.7167 38.2881H27.6047L27.3887 40.9241Z" fill="#EBEBEB"/>
<path opacity="0.6" d="M27.3887 42.4079H82.5007L82.7167 39.7759H27.6047L27.3887 42.4079Z" fill="#EBEBEB"/>
<path opacity="0.6" d="M27.3887 43.896H82.5007L82.7167 41.26H27.6047L27.3887 43.896Z" fill="#EBEBEB"/>
<path opacity="0.6" d="M27.3887 45.38H82.5007L82.7167 42.748H27.6047L27.3887 45.38Z" fill="#EBEBEB"/>
<path opacity="0.6" d="M27.3887 46.8679H82.5007L82.7167 44.2319H27.6047L27.3887 46.8679Z" fill="#EBEBEB"/>
<path d="M38.4085 109.308H40.3125V88.0721H38.4085V109.308Z" fill="#F5F5F5"/>
<path d="M38.6475 109.296H39.1875V88.0599H38.6475V109.296Z" fill="#FAFAFA"/>
<path d="M39.411 109.296H39.623V88.0599H39.411V109.296Z" fill="#FAFAFA"/>
<path d="M46.4121 110.604H32.3161C32.3161 110.133 32.5032 109.681 32.8363 109.348C33.1694 109.015 33.6211 108.828 34.0921 108.828H44.6321C45.1031 108.828 45.5549 109.015 45.8879 109.348C46.221 109.681 46.4081 110.133 46.4081 110.604H46.4121Z" fill="#F0F0F0"/>
<path d="M35.9368 101.256C36.0818 101.255 36.2206 101.197 36.3231 101.094C36.4256 100.992 36.4837 100.853 36.4848 100.708V86.8C36.4848 86.6546 36.427 86.5152 36.3243 86.4125C36.2215 86.3097 36.0821 86.252 35.9368 86.252C35.8645 86.2514 35.7928 86.2652 35.7258 86.2925C35.6589 86.3198 35.598 86.3601 35.5467 86.411C35.4954 86.462 35.4546 86.5226 35.4269 86.5893C35.3991 86.6561 35.3848 86.7277 35.3848 86.8V100.724C35.3899 100.867 35.4504 101.002 35.5533 101.101C35.6563 101.201 35.7938 101.256 35.9368 101.256Z" fill="#F0F0F0"/>
<path d="M30.8281 93.12H47.8881L45.9241 81.2H32.7921L30.8281 93.12Z" fill="#E0E0E0"/>
<path opacity="0.1" d="M99.9994 171.024C142.832 171.024 177.555 168.997 177.555 166.496C177.555 163.995 142.832 161.968 99.9994 161.968C57.1664 161.968 22.4434 163.995 22.4434 166.496C22.4434 168.997 57.1664 171.024 99.9994 171.024Z" fill="black"/>
<path d="M144.836 132.496H59.1719C58.2184 132.479 57.3049 132.11 56.6077 131.459C55.9104 130.808 55.4788 129.922 55.3959 128.972L51.1879 70.5202C51.1488 70.0695 51.2045 69.6155 51.3515 69.1875C51.4985 68.7596 51.7335 68.3672 52.0413 68.0355C52.3492 67.7039 52.7231 67.4405 53.139 67.2622C53.5549 67.0839 54.0035 66.9946 54.4559 67.0002H140.12C141.073 67.0173 141.986 67.3863 142.683 68.0362C143.38 68.686 143.812 69.5709 143.896 70.5202L148.104 128.972C148.143 129.423 148.087 129.877 147.94 130.306C147.793 130.734 147.558 131.126 147.251 131.458C146.943 131.79 146.569 132.054 146.153 132.233C145.737 132.412 145.289 132.501 144.836 132.496Z" fill="#315CEC"/>
<path d="M145.164 132.496H59.5C58.5465 132.479 57.633 132.11 56.9358 131.459C56.2386 130.808 55.8069 129.922 55.724 128.972L51.516 70.5203C51.4769 70.0695 51.5326 69.6155 51.6796 69.1875C51.8266 68.7596 52.0616 68.3672 52.3695 68.0355C52.6773 67.7039 53.0512 67.4405 53.4671 67.2622C53.883 67.0839 54.3316 66.9946 54.784 67.0002H140.448C141.401 67.0173 142.314 67.3863 143.011 68.0362C143.708 68.686 144.14 69.5709 144.224 70.5203L148.432 128.972C148.472 129.423 148.417 129.878 148.27 130.306C148.123 130.735 147.888 131.128 147.58 131.46C147.272 131.792 146.898 132.055 146.482 132.234C146.066 132.413 145.617 132.502 145.164 132.496Z" fill="#315CEC"/>
<path opacity="0.5" d="M145.164 132.496H59.5C58.5465 132.479 57.633 132.11 56.9358 131.459C56.2386 130.808 55.8069 129.922 55.724 128.972L51.516 70.5203C51.4769 70.0695 51.5326 69.6155 51.6796 69.1875C51.8266 68.7596 52.0616 68.3672 52.3695 68.0355C52.6773 67.7039 53.0512 67.4405 53.4671 67.2622C53.883 67.0839 54.3316 66.9946 54.784 67.0002H140.448C141.401 67.0173 142.314 67.3863 143.011 68.0362C143.708 68.686 144.14 69.5709 144.224 70.5203L148.432 128.972C148.472 129.423 148.417 129.878 148.27 130.306C148.123 130.735 147.888 131.128 147.58 131.46C147.272 131.792 146.898 132.055 146.482 132.234C146.066 132.413 145.617 132.502 145.164 132.496Z" fill="white"/>
<path d="M140.576 68.7603H54.9117H54.6237C52.4357 68.9403 52.8837 72.2723 55.0917 72.2723H140.9C143.112 72.2723 143.08 68.9403 140.864 68.7603H140.576Z" fill="#315CEC"/>
<path d="M57.1438 70.5203C57.1522 70.6234 57.1389 70.7271 57.1048 70.8248C57.0706 70.9225 57.0163 71.0119 56.9455 71.0873C56.8746 71.1626 56.7887 71.2223 56.6934 71.2625C56.598 71.3026 56.4953 71.3223 56.3918 71.3203C56.1744 71.3172 55.9659 71.2338 55.8063 71.0861C55.6468 70.9384 55.5476 70.7368 55.5278 70.5203C55.5195 70.4175 55.5327 70.3141 55.5666 70.2167C55.6005 70.1194 55.6544 70.0301 55.7249 69.9548C55.7953 69.8795 55.8807 69.8197 55.9756 69.7793C56.0704 69.7389 56.1727 69.7188 56.2758 69.7203C56.4939 69.7224 56.7035 69.8053 56.8639 69.9532C57.0242 70.101 57.124 70.3031 57.1438 70.5203Z" fill="#FAFAFA"/>
<path d="M59.8919 70.5203C59.9003 70.6234 59.887 70.7271 59.8528 70.8248C59.8186 70.9225 59.7644 71.0119 59.6935 71.0873C59.6226 71.1626 59.5368 71.2223 59.4414 71.2625C59.346 71.3026 59.2433 71.3223 59.1399 71.3203C58.9225 71.3172 58.7139 71.2338 58.5544 71.0861C58.3948 70.9384 58.2956 70.7368 58.2759 70.5203C58.2675 70.4175 58.2807 70.3141 58.3146 70.2167C58.3486 70.1194 58.4025 70.0301 58.4729 69.9548C58.5433 69.8795 58.6287 69.8197 58.7236 69.7793C58.8185 69.7389 58.9208 69.7188 59.0239 69.7203C59.242 69.7224 59.4515 69.8053 59.6119 69.9532C59.7723 70.101 59.8721 70.3031 59.8919 70.5203Z" fill="#FAFAFA"/>
<path d="M62.6363 70.5204C62.6447 70.6231 62.6315 70.7265 62.5975 70.8239C62.5636 70.9213 62.5097 71.0105 62.4393 71.0858C62.3688 71.1612 62.2834 71.2209 62.1886 71.2613C62.0937 71.3017 61.9914 71.3218 61.8883 71.3204C61.6706 71.3182 61.4616 71.2351 61.3018 71.0872C61.1421 70.9393 61.0432 70.7372 61.0243 70.5204C61.0153 70.4174 61.028 70.3138 61.0617 70.2161C61.0954 70.1185 61.1493 70.029 61.2199 69.9535C61.2904 69.8781 61.3761 69.8183 61.4713 69.7782C61.5664 69.738 61.669 69.7183 61.7723 69.7204C61.9897 69.7234 62.1983 69.8068 62.3578 69.9546C62.5173 70.1023 62.6165 70.3038 62.6363 70.5204Z" fill="#FAFAFA"/>
<path d="M142.892 126.664H60.9522C60.6061 126.658 60.2744 126.524 60.0216 126.288C59.7688 126.051 59.6129 125.729 59.5842 125.384L56.1242 77.3161C56.1088 77.1512 56.1287 76.9849 56.1825 76.8282C56.2363 76.6715 56.3228 76.5281 56.4363 76.4074C56.5498 76.2867 56.6876 76.1915 56.8407 76.1282C56.9938 76.0649 57.1586 76.0349 57.3242 76.0401H139.284C139.63 76.0449 139.962 76.1782 140.215 76.4141C140.467 76.65 140.623 76.9715 140.652 77.3161L144.116 125.384C144.131 125.551 144.11 125.72 144.055 125.878C143.999 126.036 143.911 126.181 143.795 126.302C143.679 126.423 143.538 126.518 143.383 126.581C143.227 126.643 143.06 126.672 142.892 126.664Z" fill="white"/>
<path d="M108.363 108.352L107.027 89.8243L102.987 87.3923H91.8633L93.3753 108.352H108.363Z" fill="white"/>
<path d="M108.364 108.544H93.3764C93.3268 108.545 93.2787 108.527 93.2421 108.494C93.2056 108.46 93.1835 108.414 93.1804 108.364L91.6724 87.4043C91.6705 87.378 91.6741 87.3516 91.683 87.3268C91.692 87.3019 91.7061 87.2793 91.7244 87.2603C91.742 87.2405 91.7636 87.2247 91.7877 87.2136C91.8118 87.2026 91.8379 87.1967 91.8644 87.1963H102.988C103.023 87.1975 103.058 87.2071 103.088 87.2243L107.128 89.6563C107.156 89.6719 107.179 89.6939 107.195 89.7204C107.212 89.7469 107.222 89.777 107.224 89.8083L108.552 108.336C108.555 108.363 108.552 108.391 108.543 108.416C108.534 108.442 108.519 108.465 108.5 108.484C108.483 108.503 108.462 108.518 108.439 108.528C108.415 108.539 108.39 108.544 108.364 108.544ZM93.5644 108.144H108.152L106.84 89.9243L102.952 87.5843H92.0724L93.5644 108.144Z" fill="#315CEC"/>
<path d="M107.028 89.8243L102.988 87.3923L104.472 90.6163L107.028 89.8243Z" fill="#EBEBEB"/>
<path d="M104.471 90.8083C104.434 90.8081 104.398 90.7975 104.367 90.7776C104.336 90.7578 104.311 90.7296 104.295 90.6963L102.811 87.4723C102.794 87.4344 102.789 87.3921 102.797 87.3512C102.804 87.3104 102.825 87.273 102.855 87.2443C102.887 87.2171 102.926 87.2006 102.968 87.197C103.009 87.1934 103.051 87.203 103.087 87.2243L107.127 89.6563C107.16 89.6758 107.186 89.7043 107.203 89.7383C107.22 89.7723 107.227 89.8105 107.223 89.8483C107.218 89.8851 107.202 89.9197 107.178 89.948C107.154 89.9764 107.123 89.9973 107.087 90.0083L104.527 90.8083H104.471ZM103.427 87.8803L104.575 90.3803L106.575 89.7683L103.427 87.8803Z" fill="#315CEC"/>
<path d="M98.1527 96.8324C98.1587 96.9411 98.1424 97.0498 98.1049 97.152C98.0674 97.2542 98.0094 97.3477 97.9345 97.4267C97.8596 97.5057 97.7694 97.5686 97.6694 97.6115C97.5693 97.6545 97.4616 97.6765 97.3527 97.6764C97.1244 97.6723 96.9056 97.5838 96.7387 97.4279C96.5717 97.2721 96.4684 97.0599 96.4487 96.8324C96.4384 96.7225 96.4516 96.6117 96.4875 96.5074C96.5234 96.4031 96.5811 96.3076 96.6569 96.2274C96.7326 96.1471 96.8245 96.0839 96.9266 96.042C97.0286 96.0001 97.1384 95.9805 97.2487 95.9844C97.4774 95.9894 97.6962 96.0788 97.863 96.2353C98.0299 96.3918 98.133 96.6045 98.1527 96.8324Z" fill="#315CEC"/>
<path d="M103.631 96.8324C103.641 96.9419 103.627 97.0522 103.591 97.1561C103.555 97.2599 103.497 97.3549 103.422 97.4347C103.346 97.5145 103.254 97.5773 103.152 97.619C103.051 97.6606 102.941 97.6802 102.831 97.6764C102.603 97.6724 102.383 97.584 102.216 97.4282C102.048 97.2725 101.944 97.0602 101.923 96.8324C101.917 96.7233 101.933 96.6141 101.97 96.5115C102.007 96.4088 102.065 96.3148 102.14 96.2354C102.215 96.1559 102.305 96.0927 102.406 96.0495C102.506 96.0063 102.614 95.9842 102.723 95.9844C102.953 95.9876 103.173 96.0762 103.341 96.233C103.509 96.3898 103.612 96.6035 103.631 96.8324Z" fill="#315CEC"/>
<path d="M105.183 102.328C105.135 102.328 105.088 102.309 105.052 102.275C105.017 102.242 104.995 102.197 104.991 102.148C104.891 100.784 102.755 99.6763 100.231 99.6763C98.5551 99.6763 97.0511 100.176 96.3071 100.976C96.1543 101.124 96.0346 101.302 95.956 101.499C95.8773 101.696 95.8416 101.908 95.8511 102.12C95.853 102.147 95.8496 102.173 95.8413 102.198C95.8329 102.223 95.8197 102.246 95.8025 102.266C95.7676 102.306 95.7182 102.331 95.6651 102.334C95.6121 102.338 95.5597 102.321 95.5196 102.286C95.4795 102.251 95.4548 102.201 95.4511 102.148C95.4392 101.883 95.4829 101.618 95.5793 101.371C95.6758 101.124 95.8229 100.899 96.0111 100.712C96.8111 99.8363 98.4391 99.2883 100.219 99.2883C102.991 99.2883 105.251 100.532 105.363 102.12C105.365 102.146 105.361 102.171 105.353 102.195C105.345 102.219 105.332 102.241 105.316 102.26C105.299 102.279 105.278 102.294 105.256 102.305C105.233 102.316 105.208 102.323 105.183 102.324V102.328Z" fill="#315CEC"/>
<path d="M95.0208 95.1202C94.972 95.1192 94.9252 95.1007 94.8888 95.0682C94.8525 95.0314 94.832 94.9818 94.832 94.9302C94.832 94.8785 94.8525 94.8289 94.8888 94.7922L95.7409 93.8762C95.7774 93.841 95.8261 93.8213 95.8768 93.8213C95.9276 93.8213 95.9763 93.841 96.0128 93.8762C96.0307 93.894 96.045 93.9152 96.0546 93.9385C96.0643 93.9619 96.0693 93.9869 96.0693 94.0122C96.0693 94.0374 96.0643 94.0624 96.0546 94.0858C96.045 94.1091 96.0307 94.1303 96.0128 94.1482L95.1609 95.0642C95.1425 95.0825 95.1206 95.0968 95.0966 95.1065C95.0725 95.1161 95.0468 95.1208 95.0208 95.1202Z" fill="#315CEC"/>
<path d="M104.784 95.1202C104.735 95.1179 104.689 95.0996 104.652 95.0682L103.672 94.1522C103.653 94.1343 103.639 94.1128 103.629 94.0891C103.618 94.0654 103.613 94.0399 103.613 94.0142C103.613 93.9884 103.618 93.9629 103.629 93.9392C103.639 93.9155 103.653 93.8941 103.672 93.8762C103.708 93.841 103.757 93.8213 103.808 93.8213C103.859 93.8213 103.907 93.841 103.944 93.8762L104.924 94.7922C104.942 94.81 104.956 94.8312 104.966 94.8545C104.975 94.8779 104.98 94.9029 104.98 94.9282C104.98 94.9534 104.975 94.9784 104.966 95.0018C104.956 95.0251 104.942 95.0463 104.924 95.0642C104.886 95.0997 104.836 95.1197 104.784 95.1202Z" fill="#315CEC"/>
<path d="M90.6562 112.492H91.5603L92.8643 114.228L92.7403 112.492H93.6523L93.8763 115.628H92.9523L91.6562 113.904L91.7803 115.628H90.8682L90.6562 112.492Z" fill="#315CEC"/>
<path d="M94.2833 114.06C94.2524 113.847 94.2671 113.63 94.3264 113.423C94.3857 113.216 94.4883 113.024 94.6273 112.86C94.7793 112.711 94.9613 112.595 95.1613 112.521C95.3613 112.448 95.5747 112.417 95.7873 112.432C96.238 112.408 96.6808 112.558 97.0233 112.852C97.337 113.165 97.5189 113.586 97.5313 114.028C97.5643 114.333 97.5231 114.642 97.4113 114.928C97.3077 115.158 97.1342 115.35 96.9153 115.476C96.6527 115.617 96.357 115.685 96.0593 115.672C95.7533 115.682 95.4488 115.625 95.1673 115.504C94.9207 115.386 94.7127 115.2 94.5673 114.968C94.3957 114.695 94.2978 114.382 94.2833 114.06ZM95.2553 114.06C95.2514 114.306 95.3303 114.545 95.4793 114.74C95.5418 114.809 95.6185 114.863 95.7042 114.899C95.7899 114.935 95.8825 114.952 95.9753 114.948C96.064 114.954 96.1528 114.939 96.2343 114.904C96.3158 114.868 96.3875 114.813 96.4433 114.744C96.5582 114.526 96.5962 114.275 96.5513 114.032C96.553 113.797 96.4739 113.568 96.3273 113.384C96.2632 113.317 96.1855 113.264 96.0993 113.228C96.0131 113.193 95.9203 113.177 95.8273 113.18C95.7403 113.176 95.6536 113.193 95.5743 113.229C95.4951 113.266 95.4255 113.32 95.3713 113.388C95.2542 113.594 95.2131 113.835 95.2553 114.068V114.06Z" fill="#315CEC"/>
<path d="M99.4121 112.492H100.852C101.089 112.485 101.326 112.524 101.548 112.608C101.724 112.682 101.88 112.796 102.004 112.94C102.13 113.087 102.226 113.257 102.288 113.44C102.353 113.637 102.393 113.842 102.408 114.048C102.439 114.31 102.418 114.575 102.348 114.828C102.293 115.004 102.195 115.163 102.064 115.292C101.955 115.408 101.817 115.494 101.664 115.54C101.478 115.594 101.286 115.624 101.092 115.628H99.6561L99.4121 112.492ZM100.432 113.204L100.556 114.916H100.792C100.938 114.926 101.084 114.903 101.22 114.848C101.31 114.796 101.376 114.712 101.404 114.612C101.45 114.435 101.461 114.25 101.436 114.068C101.444 113.824 101.369 113.585 101.224 113.388C101.15 113.321 101.062 113.27 100.967 113.238C100.872 113.207 100.772 113.195 100.672 113.204H100.432Z" fill="#315CEC"/>
<path d="M104.731 115.108H103.631L103.515 115.628H102.527L103.479 112.492H104.551L105.955 115.628H104.939L104.731 115.108ZM104.479 114.432L104.055 113.304L103.791 114.432H104.479Z" fill="#315CEC"/>
<path d="M105.5 112.492H108.444L108.5 113.268H107.512L107.68 115.628H106.712L106.544 113.268H105.556L105.5 112.492Z" fill="#315CEC"/>
<path d="M110.7 115.108H109.6L109.484 115.628H108.496L109.448 112.492H110.504L111.904 115.628H110.892L110.7 115.108ZM110.448 114.432L110.02 113.304L109.752 114.432H110.448Z" fill="#315CEC"/>
</svg>
