<svg width="24" height="24" viewBox="0 0 24 24" fill="none" xmlns="http://www.w3.org/2000/svg">
<rect width="24" height="24" rx="4" fill="#2E2F38" fill-opacity="0.05"/>
<g clip-path="url(#clip0_1_219293)">
<path fill-rule="evenodd" clip-rule="evenodd" d="M6.16667 5.58301H8.90075C9.15465 5.58292 9.40164 5.66566 9.60425 5.81867L10.6292 6.59334C10.8315 6.74644 11.0783 6.82938 11.3321 6.82959H17.8333C18.1428 6.82959 18.4395 6.95251 18.6583 7.1713C18.8771 7.39009 19 7.68684 19 7.99626V17.2497C19 17.5591 18.8771 17.8558 18.6583 18.0746C18.4395 18.2934 18.1428 18.4163 17.8333 18.4163H6.16667C5.85725 18.4163 5.5605 18.2934 5.34171 18.0746C5.12292 17.8558 5 17.5591 5 17.2497V6.74967C5 6.44026 5.12292 6.14351 5.34171 5.92472C5.5605 5.70592 5.85725 5.58301 6.16667 5.58301Z" fill="#FFA200"/>
<path fill-rule="evenodd" clip-rule="evenodd" d="M5 9.1416H19V17.2499C19 17.5594 18.8771 17.8561 18.6583 18.0749C18.4395 18.2937 18.1428 18.4166 17.8333 18.4166H6.16667C5.85725 18.4166 5.5605 18.2937 5.34171 18.0749C5.12292 17.8561 5 17.5594 5 17.2499V9.1416Z" fill="#FFC154"/>
</g>
<defs>
<clipPath id="clip0_1_219293">
<rect width="14" height="14" fill="white" transform="translate(5 5)"/>
</clipPath>
</defs>
</svg>
