<svg width="100" height="100" viewBox="0 0 100 100" fill="none" xmlns="http://www.w3.org/2000/svg">
<g id="Group 1">
<path id="Vector" d="M97.0482 52.9518C98.6785 26.9677 78.9358 4.58199 52.9518 2.95177C26.9678 1.32155 4.582 21.0642 2.95178 47.0482C1.32156 73.0322 21.0642 95.418 47.0482 97.0482C73.0322 98.6784 95.418 78.9358 97.0482 52.9518Z" fill="#315CEC"/>
<path id="Vector_2" d="M85.874 62.7059C92.8962 42.8868 82.5223 21.1275 62.7031 14.1053C42.884 7.0831 21.1248 17.4571 14.1025 37.2762C7.08033 57.0953 17.4543 78.8546 37.2734 85.8768C57.0926 92.899 78.8518 82.525 85.874 62.7059Z" fill="white"/>
<path id="Vector_3" d="M73.7806 43.5901C70.7733 39.5104 64.9826 43.5902 63.247 47.8787C62.7756 48.9427 62.4655 50.0715 62.3272 51.2277L60.4156 38.129L58.9039 25.7131C58.7446 24.6476 58.1776 23.6867 57.3234 23.0346C56.4693 22.3826 55.3954 22.0909 54.3304 22.2217C53.2654 22.3525 52.2932 22.8954 51.6207 23.735C50.9483 24.5745 50.6286 25.6444 50.7297 26.7169L50.3538 23.625C50.2877 23.0866 50.1165 22.5666 49.8502 22.0946C49.5839 21.6226 49.2275 21.2079 48.8016 20.8742C48.3757 20.5404 47.8884 20.2942 47.3677 20.1496C46.847 20.0049 46.303 19.9647 45.7668 20.0311C45.2306 20.0975 44.7127 20.2694 44.2427 20.5368C43.7726 20.8042 43.3596 21.162 43.0272 21.5897C42.6949 22.0174 42.4497 22.5066 42.3056 23.0294C42.1615 23.5523 42.1215 24.0985 42.1876 24.6369L42.7155 28.9415C42.6438 28.3589 42.4495 27.7983 42.1453 27.2969C41.8412 26.7956 41.4343 26.3649 40.9516 26.0337C40.4689 25.7025 39.9215 25.4782 39.3458 25.3759C38.7701 25.2735 38.1793 25.2954 37.6126 25.44C36.6424 25.69 35.7958 26.2857 35.2307 27.1161C34.6656 27.9466 34.4206 28.955 34.5413 29.9535L35.1972 35.3262C35.1267 34.743 34.9332 34.1817 34.6294 33.6796C34.3256 33.1776 33.9186 32.7464 33.4355 32.415C32.9525 32.0835 32.4046 31.8594 31.8284 31.7576C31.2522 31.6558 30.661 31.6787 30.0943 31.8247C29.1253 32.073 28.2797 32.6676 27.7158 33.4969C27.1519 34.3262 26.9085 35.3335 27.031 36.3301L28.3427 47.0676L29.2785 54.7694L30.5182 64.8804C31.398 72.1084 34.2054 76.1881 38.3725 78.0272C44.7711 80.8461 56.4885 80.8783 61.7513 76.5897C66.3583 72.8392 69.3176 63.8043 70.0295 58.2066C70.7413 52.609 75.0044 45.2365 73.7806 43.5901Z" fill="#FF7D00"/>
<path id="Vector_4" d="M81.906 17.1726L74.1448 11.1067L18.0776 82.8436L25.8388 88.9095L81.906 17.1726Z" fill="#315CEC"/>
</g>
</svg>
