<svg width="48" height="48" viewBox="0 0 48 48" fill="none" xmlns="http://www.w3.org/2000/svg">
<rect x="5" y="5" width="27" height="32" rx="4" fill="url(#paint0_linear_7384_894)"/>
<g opacity="0.5">
<rect x="24" y="9" width="5" height="1" fill="white"/>
<rect x="24" y="23" width="5" height="1" fill="white"/>
<rect x="26" y="9" width="1" height="16" fill="white"/>
</g>
<foreignObject x="6" y="19" width="42" height="29"><div xmlns="http://www.w3.org/1999/xhtml" style="backdrop-filter:blur(2.5px);clip-path:url(#bgblur_0_7384_894_clip_path);height:100%;width:100%"></div></foreignObject><path data-figma-bg-blur-radius="5" d="M11 28C11 25.7909 12.7909 24 15 24H39C41.2091 24 43 25.7909 43 28V39C43 41.2091 41.2091 43 39 43H15C12.7909 43 11 41.2091 11 39V28Z" fill="#3D3D3D" fill-opacity="0.3"/>
<path d="M14.4288 30.7487V29.2178H21.6415V30.7487H18.9528V38H17.1175V30.7487H14.4288ZM24.8416 38.1286C24.1641 38.1286 23.5809 37.9914 23.092 37.717C22.606 37.4397 22.2315 37.048 21.9685 36.542C21.7055 36.0332 21.574 35.4314 21.574 34.7367C21.574 34.0592 21.7055 33.4645 21.9685 32.9528C22.2315 32.4411 22.6017 32.0423 23.0791 31.7564C23.5594 31.4705 24.1226 31.3276 24.7687 31.3276C25.2032 31.3276 25.6077 31.3976 25.9822 31.5377C26.3596 31.6749 26.6884 31.8822 26.9685 32.1595C27.2515 32.4368 27.4717 32.7856 27.6289 33.2058C27.7861 33.6232 27.8648 34.1121 27.8648 34.6724V35.1741H22.303V34.042H26.1452C26.1452 33.779 26.088 33.546 25.9737 33.343C25.8593 33.1401 25.7007 32.9814 25.4977 32.8671C25.2976 32.7498 25.0646 32.6912 24.7987 32.6912C24.5214 32.6912 24.2755 32.7556 24.0611 32.8842C23.8496 33.01 23.6838 33.1801 23.5637 33.3945C23.4436 33.606 23.3822 33.8419 23.3793 34.102V35.1784C23.3793 35.5043 23.4394 35.7859 23.5594 36.0231C23.6823 36.2604 23.8553 36.4434 24.0783 36.572C24.3013 36.7007 24.5657 36.765 24.8716 36.765C25.0746 36.765 25.2604 36.7364 25.4291 36.6792C25.5977 36.6221 25.7421 36.5363 25.8622 36.422C25.9822 36.3076 26.0737 36.1675 26.1366 36.0017L27.8262 36.1132C27.7404 36.5191 27.5646 36.8736 27.2987 37.1767C27.0357 37.4768 26.6955 37.7113 26.2781 37.8799C25.8636 38.0457 25.3848 38.1286 24.8416 38.1286Z" fill="white" fill-opacity="0.5"/>
<path d="M30.4655 31.4134L31.6748 33.7161L32.9141 31.4134H34.788L32.8798 34.7067L34.8395 38H32.9741L31.6748 35.723L30.3969 38H28.5101L30.4655 34.7067L28.5787 31.4134H30.4655ZM39.3764 31.4134V32.7856H35.4098V31.4134H39.3764ZM36.3103 29.8353H38.1371V35.976C38.1371 36.1446 38.1628 36.2762 38.2143 36.3705C38.2657 36.462 38.3372 36.5263 38.4287 36.5635C38.523 36.6006 38.6317 36.6192 38.7546 36.6192C38.8403 36.6192 38.9261 36.6121 39.0119 36.5978C39.0976 36.5806 39.1634 36.5677 39.2091 36.5592L39.4964 37.9185C39.405 37.9471 39.2763 37.98 39.1105 38.0172C38.9447 38.0572 38.7431 38.0815 38.5059 38.0901C38.0656 38.1072 37.6797 38.0486 37.3481 37.9142C37.0193 37.7799 36.7634 37.5712 36.5805 37.2882C36.3975 37.0051 36.3075 36.6478 36.3103 36.2161V29.8353Z" fill="white"/>
<path d="M7.49048 13.706V11.955H15.7403V13.706H12.665V22H10.5658V13.706H7.49048ZM19.4005 22.1471C18.6256 22.1471 17.9585 21.9902 17.3994 21.6763C16.8435 21.3591 16.4151 20.9111 16.1143 20.3324C15.8135 19.7503 15.6631 19.062 15.6631 18.2675C15.6631 17.4925 15.8135 16.8124 16.1143 16.2271C16.4151 15.6418 16.8386 15.1856 17.3846 14.8586C17.934 14.5317 18.5781 14.3682 19.3171 14.3682C19.8141 14.3682 20.2768 14.4483 20.7052 14.6085C21.1368 14.7655 21.5128 15.0025 21.8333 15.3197C22.157 15.6369 22.4088 16.0358 22.5886 16.5165C22.7685 16.9939 22.8584 17.553 22.8584 18.1939V18.7678H16.4969V17.4729H20.8916C20.8916 17.1721 20.8262 16.9056 20.6954 16.6734C20.5646 16.4413 20.3831 16.2598 20.1509 16.129C19.922 15.9949 19.6556 15.9279 19.3515 15.9279C19.0343 15.9279 18.7531 16.0015 18.5078 16.1486C18.2659 16.2925 18.0762 16.487 17.9389 16.7323C17.8016 16.9742 17.7312 17.244 17.728 17.5416V18.7727C17.728 19.1454 17.7966 19.4675 17.934 19.7389C18.0746 20.0103 18.2724 20.2196 18.5275 20.3667C18.7825 20.5139 19.085 20.5874 19.4348 20.5874C19.667 20.5874 19.8795 20.5547 20.0725 20.4893C20.2654 20.4239 20.4305 20.3258 20.5678 20.195C20.7052 20.0642 20.8098 19.904 20.8818 19.7144L22.8142 19.8419C22.7161 20.3062 22.515 20.7117 22.2109 21.0583C21.9101 21.4016 21.521 21.6697 21.0436 21.8627C20.5695 22.0523 20.0218 22.1471 19.4005 22.1471Z" fill="white"/>
<defs>
<clipPath id="bgblur_0_7384_894_clip_path" transform="translate(-6 -19)"><path d="M11 28C11 25.7909 12.7909 24 15 24H39C41.2091 24 43 25.7909 43 28V39C43 41.2091 41.2091 43 39 43H15C12.7909 43 11 41.2091 11 39V28Z"/>
</clipPath><linearGradient id="paint0_linear_7384_894" x1="-1" y1="1.5" x2="26" y2="33" gradientUnits="userSpaceOnUse">
<stop stop-color="#FF4F84"/>
<stop offset="1" stop-color="#0037FF"/>
</linearGradient>
</defs>
</svg>
