<svg width="200" height="200" viewBox="0 0 200 200" fill="none" xmlns="http://www.w3.org/2000/svg">
<g id="Code snippets-rafiki 1">
<g id="freepik--Shadow--inject-238">
<path id="freepik--path--inject-238" opacity="0.1" d="M100 171.024C142.833 171.024 177.556 168.997 177.556 166.496C177.556 163.995 142.833 161.968 100 161.968C57.167 161.968 22.444 163.995 22.444 166.496C22.444 168.997 57.167 171.024 100 171.024Z" fill="black"/>
</g>
<g id="freepik--Window--inject-238">
<path id="Vector" d="M168.1 75.5722C168.074 75.5707 168.048 75.5639 168.025 75.5524C168.001 75.5408 167.98 75.5247 167.963 75.505C167.946 75.4852 167.933 75.4622 167.925 75.4374C167.917 75.4125 167.914 75.3862 167.916 75.3602L168.088 72.6522C168.093 72.5998 168.118 72.5514 168.157 72.5165C168.196 72.4816 168.247 72.4629 168.3 72.4642C168.327 72.4657 168.353 72.4725 168.377 72.4843C168.401 72.496 168.422 72.5124 168.439 72.5325C168.457 72.5527 168.47 72.5761 168.479 72.6015C168.487 72.6268 168.49 72.6536 168.488 72.6802L168.312 75.3882C168.31 75.4143 168.304 75.4398 168.292 75.4633C168.281 75.4868 168.265 75.5077 168.245 75.5249C168.225 75.542 168.202 75.555 168.177 75.5632C168.152 75.5713 168.126 75.5743 168.1 75.5722Z" fill="#315CEC"/>
<path id="Vector_2" d="M168.464 69.936C168.438 69.9345 168.412 69.9278 168.388 69.9163C168.365 69.9048 168.343 69.8887 168.326 69.869C168.308 69.8493 168.295 69.8264 168.286 69.8015C168.278 69.7766 168.274 69.7503 168.276 69.724L168.868 60.524C168.872 60.4716 168.897 60.423 168.936 60.3886C168.976 60.3541 169.028 60.3367 169.08 60.34C169.106 60.3415 169.132 60.3482 169.156 60.3597C169.179 60.3712 169.201 60.3873 169.218 60.407C169.235 60.4267 169.249 60.4496 169.257 60.4745C169.266 60.4994 169.27 60.5257 169.268 60.552L168.676 69.752C168.672 69.8044 168.647 69.853 168.608 69.8874C168.568 69.9219 168.516 69.9393 168.464 69.936Z" fill="#315CEC"/>
<path id="Vector_3" d="M157.252 130.688H87.076C86.3303 130.695 85.5912 130.547 84.9056 130.254C84.22 129.96 83.6029 129.527 83.0933 128.983C82.5837 128.438 82.1928 127.794 81.9454 127.09C81.698 126.387 81.5995 125.64 81.656 124.896L86.948 42.568C87.0703 41.0075 87.7702 39.5487 88.9108 38.4768C90.0515 37.405 91.5509 36.7971 93.116 36.772H163.292C164.038 36.7648 164.778 36.9128 165.463 37.2065C166.149 37.5003 166.767 37.9334 167.276 38.4784C167.786 39.0233 168.177 39.6683 168.424 40.3723C168.671 41.0763 168.769 41.824 168.712 42.568L163.42 124.896C163.297 126.456 162.596 127.914 161.456 128.985C160.315 130.056 158.816 130.663 157.252 130.688Z" fill="white"/>
<path id="Vector_4" d="M157.252 131.088H87.076C86.2753 131.095 85.4818 130.936 84.7457 130.621C84.0097 130.306 83.3471 129.841 82.8001 129.256C82.253 128.671 81.8332 127.98 81.5674 127.224C81.3016 126.469 81.1956 125.667 81.256 124.868L86.548 42.5441C86.6755 40.8814 87.42 39.3265 88.6352 38.1845C89.8504 37.0426 91.4486 36.3961 93.116 36.3721H163.292C164.093 36.3648 164.886 36.5239 165.622 36.8392C166.358 37.1545 167.021 37.6193 167.568 38.204C168.115 38.7887 168.535 39.4806 168.801 40.236C169.066 40.9913 169.172 41.7936 169.112 42.5921L163.82 124.92C163.691 126.582 162.947 128.136 161.731 129.277C160.516 130.418 158.919 131.064 157.252 131.088ZM93.116 37.1721C91.6519 37.1937 90.2487 37.7615 89.1816 38.7642C88.1145 39.7669 87.4605 41.1321 87.348 42.5921L82.056 124.92C82.0027 125.609 82.0933 126.302 82.3221 126.954C82.5509 127.606 82.9128 128.204 83.3849 128.709C83.857 129.213 84.4289 129.615 85.0644 129.886C85.6998 130.158 86.3848 130.295 87.076 130.288H157.252C158.716 130.266 160.119 129.699 161.186 128.696C162.253 127.693 162.907 126.328 163.02 124.868L168.312 42.5441C168.366 41.8546 168.276 41.1615 168.047 40.5088C167.819 39.8562 167.457 39.2582 166.985 38.7529C166.512 38.2476 165.94 37.8462 165.305 37.574C164.669 37.3019 163.983 37.165 163.292 37.1721H93.116Z" fill="#315CEC"/>
<path id="Vector_5" d="M163.292 36.772H93.116C91.5509 36.7971 90.0515 37.405 88.9108 38.4768C87.7702 39.5487 87.0703 41.0075 86.948 42.568H168.712C168.769 41.824 168.671 41.0763 168.424 40.3723C168.177 39.6683 167.786 39.0233 167.276 38.4784C166.767 37.9334 166.149 37.5003 165.463 37.2065C164.778 36.9128 164.038 36.7648 163.292 36.772Z" fill="#315CEC"/>
<path id="Vector_6" d="M107.232 52.3082H96.472C96.3579 52.3096 96.2447 52.2873 96.1397 52.2426C96.0346 52.198 95.94 52.1321 95.8618 52.049C95.7836 51.9659 95.7235 51.8674 95.6853 51.7599C95.6471 51.6523 95.6317 51.538 95.64 51.4242C95.6589 51.1853 95.766 50.962 95.9405 50.7978C96.115 50.6337 96.3444 50.5404 96.584 50.5362H107.348C107.462 50.5353 107.575 50.5581 107.68 50.6032C107.785 50.6483 107.879 50.7147 107.957 50.7982C108.035 50.8817 108.095 50.9804 108.132 51.0882C108.17 51.1959 108.185 51.3104 108.176 51.4242C108.157 51.6626 108.05 51.8855 107.875 52.049C107.701 52.2125 107.471 52.3049 107.232 52.3082Z" fill="#263238"/>
<path id="Vector_7" d="M135.304 57.632H101.452C101.338 57.6334 101.224 57.611 101.119 57.5662C101.013 57.5213 100.918 57.455 100.84 57.3714C100.762 57.2879 100.702 57.1889 100.664 57.0809C100.626 56.9729 100.611 56.8581 100.62 56.744C100.639 56.5051 100.746 56.2818 100.92 56.1177C101.095 55.9535 101.324 55.8602 101.564 55.856H135.42C135.534 55.8551 135.647 55.8779 135.752 55.923C135.857 55.9681 135.951 56.0345 136.029 56.118C136.107 56.2015 136.167 56.3003 136.204 56.408C136.242 56.5158 136.257 56.6302 136.248 56.744C136.23 56.9832 136.123 57.207 135.948 57.3713C135.774 57.5357 135.544 57.6287 135.304 57.632Z" fill="#315CEC"/>
<path id="Vector_8" d="M118.82 62.952H101.108C100.993 62.9566 100.879 62.9365 100.772 62.8929C100.666 62.8494 100.57 62.7834 100.492 62.6995C100.413 62.6156 100.353 62.5158 100.317 62.4068C100.28 62.2978 100.268 62.1823 100.28 62.068C100.299 61.8291 100.406 61.6058 100.581 61.4417C100.755 61.2775 100.984 61.1842 101.224 61.18H118.936C119.05 61.1791 119.163 61.2019 119.268 61.247C119.373 61.2921 119.467 61.3585 119.545 61.442C119.623 61.5255 119.683 61.6242 119.72 61.732C119.758 61.8397 119.773 61.9542 119.764 62.068C119.745 62.3064 119.638 62.5293 119.463 62.6928C119.289 62.8563 119.059 62.9487 118.82 62.952Z" fill="#315CEC"/>
<path id="Vector_9" d="M150.648 68.2761H100.768C100.653 68.2775 100.54 68.2551 100.435 68.2102C100.329 68.1654 100.234 68.0991 100.156 68.0155C100.078 67.932 100.018 67.833 99.98 67.725C99.942 67.617 99.9271 67.5022 99.936 67.3881C99.9548 67.1492 100.062 66.9259 100.236 66.7618C100.411 66.5976 100.64 66.5043 100.88 66.5001H150.76C150.874 66.4986 150.988 66.521 151.093 66.5659C151.199 66.6107 151.293 66.6771 151.372 66.7606C151.45 66.8442 151.51 66.9431 151.548 67.0511C151.586 67.1592 151.601 67.2739 151.592 67.3881C151.573 67.6269 151.466 67.8502 151.291 68.0144C151.117 68.1785 150.888 68.2718 150.648 68.2761Z" fill="#315CEC"/>
<path id="Vector_10" d="M143.392 62.952H125.68C125.566 62.9534 125.453 62.9311 125.348 62.8864C125.243 62.8418 125.148 62.7759 125.07 62.6928C124.992 62.6097 124.931 62.5112 124.893 62.4036C124.855 62.2961 124.84 62.1818 124.848 62.068C124.867 61.8291 124.974 61.6058 125.148 61.4416C125.323 61.2775 125.552 61.1842 125.792 61.18H143.504C143.618 61.1791 143.732 61.2019 143.837 61.247C143.942 61.2921 144.036 61.3584 144.114 61.4418C144.193 61.5252 144.253 61.6239 144.291 61.7317C144.329 61.8395 144.344 61.9539 144.336 62.068C144.317 62.3064 144.21 62.5293 144.035 62.6928C143.861 62.8563 143.631 62.9487 143.392 62.952Z" fill="#315CEC"/>
<path id="Vector_11" d="M103.812 105.532H93.048C92.9338 105.533 92.8207 105.51 92.7159 105.465C92.611 105.42 92.5167 105.354 92.4388 105.27C92.361 105.187 92.3013 105.088 92.2636 104.98C92.226 104.872 92.2111 104.758 92.22 104.644C92.2388 104.405 92.3459 104.182 92.5205 104.018C92.695 103.854 92.9244 103.76 93.164 103.756H103.928C104.042 103.755 104.155 103.778 104.26 103.823C104.365 103.868 104.459 103.935 104.537 104.018C104.615 104.102 104.675 104.2 104.712 104.308C104.75 104.416 104.765 104.53 104.756 104.644C104.737 104.883 104.63 105.106 104.455 105.27C104.281 105.435 104.052 105.528 103.812 105.532Z" fill="#263238"/>
<path id="Vector_12" d="M131.544 116.176H97.688C97.5737 116.177 97.4604 116.154 97.3554 116.109C97.2503 116.064 97.1558 115.998 97.0776 115.914C96.9994 115.831 96.9394 115.732 96.9013 115.624C96.8631 115.517 96.8477 115.402 96.856 115.288C96.8757 115.05 96.9831 114.827 97.1575 114.663C97.3318 114.499 97.5607 114.405 97.8 114.4H131.656C131.77 114.399 131.884 114.422 131.989 114.467C132.094 114.512 132.188 114.579 132.266 114.662C132.345 114.745 132.405 114.844 132.443 114.952C132.481 115.06 132.496 115.174 132.488 115.288C132.469 115.527 132.362 115.75 132.188 115.914C132.013 116.079 131.784 116.172 131.544 116.176Z" fill="#315CEC"/>
<path id="Vector_13" d="M115.056 121.496H97.344C97.2298 121.497 97.1167 121.474 97.0119 121.429C96.907 121.384 96.8127 121.317 96.7348 121.234C96.657 121.15 96.5973 121.052 96.5597 120.944C96.522 120.836 96.5071 120.722 96.516 120.608C96.5358 120.37 96.6433 120.147 96.8178 119.984C96.9922 119.821 97.221 119.728 97.46 119.724H115.172C115.286 119.722 115.399 119.745 115.504 119.789C115.609 119.834 115.703 119.9 115.781 119.983C115.859 120.066 115.919 120.165 115.956 120.273C115.994 120.38 116.009 120.494 116 120.608C115.981 120.847 115.874 121.07 115.699 121.234C115.525 121.398 115.296 121.492 115.056 121.496Z" fill="#315CEC"/>
<path id="Vector_14" d="M148.024 109.08H98.144C97.9048 109.083 97.6754 109.176 97.5008 109.339C97.3262 109.503 97.2189 109.726 97.2 109.964C97.1911 110.078 97.206 110.192 97.2437 110.3C97.2814 110.408 97.341 110.507 97.4188 110.59C97.4967 110.674 97.591 110.74 97.6959 110.785C97.8008 110.83 97.9139 110.853 98.028 110.852H147.912C148.152 110.848 148.381 110.755 148.555 110.59C148.73 110.426 148.837 110.203 148.856 109.964C148.864 109.85 148.849 109.736 148.811 109.628C148.773 109.521 148.712 109.422 148.634 109.339C148.556 109.256 148.461 109.19 148.356 109.146C148.251 109.101 148.138 109.079 148.024 109.08Z" fill="#315CEC"/>
<path id="Vector_15" d="M139.628 121.496H121.916C121.802 121.497 121.689 121.474 121.584 121.429C121.479 121.384 121.385 121.318 121.307 121.234C121.229 121.151 121.169 121.052 121.132 120.944C121.094 120.836 121.079 120.722 121.088 120.608C121.107 120.37 121.214 120.147 121.389 119.983C121.563 119.82 121.793 119.727 122.032 119.724H139.74C139.854 119.723 139.967 119.745 140.072 119.79C140.177 119.834 140.272 119.9 140.35 119.983C140.428 120.066 140.489 120.165 140.527 120.272C140.565 120.38 140.58 120.494 140.572 120.608C140.553 120.847 140.446 121.07 140.271 121.234C140.097 121.399 139.868 121.492 139.628 121.496Z" fill="#315CEC"/>
<path id="Vector_16" d="M110.844 78.9201H94.76C94.6458 78.921 94.5328 78.8981 94.4279 78.853C94.323 78.8079 94.2287 78.7415 94.1508 78.658C94.073 78.5745 94.0133 78.4758 93.9757 78.368C93.938 78.2603 93.9231 78.1459 93.932 78.0321C93.95 77.7929 94.0568 77.5691 94.2315 77.4047C94.4062 77.2404 94.6362 77.1474 94.876 77.1441H110.96C111.074 77.1432 111.187 77.166 111.292 77.2111C111.397 77.2562 111.491 77.3226 111.569 77.4061C111.647 77.4896 111.707 77.5883 111.744 77.6961C111.782 77.8039 111.797 77.9183 111.788 78.0321C111.769 78.2709 111.662 78.4942 111.487 78.6584C111.313 78.8225 111.084 78.9158 110.844 78.9201Z" fill="#263238"/>
<path id="Vector_17" d="M133.024 93.1121H99.1719C98.9321 93.1155 98.7022 93.2084 98.5275 93.3728C98.3528 93.5371 98.2459 93.7609 98.228 94.0001C98.2191 94.1139 98.234 94.2283 98.2716 94.3361C98.3093 94.4439 98.369 94.5426 98.4468 94.6261C98.5247 94.7096 98.619 94.776 98.7239 94.8211C98.8287 94.8662 98.9418 94.889 99.056 94.8881H132.912C133.152 94.8839 133.381 94.7906 133.555 94.6264C133.73 94.4623 133.837 94.239 133.856 94.0001C133.865 93.886 133.85 93.7712 133.812 93.6632C133.774 93.5552 133.714 93.4562 133.636 93.3727C133.557 93.2891 133.463 93.2228 133.357 93.1779C133.252 93.1331 133.138 93.1107 133.024 93.1121Z" fill="#315CEC"/>
<path id="Vector_18" d="M111.9 87.7921H99.5C99.2608 87.7953 99.0314 87.8877 98.8568 88.0512C98.6822 88.2148 98.5749 88.4376 98.556 88.6761C98.5471 88.7902 98.562 88.905 98.6 89.013C98.6379 89.121 98.6979 89.22 98.7762 89.3035C98.8544 89.3871 98.9493 89.4534 99.0546 89.4982C99.16 89.5431 99.2735 89.5655 99.388 89.5641H111.788C112.028 89.5598 112.257 89.4665 112.431 89.3024C112.606 89.1382 112.713 88.9149 112.732 88.6761C112.74 88.5622 112.725 88.4479 112.687 88.3404C112.649 88.2328 112.588 88.1344 112.51 88.0513C112.432 87.9681 112.337 87.9022 112.232 87.8576C112.127 87.813 112.014 87.7906 111.9 87.7921Z" fill="#315CEC"/>
<path id="Vector_19" d="M123.124 82.468H99.856C99.6161 82.4714 99.3862 82.5644 99.2115 82.7287C99.0368 82.8931 98.9299 83.1169 98.912 83.356C98.8998 83.4703 98.9124 83.5859 98.9489 83.6949C98.9854 83.8039 99.045 83.9037 99.1236 83.9876C99.2022 84.0715 99.2979 84.1374 99.4043 84.181C99.5106 84.2246 99.6251 84.2447 99.74 84.24H123.012C123.251 84.2368 123.481 84.1444 123.655 83.9809C123.83 83.8173 123.937 83.5945 123.956 83.356C123.964 83.242 123.949 83.1275 123.911 83.0198C123.873 82.912 123.813 82.8133 123.734 82.7299C123.656 82.6465 123.562 82.5801 123.457 82.5351C123.352 82.49 123.238 82.4672 123.124 82.468Z" fill="#315CEC"/>
<path id="Vector_20" d="M152.928 82.468H129.66C129.42 82.4713 129.19 82.5643 129.016 82.7287C128.841 82.893 128.734 83.1168 128.716 83.356C128.704 83.4703 128.716 83.5859 128.753 83.6949C128.789 83.8038 128.849 83.9037 128.928 83.9876C129.006 84.0715 129.102 84.1374 129.208 84.181C129.315 84.2246 129.429 84.2447 129.544 84.24H152.8C153.039 84.2359 153.268 84.1432 153.442 83.9798C153.617 83.8165 153.724 83.5942 153.744 83.356C153.752 83.2433 153.737 83.1302 153.7 83.0235C153.663 82.9168 153.604 82.8189 153.528 82.7357C153.451 82.6525 153.359 82.5859 153.256 82.5398C153.152 82.4938 153.041 82.4694 152.928 82.468Z" fill="#315CEC"/>
<path id="Vector_21" d="M141.792 87.7921H118.76C118.521 87.7953 118.291 87.8877 118.117 88.0512C117.942 88.2148 117.835 88.4376 117.816 88.6761C117.807 88.7902 117.822 88.905 117.86 89.013C117.898 89.121 117.958 89.22 118.036 89.3035C118.114 89.3871 118.209 89.4534 118.315 89.4982C118.42 89.5431 118.533 89.5655 118.648 89.5641H141.68C141.92 89.5598 142.149 89.4665 142.323 89.3024C142.498 89.1382 142.605 88.9149 142.624 88.6761C142.632 88.5622 142.617 88.4479 142.579 88.3404C142.541 88.2328 142.48 88.1344 142.402 88.0513C142.324 87.9681 142.229 87.9022 142.124 87.8576C142.019 87.813 141.906 87.7906 141.792 87.7921Z" fill="#315CEC"/>
<path id="Vector_22" d="M94.636 39.376C94.6011 39.808 94.4063 40.2115 94.0897 40.5074C93.773 40.8033 93.3573 40.9704 92.924 40.976C92.7173 40.9788 92.5123 40.9386 92.3219 40.8579C92.1316 40.7772 91.9601 40.6579 91.8183 40.5075C91.6765 40.357 91.5675 40.1788 91.4983 39.984C91.429 39.7892 91.401 39.5822 91.416 39.376C91.4509 38.9433 91.6463 38.5393 91.9637 38.2433C92.2812 37.9473 92.6979 37.7806 93.132 37.776C93.3385 37.7732 93.5434 37.8134 93.7335 37.8941C93.9237 37.9748 94.0949 38.0942 94.2364 38.2447C94.3779 38.3952 94.4865 38.5735 94.5553 38.7683C94.6241 38.9631 94.6515 39.17 94.636 39.376Z" fill="white"/>
<path id="Vector_23" d="M97.96 38.0641C98.1259 38.0619 98.2906 38.0942 98.4434 38.1589C98.5962 38.2236 98.734 38.3194 98.848 38.4401C98.9621 38.562 99.0496 38.7065 99.1047 38.8643C99.1598 39.022 99.1813 39.1895 99.168 39.3561C99.1401 39.7141 98.9794 40.0488 98.7174 40.2945C98.4554 40.5402 98.1111 40.6792 97.752 40.6841C97.5867 40.6845 97.4231 40.6508 97.2715 40.5851C97.1198 40.5193 96.9834 40.423 96.8707 40.3021C96.7581 40.1811 96.6716 40.0382 96.6168 39.8823C96.5619 39.7264 96.5399 39.5609 96.552 39.3961C96.5789 39.0373 96.7392 38.7016 97.0013 38.455C97.2633 38.2085 97.6082 38.069 97.968 38.0641M97.968 37.7641C97.5339 37.7686 97.1172 37.9353 96.7997 38.2313C96.4822 38.5274 96.2869 38.9314 96.252 39.3641C96.237 39.5702 96.265 39.7773 96.3343 39.972C96.4035 40.1668 96.5125 40.3451 96.6543 40.4955C96.7961 40.6459 96.9676 40.7653 97.1579 40.8459C97.3482 40.9266 97.5533 40.9668 97.76 40.9641C98.1933 40.9585 98.609 40.7914 98.9257 40.4954C99.2423 40.1995 99.4371 39.7961 99.472 39.3641C99.4875 39.1581 99.46 38.9511 99.3913 38.7564C99.3225 38.5616 99.2139 38.3833 99.0724 38.2328C98.9309 38.0823 98.7597 37.9629 98.5695 37.8822C98.3794 37.8015 98.1745 37.7612 97.968 37.7641Z" fill="white"/>
<path id="Vector_24" opacity="0.5" d="M104.296 39.376C104.26 39.8083 104.065 40.2118 103.747 40.5077C103.43 40.8035 103.014 40.9705 102.58 40.976C102.373 40.9787 102.168 40.9385 101.978 40.8578C101.788 40.7772 101.616 40.6579 101.474 40.5074C101.333 40.357 101.224 40.1787 101.154 39.984C101.085 39.7892 101.057 39.5821 101.072 39.376C101.108 38.9436 101.303 38.5401 101.621 38.2443C101.938 37.9484 102.354 37.7814 102.788 37.776C102.995 37.7738 103.199 37.8144 103.389 37.8953C103.579 37.9762 103.751 38.0955 103.892 38.2458C104.034 38.3961 104.143 38.5741 104.212 38.7686C104.282 38.9631 104.31 39.1699 104.296 39.376Z" fill="white"/>
</g>
<g id="freepik--Code--inject-238">
<g id="Vector_25">
<path d="M139.72 74.0681L153.72 75.8561C154.418 75.9447 155.091 76.1773 155.695 76.5391C156.299 76.901 156.821 77.3843 157.229 77.9584C157.636 78.5325 157.92 79.1849 158.063 79.8744C158.205 80.5639 158.203 81.2755 158.056 81.9641L154.08 102.8C153.795 104.244 152.98 105.53 151.796 106.406C150.613 107.281 149.145 107.683 147.68 107.532L82.588 99.2001C81.8897 99.112 81.2173 98.8799 80.6134 98.5184C80.0094 98.157 79.4871 97.6741 79.0795 97.1003C78.6719 96.5265 78.3879 95.8743 78.2455 95.185C78.103 94.4958 78.1052 93.7844 78.252 93.0961L82.252 72.2481C82.5373 70.8037 83.3517 69.5179 84.5355 68.6426C85.7194 67.7673 87.1874 67.3656 88.652 67.5161L131.164 72.9561" fill="white"/>
<path d="M139.72 74.0681L153.72 75.8561C154.418 75.9447 155.091 76.1773 155.695 76.5391C156.299 76.901 156.821 77.3843 157.229 77.9584C157.636 78.5325 157.92 79.1849 158.063 79.8744C158.205 80.5639 158.203 81.2755 158.056 81.9641L154.08 102.8C153.795 104.244 152.98 105.53 151.796 106.406C150.613 107.281 149.145 107.683 147.68 107.532L82.588 99.2001C81.8897 99.112 81.2173 98.8799 80.6134 98.5184C80.0094 98.157 79.4871 97.6741 79.0795 97.1003C78.6719 96.5265 78.3879 95.8743 78.2455 95.185C78.103 94.4958 78.1052 93.7844 78.252 93.0961L82.252 72.2481C82.5373 70.8037 83.3517 69.5179 84.5355 68.6426C85.7194 67.7673 87.1874 67.3656 88.652 67.5161L131.164 72.9561L139.72 74.0681Z" stroke="#263238" stroke-width="0.3" stroke-linecap="round" stroke-dasharray="2 2"/>
</g>
<path id="Vector_26" d="M105.884 78.9481L90.964 77.0401C90.8582 77.0237 90.7568 76.9862 90.6658 76.93C90.5748 76.8737 90.496 76.7997 90.4341 76.7124C90.3722 76.6252 90.3284 76.5264 90.3054 76.4219C90.2823 76.3174 90.2805 76.2093 90.3 76.1041C90.3445 75.8827 90.47 75.6858 90.652 75.5519C90.8339 75.418 91.0593 75.3568 91.284 75.3801L106.2 77.2881C106.306 77.3045 106.407 77.342 106.498 77.3982C106.589 77.4545 106.668 77.5285 106.73 77.6158C106.792 77.703 106.835 77.8018 106.859 77.9063C106.882 78.0108 106.883 78.1189 106.864 78.2241C106.82 78.4452 106.696 78.6421 106.514 78.776C106.333 78.91 106.108 78.9713 105.884 78.9481Z" fill="#263238"/>
<path id="Vector_27" d="M124.764 94.956L93.364 90.956C93.1398 90.9328 92.915 90.9941 92.7337 91.1281C92.5524 91.262 92.4277 91.4589 92.384 91.68C92.3645 91.7852 92.3664 91.8933 92.3894 91.9978C92.4125 92.1022 92.4563 92.201 92.5182 92.2883C92.5801 92.3756 92.6589 92.4496 92.7499 92.5058C92.8409 92.5621 92.9423 92.5996 93.048 92.616L124.444 96.616C124.669 96.6393 124.894 96.5781 125.076 96.4442C125.258 96.3103 125.383 96.1134 125.428 95.892C125.447 95.7868 125.446 95.6787 125.423 95.5742C125.4 95.4697 125.356 95.3709 125.294 95.2836C125.232 95.1964 125.153 95.1224 125.062 95.0661C124.971 95.0098 124.87 94.9724 124.764 94.956Z" fill="#315CEC"/>
<path id="Vector_28" d="M105.804 87.436L94.316 85.964C94.0918 85.9408 93.867 86.0022 93.6857 86.1361C93.5044 86.2701 93.3796 86.4669 93.336 86.688C93.3165 86.7933 93.3184 86.9013 93.3414 87.0058C93.3645 87.1103 93.4082 87.2091 93.4701 87.2964C93.5321 87.3837 93.6108 87.4576 93.7019 87.5139C93.7929 87.5702 93.8942 87.6076 94 87.624L105.488 89.092C105.712 89.1162 105.938 89.0552 106.119 88.9211C106.301 88.787 106.425 88.5896 106.468 88.368C106.491 88.2627 106.492 88.1538 106.47 88.0482C106.449 87.9425 106.405 87.8426 106.343 87.7548C106.28 87.667 106.2 87.5933 106.107 87.5384C106.014 87.4835 105.911 87.4486 105.804 87.436Z" fill="#315CEC"/>
<path id="Vector_29" d="M116.848 83.748L95.248 80.988C95.0238 80.9647 94.799 81.0261 94.6177 81.1601C94.4364 81.294 94.3117 81.4908 94.268 81.712C94.2485 81.8172 94.2504 81.9252 94.2734 82.0297C94.2965 82.1342 94.3402 82.233 94.4021 82.3203C94.4641 82.4076 94.5428 82.4815 94.6339 82.5378C94.7249 82.5941 94.8262 82.6316 94.932 82.648L116.512 85.408C116.736 85.4312 116.961 85.3698 117.142 85.2359C117.324 85.1019 117.448 84.9051 117.492 84.684C117.512 84.5802 117.511 84.4735 117.489 84.3702C117.467 84.2668 117.425 84.1688 117.365 84.0818C117.305 83.9948 117.229 83.9205 117.14 83.8632C117.051 83.8059 116.952 83.7667 116.848 83.748Z" fill="#315CEC"/>
<path id="Vector_30" d="M144.488 87.2841L122.888 84.5241C122.664 84.5009 122.439 84.5623 122.258 84.6962C122.076 84.8301 121.952 85.027 121.908 85.2481C121.889 85.3533 121.89 85.4614 121.913 85.5659C121.936 85.6704 121.98 85.7692 122.042 85.8564C122.104 85.9437 122.183 86.0177 122.274 86.074C122.365 86.1302 122.466 86.1677 122.572 86.1841L144.152 88.9441C144.376 88.9673 144.601 88.906 144.782 88.772C144.964 88.6381 145.088 88.4412 145.132 88.2201C145.152 88.1163 145.151 88.0097 145.129 87.9063C145.107 87.803 145.065 87.7049 145.005 87.6179C144.945 87.5309 144.869 87.4566 144.78 87.3993C144.691 87.342 144.592 87.3029 144.488 87.2841Z" fill="#315CEC"/>
<path id="Vector_31" d="M133.528 90.98L112.168 88.248C111.944 88.2248 111.719 88.2861 111.538 88.4201C111.356 88.554 111.232 88.7508 111.188 88.972C111.169 89.0772 111.17 89.1853 111.193 89.2897C111.217 89.3942 111.26 89.493 111.322 89.5803C111.384 89.6676 111.463 89.7416 111.554 89.7978C111.645 89.8541 111.746 89.8916 111.852 89.908L133.2 92.64C133.424 92.6632 133.649 92.6018 133.83 92.4679C134.012 92.3339 134.136 92.1371 134.18 91.916C134.2 91.8116 134.198 91.7044 134.176 91.6006C134.154 91.4968 134.111 91.3985 134.05 91.3114C133.989 91.2242 133.912 91.1501 133.822 91.0932C133.733 91.0363 133.633 90.9978 133.528 90.98Z" fill="#315CEC"/>
</g>
<g id="freepik--Character--inject-238">
<path id="Vector_32" d="M63.7799 86.488C63.7799 86.488 56.9199 110.324 54.1359 122.028C51.2159 134.32 42.536 152.9 41.7959 161.048C41.044 161.348 38.596 161.012 37.312 160.384C37.312 160.384 38.512 134.404 45.568 122.572C43.9679 93.456 51.876 86.488 51.876 86.488H63.7799Z" fill="#315CEC"/>
<path id="Vector_33" opacity="0.1" d="M54.896 98.46L58.752 104.4C57.528 108.868 56.28 113.528 55.256 117.536C54.184 110.584 54.896 98.46 54.896 98.46Z" fill="black"/>
<path id="Vector_34" d="M64 80.676L62.944 80.1C62.7478 79.9948 62.5294 79.9378 62.3068 79.9336C62.0843 79.9294 61.8639 79.9782 61.664 80.076L59.764 81.004C59.39 81.1868 59.0652 81.4565 58.8168 81.7905C58.5683 82.1246 58.4035 82.5132 58.3359 82.924L58.252 83.444C59.94 84.512 62.556 84.424 62.556 84.424L63.3039 84.48C63.457 84.4965 63.6119 84.4825 63.7595 84.4386C63.9071 84.3947 64.0445 84.3218 64.1636 84.2243C64.2827 84.1267 64.3813 84.0064 64.4534 83.8704C64.5256 83.7344 64.57 83.5853 64.584 83.432L64.7159 81.952C64.7347 81.6925 64.6768 81.4333 64.5495 81.2065C64.4222 80.9796 64.2311 80.7952 64 80.676Z" fill="#FFC3BD"/>
<path id="Vector_35" d="M59.74 81.3121L59.672 81.2921C59.028 81.0881 58.324 80.8921 57.672 80.6201C57.0302 80.3903 56.4025 80.1232 55.792 79.8201C55.246 79.5587 54.7319 79.2352 54.26 78.8561C54.0398 78.6748 53.8542 78.4553 53.712 78.2081C53.636 77.3681 53.58 76.5281 53.588 75.6721C53.596 74.8161 53.632 73.8481 53.716 72.9321C53.8 72.0161 53.908 71.1001 54.052 70.1881C54.124 69.7321 54.2 69.2801 54.288 68.8281L54.428 68.1601L54.56 67.5401L54.588 67.4281C54.6607 66.8972 54.5343 66.3582 54.2331 65.9151C53.9319 65.472 53.4772 65.1561 52.9569 65.0283C52.4365 64.9006 51.8873 64.9701 51.4151 65.2234C50.943 65.4767 50.5813 65.8959 50.4 66.4001C50.316 66.7121 50.256 66.9481 50.192 67.2001C50.128 67.4521 50.08 67.7161 50.028 67.9721C49.924 68.4881 49.836 69.0041 49.756 69.5201C49.6007 70.5555 49.4992 71.5982 49.452 72.6441C49.398 73.697 49.406 74.7521 49.476 75.8041C49.5403 76.8703 49.6739 77.9312 49.876 78.9801V79.0921C49.8962 79.1906 49.9257 79.2871 49.964 79.3801C50.2067 79.9366 50.5497 80.4437 50.976 80.8761C51.3388 81.24 51.7414 81.562 52.176 81.8361C52.9445 82.289 53.7706 82.6361 54.632 82.8681C55.4189 83.0832 56.2213 83.237 57.032 83.3281C57.432 83.3721 57.832 83.3961 58.232 83.4121C58.632 83.4281 59.012 83.4361 59.432 83.4121C59.6863 83.4007 59.9285 83.3003 60.1161 83.1283C60.3038 82.9563 60.4249 82.7237 60.4583 82.4714C60.4917 82.219 60.4352 81.963 60.2987 81.7481C60.1623 81.5332 59.9546 81.3732 59.712 81.2961L59.74 81.3121Z" fill="#FFC3BD"/>
<path id="Vector_36" d="M53.228 61.2C55.176 63.008 56.32 65.82 55.144 71.388C53.236 72.472 48.408 71.4799 48.408 71.4799C48.408 71.4799 47.872 63.228 53.228 61.2Z" fill="#263238"/>
<path id="Vector_37" d="M58.124 52.9041C58.468 55.3041 58.716 59.7041 57.008 61.0721C57.008 61.0721 59.26 61.0121 63.604 64.4961C65.204 62.7121 64.272 61.9641 64.272 61.9641C61.696 61.0161 61.872 59.0721 62.4 57.2961L58.124 52.9041Z" fill="#FFC3BD"/>
<path id="Vector_38" d="M67.824 51.544C67.772 51.864 67.888 52.164 68.088 52.212C68.288 52.26 68.488 52.04 68.552 51.72C68.616 51.4 68.488 51.1 68.288 51.052C68.088 51.004 67.88 51.224 67.824 51.544Z" fill="#263238"/>
<path id="Vector_39" d="M68.196 51.0481L68.972 51.0081C68.972 51.0081 68.492 51.5161 68.196 51.0481Z" fill="#263238"/>
<path id="Vector_40" d="M67.7079 52.144C67.856 52.9434 68.106 53.7204 68.4519 54.456C67.9799 54.752 67.3199 54.404 67.3199 54.404L67.7079 52.144Z" fill="#ED847E"/>
<path id="Vector_41" d="M67.78 54C67.7071 53.9991 67.6346 53.9897 67.564 53.972C67.4424 53.9366 67.3296 53.8764 67.2325 53.7951C67.1354 53.7139 67.0562 53.6134 67 53.5C66.719 52.8033 66.719 52.0248 67 51.328C67.432 50.048 68.348 49.196 69.088 49.392C69.2093 49.4268 69.3219 49.4869 69.4184 49.5682C69.5149 49.6495 69.5931 49.7504 69.648 49.864C69.9289 50.5608 69.9289 51.3393 69.648 52.036C69.26 53.2 68.472 54 67.78 54ZM68.88 49.564C68.284 49.564 67.548 50.364 67.196 51.392C66.9327 52.0314 66.9255 52.7475 67.176 53.392C67.2185 53.4811 67.2793 53.5603 67.3544 53.6244C67.4295 53.6885 67.5173 53.7361 67.612 53.764C68.232 53.924 69.076 53.1 69.46 51.96C69.7139 51.3176 69.7139 50.6025 69.46 49.96C69.4181 49.8705 69.3575 49.7909 69.2823 49.7268C69.2071 49.6626 69.119 49.6153 69.024 49.588C68.9768 49.5764 68.9285 49.5697 68.88 49.568V49.564Z" fill="#315CEC"/>
<path id="Vector_42" d="M69.1199 49.272C69.1564 49.2404 69.1793 49.1961 69.1839 49.148C69.184 49.0985 69.1649 49.0508 69.1306 49.015C69.0963 48.9792 69.0495 48.9581 68.9999 48.956C68.6952 48.9299 68.3886 48.974 68.1036 49.085C67.8186 49.1959 67.5628 49.3708 67.3559 49.596C67.3409 49.6148 67.3299 49.6364 67.3237 49.6597C67.3175 49.6829 67.3162 49.7072 67.32 49.7309C67.3238 49.7547 67.3325 49.7774 67.3456 49.7975C67.3586 49.8177 67.3758 49.8349 67.3959 49.848C67.4387 49.8767 67.4906 49.8885 67.5416 49.8811C67.5926 49.8738 67.6391 49.8477 67.6719 49.808C67.8385 49.6337 68.0423 49.4993 68.2681 49.4148C68.4939 49.3303 68.7359 49.2979 68.9759 49.32C69.0282 49.322 69.0793 49.3049 69.1199 49.272Z" fill="#263238"/>
<path id="Vector_43" d="M57.8879 47.924C57.4039 51.76 57.6319 53.968 58.6239 55.772C60.6759 59.512 65.6039 59.372 67.1999 55.816C68.6359 52.616 69.1999 46.872 65.8399 44.476C65.1387 43.9372 64.3061 43.5959 63.4285 43.4874C62.5509 43.3789 61.6602 43.5072 60.8489 43.859C60.0376 44.2108 59.3352 44.7732 58.8145 45.488C58.2939 46.2028 57.9739 47.0439 57.8879 47.924Z" fill="#FFC3BD"/>
<path id="Vector_44" d="M56.444 47.9561C55.424 50.2481 57.468 54.3921 59.224 56.3121C60.312 57.5121 63.744 55.6881 65.832 52.1161C66.1027 51.3872 66.2218 50.6107 66.1819 49.8342C66.142 49.0576 65.944 48.2974 65.6 47.6001L56.444 47.9561Z" fill="#263238"/>
<path id="Vector_45" d="M69.696 51.6H69.66C69.62 51.6 65.8 50.136 64.304 50.312C64.2776 50.3143 64.2513 50.3065 64.2305 50.2902C64.2097 50.2738 64.1959 50.2502 64.192 50.224C64.1903 50.2109 64.1912 50.1975 64.1948 50.1847C64.1983 50.172 64.2043 50.16 64.2125 50.1496C64.2207 50.1392 64.2309 50.1305 64.2425 50.124C64.2541 50.1176 64.2668 50.1135 64.28 50.112C65.824 49.924 69.572 51.352 69.732 51.412C69.7565 51.4226 69.7759 51.4423 69.7863 51.4668C69.7968 51.4914 69.7974 51.519 69.788 51.544C69.7796 51.5612 69.7664 51.5755 69.7501 51.5855C69.7338 51.5954 69.715 51.6004 69.696 51.6Z" fill="#315CEC"/>
<path id="Vector_46" d="M65 49.42C61.492 51.42 57.444 50.056 56.512 48.556C55.58 47.056 56.152 46.18 56.476 45.816C55.472 45.548 54.836 44.176 57.792 42.816C60.748 41.456 69.2 41.556 66.456 40C69.068 40.448 68.376 41.792 67.392 41.968C72.6 43.1 69.2 48.468 65 49.42Z" fill="#263238"/>
<path id="Vector_47" d="M56.6559 45.368C55.7239 46.268 54.4439 45.676 54.2559 44.968C54.0879 47.524 57.7759 46.676 56.6559 45.368Z" fill="#263238"/>
<path id="Vector_48" d="M64.312 51.8201C64.3511 52.1882 64.4671 52.5439 64.6525 52.8643C64.8378 53.1847 65.0884 53.4626 65.388 53.6801C66.152 54.1881 66.84 53.3481 66.884 52.2961C66.928 51.3441 66.58 49.9401 65.684 49.8721C64.788 49.8041 64.172 50.8361 64.312 51.8201Z" fill="#FFC3BD"/>
<path id="Vector_49" d="M44.064 166.48C41.112 166.04 41.056 165.552 39.472 164.996C38.116 164.516 37.732 164.596 36.64 164.216C35.724 163.908 36.036 163.016 36.64 162.112C36.94 161.648 36.984 161.204 37.316 160.384L41.8 161.048C42.24 162.3 42.392 163.904 44.952 164.82C46.476 165.368 45.244 166.652 44.064 166.48Z" fill="#263238"/>
<path id="Vector_50" d="M71.424 166.492C68.488 166.492 67.924 166.296 66.276 166.24C64.86 166.188 64.628 166.492 63.196 166.492C62.248 166.492 62.116 165.42 62.464 164.62C62.736 163.996 62.776 163.248 62.972 162.436H67.02C67.748 163.72 69.74 164.668 71.964 164.836C73.556 164.944 72.6 166.492 71.424 166.492Z" fill="#263238"/>
<path id="Vector_51" d="M68 86.488C68 86.488 68.588 107.608 67.336 121.016C67.416 133.604 67.028 162.436 67.028 162.436C66.928 163.08 63.552 162.836 62.98 162.436C62.98 162.436 56.656 141.436 59.464 121.016C52.436 99.72 53.952 86.488 53.952 86.488H68Z" fill="#315CEC"/>
<path id="Vector_52" d="M42.4 159.416C42.3292 159.974 42.2984 160.537 42.308 161.1C42.3096 161.147 42.3017 161.194 42.2847 161.238C42.2678 161.283 42.2421 161.323 42.2092 161.357C42.1764 161.391 42.137 161.418 42.0935 161.436C42.05 161.455 42.0033 161.464 41.956 161.464C40.276 161.464 37.956 160.748 37.22 160.504C37.1518 160.481 37.0928 160.436 37.0511 160.377C37.0095 160.319 36.9874 160.248 36.988 160.176V158.576C36.9874 158.526 36.9978 158.476 37.0185 158.43C37.0391 158.384 37.0695 158.343 37.1076 158.31C37.1456 158.276 37.1904 158.252 37.2388 158.238C37.2872 158.224 37.3381 158.22 37.388 158.228L42.116 159.028C42.2042 159.044 42.2829 159.093 42.3358 159.165C42.3887 159.237 42.4117 159.327 42.4 159.416Z" fill="#315CEC"/>
<path id="Vector_53" opacity="0.5" d="M42.4 159.416C42.3292 159.974 42.2984 160.537 42.308 161.1C42.3096 161.147 42.3017 161.194 42.2847 161.238C42.2678 161.283 42.2421 161.323 42.2092 161.357C42.1764 161.391 42.137 161.418 42.0935 161.436C42.05 161.455 42.0033 161.464 41.956 161.464C40.276 161.464 37.956 160.748 37.22 160.504C37.1518 160.481 37.0928 160.436 37.0511 160.377C37.0095 160.319 36.9874 160.248 36.988 160.176V158.576C36.9874 158.526 36.9978 158.476 37.0185 158.43C37.0391 158.384 37.0695 158.343 37.1076 158.31C37.1456 158.276 37.1904 158.252 37.2388 158.238C37.2872 158.224 37.3381 158.22 37.388 158.228L42.116 159.028C42.2042 159.044 42.2829 159.093 42.3358 159.165C42.3887 159.237 42.4117 159.327 42.4 159.416Z" fill="white"/>
<path id="Vector_54" d="M67.4839 160.664C67.4839 161.1 67.5199 161.864 67.5599 162.456C67.569 162.551 67.5407 162.646 67.481 162.721C67.4212 162.796 67.3348 162.844 67.2399 162.856C65.7535 162.977 64.2591 162.959 62.7759 162.804C62.7045 162.798 62.637 162.77 62.5835 162.722C62.5301 162.674 62.4937 162.61 62.4799 162.54L62.1799 160.972C62.1714 160.92 62.1739 160.867 62.1872 160.817C62.2006 160.766 62.2244 160.719 62.2573 160.678C62.2901 160.637 62.3312 160.604 62.3779 160.58C62.4245 160.556 62.4756 160.543 62.5279 160.54L67.1359 160.36C67.2223 160.355 67.3074 160.383 67.3726 160.44C67.4377 160.497 67.4778 160.578 67.4839 160.664Z" fill="#315CEC"/>
<path id="Vector_55" opacity="0.5" d="M67.4839 160.664C67.4839 161.1 67.5199 161.864 67.5599 162.456C67.569 162.551 67.5407 162.646 67.481 162.721C67.4212 162.796 67.3348 162.844 67.2399 162.856C65.7535 162.977 64.2591 162.959 62.7759 162.804C62.7045 162.798 62.637 162.77 62.5835 162.722C62.5301 162.674 62.4937 162.61 62.4799 162.54L62.1799 160.972C62.1714 160.92 62.1739 160.867 62.1872 160.817C62.2006 160.766 62.2244 160.719 62.2573 160.678C62.2901 160.637 62.3312 160.604 62.3779 160.58C62.4245 160.556 62.4756 160.543 62.5279 160.54L67.1359 160.36C67.2223 160.355 67.3074 160.383 67.3726 160.44C67.4377 160.497 67.4778 160.578 67.4839 160.664Z" fill="white"/>
<path id="Vector_56" d="M70.668 68.7999C70.458 71.2514 70.1229 73.6906 69.664 76.1079C69.148 79.2679 68.464 81.2479 67.992 86.5079C66.18 87.8119 53.808 87.2119 51.876 86.5079C52.2 81.9679 52.428 75.8999 50.804 65.4039C50.7 64.853 50.7206 64.2857 50.8642 63.7437C51.0078 63.2017 51.2708 62.6987 51.634 62.2715C51.9972 61.8443 52.4513 61.5037 52.9631 61.2747C53.4749 61.0457 54.0314 60.934 54.592 60.9479C55.232 60.9479 55.912 60.9919 56.592 61.0399C59.0313 61.1677 61.4587 61.4671 63.856 61.9359C64.636 62.1039 65.456 62.3039 66.212 62.5119C67.5684 62.8811 68.7545 63.71 69.5673 64.857C70.3802 66.004 70.7692 67.3978 70.668 68.7999Z" fill="#263238"/>
<path id="Vector_57" d="M81.5599 71.848C81.4581 71.7489 81.3376 71.671 81.2055 71.6188C81.0733 71.5665 80.9322 71.541 80.7901 71.5436C80.648 71.5462 80.5079 71.5769 80.3778 71.6339C80.2476 71.691 80.1301 71.7732 80.0319 71.876L80.0039 71.904C79.4159 72.512 78.8039 73.16 78.1799 73.752C77.5559 74.344 76.9359 74.952 76.2959 75.456C75.7253 75.9488 75.0999 76.3743 74.4319 76.724C74.3354 76.7722 74.2351 76.8123 74.1319 76.844C73.7319 76.232 73.3319 75.608 72.9999 74.952C72.5719 74.152 72.1719 73.328 71.7999 72.48C71.4279 71.632 71.0999 70.776 70.7919 69.904C70.6399 69.472 70.4879 69.036 70.3519 68.596L70.1559 67.944L69.9799 67.332L69.9479 67.22C69.7837 66.686 69.4197 66.236 68.9318 65.9638C68.4439 65.6917 67.8698 65.6184 67.3292 65.7592C66.7886 65.9001 66.3232 66.2441 66.0301 66.7197C65.737 67.1953 65.6388 67.7657 65.7559 68.312C65.8279 68.624 65.8879 68.864 65.9559 69.112C66.0239 69.36 66.1039 69.62 66.1799 69.872C66.3359 70.376 66.4999 70.868 66.6759 71.364C67.0269 72.3463 67.4274 73.3102 67.8759 74.252C68.3304 75.2044 68.8392 76.1299 69.3999 77.024C69.9649 77.932 70.5889 78.8018 71.2679 79.628L71.3159 79.688C71.3863 79.7757 71.4654 79.8561 71.5519 79.928C71.9383 80.2438 72.3895 80.4707 72.8734 80.5923C73.3573 80.714 73.8622 80.7275 74.3519 80.632C75.0234 80.4898 75.6606 80.2181 76.2279 79.832C77.0901 79.2462 77.8703 78.548 78.5479 77.756C79.1732 77.0399 79.7542 76.2866 80.2879 75.5C80.8122 74.7258 81.2955 73.9247 81.7359 73.1C81.8419 72.8992 81.8819 72.6703 81.8503 72.4455C81.8187 72.2208 81.7171 72.0117 81.5599 71.848Z" fill="#FFC3BD"/>
<path id="Vector_58" d="M84.4 69.3239L83.2 69.1799C82.9793 69.1521 82.7553 69.1775 82.5465 69.254C82.3377 69.3306 82.1503 69.456 82 69.6199L80.572 71.1799C80.2904 71.4872 80.0865 71.8574 79.9773 72.2597C79.868 72.6619 79.8566 73.0844 79.944 73.4919L80.052 74.0039C82.016 74.3799 84.416 73.3439 84.416 73.3439L85.136 73.1239C85.2835 73.082 85.4214 73.0113 85.5416 72.916C85.6617 72.8206 85.7619 72.7024 85.8362 72.5682C85.9106 72.4341 85.9577 72.2865 85.9748 72.134C85.9919 71.9816 85.9787 71.8272 85.936 71.6799L85.536 70.2519C85.4564 70.0041 85.3068 69.7845 85.1052 69.6199C84.9037 69.4552 84.6587 69.3524 84.4 69.3239Z" fill="#FFC3BD"/>
<path id="Vector_59" d="M65.792 62.376C68.364 63.04 70.708 64.972 72.32 70.432C71.156 72.292 66.436 73.712 66.436 73.712C66.436 73.712 62.052 66.72 65.792 62.376Z" fill="#263238"/>
</g>
</g>
</svg>
