<svg width="20" height="20" viewBox="0 0 20 20" fill="none" xmlns="http://www.w3.org/2000/svg">
<path d="M10.9125 13.5208C10.2456 13.7346 9.54945 13.8429 8.84916 13.8417C8.06907 13.8442 7.29457 13.7099 6.56083 13.445C6.43422 13.3991 6.30049 13.376 6.16583 13.3767C5.88333 13.3767 5.55583 13.4675 5.14 13.6583C5.15 13.0792 5.05583 12.67 4.72416 12.3908C3.58083 11.4267 2.95083 10.1392 2.95083 8.76585C2.95083 5.96668 5.59666 3.69085 8.84916 3.69085C12.1008 3.69085 14.7467 5.96668 14.7467 8.76585C14.7467 8.82085 14.745 8.87585 14.7433 8.93085C15.0344 8.80883 15.3544 8.77286 15.6653 8.82722C15.9763 8.88157 16.2651 9.02397 16.4975 9.23751C16.5092 9.08168 16.5158 8.92418 16.5158 8.76585C16.5158 4.98501 13.0767 1.90918 8.84916 1.90918C4.62083 1.90918 1.1825 4.98501 1.1825 8.76585C1.1825 10.5575 1.97583 12.2908 3.37083 13.5658C3.37166 13.8492 3.32083 14.4117 3.2125 15.0708C3.1525 15.4325 3.31083 15.7958 3.61666 15.9975C3.76586 16.0957 3.94056 16.148 4.11916 16.148C4.29777 16.148 4.47246 16.0957 4.62166 15.9975C5.33916 15.5267 5.88749 15.2542 6.12166 15.1767C6.99083 15.4725 7.90833 15.6225 8.84916 15.6225C10.0458 15.6225 11.18 15.3758 12.1908 14.9367C11.8586 14.8594 11.5579 14.6822 11.3294 14.4289C11.1009 14.1756 10.9554 13.8584 10.9125 13.52" fill="#D3DFFB"/>
<path d="M18.3458 12.205C17.8558 12.205 17.4467 12.5517 17.35 13.0133C17.336 13.3712 17.2403 13.7212 17.0703 14.0365C16.9003 14.3518 16.6605 14.6241 16.3692 14.8325C16.3268 14.8831 16.3052 14.948 16.3088 15.0139C16.3123 15.0799 16.3408 15.142 16.3884 15.1878C16.436 15.2336 16.4991 15.2596 16.5652 15.2607C16.6312 15.2617 16.6952 15.2376 16.7442 15.1933C16.7575 15.1733 16.7717 15.155 16.7858 15.1367V15.135C16.9936 14.8654 17.2575 14.6442 17.5593 14.4866C17.861 14.3291 18.1933 14.239 18.5333 14.2225C18.7808 14.1738 19.0014 14.0351 19.1525 13.8331C19.3035 13.6311 19.3742 13.3802 19.3509 13.129C19.3275 12.8779 19.2118 12.6444 19.0261 12.4736C18.8405 12.3029 18.598 12.2072 18.3458 12.205Z" fill="#D3DFFB"/>
<path d="M16.3433 10.1875C16.3095 10.0061 16.2271 9.83738 16.1048 9.69924C15.9825 9.5611 15.825 9.45876 15.6491 9.40317C15.4732 9.34758 15.2855 9.34082 15.106 9.38361C14.9266 9.4264 14.7621 9.51713 14.6302 9.64612C14.4983 9.77511 14.404 9.9375 14.3572 10.116C14.3104 10.2944 14.313 10.4822 14.3647 10.6593C14.4163 10.8364 14.5151 10.9962 14.6505 11.1215C14.7859 11.2468 14.9528 11.333 15.1333 11.3708C15.4913 11.3849 15.8412 11.4805 16.1565 11.6505C16.4718 11.8205 16.7441 12.0604 16.9525 12.3517C17.0031 12.3941 17.068 12.4156 17.1339 12.4121C17.1999 12.4085 17.262 12.3801 17.3078 12.3325C17.3536 12.2849 17.3796 12.2217 17.3807 12.1557C17.3817 12.0896 17.3576 12.0257 17.3133 11.9767C17.2938 11.9629 17.2743 11.949 17.255 11.935C16.9856 11.7271 16.7645 11.4632 16.6071 11.1615C16.4497 10.8597 16.3597 10.5274 16.3433 10.1875Z" fill="#D3DFFB"/>
<path d="M13.5125 13.3525C13.5978 12.7455 13.9169 12.1959 14.4017 11.8208L14.4717 11.7692C14.514 11.7185 14.5356 11.6537 14.5321 11.5877C14.5285 11.5218 14.5001 11.4596 14.4525 11.4139C14.4049 11.3681 14.3417 11.342 14.2757 11.341C14.2096 11.34 14.1457 11.364 14.0967 11.4083L14.0558 11.4642H14.055C13.8473 11.7339 13.5834 11.9553 13.2817 12.113C12.9799 12.2707 12.6476 12.3609 12.3075 12.3775C12.1261 12.4113 11.9574 12.4938 11.8192 12.616C11.6811 12.7383 11.5788 12.8958 11.5232 13.0717C11.4676 13.2476 11.4608 13.4353 11.5036 13.6148C11.5464 13.7942 11.6371 13.9587 11.7661 14.0906C11.8951 14.2225 12.0575 14.3169 12.236 14.3636C12.4144 14.4104 12.6022 14.4078 12.7793 14.3562C12.9564 14.3045 13.1162 14.2057 13.2415 14.0703C13.3668 13.935 13.453 13.7681 13.4908 13.5875C13.4942 13.5083 13.5008 13.4292 13.5125 13.3525Z" fill="#D3DFFB"/>
<path d="M15.7083 15.23C15.3504 15.216 15.0004 15.1203 14.6851 14.9503C14.3698 14.7803 14.0976 14.5405 13.8892 14.2492C13.8388 14.2066 13.7741 14.1846 13.7082 14.1878C13.6423 14.191 13.5801 14.219 13.534 14.2662C13.4879 14.3134 13.4615 14.3764 13.46 14.4423C13.4584 14.5083 13.482 14.5724 13.5258 14.6217L13.5283 14.6233C13.5473 14.6374 13.5662 14.6515 13.585 14.6658C13.8547 14.8734 14.076 15.1372 14.2337 15.4387C14.3914 15.7403 14.4817 16.0726 14.4983 16.4125C14.5321 16.5939 14.6146 16.7626 14.7369 16.9008C14.8591 17.0389 15.0166 17.1412 15.1925 17.1968C15.3684 17.2524 15.5562 17.2592 15.7356 17.2164C15.9151 17.1736 16.0795 17.0829 16.2114 16.9539C16.3433 16.8249 16.4377 16.6625 16.4845 16.4841C16.5312 16.3056 16.5287 16.1178 16.477 15.9407C16.4253 15.7636 16.3265 15.6038 16.1912 15.4785C16.0558 15.3532 15.8889 15.267 15.7083 15.2292" fill="#D3DFFB"/>
</svg>
