<svg width="32" height="32" viewBox="0 0 32 32" fill="none" xmlns="http://www.w3.org/2000/svg">
<g clip-path="url(#clip0_15445_15756)">
<path d="M0 10C0 4.47715 4.47715 0 10 0H22C27.5228 0 32 4.47715 32 10V22C32 27.5228 27.5228 32 22 32H10C4.47715 32 0 27.5228 0 22V10Z" fill="#3F3F46"/>
<path d="M22.2891 8.05237C22.9203 8.08884 23.7513 8.43656 24.1401 9.29973L24.2118 9.47948L24.5742 10.5201C25.5457 13.3266 27.316 18.5757 28.1647 21.9491C29.1987 26.0595 29.8218 31.1782 29.9846 32.6079C30.0827 33.4699 29.7136 34.4254 28.828 34.9407C27.5084 35.7085 23.7677 37.3739 16.2194 37.3739C8.66939 37.3739 4.92853 35.7077 3.60973 34.9401C2.72548 34.4254 2.35638 33.4717 2.45311 32.6108C2.61369 31.1817 3.22904 26.0625 4.25811 21.9514C5.22297 18.0967 7.38947 11.7928 8.1966 9.48235L8.26781 9.3026C8.65602 8.43853 9.48767 8.0903 10.1187 8.05352C10.741 8.01726 11.5295 8.25038 12.034 8.94137L12.1311 9.08609L12.2448 9.26297C12.852 10.1701 14.0504 11.3889 16.2039 11.389V13.1532C13.0415 13.1531 11.3555 11.1892 10.6293 10.0124C10.4548 9.72997 9.97155 9.7512 9.86204 10.0647C9.04918 12.3916 6.91132 18.6172 5.9695 22.3798L5.78687 23.1384C4.89761 26.9795 4.35655 31.4716 4.20642 32.8077C4.17882 33.0534 4.28337 33.2909 4.49701 33.4153C5.47835 33.9865 8.72424 35.5104 15.5475 35.6051L16.2194 35.6097C23.0457 35.6097 26.4834 34.2 27.7219 33.5377L27.9407 33.4159C28.128 33.3069 28.2317 33.1111 28.2359 32.8991L28.2319 32.8072C28.0797 31.4703 27.5318 26.9785 26.6376 23.1378L26.4539 22.3798C25.5071 18.6163 23.3619 12.3885 22.547 10.063C22.4372 9.7497 21.954 9.7288 21.7797 10.0113C21.0539 11.188 19.3676 13.1532 16.2039 13.1532V11.389C18.5022 11.389 19.7129 10.0009 20.278 9.08494L20.375 8.9408C20.8791 8.24997 21.6668 8.01643 22.2891 8.05237Z" fill="white"/>
<path d="M24.1401 9.29973C23.7514 8.43656 22.9203 8.08884 22.2892 8.05237C21.6669 8.01643 20.8791 8.24997 20.3751 8.9408L20.278 9.08494C19.713 10.0009 18.5022 11.389 16.204 11.389C14.0505 11.3889 12.852 10.1701 12.2448 9.26297L12.1311 9.08609L12.0341 8.94137C11.5295 8.25038 10.741 8.01726 10.1188 8.05352C9.48772 8.0903 8.65607 8.43853 8.26786 9.3026L8.19665 9.48235C7.38952 11.7928 5.22302 18.0967 4.25816 21.9514C3.22909 26.0625 2.61374 31.1817 2.45316 32.6108C2.35643 33.4717 2.72553 34.4254 3.60978 34.9401C4.92858 35.7077 8.66944 37.3739 16.2195 37.3739C23.7678 37.3739 27.5085 35.7085 28.828 34.9407C29.7136 34.4254 30.0827 33.4699 29.9847 32.6079C29.8219 31.1782 29.1988 26.0595 28.1647 21.9491C27.3161 18.5757 25.5457 13.3266 24.5743 10.5201L24.2119 9.47948L24.1401 9.29973Z" fill="white" fill-opacity="0.2"/>
<path d="M12.9637 21.1496C13.4827 21.1496 13.9036 20.7292 13.9036 20.2102V18.331C13.9036 17.812 13.4827 17.3914 12.9637 17.3914C12.445 17.3914 12.0243 17.812 12.0243 18.331V20.2102C12.0243 20.7294 12.4447 21.1496 12.9637 21.1496ZM16.0173 24.9081C13.5156 24.9081 11.3293 23.7916 10.1451 22.1278V24.0073C11.3295 25.6703 13.5156 26.7871 16.0173 26.7871C18.5187 26.7871 20.705 25.6703 21.8892 24.0073V22.1278C20.7053 23.7913 18.5189 24.9081 16.0173 24.9081ZM19.0711 21.1496C19.5898 21.1496 20.0105 20.7292 20.0105 20.2102V18.331C20.0105 17.812 19.5898 17.3914 19.0711 17.3914C18.5519 17.3914 18.1312 17.812 18.1312 18.331V20.2102C18.1312 20.7294 18.5519 21.1496 19.0711 21.1496Z" fill="white"/>
<path d="M10.7255 14.2089C10.4394 14.313 10.2013 14.4306 10.0078 14.5447C9.79766 14.6686 9.43414 14.4672 9.47966 14.2275C9.53426 13.9401 9.60181 13.6286 9.67647 13.3801C9.80042 12.9675 10.0459 12.3813 10.2031 12.02C10.2715 11.8631 10.4759 11.8284 10.5932 11.9531C10.808 12.1815 11.1176 12.5156 11.3269 12.762C11.5205 12.9898 11.74 13.3187 11.8972 13.5667C11.9956 13.7219 11.887 13.9294 11.7053 13.9577C11.4531 13.9969 11.105 14.0708 10.7255 14.2089Z" fill="white"/>
<path d="M21.5165 13.8478C21.6065 13.8921 21.69 13.9388 21.7673 13.9866C21.9865 14.1224 22.4447 13.9057 22.4058 13.6509C22.3721 13.4293 22.3335 13.2063 22.2919 13.019C22.2103 12.6515 22.0575 12.1464 21.9429 11.7851C21.883 11.5963 21.636 11.56 21.5236 11.7231C21.3764 11.9367 21.1991 12.1984 21.072 12.4009C20.9237 12.637 20.7549 12.9815 20.638 13.2322C20.5663 13.3862 20.6748 13.5693 20.8404 13.6072C21.0218 13.6486 21.2594 13.7212 21.5165 13.8478Z" fill="white"/>
</g>
<defs>
<clipPath id="clip0_15445_15756">
<path d="M0 10C0 4.47715 4.47715 0 10 0H22C27.5228 0 32 4.47715 32 10V22C32 27.5228 27.5228 32 22 32H10C4.47715 32 0 27.5228 0 22V10Z" fill="white"/>
</clipPath>
</defs>
</svg>
