<svg width="20" height="20" viewBox="0 0 20 20" fill="none" xmlns="http://www.w3.org/2000/svg">
<g clip-path="url(#clip0_1549_6951)">
<mask id="mask0_1549_6951" style="mask-type:alpha" maskUnits="userSpaceOnUse" x="-1" y="0" width="21" height="20">
<path d="M19.999 10C19.999 17.8127 17.8117 20 9.99902 20C2.18637 20 -0.000976562 17.8127 -0.000976562 10C-0.000976562 2.18735 2.18637 0 9.99902 0C17.8117 0 19.999 2.18735 19.999 10Z" fill="#DDEBFF"/>
</mask>
<g mask="url(#mask0_1549_6951)">
<path d="M20 10C20 17.8127 17.8127 20 10 20C2.18735 20 0 17.8127 0 10C0 2.18735 2.18735 0 10 0C17.8127 0 20 2.18735 20 10Z" fill="url(#paint0_linear_1549_6951)"/>
<path d="M16.6627 8.68559C16.3882 6.24509 14.6497 4.84484 14.6497 4.84484C12.9892 3.23084 9.84968 2.45384 7.07468 3.97934C4.11668 5.60459 2.94218 8.98409 3.48968 11.4493C4.03718 13.9146 6.20393 16.2553 9.33968 16.7286C10.2862 16.8531 11.7307 16.4286 11.0084 15.0606C10.2862 13.6926 10.8337 12.7693 12.9007 12.9936C14.9677 13.2178 16.9364 11.1253 16.6627 8.68559ZM6.00443 10.1106C5.78279 10.1106 5.56612 10.0449 5.38184 9.9217C5.19756 9.79854 5.05394 9.6235 4.96916 9.41871C4.88437 9.21392 4.86222 8.98859 4.90552 8.77121C4.94882 8.55384 5.05561 8.35419 5.21239 8.19751C5.36917 8.04084 5.56889 7.93418 5.7863 7.89103C6.0037 7.84788 6.22902 7.87017 6.43375 7.9551C6.63848 8.04002 6.81343 8.18375 6.93646 8.36812C7.05949 8.55248 7.12508 8.76919 7.12493 8.99084C7.12493 9.28801 7.00688 9.57302 6.79675 9.78315C6.58661 9.99329 6.30161 10.1113 6.00443 10.1113V10.1106ZM8.24543 7.30859C8.02401 7.3077 7.80782 7.24123 7.62415 7.11757C7.44048 6.99391 7.29756 6.8186 7.21344 6.61378C7.12932 6.40896 7.10777 6.1838 7.15152 5.96674C7.19526 5.74969 7.30233 5.55045 7.45921 5.3942C7.61609 5.23794 7.81575 5.13167 8.03299 5.0888C8.25022 5.04593 8.47528 5.06838 8.67976 5.15332C8.88425 5.23826 9.05898 5.38188 9.1819 5.56604C9.30483 5.75021 9.37043 5.96667 9.37043 6.18809C9.37044 6.33561 9.3413 6.48169 9.28471 6.61793C9.22812 6.75417 9.14518 6.87789 9.04066 6.982C8.93613 7.0861 8.81208 7.16855 8.67561 7.22459C8.53915 7.28064 8.39296 7.30918 8.24543 7.30859ZM11.7899 7.10459C11.5683 7.10459 11.3517 7.03887 11.1674 6.91575C10.9832 6.79263 10.8395 6.61763 10.7547 6.41289C10.6699 6.20814 10.6477 5.98285 10.691 5.76549C10.7342 5.54813 10.8409 5.34848 10.9976 5.19178C11.1543 5.03507 11.354 4.92835 11.5713 4.88512C11.7887 4.84188 12.014 4.86407 12.2187 4.94888C12.4235 5.03369 12.5985 5.17731 12.7216 5.36157C12.8447 5.54584 12.9104 5.76247 12.9104 5.98409C12.9104 6.28126 12.7924 6.56627 12.5822 6.7764C12.3721 6.98654 12.0871 7.10459 11.7899 7.10459ZM14.0309 9.98459C13.8093 9.98459 13.5927 9.91887 13.4084 9.79575C13.2242 9.67263 13.0805 9.49763 12.9957 9.29289C12.9109 9.08814 12.8887 8.86285 12.932 8.64549C12.9752 8.42813 13.0819 8.22848 13.2386 8.07178C13.3953 7.91507 13.595 7.80835 13.8123 7.76512C14.0297 7.72188 14.255 7.74407 14.4597 7.82888C14.6645 7.91369 14.8395 8.05731 14.9626 8.24157C15.0857 8.42584 15.1514 8.64247 15.1514 8.86409C15.1514 9.16126 15.0334 9.44627 14.8232 9.6564C14.6131 9.86654 14.3281 9.98459 14.0309 9.98459Z" fill="white"/>
</g>
</g>
<defs>
<linearGradient id="paint0_linear_1549_6951" x1="-0.833333" y1="-3.25445e-07" x2="19.1667" y2="17.9167" gradientUnits="userSpaceOnUse">
<stop stop-color="#FF07AC"/>
<stop offset="1" stop-color="#9900FF"/>
</linearGradient>
<clipPath id="clip0_1549_6951">
<rect width="20" height="20" fill="white"/>
</clipPath>
</defs>
</svg>
