<svg width="18" height="18" viewBox="0 0 18 18" fill="none" xmlns="http://www.w3.org/2000/svg">
<g clip-path="url(#clip0_34076_207886)">
<rect x="0.75" y="0.75" width="16.5" height="16.5" rx="1.5" fill="#4383EA"/>
<path d="M11.5423 18.1323L11.624 18.2397C10.8853 17.7239 10.0882 16.7693 9.8198 16.3608C9.60974 16.0376 9.34834 15.5439 9.03442 14.8764C8.99591 15.0503 8.97607 15.2417 8.97607 15.4529C8.97607 15.866 8.93873 16.1765 8.85937 16.3912C8.75085 16.6783 8.53846 16.8428 8.25605 16.7938L8.1977 16.7774C7.60254 16.53 7.17542 15.9442 6.90235 15.0375C6.67829 14.2089 6.68296 13.3337 6.91169 12.4141C7.05289 11.7571 7.05989 11.2891 6.94786 11.0231C6.56626 10.5446 6.25351 9.92144 6.00494 9.1524C5.66885 8.10679 5.44362 7.69484 4.89048 7.06351C4.42018 6.52903 4.15411 6.16493 4.04442 5.82301C3.94872 5.52776 4.0024 5.26285 4.25681 5.11115C4.47853 4.97928 4.81696 4.96761 5.31409 5.06097C5.80422 5.1765 6.17649 5.33287 6.52892 5.54877C6.65845 5.62812 7.02605 5.87902 7.02255 5.87785C7.27112 6.04006 7.45433 6.11592 7.71457 6.14509L7.86161 6.16026L8.00631 6.1766C8.22804 6.19994 8.36574 6.21628 8.51045 6.23845C9.2153 6.34114 9.81046 6.5372 10.625 6.97131C12.1561 7.78703 13.721 9.30061 14.7491 11.1549C14.9814 11.575 15.1704 11.9975 15.3513 12.4736C15.4596 12.7606 15.5612 13.0501 15.6559 13.3419L15.7457 13.6021C15.9196 14.0934 16.0538 14.3921 16.2242 14.6337C16.4179 14.9079 16.6536 15.0923 16.9804 15.2102C18.6025 15.7972 19.3925 16.2383 20.3366 17.1567C20.5163 17.3283 20.633 17.466 20.6949 17.5873C20.7882 17.7659 20.7801 17.9514 20.6307 18.0821C20.5338 18.1662 20.4125 18.2 20.2421 18.2163C20.1406 18.2245 20.053 18.2268 19.7928 18.2268C19.4194 18.2268 19.2898 18.228 19.1241 18.2397C18.8639 18.2603 18.6056 18.3009 18.3516 18.361L18.0377 18.4287C18.0925 18.4847 18.1672 18.5524 18.2641 18.6364C18.585 18.9142 19.3003 19.5 20.0612 19.8968C21.0531 20.4161 21.4394 20.5993 22.5107 20.9447C22.4543 20.9352 22.3979 20.9255 22.3415 20.9156C23.1724 21.0883 24.0605 21.1723 25.0045 21.1688C22.6986 21.4535 20.4825 21.3788 18.3563 20.9424C15.4575 20.3472 12.603 18.9375 11.5411 18.1323H11.5423ZM7.54536 7.63416L8.63065 9.23292C8.82426 9.02359 8.92997 8.74783 8.92589 8.46271C8.92589 7.89556 8.53729 7.43577 8.05766 7.43577C7.86848 7.43754 7.68639 7.50805 7.54536 7.63416Z" fill="white"/>
</g>
<defs>
<clipPath id="clip0_34076_207886">
<rect width="18" height="18" fill="white"/>
</clipPath>
</defs>
</svg>
