<svg width="69" height="19" viewBox="0 0 69 19" fill="none" xmlns="http://www.w3.org/2000/svg">
<rect x="0.5" y="0.5" width="68" height="18" rx="3.5" stroke="url(#paint0_linear_29184_178919)"/>
<g clip-path="url(#clip0_29184_178919)">
<path d="M10.875 6.75L12.25 8.125M6.75 13.625L13.625 6.75L12.25 5.375L5.375 12.25L6.75 13.625ZM8.125 5.375C8.125 5.61812 8.22158 5.85127 8.39349 6.02318C8.56539 6.19509 8.79855 6.29167 9.04167 6.29167C8.79855 6.29167 8.56539 6.38824 8.39349 6.56015C8.22158 6.73206 8.125 6.96522 8.125 7.20833C8.125 6.96522 8.02842 6.73206 7.85651 6.56015C7.68461 6.38824 7.45145 6.29167 7.20833 6.29167C7.45145 6.29167 7.68461 6.19509 7.85651 6.02318C8.02842 5.85127 8.125 5.61812 8.125 5.375ZM12.7083 9.95833C12.7083 10.2014 12.8049 10.4346 12.9768 10.6065C13.1487 10.7784 13.3819 10.875 13.625 10.875C13.3819 10.875 13.1487 10.9716 12.9768 11.1435C12.8049 11.3154 12.7083 11.5486 12.7083 11.7917C12.7083 11.5486 12.6118 11.3154 12.4398 11.1435C12.2679 10.9716 12.0348 10.875 11.7917 10.875C12.0348 10.875 12.2679 10.7784 12.4398 10.6065C12.6118 10.4346 12.7083 10.2014 12.7083 9.95833Z" stroke="url(#paint1_linear_29184_178919)" stroke-linecap="round" stroke-linejoin="round"/>
</g>
<path d="M26.3847 5.82V7.94H25.3847V6.77H21.9047V7.98H20.9147V5.82H23.0647C22.9547 5.47 22.8247 5.15 22.6847 4.86L23.7547 4.68C23.8747 5.02 23.9947 5.4 24.1147 5.82H26.3847ZM22.6547 7.23L23.6847 7.33C23.5647 7.83 23.4347 8.29 23.3147 8.71H26.6547V9.7H25.5547C25.3947 10.6 25.0847 11.37 24.6247 12C25.4847 12.46 26.1747 12.88 26.7147 13.26L26.0047 14.08C25.4547 13.68 24.7647 13.23 23.9447 12.73C23.2247 13.31 22.1447 13.77 20.7047 14.12L20.2847 13.13C21.4047 12.88 22.2847 12.55 22.9347 12.14C22.4047 11.84 21.8347 11.52 21.2347 11.2C21.4747 10.72 21.7047 10.22 21.9047 9.7H20.7247V8.71H22.2547C22.4047 8.23 22.5347 7.73 22.6547 7.23ZM24.5547 9.7H22.9747C22.8047 10.14 22.6347 10.53 22.4547 10.86C22.8947 11.08 23.3147 11.29 23.6947 11.5C24.1047 11.02 24.3947 10.42 24.5547 9.7ZM18.6547 13.95H17.8047L17.5747 12.94C17.8247 12.98 18.0647 13 18.2947 13C18.4947 13 18.6047 12.88 18.6047 12.66V10.65C18.2647 10.77 17.9347 10.89 17.6047 11L17.3347 9.95C17.7647 9.85 18.1847 9.74 18.6047 9.6V7.6H17.5447V6.59H18.6047V4.82H19.6647V6.59H20.4947V7.6H19.6647V9.17C19.9247 9.05 20.1947 8.91 20.4547 8.77V9.83C20.1947 9.96 19.9247 10.09 19.6647 10.21V12.93C19.6647 13.61 19.3247 13.95 18.6547 13.95ZM27.2047 5.86H33.0547V6.86H30.7147V13H29.5447V6.86H27.2047V5.86ZM36.157 7.69C36.917 7.69 37.487 7.88 37.847 8.26C38.167 8.59 38.327 9.07 38.327 9.7V13H37.267V12.32C37.067 12.58 36.817 12.77 36.527 12.91C36.197 13.06 35.807 13.14 35.357 13.14C34.817 13.14 34.397 13 34.087 12.73C33.767 12.45 33.607 12.1 33.607 11.67C33.607 11.09 33.827 10.64 34.287 10.33C34.707 10.03 35.297 9.87 36.057 9.85L37.187 9.82V9.62C37.187 8.94 36.817 8.61 36.077 8.61C35.757 8.61 35.507 8.66 35.317 8.78C35.097 8.91 34.947 9.11 34.887 9.38L33.757 9.29C33.867 8.72 34.147 8.3 34.597 8.04C34.977 7.8 35.497 7.69 36.157 7.69ZM37.187 10.64L36.137 10.67C35.227 10.69 34.777 11.01 34.777 11.63C34.777 11.81 34.847 11.96 35.007 12.08C35.167 12.2 35.367 12.27 35.617 12.27C36.057 12.27 36.427 12.14 36.727 11.89C37.027 11.63 37.187 11.3 37.187 10.9V10.64ZM39.5297 5.72H40.6697V8.54C41.0897 7.97 41.6097 7.69 42.2097 7.69C42.9497 7.69 43.5297 7.96 43.9597 8.5C44.3497 9 44.5497 9.63 44.5497 10.39C44.5497 11.18 44.3497 11.83 43.9497 12.33C43.5097 12.87 42.9097 13.14 42.1497 13.14C41.4697 13.14 40.9497 12.91 40.5897 12.45V13H39.5297V5.72ZM41.9397 8.61C41.5697 8.61 41.2697 8.76 41.0297 9.06C40.7597 9.38 40.6297 9.82 40.6297 10.37V10.45C40.6297 10.95 40.7297 11.37 40.9497 11.69C41.1897 12.04 41.5297 12.22 41.9797 12.22C42.4797 12.22 42.8497 12.04 43.0897 11.68C43.2797 11.38 43.3797 10.95 43.3797 10.39C43.3797 9.83 43.2697 9.41 43.0697 9.12C42.8297 8.78 42.4497 8.61 41.9397 8.61Z" fill="url(#paint2_linear_29184_178919)"/>
<path d="M52.8753 6.12L53.8253 6.58C53.3953 7.44 52.8853 8.18 52.3053 8.8L51.4653 8.21C52.0053 7.63 52.4753 6.93 52.8753 6.12ZM50.0253 6.3C50.3253 6.82 50.5853 7.4 50.8253 8.06L49.8153 8.32C49.6153 7.73 49.3653 7.17 49.0553 6.63L50.0253 6.3ZM47.3053 6.55C47.6653 7.09 47.9853 7.67 48.2553 8.29L47.2953 8.72C46.9953 8.02 46.6653 7.41 46.3053 6.88L47.3053 6.55ZM53.3653 4.8L53.8753 5.67C51.9453 6.06 49.3853 6.26 46.2053 6.26L45.8753 5.29C48.8153 5.29 51.3153 5.12 53.3653 4.8ZM45.9053 9.33H49.4253V8.52H50.4653V9.33H53.9953V10.35H51.3253C52.0053 11.22 53.0753 12 54.5353 12.69L53.7853 13.64C52.2453 12.66 51.1353 11.58 50.4653 10.38V14H49.4253V10.43C48.6953 11.73 47.5453 12.81 45.9853 13.67L45.3853 12.69C46.8053 12.06 47.8653 11.28 48.5653 10.35H45.9053V9.33ZM63.2953 14H62.4053L62.1553 13.03L62.9753 13.08C63.1753 13.08 63.2753 12.95 63.2753 12.69V11.03L62.4553 11.6C62.2453 10.97 61.9853 10.3 61.6853 9.59C61.4253 10.39 61.0453 11.09 60.5453 11.68L59.9153 10.92V14.06H58.9353V6.3H61.1453C61.1653 5.82 61.1853 5.31 61.1853 4.77H62.1853C62.1853 5.31 62.1753 5.82 62.1553 6.3H64.2553V12.91C64.2553 13.63 63.9353 14 63.2953 14ZM59.9153 10.81C60.4553 10.09 60.8153 9.22 60.9853 8.21C61.0253 7.93 61.0553 7.62 61.0853 7.3H59.9153V10.81ZM62.0853 7.3C62.0453 7.66 62.0053 7.99 61.9653 8.3C62.5253 9.32 62.9553 10.22 63.2753 11V7.3H62.0853ZM58.6453 11.83V12.81C57.7253 13.17 56.6753 13.47 55.5153 13.7L55.3753 12.7C56.6153 12.48 57.7053 12.19 58.6453 11.83ZM56.8353 4.79L57.8053 5.17C57.3853 6.33 56.9553 7.28 56.5153 8.01C56.8053 7.98 57.0953 7.94 57.3753 7.9C57.5453 7.54 57.7253 7.16 57.9053 6.76L58.8453 7.12C58.0653 8.68 57.4053 9.82 56.8753 10.56C57.4353 10.42 57.9953 10.25 58.5553 10.04V10.92C57.5353 11.32 56.5653 11.59 55.6553 11.72L55.3853 10.81C55.5653 10.73 55.7253 10.63 55.8453 10.5C56.1253 10.18 56.4853 9.62 56.9153 8.8C56.4953 8.87 56.0453 8.94 55.5853 9.01L55.3353 8.08C55.4953 8.01 55.6353 7.88 55.7653 7.7C56.1753 6.81 56.5353 5.84 56.8353 4.79Z" fill="url(#paint3_linear_29184_178919)"/>
<defs>
<linearGradient id="paint0_linear_29184_178919" x1="3.74096" y1="1.10277" x2="15.6815" y2="35.4312" gradientUnits="userSpaceOnUse">
<stop stop-color="#3F8FFF"/>
<stop offset="1" stop-color="#EF2FDF"/>
</linearGradient>
<linearGradient id="paint1_linear_29184_178919" x1="5.82229" y1="5.85383" x2="13.9539" y2="12.2913" gradientUnits="userSpaceOnUse">
<stop stop-color="#3F8FFF"/>
<stop offset="1" stop-color="#EF2FDF"/>
</linearGradient>
<linearGradient id="paint2_linear_29184_178919" x1="17" y1="3" x2="64.117" y2="18.6573" gradientUnits="userSpaceOnUse">
<stop stop-color="#33D6C0"/>
<stop offset="0.25" stop-color="#5083FB"/>
<stop offset="0.5" stop-color="#336DF4"/>
<stop offset="0.75" stop-color="#4752E6"/>
<stop offset="1" stop-color="#8D55ED"/>
</linearGradient>
<linearGradient id="paint3_linear_29184_178919" x1="19.6024" y1="3.75453" x2="27.6663" y2="27.3254" gradientUnits="userSpaceOnUse">
<stop stop-color="#3F8FFF"/>
<stop offset="1" stop-color="#EF2FDF"/>
</linearGradient>
<clipPath id="clip0_29184_178919">
<rect width="11" height="11" fill="white" transform="translate(4 4)"/>
</clipPath>
</defs>
</svg>
