<svg width="24" height="24" viewBox="0 0 24 24" fill="none" xmlns="http://www.w3.org/2000/svg">
<g clip-path="url(#clip0_573_31778)">
<circle cx="12" cy="12" r="12" fill="#F59E0B"/>
<path d="M16.8852 11.041C17.1564 11.0411 17.39 11.1384 17.5859 11.3328C17.782 11.5274 17.8801 11.7595 17.8801 12.0289V16.6695C17.8801 16.9389 17.8326 17.1909 17.7371 17.4254C17.6416 17.6598 17.5109 17.8643 17.3451 18.0389C17.1793 18.2135 16.983 18.351 16.7568 18.4508C16.5307 18.5506 16.2817 18.6002 16.0104 18.6002H8.39434C8.12294 18.6002 7.87662 18.5505 7.65547 18.4508C7.43428 18.351 7.24529 18.2188 7.08945 18.0541C6.93368 17.8895 6.81337 17.697 6.72793 17.4775C6.64253 17.2581 6.59963 17.0238 6.59961 16.7744V12.0289C6.59963 11.7595 6.69512 11.5274 6.88613 11.3328C7.07715 11.1382 7.30844 11.041 7.57988 11.041H16.8852ZM12.2398 12.7326C11.3055 12.7327 10.5478 13.4905 10.5477 14.4248C10.5477 15.1611 11.019 15.7854 11.6756 16.018V16.6807C11.6756 16.9921 11.9284 17.2448 12.2398 17.2449C12.5513 17.2449 12.8035 16.9921 12.8035 16.6807V16.0186C13.4605 15.7862 13.932 15.1614 13.932 14.4248C13.9319 13.4904 13.1742 12.7327 12.2398 12.7326Z" fill="white"/>
<path opacity="0.6" d="M8.48535 11.0438H10.3856V9.26244C10.3856 8.63374 10.5515 8.14724 10.8832 7.80295C11.215 7.45865 11.6524 7.28651 12.1953 7.28651C12.7985 7.28651 13.2761 7.45865 13.628 7.80295C13.9799 8.14724 14.1558 8.63374 14.1558 9.26244V11.0438H15.9806V8.8433C15.9806 8.36429 15.8776 7.91771 15.6715 7.50356C15.4654 7.08941 15.1889 6.72516 14.842 6.41081C14.4951 6.09646 14.098 5.84947 13.6506 5.66984C13.2032 5.49021 12.7382 5.40039 12.2556 5.40039C11.7127 5.40039 11.2125 5.49021 10.755 5.66984C10.2976 5.84947 9.90046 6.09646 9.56365 6.41081C9.22684 6.72516 8.96292 7.08941 8.77189 7.50356C8.58087 7.91771 8.48535 8.36429 8.48535 8.8433V11.0438Z" fill="white"/>
</g>
<defs>
<clipPath id="clip0_573_31778">
<rect width="24" height="24" fill="white"/>
</clipPath>
</defs>
</svg>
