<svg width="24" height="24" viewBox="0 0 24 24" fill="none" xmlns="http://www.w3.org/2000/svg">
<g clip-path="url(#clip0_573_31772)">
<circle cx="12" cy="12" r="12" fill="#0EA5E9"/>
<g opacity="0.6">
<path d="M15.0887 18.4891C15.0425 18.4891 15.002 18.4582 14.9899 18.4137L14.2563 15.7291C14.2385 15.6639 14.2876 15.5997 14.3552 15.5997H14.877C14.9243 15.5997 14.9654 15.632 14.9766 15.6779L15.3228 17.1022C15.3481 17.2064 15.4961 17.2067 15.5219 17.1026L15.8743 15.6775C15.8856 15.6318 15.9267 15.5997 15.9738 15.5997H16.3996C16.4466 15.5997 16.4876 15.6317 16.499 15.6773L16.8546 17.1028C16.8805 17.2068 17.0286 17.2062 17.0537 17.102L17.3967 15.6781C17.4078 15.6321 17.449 15.5997 17.4964 15.5997H18.0143C18.0818 15.5997 18.1308 15.6637 18.1132 15.7289L17.3873 18.4134C17.3752 18.4581 17.3346 18.4891 17.2884 18.4891H16.7057C16.6589 18.4891 16.618 18.4574 16.6064 18.412L16.2859 17.1596C16.2596 17.0569 16.1136 17.0569 16.0873 17.1596L15.7668 18.412C15.7552 18.4574 15.7143 18.4891 15.6675 18.4891H15.0887Z" fill="white"/>
<path d="M10.9037 18.4891C10.8576 18.4891 10.8171 18.4582 10.8049 18.4137L10.0714 15.7291C10.0536 15.6639 10.1026 15.5997 10.1702 15.5997H10.6921C10.7393 15.5997 10.7805 15.632 10.7916 15.6779L11.1378 17.1022C11.1632 17.2064 11.3112 17.2067 11.3369 17.1026L11.6894 15.6775C11.7007 15.6318 11.7417 15.5997 11.7888 15.5997H12.2146C12.2617 15.5997 12.3027 15.6317 12.314 15.6773L12.6697 17.1028C12.6956 17.2068 12.8436 17.2062 12.8687 17.102L13.2118 15.6781C13.2229 15.6321 13.264 15.5997 13.3114 15.5997H13.8294C13.8968 15.5997 13.9459 15.6637 13.9283 15.7289L13.2023 18.4134C13.1902 18.4581 13.1497 18.4891 13.1034 18.4891H12.5207C12.4739 18.4891 12.4331 18.4574 12.4214 18.412L12.1009 17.1596C12.0746 17.0569 11.9287 17.0569 11.9024 17.1596L11.5818 18.412C11.5702 18.4574 11.5294 18.4891 11.4826 18.4891H10.9037Z" fill="white"/>
<path d="M6.71886 18.4891C6.67266 18.4891 6.63218 18.4582 6.62001 18.4136L5.88649 15.7291C5.86868 15.6639 5.91776 15.5996 5.98535 15.5996H6.50717C6.55444 15.5996 6.59558 15.6319 6.60675 15.6779L6.95295 17.1022C6.97826 17.2063 7.12627 17.2066 7.152 17.1026L7.50448 15.6775C7.51579 15.6317 7.55684 15.5996 7.60396 15.5996H8.02972C8.07676 15.5996 8.11776 15.6316 8.12915 15.6773L8.48476 17.1028C8.5107 17.2068 8.65871 17.2062 8.68381 17.102L9.02688 15.6781C9.03797 15.632 9.07916 15.5996 9.12651 15.5996H9.64446C9.71194 15.5996 9.761 15.6637 9.74338 15.7288L9.01743 18.4133C9.00535 18.458 8.9648 18.4891 8.91851 18.4891H8.33583C8.28902 18.4891 8.24816 18.4574 8.23655 18.412L7.91603 17.1596C7.88973 17.0568 7.74378 17.0568 7.71748 17.1596L7.39696 18.412C7.38535 18.4574 7.34449 18.4891 7.29768 18.4891H6.71886Z" fill="white"/>
</g>
<path fill-rule="evenodd" clip-rule="evenodd" d="M11.9963 4.80078C15.9743 4.80083 19.1998 8.02281 19.1998 12.0008C19.1998 13.0219 18.986 13.9927 18.6027 14.8725H5.3957C5.01316 13.9927 4.7998 13.0219 4.7998 12.0008C4.79981 8.02278 8.01829 4.80078 11.9963 4.80078ZM6.42695 10.5605C6.30815 11.0213 6.24004 11.504 6.24004 12.0008C6.24004 12.4976 6.30815 12.9802 6.42695 13.441H8.86035C8.79914 12.9694 8.75957 12.4904 8.75957 12.0008C8.75957 11.5112 8.79923 11.0321 8.85684 10.5605H6.42695ZM10.3152 10.5605C10.2468 11.0321 10.1998 11.5112 10.1998 12.0008C10.1998 12.4904 10.2468 12.9694 10.3152 13.441H13.6844C13.7528 12.9694 13.7998 12.4904 13.7998 12.0008C13.7998 11.5112 13.7528 11.0321 13.6844 10.5605H10.3152ZM15.1393 10.5605C15.2005 11.0321 15.24 11.5112 15.24 12.0008C15.24 12.4904 15.1969 12.9694 15.1393 13.441H17.5691C17.6915 12.9802 17.7596 12.4976 17.7596 12.0008C17.7596 11.504 17.6879 11.0213 17.5691 10.5605H15.1393ZM10.1312 6.55391C8.80652 7.00751 7.70524 7.92935 7.01406 9.1209H9.13809C9.37208 8.22089 9.69925 7.3567 10.1312 6.55391ZM11.9998 6.26621C11.3987 7.13017 10.9306 8.09136 10.6246 9.1209H13.375C13.069 8.09136 12.601 7.13017 11.9998 6.26621ZM13.8648 6.55742C14.2968 7.35661 14.624 8.22089 14.858 9.1209H16.982C16.2908 7.92934 15.1896 7.01102 13.8648 6.55742Z" fill="white"/>
</g>
<defs>
<clipPath id="clip0_573_31772">
<rect width="24" height="24" fill="white"/>
</clipPath>
</defs>
</svg>
