<svg xmlns="http://www.w3.org/2000/svg" width="16" height="16" viewBox="0 0 16 16" fill="none">
  <rect width="16" height="16" rx="4" fill="white"/>
  <path d="M8.06298 4.69752C8.30067 4.09904 9.14776 4.09904 9.38544 4.69752L10.2288 6.8211C10.3011 7.00319 10.4454 7.14741 10.6274 7.21972L12.751 8.0631C13.3495 8.30079 13.3495 9.14788 12.751 9.38557L10.6274 10.2289C10.4454 10.3013 10.3011 10.4455 10.2288 10.6276L9.38545 12.7512C9.14776 13.3496 8.30067 13.3496 8.06298 12.7512L7.2196 10.6276C7.14728 10.4455 7.00307 10.3013 6.82098 10.2289L4.6974 9.38557C4.09892 9.14788 4.09891 8.30079 4.6974 8.0631L6.82098 7.21972C7.00307 7.14741 7.14728 7.0032 7.2196 6.8211L8.06298 4.69752Z" fill="#6366F1"/>
  <path opacity="0.3" d="M4.54837 3.21104C4.64283 2.97319 4.97947 2.97319 5.07392 3.21104L5.40909 4.05497C5.43783 4.12733 5.49514 4.18464 5.56751 4.21338L6.41144 4.54855C6.64928 4.64301 6.64928 4.97965 6.41144 5.07411L5.56751 5.40927C5.49514 5.43801 5.43783 5.49533 5.40909 5.56769L5.07393 6.41162C4.97947 6.64946 4.64283 6.64946 4.54837 6.41162L4.2132 5.56769C4.18446 5.49533 4.12715 5.43801 4.05478 5.40927L3.21085 5.07411C2.97301 4.97965 2.97301 4.64301 3.21085 4.54855L4.05478 4.21338C4.12715 4.18464 4.18446 4.12733 4.2132 4.05497L4.54837 3.21104Z" fill="#6366F1"/>
</svg>
