<svg width="20" height="20" viewBox="0 0 20 20" fill="none" xmlns="http://www.w3.org/2000/svg">
<path d="M11.2051 4.93165C8.25196 3.85548 3.93165 1.88868 3.93165 1.88868C3.62501 1.8086 3.58204 2.10548 3.58204 2.10548C3.48438 3.29884 4.23829 5.24024 4.62891 5.67579C5.01759 6.11134 10.8613 7.89649 10.8613 7.89649C10.8613 7.89649 6.36719 6.99024 5.28321 6.67774C4.19727 6.36524 4.54298 7.0254 4.54298 7.0254C4.76563 8.23048 5.81055 9.59962 6.63673 9.72852C7.46094 9.85743 10.9356 9.80665 10.9356 9.80665C10.9356 9.80665 10.2422 9.88673 9.11524 10.0391C8.28126 10.1524 7.22071 10.2832 6.94532 10.3867C6.29884 10.6309 7.41407 11.6094 7.41407 11.6094C9.06837 13.1094 9.94727 12.5957 9.94727 12.5957C10.5977 12.3867 11.1465 12.2344 11.6113 12.1231L11.0352 14.5137H12.6875L11.7774 18.125L15.7871 12.8145H13.6875L14.1231 12.0586C14.1289 12.0684 14.1309 12.0742 14.1309 12.0742C14.1309 12.0742 15.6211 9.68946 16.1914 8.47266L16.2031 8.45313H16.2012C16.2988 8.24219 16.3691 8.06837 16.3965 7.94923C16.7285 6.55665 14.1602 6.00782 11.2051 4.93165Z" fill="#D3DFFB"/>
</svg>
