<svg width="200" height="200" viewBox="0 0 200 200" fill="none" xmlns="http://www.w3.org/2000/svg">
<path d="M200 152.96H0V153.06H200V152.96Z" fill="#EBEBEB"/>
<path d="M179.96 159.396H166.712V159.496H179.96V159.396Z" fill="#EBEBEB"/>
<path d="M132.488 160.484H129.012V160.584H132.488V160.484Z" fill="#EBEBEB"/>
<path d="M166.312 155.684H158.636V155.784H166.312V155.684Z" fill="#EBEBEB"/>
<path d="M38.2599 156.356H20.9839V156.456H38.2599V156.356Z" fill="#EBEBEB"/>
<path d="M44.356 156.356H41.824V156.456H44.356V156.356Z" fill="#EBEBEB"/>
<path d="M90.0599 158.044H52.5879V158.144H90.0599V158.044Z" fill="#EBEBEB"/>
<path d="M94.7999 135.12H17.5639C16.9589 135.119 16.379 134.878 15.9515 134.45C15.524 134.021 15.2839 133.441 15.2839 132.836V24.264C15.2892 23.6624 15.5316 23.0872 15.9585 22.6633C16.3854 22.2394 16.9623 22.001 17.5639 22H94.7999C95.4057 22 95.9866 22.2406 96.415 22.669C96.8433 23.0973 97.0839 23.6782 97.0839 24.284V132.836C97.0839 133.442 96.8433 134.023 96.415 134.451C95.9866 134.879 95.4057 135.12 94.7999 135.12ZM17.5639 22.08C16.9854 22.0811 16.4309 22.3116 16.0222 22.7211C15.6135 23.1306 15.3839 23.6855 15.3839 24.264V132.836C15.3839 133.415 15.6135 133.969 16.0222 134.379C16.4309 134.788 16.9854 135.019 17.5639 135.02H94.7999C95.3788 135.019 95.9337 134.789 96.3431 134.379C96.7524 133.97 96.9829 133.415 96.9839 132.836V24.264C96.9829 23.6851 96.7524 23.1302 96.3431 22.7208C95.9337 22.3115 95.3788 22.0811 94.7999 22.08H17.5639Z" fill="#EBEBEB"/>
<path d="M181.324 135.12H104.084C103.479 135.119 102.898 134.878 102.47 134.45C102.042 134.022 101.801 133.441 101.8 132.836V24.264C101.806 23.662 102.05 23.0868 102.477 22.663C102.905 22.2392 103.482 22.001 104.084 22H181.324C181.925 22.0021 182.501 22.2409 182.927 22.6647C183.353 23.0885 183.595 23.6631 183.6 24.264V132.836C183.6 133.44 183.361 134.02 182.934 134.448C182.507 134.876 181.928 135.118 181.324 135.12ZM104.084 22.08C103.505 22.0811 102.95 22.3115 102.541 22.7208C102.132 23.1302 101.901 23.6851 101.9 24.264V132.836C101.901 133.415 102.132 133.97 102.541 134.379C102.95 134.789 103.505 135.019 104.084 135.02H181.324C181.903 135.019 182.458 134.789 182.867 134.379C183.277 133.97 183.507 133.415 183.508 132.836V24.264C183.507 23.6851 183.277 23.1302 182.867 22.7208C182.458 22.3115 181.903 22.0811 181.324 22.08H104.084Z" fill="#EBEBEB"/>
<path d="M115.876 69.624H170.988V33.532L115.876 33.532V69.624Z" fill="#E6E6E6"/>
<path d="M114.192 69.624H170.2V33.532L114.192 33.532V69.624Z" fill="#F0F0F0"/>
<path d="M115.876 76.7041H170.988V69.6201H115.876V76.7041Z" fill="#E6E6E6"/>
<path d="M111.396 76.7041H167.404V69.6201H111.396V76.7041Z" fill="#F0F0F0"/>
<path d="M167.848 67.2719V35.8879H116.548V67.2719H167.848Z" fill="#FAFAFA"/>
<path d="M156.28 67.2679L149.728 35.8879H139.504L146.056 67.2679H156.28Z" fill="white"/>
<path d="M166.76 64.928C166.782 64.928 166.805 64.9235 166.825 64.9148C166.846 64.9061 166.865 64.8934 166.88 64.8774C166.896 64.8614 166.908 64.8424 166.916 64.8215C166.925 64.8007 166.929 64.7784 166.928 64.756V37.42C166.928 37.3754 166.91 37.3327 166.879 37.3012C166.847 37.2697 166.805 37.252 166.76 37.252C166.738 37.2515 166.716 37.2554 166.695 37.2637C166.675 37.2719 166.656 37.2843 166.64 37.3C166.624 37.3157 166.612 37.3344 166.604 37.3551C166.596 37.3757 166.592 37.3978 166.592 37.42V64.756C166.592 64.7784 166.596 64.8007 166.604 64.8215C166.612 64.8424 166.624 64.8614 166.64 64.8774C166.656 64.8934 166.674 64.9061 166.695 64.9148C166.716 64.9235 166.738 64.928 166.76 64.928Z" fill="#F0F0F0"/>
<path d="M143.86 67.2679L137.308 35.8879H133.32L139.876 67.2679H143.86Z" fill="white"/>
<path d="M116.848 67.2719V35.8879H116.548V67.2719H116.848Z" fill="#E6E6E6"/>
<path opacity="0.6" d="M113.64 39.436H168.752L168.968 36.8H113.856L113.64 39.436Z" fill="#EBEBEB"/>
<path opacity="0.6" d="M113.64 43.756H168.752L168.968 41.124H113.856L113.64 43.756Z" fill="#EBEBEB"/>
<path opacity="0.6" d="M113.64 48.0761H168.752L168.968 45.4441H113.856L113.64 48.0761Z" fill="#EBEBEB"/>
<path opacity="0.6" d="M113.64 52.3999H168.752L168.968 49.7639H113.856L113.64 52.3999Z" fill="#EBEBEB"/>
<path opacity="0.6" d="M113.64 56.72H168.752L168.968 54.084H113.856L113.64 56.72Z" fill="#EBEBEB"/>
<path opacity="0.6" d="M113.64 61.0401H168.752L168.968 58.4041H113.856L113.64 61.0401Z" fill="#EBEBEB"/>
<path d="M163.076 126.712H151.52V128.992H163.076V126.712Z" fill="#E6E6E6"/>
<path d="M129.724 152.96H131.856V100.532H129.724V152.96Z" fill="#E6E6E6"/>
<path d="M122.332 128.992H151.516V126.712H122.332V128.992Z" fill="#F5F5F5"/>
<path d="M163.076 139.18H151.52V141.46H163.076V139.18Z" fill="#E6E6E6"/>
<path d="M122.332 141.456H151.516V139.176H122.332V141.456Z" fill="#F5F5F5"/>
<path d="M163.076 101.78H151.52V104.06H163.076V101.78Z" fill="#E6E6E6"/>
<path d="M122.332 104.056H151.516V101.776H122.332V104.056Z" fill="#F5F5F5"/>
<path d="M163.076 114.244H151.52V116.524H163.076V114.244Z" fill="#E6E6E6"/>
<path d="M122.332 116.524H151.516V114.244H122.332V116.524Z" fill="#F5F5F5"/>
<path d="M158.912 152.96H161.044V100.532H158.912V152.96Z" fill="#E6E6E6"/>
<path d="M149.384 152.96H151.516V100.532H149.384V152.96Z" fill="#F5F5F5"/>
<path d="M122.332 152.96H124.464V100.532H122.332V152.96Z" fill="#F5F5F5"/>
<path d="M26.1519 152.96H47.9839L47.9839 110.604H26.1519L26.1519 152.96Z" fill="#E6E6E6"/>
<path d="M31.9799 152.96H26.1479V147.112H38.0919L31.9799 152.96Z" fill="#FAFAFA"/>
<path d="M85.6719 152.96H107.504V110.604H85.6719V152.96Z" fill="#E6E6E6"/>
<path d="M26.1519 150.944H90.7639V110.6H26.1519V150.944Z" fill="#FAFAFA"/>
<path d="M84.9321 152.96H90.7601V147.112H78.8201L84.9321 152.96Z" fill="#FAFAFA"/>
<path d="M30.672 135.732H86.24V125.636H30.672V135.732Z" fill="#F0F0F0"/>
<path d="M30.672 147.984H86.24V137.888H30.672V147.984Z" fill="#F0F0F0"/>
<path d="M75.6801 126.716H41.2361C40.7502 126.716 40.2842 126.523 39.9406 126.179C39.5971 125.836 39.4041 125.37 39.4041 124.884V124.76H77.5081V124.884C77.5081 125.369 77.3156 125.835 76.9729 126.178C76.6302 126.522 76.1652 126.715 75.6801 126.716Z" fill="#FAFAFA"/>
<path d="M30.672 123.476H86.24V113.38H30.672V123.476Z" fill="#F0F0F0"/>
<path d="M75.6801 114.46H41.2361C40.7502 114.46 40.2842 114.267 39.9406 113.923C39.5971 113.58 39.4041 113.114 39.4041 112.628V112.504H77.5081V112.628C77.5081 113.113 77.3156 113.579 76.9729 113.922C76.6302 114.265 76.1652 114.459 75.6801 114.46Z" fill="#FAFAFA"/>
<path d="M75.6801 138.972H41.2361C40.7502 138.972 40.2842 138.779 39.9406 138.435C39.5971 138.092 39.4041 137.626 39.4041 137.14V137.016H77.5081V137.14C77.5081 137.625 77.3156 138.09 76.9729 138.434C76.6302 138.777 76.1652 138.971 75.6801 138.972Z" fill="#FAFAFA"/>
<path d="M29.628 69.624H84.74V33.532L29.628 33.532L29.628 69.624Z" fill="#E6E6E6"/>
<path d="M27.9481 69.624H83.9561V33.532L27.9481 33.532L27.9481 69.624Z" fill="#F0F0F0"/>
<path d="M29.628 76.7041H84.74V69.6201H29.628V76.7041Z" fill="#E6E6E6"/>
<path d="M25.1441 76.7041H81.1521V69.6201H25.1441V76.7041Z" fill="#F0F0F0"/>
<path d="M81.6001 67.2719V35.8879H30.3001V67.2719H81.6001Z" fill="#FAFAFA"/>
<path d="M70.0321 67.2679L63.4801 35.8879H53.2561L59.8081 67.2679H70.0321Z" fill="white"/>
<path d="M80.5079 64.928C80.5303 64.928 80.5525 64.9235 80.5731 64.9148C80.5938 64.9061 80.6125 64.8934 80.6281 64.8774C80.6438 64.8614 80.6561 64.8424 80.6643 64.8215C80.6725 64.8007 80.6764 64.7784 80.6759 64.756V37.42C80.6764 37.3978 80.6725 37.3757 80.6642 37.3551C80.656 37.3344 80.6436 37.3157 80.6279 37.3C80.6122 37.2843 80.5935 37.2719 80.5728 37.2637C80.5522 37.2554 80.5301 37.2515 80.5079 37.252C80.4633 37.252 80.4206 37.2697 80.3891 37.3012C80.3576 37.3327 80.3399 37.3754 80.3399 37.42V64.756C80.3394 64.7784 80.3433 64.8007 80.3515 64.8215C80.3597 64.8424 80.372 64.8614 80.3877 64.8774C80.4033 64.8934 80.422 64.9061 80.4427 64.9148C80.4633 64.9235 80.4855 64.928 80.5079 64.928Z" fill="#F0F0F0"/>
<path d="M57.612 67.2679L51.06 35.8879H47.072L53.624 67.2679H57.612Z" fill="white"/>
<path d="M30.6001 67.2719L30.6001 35.8879H30.3001L30.3001 67.2719H30.6001Z" fill="#E6E6E6"/>
<path opacity="0.6" d="M27.3879 39.436H82.4999L82.7159 36.8H27.6039L27.3879 39.436Z" fill="#EBEBEB"/>
<path opacity="0.6" d="M27.3879 40.9241H82.4999L82.7159 38.2881H27.6039L27.3879 40.9241Z" fill="#EBEBEB"/>
<path opacity="0.6" d="M27.3879 42.4079H82.4999L82.7159 39.7759H27.6039L27.3879 42.4079Z" fill="#EBEBEB"/>
<path opacity="0.6" d="M27.3879 43.896H82.4999L82.7159 41.26H27.6039L27.3879 43.896Z" fill="#EBEBEB"/>
<path opacity="0.6" d="M27.3879 45.38H82.4999L82.7159 42.748H27.6039L27.3879 45.38Z" fill="#EBEBEB"/>
<path opacity="0.6" d="M27.3879 46.8679H82.4999L82.7159 44.2319H27.6039L27.3879 46.8679Z" fill="#EBEBEB"/>
<path d="M38.408 109.308H40.312V88.0721H38.408V109.308Z" fill="#F5F5F5"/>
<path d="M38.648 109.296H39.188V88.0599H38.648V109.296Z" fill="#FAFAFA"/>
<path d="M39.412 109.296H39.624V88.0599H39.412V109.296Z" fill="#FAFAFA"/>
<path d="M46.4121 110.604H32.3161C32.3161 110.133 32.5032 109.681 32.8363 109.348C33.1694 109.015 33.6211 108.828 34.0921 108.828H44.6321C45.1031 108.828 45.5549 109.015 45.8879 109.348C46.221 109.681 46.4081 110.133 46.4081 110.604H46.4121Z" fill="#F0F0F0"/>
<path d="M35.936 101.256C36.081 101.255 36.2198 101.197 36.3224 101.094C36.4249 100.992 36.483 100.853 36.484 100.708V86.8C36.484 86.6546 36.4263 86.5152 36.3235 86.4125C36.2208 86.3097 36.0814 86.252 35.936 86.252C35.8637 86.2514 35.792 86.2652 35.7251 86.2925C35.6581 86.3198 35.5973 86.3601 35.546 86.411C35.4946 86.462 35.4539 86.5226 35.4261 86.5893C35.3983 86.6561 35.384 86.7277 35.384 86.8V100.724C35.3892 100.867 35.4497 101.002 35.5526 101.101C35.6556 101.201 35.793 101.256 35.936 101.256Z" fill="#F0F0F0"/>
<path d="M30.8279 93.12H47.8879L45.9239 81.2H32.7919L30.8279 93.12Z" fill="#E0E0E0"/>
<path opacity="0.1" d="M100 171.024C142.833 171.024 177.556 168.997 177.556 166.496C177.556 163.995 142.833 161.968 100 161.968C57.1671 161.968 22.4441 163.995 22.4441 166.496C22.4441 168.997 57.1671 171.024 100 171.024Z" fill="black"/>
<path d="M144.835 132.496H59.1714C58.2179 132.479 57.3044 132.11 56.6072 131.459C55.91 130.808 55.4783 129.922 55.3954 128.972L51.1874 70.5202C51.1483 70.0695 51.204 69.6155 51.351 69.1875C51.498 68.7596 51.733 68.3672 52.0409 68.0355C52.3487 67.7039 52.7226 67.4405 53.1385 67.2622C53.5544 67.0839 54.003 66.9946 54.4554 67.0002H140.119C141.072 67.0173 141.985 67.3863 142.682 68.0362C143.38 68.686 143.812 69.5709 143.895 70.5202L148.103 128.972C148.143 129.423 148.087 129.877 147.94 130.306C147.793 130.734 147.558 131.126 147.25 131.458C146.942 131.79 146.569 132.054 146.153 132.233C145.737 132.412 145.288 132.501 144.835 132.496Z" fill="#315CEC"/>
<path d="M145.164 132.496H59.4996C58.546 132.479 57.6326 132.11 56.9353 131.459C56.2381 130.808 55.8064 129.922 55.7236 128.972L51.5156 70.5203C51.4764 70.0695 51.5321 69.6155 51.6791 69.1875C51.8261 68.7596 52.0611 68.3672 52.369 68.0355C52.6768 67.7039 53.0508 67.4405 53.4666 67.2622C53.8825 67.0839 54.3311 66.9946 54.7836 67.0002H140.448C141.4 67.0173 142.313 67.3863 143.011 68.0362C143.708 68.686 144.14 69.5709 144.224 70.5203L148.432 128.972C148.471 129.423 148.416 129.878 148.269 130.306C148.123 130.735 147.888 131.128 147.58 131.46C147.272 131.792 146.898 132.055 146.482 132.234C146.065 132.413 145.616 132.502 145.164 132.496Z" fill="#315CEC"/>
<path opacity="0.5" d="M145.164 132.496H59.4996C58.546 132.479 57.6326 132.11 56.9353 131.459C56.2381 130.808 55.8064 129.922 55.7236 128.972L51.5156 70.5203C51.4764 70.0695 51.5321 69.6155 51.6791 69.1875C51.8261 68.7596 52.0611 68.3672 52.369 68.0355C52.6768 67.7039 53.0508 67.4405 53.4666 67.2622C53.8825 67.0839 54.3311 66.9946 54.7836 67.0002H140.448C141.4 67.0173 142.313 67.3863 143.011 68.0362C143.708 68.686 144.14 69.5709 144.224 70.5203L148.432 128.972C148.471 129.423 148.416 129.878 148.269 130.306C148.123 130.735 147.888 131.128 147.58 131.46C147.272 131.792 146.898 132.055 146.482 132.234C146.065 132.413 145.616 132.502 145.164 132.496Z" fill="white"/>
<path d="M140.575 68.7603H54.9114H54.6234C52.4354 68.9403 52.8834 72.2723 55.0914 72.2723H140.899C143.111 72.2723 143.079 68.9403 140.863 68.7603H140.575Z" fill="#315CEC"/>
<path d="M57.1433 70.5203C57.1518 70.6234 57.1384 70.7271 57.1043 70.8248C57.0701 70.9225 57.0158 71.0119 56.945 71.0873C56.8741 71.1626 56.7882 71.2223 56.6929 71.2625C56.5975 71.3026 56.4948 71.3223 56.3913 71.3203C56.1739 71.3172 55.9654 71.2338 55.8058 71.0861C55.6463 70.9384 55.5471 70.7368 55.5273 70.5203C55.519 70.4175 55.5322 70.3141 55.5661 70.2167C55.6 70.1194 55.6539 70.0301 55.7244 69.9548C55.7948 69.8795 55.8802 69.8197 55.9751 69.7793C56.07 69.7389 56.1722 69.7188 56.2753 69.7203C56.4934 69.7224 56.703 69.8053 56.8634 69.9532C57.0238 70.101 57.1235 70.3031 57.1433 70.5203Z" fill="#FAFAFA"/>
<path d="M59.8914 70.5203C59.8998 70.6234 59.8865 70.7271 59.8523 70.8248C59.8182 70.9225 59.7639 71.0119 59.693 71.0873C59.6222 71.1626 59.5363 71.2223 59.4409 71.2625C59.3456 71.3026 59.2428 71.3223 59.1394 71.3203C58.922 71.3172 58.7134 71.2338 58.5539 71.0861C58.3943 70.9384 58.2951 70.7368 58.2754 70.5203C58.267 70.4175 58.2802 70.3141 58.3142 70.2167C58.3481 70.1194 58.402 70.0301 58.4724 69.9548C58.5428 69.8795 58.6282 69.8197 58.7231 69.7793C58.818 69.7389 58.9203 69.7188 59.0234 69.7203C59.2415 69.7224 59.451 69.8053 59.6114 69.9532C59.7718 70.101 59.8716 70.3031 59.8914 70.5203Z" fill="#FAFAFA"/>
<path d="M62.6356 70.5204C62.6439 70.6231 62.6307 70.7265 62.5968 70.8239C62.5629 70.9213 62.509 71.0105 62.4385 71.0858C62.3681 71.1612 62.2827 71.2209 62.1878 71.2613C62.0929 71.3017 61.9907 71.3218 61.8876 71.3204C61.6699 71.3182 61.4608 71.2351 61.3011 71.0872C61.1414 70.9393 61.0424 70.7372 61.0236 70.5204C61.0145 70.4174 61.0273 70.3138 61.061 70.2161C61.0947 70.1185 61.1486 70.029 61.2191 69.9535C61.2897 69.8781 61.3754 69.8183 61.4705 69.7782C61.5657 69.738 61.6683 69.7183 61.7716 69.7204C61.989 69.7234 62.1975 69.8068 62.3571 69.9546C62.5166 70.1023 62.6158 70.3038 62.6356 70.5204Z" fill="#FAFAFA"/>
<path d="M142.891 126.664H60.9515C60.6053 126.658 60.2737 126.524 60.0209 126.288C59.7681 126.051 59.6122 125.729 59.5835 125.384L56.1235 77.3161C56.1081 77.1512 56.1279 76.9849 56.1817 76.8282C56.2355 76.6715 56.3221 76.5281 56.4356 76.4074C56.5491 76.2867 56.6869 76.1915 56.84 76.1282C56.9931 76.0649 57.1579 76.0349 57.3235 76.0401H139.283C139.629 76.0449 139.961 76.1782 140.214 76.4141C140.467 76.65 140.623 76.9715 140.651 77.3161L144.115 125.384C144.13 125.551 144.11 125.72 144.054 125.878C143.999 126.036 143.91 126.181 143.794 126.302C143.678 126.423 143.538 126.518 143.382 126.581C143.226 126.643 143.059 126.672 142.891 126.664Z" fill="white"/>
<path d="M108.364 108.352L107.028 89.8243L102.988 87.3923H91.8635L93.3755 108.352H108.364Z" fill="white"/>
<path d="M108.363 108.544H93.3754C93.3258 108.545 93.2777 108.527 93.2412 108.494C93.2046 108.46 93.1825 108.414 93.1794 108.364L91.6714 87.4043C91.6695 87.378 91.6731 87.3516 91.6821 87.3268C91.691 87.3019 91.7051 87.2793 91.7234 87.2603C91.7411 87.2405 91.7626 87.2247 91.7867 87.2136C91.8108 87.2026 91.8369 87.1967 91.8634 87.1963H102.987C103.022 87.1975 103.057 87.2071 103.087 87.2243L107.127 89.6563C107.155 89.6719 107.178 89.6939 107.194 89.7204C107.211 89.7469 107.221 89.777 107.223 89.8083L108.551 108.336C108.554 108.363 108.551 108.391 108.542 108.416C108.533 108.442 108.518 108.465 108.499 108.484C108.482 108.503 108.461 108.518 108.438 108.528C108.414 108.539 108.389 108.544 108.363 108.544ZM93.5634 108.144H108.151L106.839 89.9243L102.951 87.5843H92.0714L93.5634 108.144Z" fill="#315CEC"/>
<path d="M107.028 89.8243L102.988 87.3923L104.472 90.6163L107.028 89.8243Z" fill="#EBEBEB"/>
<path d="M104.471 90.8083C104.434 90.8081 104.398 90.7975 104.367 90.7776C104.336 90.7578 104.311 90.7296 104.295 90.6963L102.811 87.4723C102.794 87.4344 102.789 87.3921 102.797 87.3512C102.805 87.3104 102.825 87.273 102.855 87.2443C102.887 87.2171 102.927 87.2006 102.968 87.197C103.01 87.1934 103.051 87.203 103.087 87.2243L107.127 89.6563C107.16 89.6758 107.186 89.7043 107.203 89.7383C107.22 89.7723 107.227 89.8105 107.223 89.8483C107.218 89.8851 107.203 89.9197 107.179 89.948C107.154 89.9764 107.123 89.9973 107.087 90.0083L104.527 90.8083H104.471ZM103.427 87.8803L104.575 90.3803L106.575 89.7683L103.427 87.8803Z" fill="#315CEC"/>
<path d="M98.1515 96.8324C98.1575 96.9411 98.1412 97.0498 98.1037 97.152C98.0662 97.2542 98.0082 97.3477 97.9333 97.4267C97.8584 97.5057 97.7682 97.5686 97.6681 97.6115C97.5681 97.6545 97.4603 97.6765 97.3515 97.6764C97.1231 97.6723 96.9044 97.5838 96.7375 97.4279C96.5705 97.2721 96.4672 97.0599 96.4475 96.8324C96.4372 96.7225 96.4504 96.6117 96.4863 96.5074C96.5222 96.4031 96.5799 96.3076 96.6556 96.2274C96.7313 96.1471 96.8233 96.0839 96.9253 96.042C97.0274 96.0001 97.1372 95.9805 97.2475 95.9844C97.4762 95.9894 97.695 96.0788 97.8618 96.2353C98.0287 96.3918 98.1318 96.6045 98.1515 96.8324Z" fill="#315CEC"/>
<path d="M103.631 96.8324C103.641 96.9419 103.627 97.0522 103.591 97.1561C103.555 97.2599 103.497 97.3549 103.422 97.4347C103.346 97.5145 103.254 97.5773 103.152 97.619C103.051 97.6606 102.941 97.6802 102.831 97.6764C102.603 97.6724 102.383 97.584 102.216 97.4282C102.048 97.2725 101.944 97.0602 101.923 96.8324C101.917 96.7233 101.933 96.6141 101.97 96.5115C102.007 96.4088 102.065 96.3148 102.14 96.2354C102.215 96.1559 102.305 96.0927 102.406 96.0495C102.506 96.0063 102.614 95.9842 102.723 95.9844C102.953 95.9876 103.173 96.0762 103.341 96.233C103.509 96.3898 103.612 96.6035 103.631 96.8324Z" fill="#315CEC"/>
<path d="M105.183 102.328C105.135 102.328 105.088 102.309 105.053 102.275C105.017 102.242 104.995 102.197 104.991 102.148C104.891 100.784 102.755 99.6763 100.231 99.6763C98.5554 99.6763 97.0514 100.176 96.3074 100.976C96.1545 101.124 96.0348 101.302 95.9562 101.499C95.8776 101.696 95.8418 101.908 95.8514 102.12C95.8532 102.147 95.8499 102.173 95.8415 102.198C95.8332 102.223 95.82 102.246 95.8027 102.266C95.7678 102.306 95.7184 102.331 95.6654 102.334C95.6123 102.338 95.56 102.321 95.5199 102.286C95.4797 102.251 95.4551 102.201 95.4514 102.148C95.4395 101.883 95.4831 101.618 95.5796 101.371C95.676 101.124 95.8231 100.899 96.0114 100.712C96.8114 99.8363 98.4394 99.2883 100.219 99.2883C102.991 99.2883 105.251 100.532 105.363 102.12C105.365 102.146 105.362 102.171 105.353 102.195C105.345 102.219 105.332 102.241 105.316 102.26C105.299 102.279 105.279 102.294 105.256 102.305C105.233 102.316 105.209 102.323 105.183 102.324V102.328Z" fill="#315CEC"/>
<path d="M95.0194 95.1202C94.9706 95.1192 94.9237 95.1007 94.8874 95.0682C94.851 95.0314 94.8306 94.9818 94.8306 94.9302C94.8306 94.8785 94.851 94.8289 94.8874 94.7922L95.7394 93.8762C95.7759 93.841 95.8247 93.8213 95.8754 93.8213C95.9261 93.8213 95.9749 93.841 96.0114 93.8762C96.0293 93.894 96.0435 93.9152 96.0532 93.9385C96.0629 93.9619 96.0679 93.9869 96.0679 94.0122C96.0679 94.0374 96.0629 94.0624 96.0532 94.0858C96.0435 94.1091 96.0293 94.1303 96.0114 94.1482L95.1594 95.0642C95.141 95.0825 95.1192 95.0968 95.0951 95.1065C95.0711 95.1161 95.0453 95.1208 95.0194 95.1202Z" fill="#315CEC"/>
<path d="M104.784 95.1202C104.735 95.1179 104.689 95.0996 104.652 95.0682L103.672 94.1522C103.653 94.1343 103.638 94.1128 103.628 94.0891C103.618 94.0654 103.613 94.0399 103.613 94.0142C103.613 93.9884 103.618 93.9629 103.628 93.9392C103.638 93.9155 103.653 93.8941 103.672 93.8762C103.708 93.841 103.757 93.8213 103.808 93.8213C103.858 93.8213 103.907 93.841 103.944 93.8762L104.924 94.7922C104.941 94.81 104.956 94.8312 104.965 94.8545C104.975 94.8779 104.98 94.9029 104.98 94.9282C104.98 94.9534 104.975 94.9784 104.965 95.0018C104.956 95.0251 104.941 95.0463 104.924 95.0642C104.886 95.0997 104.836 95.1197 104.784 95.1202Z" fill="#315CEC"/>
<path d="M90.6555 112.492H91.5595L92.8635 114.228L92.7395 112.492H93.6515L93.8755 115.628H92.9515L91.6555 113.904L91.7795 115.628H90.8675L90.6555 112.492Z" fill="#315CEC"/>
<path d="M94.2835 114.06C94.2527 113.847 94.2674 113.63 94.3267 113.423C94.386 113.216 94.4885 113.024 94.6275 112.86C94.7795 112.711 94.9615 112.595 95.1615 112.521C95.3615 112.448 95.5749 112.417 95.7875 112.432C96.2383 112.408 96.681 112.558 97.0235 112.852C97.3373 113.165 97.5191 113.586 97.5315 114.028C97.5645 114.333 97.5234 114.642 97.4115 114.928C97.308 115.158 97.1344 115.35 96.9155 115.476C96.6529 115.617 96.3573 115.685 96.0595 115.672C95.7535 115.682 95.4491 115.625 95.1675 115.504C94.9209 115.386 94.7129 115.2 94.5675 114.968C94.3959 114.695 94.2981 114.382 94.2835 114.06ZM95.2555 114.06C95.2517 114.306 95.3306 114.545 95.4796 114.74C95.542 114.809 95.6188 114.863 95.7045 114.899C95.7902 114.935 95.8827 114.952 95.9755 114.948C96.0642 114.954 96.1531 114.939 96.2345 114.904C96.316 114.868 96.3877 114.813 96.4435 114.744C96.5584 114.526 96.5965 114.275 96.5515 114.032C96.5532 113.797 96.4742 113.568 96.3275 113.384C96.2635 113.317 96.1857 113.264 96.0995 113.228C96.0133 113.193 95.9206 113.177 95.8275 113.18C95.7405 113.176 95.6538 113.193 95.5746 113.229C95.4953 113.266 95.4258 113.32 95.3715 113.388C95.2544 113.594 95.2134 113.835 95.2555 114.068V114.06Z" fill="#315CEC"/>
<path d="M99.4114 112.492H100.851C101.089 112.485 101.325 112.524 101.547 112.608C101.723 112.682 101.879 112.796 102.003 112.94C102.129 113.087 102.226 113.257 102.287 113.44C102.352 113.637 102.393 113.842 102.407 114.048C102.438 114.31 102.418 114.575 102.347 114.828C102.292 115.004 102.195 115.163 102.063 115.292C101.954 115.408 101.816 115.494 101.663 115.54C101.477 115.594 101.285 115.624 101.091 115.628H99.6554L99.4114 112.492ZM100.431 113.204L100.555 114.916H100.791C100.937 114.926 101.084 114.903 101.219 114.848C101.309 114.796 101.375 114.712 101.403 114.612C101.449 114.435 101.46 114.25 101.435 114.068C101.443 113.824 101.368 113.585 101.223 113.388C101.149 113.321 101.062 113.27 100.967 113.238C100.872 113.207 100.771 113.195 100.671 113.204H100.431Z" fill="#315CEC"/>
<path d="M104.731 115.108H103.631L103.515 115.628H102.527L103.479 112.492H104.551L105.955 115.628H104.939L104.731 115.108ZM104.479 114.432L104.055 113.304L103.791 114.432H104.479Z" fill="#315CEC"/>
<path d="M105.5 112.492H108.444L108.5 113.268H107.512L107.68 115.628H106.712L106.544 113.268H105.556L105.5 112.492Z" fill="#315CEC"/>
<path d="M110.699 115.108H109.599L109.483 115.628H108.495L109.447 112.492H110.503L111.903 115.628H110.891L110.699 115.108ZM110.447 114.432L110.019 113.304L109.751 114.432H110.447Z" fill="#315CEC"/>
</svg>
