<svg
    width="40"
    height="40"
    viewBox="0 0 40 40"
    fill="none"
    xmlns="http://www.w3.org/2000/svg"
>
    <g clipPath="url(#clip0_46418_77070)">
        <path
            d="M5.95679 18.6328V34.5312L20.0193 39.2188L34.0818 34.5312V18.6328H5.95679Z"
            fill="#2E2F38"
            fillOpacity="0.05"
        />
        <path
            d="M34.0818 16.875L20.0193 21.5625L5.95679 16.875L20.0193 12.1875L34.0818 16.875Z"
            fill="#2E2F38"
            fillOpacity="0.05"
        />
        <path
            d="M39.238 14.2188L24.7068 9.0625L20.0193 12.1875L34.0818 16.875L39.238 14.2188ZM20.0193 21.5625L26.2693 26.25L34.0209 23.168L39.238 21.0938L34.0818 16.875L20.0193 21.5625ZM15.3318 9.0625L0.800537 14.2188L5.95679 16.875L20.0193 12.1875L15.3318 9.0625ZM0.800537 21.0938L6.01772 23.168L13.7693 26.25L20.0193 21.5625L5.95679 16.875L0.800537 21.0938Z"
            fill="#2E2F38"
            fillOpacity="0.05"
        />
        <path
            d="M30.938 32.9687C31.0925 32.9687 31.2436 32.9229 31.372 32.8371C31.5005 32.7512 31.6006 32.6292 31.6598 32.4865C31.7189 32.3437 31.7344 32.1866 31.7042 32.0351C31.6741 31.8835 31.5997 31.7443 31.4904 31.6351C31.3812 31.5258 31.2419 31.4514 31.0904 31.4213C30.9389 31.3911 30.7818 31.4066 30.639 31.4657C30.4963 31.5248 30.3742 31.625 30.2884 31.7535C30.2026 31.8819 30.1567 32.033 30.1567 32.1875C30.1567 32.3947 30.239 32.5934 30.3856 32.7399C30.5321 32.8864 30.7308 32.9687 30.938 32.9687ZM27.813 3.59375C27.9675 3.59375 28.1186 3.54793 28.247 3.46209C28.3755 3.37624 28.4756 3.25423 28.5348 3.11147C28.5939 2.96872 28.6094 2.81163 28.5792 2.66009C28.5491 2.50854 28.4747 2.36933 28.3654 2.26007C28.2562 2.15081 28.1169 2.07641 27.9654 2.04626C27.8139 2.01612 27.6568 2.03159 27.514 2.09072C27.3713 2.14985 27.2492 2.24999 27.1634 2.37846C27.0776 2.50694 27.0317 2.65798 27.0317 2.8125C27.0317 2.9151 27.0519 3.01669 27.0912 3.11147C27.1305 3.20626 27.188 3.29238 27.2606 3.36493C27.4071 3.51144 27.6058 3.59375 27.813 3.59375ZM12.188 3.59375C12.3425 3.59375 12.4936 3.54793 12.622 3.46209C12.7505 3.37624 12.8506 3.25423 12.9098 3.11147C12.9689 2.96872 12.9844 2.81163 12.9542 2.66009C12.9241 2.50854 12.8497 2.36933 12.7404 2.26007C12.6312 2.15081 12.4919 2.07641 12.3404 2.04626C12.1889 2.01612 12.0318 2.03159 11.889 2.09072C11.7463 2.14985 11.6242 2.24999 11.5384 2.37846C11.4526 2.50694 11.4067 2.65798 11.4067 2.8125C11.4067 2.9151 11.4269 3.01669 11.4662 3.11147C11.5055 3.20626 11.563 3.29238 11.6356 3.36493C11.7821 3.51144 11.9808 3.59375 12.188 3.59375ZM22.3841 35.1297C22.4494 35.3263 22.5901 35.4889 22.7753 35.5818C22.9604 35.6747 23.1749 35.6902 23.3716 35.625L28.2481 34C28.3456 33.9676 28.4357 33.9163 28.5134 33.849C28.591 33.7818 28.6546 33.6999 28.7006 33.608C28.7466 33.5162 28.7741 33.4162 28.7814 33.3138C28.7888 33.2113 28.7759 33.1084 28.7435 33.0109C28.711 32.9135 28.6597 32.8233 28.5925 32.7457C28.5252 32.6681 28.4434 32.6044 28.3515 32.5584C28.2597 32.5124 28.1597 32.485 28.0572 32.4776C27.9548 32.4703 27.8519 32.4832 27.7544 32.5156L22.8778 34.1406C22.7804 34.1731 22.6904 34.2244 22.6129 34.2917C22.5353 34.359 22.4718 34.441 22.426 34.5328C22.3801 34.6247 22.3528 34.7247 22.3456 34.8271C22.3384 34.9295 22.3515 35.0323 22.3841 35.1297Z"
            fill="#2E2F38"
            fillOpacity="0.13"
        />
        <path
            d="M0.492595 21.8195L5.15666 23.6719V34.5312C5.15678 34.6951 5.20845 34.8549 5.30435 34.9878C5.40025 35.1207 5.53553 35.2201 5.69103 35.2719L19.7535 39.9594C19.8321 39.9844 19.914 39.9976 19.9965 39.9984C20.0793 39.9983 20.1616 39.9851 20.2403 39.9594L34.3028 35.2719C34.4596 35.2213 34.5964 35.1224 34.6936 34.9894C34.7909 34.8564 34.8435 34.696 34.8442 34.5312V23.6719L39.5082 21.818C39.634 21.7674 39.7446 21.685 39.8289 21.5789C39.9132 21.4727 39.9685 21.3464 39.9892 21.2124C40.0099 21.0784 39.9954 20.9413 39.9471 20.8147C39.8988 20.688 39.8184 20.576 39.7137 20.4898L35.4793 17.025L39.577 14.9156C39.7126 14.8459 39.8249 14.738 39.9 14.6052C39.9751 14.4724 40.0096 14.3206 39.9994 14.1684C39.9892 14.0162 39.9346 13.8704 39.8425 13.7488C39.7504 13.6272 39.6246 13.5353 39.4809 13.4844L24.9496 8.32812C24.8351 8.28757 24.7127 8.2743 24.5921 8.28935C24.4715 8.30441 24.3561 8.34738 24.2551 8.41484L20.0004 11.25L15.7465 8.41406C15.6455 8.34659 15.5301 8.30363 15.4095 8.28857C15.2889 8.27352 15.1665 8.28679 15.052 8.32734L0.52072 13.4836L0.500408 13.4922C0.361238 13.5463 0.240482 13.6391 0.15244 13.7597C0.0643986 13.8803 0.012758 14.0236 0.00363357 14.1726C-0.00549089 14.3217 0.028283 14.4702 0.100956 14.6006C0.173629 14.7311 0.282157 14.8379 0.413689 14.9086L0.423845 14.9148L4.52228 17.0242L0.286345 20.4891C0.181119 20.5752 0.100204 20.6873 0.0515999 20.8143C0.00299637 20.9414 -0.0116113 21.0789 0.0092216 21.2132C0.0300545 21.3476 0.0856062 21.4743 0.170383 21.5806C0.25516 21.6869 0.366225 21.7693 0.492595 21.8195ZM6.09885 17.7523L18.3379 21.832L13.6317 25.3625L2.30275 20.8594L6.09885 17.7523ZM20.0004 13.0109L31.5918 16.875L20.0004 20.7391L8.40822 16.875L20.0004 13.0109ZM6.71916 24.2969L13.4621 26.9773C13.5539 27.0136 13.6518 27.0319 13.7504 27.0312C13.9194 27.0312 14.0839 26.9764 14.2192 26.875L19.2192 23.125V38.1344L6.71916 33.968V24.2969ZM33.2817 33.968L20.7817 38.1344V23.125L25.7817 26.875C25.8888 26.9553 26.0147 27.0068 26.1474 27.0244C26.2801 27.0421 26.4151 27.0253 26.5395 26.9758L33.2817 24.2969V33.968ZM26.3684 25.3617L21.6613 21.832L33.9004 17.7523L37.6965 20.8594L26.3684 25.3617ZM24.7949 9.92969L37.2551 14.3508L33.9973 16.0297L21.7621 11.9531L24.7949 9.92969ZM15.2043 9.92969L18.2371 11.9531L6.00275 16.0312L2.74416 14.3508L15.2043 9.92969ZM18.4379 3.125H19.2192V3.90625C19.2192 4.11345 19.3015 4.31216 19.448 4.45868C19.5945 4.60519 19.7932 4.6875 20.0004 4.6875C20.2076 4.6875 20.4063 4.60519 20.5528 4.45868C20.6993 4.31216 20.7817 4.11345 20.7817 3.90625V3.125H21.5629C21.7701 3.125 21.9688 3.04269 22.1153 2.89618C22.2618 2.74966 22.3442 2.55095 22.3442 2.34375C22.3442 2.13655 22.2618 1.93784 22.1153 1.79132C21.9688 1.64481 21.7701 1.5625 21.5629 1.5625H20.7817V0.78125C20.7817 0.57405 20.6993 0.375336 20.5528 0.228823C20.4063 0.08231 20.2076 0 20.0004 0C19.7932 0 19.5945 0.08231 19.448 0.228823C19.3015 0.375336 19.2192 0.57405 19.2192 0.78125V1.5625H18.4379C18.2307 1.5625 18.032 1.64481 17.8855 1.79132C17.739 1.93784 17.6567 2.13655 17.6567 2.34375C17.6567 2.55095 17.739 2.74966 17.8855 2.89618C18.032 3.04269 18.2307 3.125 18.4379 3.125ZM5.93791 6.71875H6.71916V7.5C6.71916 7.7072 6.80147 7.90591 6.94798 8.05243C7.09449 8.19894 7.29321 8.28125 7.50041 8.28125C7.70761 8.28125 7.90632 8.19894 8.05283 8.05243C8.19935 7.90591 8.28166 7.7072 8.28166 7.5V6.71875H9.06291C9.1655 6.71875 9.26709 6.69854 9.36188 6.65928C9.45667 6.62002 9.54279 6.56247 9.61533 6.48993C9.68788 6.41738 9.74543 6.33126 9.78469 6.23647C9.82395 6.14169 9.84416 6.04009 9.84416 5.9375C9.84416 5.8349 9.82395 5.73331 9.78469 5.63853C9.74543 5.54374 9.68788 5.45762 9.61533 5.38507C9.54279 5.31253 9.45667 5.25498 9.36188 5.21572C9.26709 5.17646 9.1655 5.15625 9.06291 5.15625H8.28166V4.375C8.28166 4.1678 8.19935 3.96909 8.05283 3.82257C7.90632 3.67606 7.70761 3.59375 7.50041 3.59375C7.29321 3.59375 7.09449 3.67606 6.94798 3.82257C6.80147 3.96909 6.71916 4.1678 6.71916 4.375V5.15625H5.93791C5.73071 5.15625 5.53199 5.23856 5.38548 5.38507C5.23897 5.53159 5.15666 5.7303 5.15666 5.9375C5.15666 6.1447 5.23897 6.34341 5.38548 6.48993C5.53199 6.63644 5.73071 6.71875 5.93791 6.71875ZM30.9379 6.71875H31.7192V7.5C31.7192 7.7072 31.8015 7.90591 31.948 8.05243C32.0945 8.19894 32.2932 8.28125 32.5004 8.28125C32.7076 8.28125 32.9063 8.19894 33.0528 8.05243C33.1993 7.90591 33.2817 7.7072 33.2817 7.5V6.71875H34.0629C34.2701 6.71875 34.4688 6.63644 34.6153 6.48993C34.7618 6.34341 34.8442 6.1447 34.8442 5.9375C34.8442 5.7303 34.7618 5.53159 34.6153 5.38507C34.4688 5.23856 34.2701 5.15625 34.0629 5.15625H33.2817V4.375C33.2817 4.1678 33.1993 3.96909 33.0528 3.82257C32.9063 3.67606 32.7076 3.59375 32.5004 3.59375C32.2932 3.59375 32.0945 3.67606 31.948 3.82257C31.8015 3.96909 31.7192 4.1678 31.7192 4.375V5.15625H30.9379C30.7307 5.15625 30.532 5.23856 30.3855 5.38507C30.239 5.53159 30.1567 5.7303 30.1567 5.9375C30.1567 6.1447 30.239 6.34341 30.3855 6.48993C30.532 6.63644 30.7307 6.71875 30.9379 6.71875Z"
            fill="#2E2F38"
            fillOpacity="0.13"
        />
    </g>
    <defs>
        <clipPath id="clip0_46418_77070">
            <rect width="40" height="40" fill="white" />
        </clipPath>
    </defs>
</svg>