<svg xmlns="http://www.w3.org/2000/svg" width="100" height="101" viewBox="0 0 100 101" fill="none">
    <rect width="100" height="100" transform="translate(0 0.644531)" fill="#D3DFFB" />
    <path
        d="M74.448 21.627C76.7305 20.5682 79.0513 19.968 81.2097 20.2412L81.6384 20.3076L81.99 20.3721L82.2175 20.6484C83.9802 22.7923 85.1845 26.1982 85.8435 30.0713C86.5074 33.9736 86.6385 38.4718 86.1619 42.9053C85.6855 47.3359 84.5968 51.7457 82.7917 55.4521C81.1125 58.9002 78.78 61.7999 75.6843 63.4902C76.2757 66.2173 76.7651 67.96 77.1365 69.0264C77.3197 69.5526 77.4681 69.8911 77.573 70.0947L78.7224 70.2637L77.8835 71.5439C74.8173 76.2208 65.0426 85.2974 50.0974 84.9072C35.1523 85.2972 25.3773 76.2207 22.3113 71.5439L21.4724 70.2637L22.6218 70.0947C22.7267 69.8911 22.8751 69.5527 23.0583 69.0264C23.4296 67.9601 23.9192 66.2177 24.5105 63.4912C21.4148 61.8009 19.0823 58.9002 17.4031 55.4521C15.5981 51.7458 14.5103 47.3359 14.0339 42.9053C13.5573 38.4718 13.6884 33.9737 14.3523 30.0713C15.0113 26.1981 16.2155 22.7923 17.9783 20.6484L18.2048 20.3721L18.5564 20.3076C20.8346 19.8902 23.3123 20.4977 25.7468 21.627C28.1944 22.7623 30.6998 24.4723 33.0798 26.4082C37.5394 30.0356 41.6653 34.541 44.2957 37.8193C45.1492 37.4369 46.1331 37.2116 47.0212 37.0752C48.2138 36.8921 49.369 36.8511 50.0974 36.8711C50.8259 36.8511 51.9816 36.892 53.1746 37.0752C54.0627 37.2116 55.0456 37.438 55.8992 37.8203C58.5295 34.5419 62.6551 30.0359 67.115 26.4082C69.495 24.4723 72.0005 22.7623 74.448 21.627Z"
        fill="url(#paint0_linear_1784_1108)" stroke="white" stroke-width="1.95312" />
    <defs>
        <linearGradient id="paint0_linear_1784_1108" x1="50.0977" y1="46.3477" x2="50.0977" y2="76.4258"
            gradientUnits="userSpaceOnUse">
            <stop stop-color="white" stop-opacity="0.7" />
            <stop offset="1" stop-color="white" />
        </linearGradient>
    </defs>
</svg>