<svg width="60" height="60" viewBox="0 0 60 60" fill="none" xmlns="http://www.w3.org/2000/svg">
<path d="M15.75 9H50.25C53.75 9 55.5 10.75 55.5 14.25V42.75C55.5 46.25 53.75 48 50.25 48H15.75C12.25 48 10.5 46.25 10.5 42.75V14.25C10.5 10.75 12.25 9 15.75 9Z" fill="#FF9C55"/>
<path d="M16.0378 14.842L47.0386 10.6716C50.1836 10.2486 51.9679 11.6113 52.3914 14.7599L55.8404 40.3982C56.2639 43.5467 54.9032 45.3325 51.7582 45.7556L20.7574 49.9259C17.6124 50.349 15.8281 48.9863 15.4046 45.8377L11.9556 20.1994C11.5321 17.0508 12.8928 15.265 16.0378 14.842Z" fill="white"/>
<path d="M1.5 11.3333C1.5 9.91879 2.06189 8.56225 3.06207 7.56207C4.06225 6.56189 5.41878 6 6.83325 6H22.4175C23.576 6.00007 24.7029 6.37733 25.6279 7.07474C26.5529 7.77215 27.2257 8.75178 27.5445 9.8655L28.983 14.8883H53.1675C53.8679 14.8884 54.5615 15.0264 55.2085 15.2946C55.8556 15.5627 56.4435 15.9557 56.9387 16.4511C57.4339 16.9465 57.8266 17.5346 58.0945 18.1818C58.3624 18.829 58.5002 19.5226 58.5 20.223V48.6675C58.4998 50.0818 57.9378 51.4382 56.9376 52.4382C55.9375 53.4382 54.5811 54 53.1667 54H6.8325C5.41816 53.9998 4.06182 53.4378 3.06181 52.4377C2.06179 51.4375 1.5 50.0811 1.5 48.6668V11.3325V11.3333Z" fill="#FFD977"/>
<path d="M9 39H13.5C14.5 39 15 39.5 15 40.5C15 41.5 14.5 42 13.5 42H9C8 42 7.5 41.5 7.5 40.5C7.5 39.5 8 39 9 39Z" fill="#FFF1C9"/>
<path d="M9 45H19.5C20.5 45 21 45.5 21 46.5C21 47.5 20.5 48 19.5 48H9C8 48 7.5 47.5 7.5 46.5C7.5 45.5 8 45 9 45Z" fill="#FFF1C9"/>
<path d="M10.5 28.5C12.5 28.5 13.5 29.5 13.5 31.5C13.5 33.5 12.5 34.5 10.5 34.5C8.5 34.5 7.5 33.5 7.5 31.5C7.5 29.5 8.5 28.5 10.5 28.5Z" fill="#FFA86A"/>
</svg>
