<svg width="148" height="40" viewBox="0 0 148 40" fill="none" xmlns="http://www.w3.org/2000/svg">
<path fill-rule="evenodd" clip-rule="evenodd" d="M9.74744 11.7764C9.48838 12.2836 9.24797 13.0214 9.08655 13.9719C8.8685 15.256 8.82163 16.7698 8.98297 18.2731C9.14477 19.7808 9.50919 21.2152 10.0692 22.3672C10.1947 22.6256 10.3275 22.8646 10.4669 23.0842C10.4673 22.9505 10.4684 22.8159 10.4695 22.6812C10.4698 22.6376 10.4702 22.5941 10.4705 22.5505C10.472 22.3591 10.4732 22.1892 10.4732 22.0399C10.4732 21.3861 10.5438 20.2688 11.2609 19.3083C12.0389 18.2661 13.3222 17.7259 15.0556 17.7259H17.153C16.2352 16.5725 14.7637 14.9574 13.1981 13.6815C12.3758 13.0113 11.5703 12.4701 10.8405 12.1309C10.4026 11.9274 10.0402 11.819 9.74744 11.7764ZM24.1447 17.7259H26.242C27.9755 17.7259 29.2587 18.2661 30.0368 19.3083C30.7538 20.2688 30.8244 21.3861 30.8244 22.0399C30.8244 22.1892 30.8257 22.3591 30.8272 22.5505C30.8275 22.5941 30.8278 22.6376 30.8282 22.6812C30.8293 22.8159 30.8304 22.9505 30.8308 23.0842C30.9702 22.8646 31.1029 22.6256 31.2285 22.3672C31.7885 21.2152 32.1529 19.7808 32.3147 18.2731C32.476 16.7698 32.4292 15.256 32.2111 13.9719C32.0497 13.0214 31.8093 12.2836 31.5502 11.7764C31.2575 11.819 30.8951 11.9274 30.4572 12.1309C29.7273 12.4701 28.9219 13.0113 28.0996 13.6815C26.534 14.9574 25.0625 16.5725 24.1447 17.7259ZM28.6381 27.359C28.4713 27.4216 28.3007 27.4761 28.1305 27.5235C27.464 27.7093 26.6891 27.8193 25.9273 27.8468C25.169 27.8743 24.3565 27.8225 23.6264 27.644C22.9486 27.4782 22.0809 27.1403 21.542 26.3897C21.2848 26.0314 21.0474 25.8758 20.9061 25.8091C20.8442 25.7798 20.7971 25.7659 20.7696 25.7596L20.6488 25.7762L20.5281 25.7596C20.5005 25.7659 20.4535 25.7798 20.3915 25.8091C20.2502 25.8758 20.0128 26.0314 19.7556 26.3897C19.2167 27.1403 18.3491 27.4782 17.6712 27.644C16.9411 27.8225 16.1286 27.8743 15.3703 27.8468C14.6086 27.8193 13.8336 27.7093 13.1672 27.5235C12.997 27.4761 12.8263 27.4216 12.6596 27.359C12.5099 27.9741 12.3745 28.4383 12.2541 28.7846L12.2539 28.7852C13.5317 30.2629 16.4347 32.4696 20.6111 32.3574L20.6488 32.3564L20.6865 32.3574C24.8629 32.4696 27.766 30.2629 29.0438 28.7852L29.0436 28.7846C28.9232 28.4383 28.7878 27.9741 28.6381 27.359ZM9.94814 26.6212C8.89598 25.8491 8.11185 24.7661 7.54317 23.5961C6.80548 22.0785 6.37666 20.3104 6.19021 18.5731C6.00329 16.8313 6.05316 15.0574 6.31741 13.5013C6.57452 11.9873 7.06346 10.5067 7.88865 9.50122L8.2149 9.10369L8.72058 9.01086C9.87004 8.79983 11.0248 9.11813 12.0238 9.58245C13.0416 10.0555 14.0487 10.7504 14.9721 11.5028C16.4593 12.7149 17.8403 14.1683 18.8426 15.3565C19.0236 15.3132 19.1946 15.2822 19.3453 15.259C19.8423 15.1825 20.3216 15.1634 20.6488 15.1706C20.9761 15.1634 21.4554 15.1825 21.9524 15.259C22.1031 15.2822 22.274 15.3132 22.455 15.3565C23.4573 14.1683 24.8384 12.7149 26.3256 11.5028C27.2489 10.7504 28.256 10.0555 29.2738 9.58245C30.2729 9.11813 31.4276 8.79983 32.5771 9.01086L33.0828 9.10369L33.409 9.50122C34.2342 10.5067 34.7231 11.9873 34.9802 13.5013C35.2445 15.0574 35.2944 16.8313 35.1074 18.5731C34.921 20.3104 34.4922 22.0785 33.7545 23.5961C33.1858 24.7661 32.4017 25.8491 31.3495 26.6212C31.4584 27.0745 31.5527 27.4133 31.6305 27.661L33.0665 27.8719L31.8624 29.7121C30.5773 31.6761 26.6425 35.3128 20.6488 35.1674C14.6551 35.3128 10.7204 31.6761 9.43528 29.7121L8.23117 27.8719L9.6672 27.661C9.745 27.4133 9.83925 27.0745 9.94814 26.6212ZM13.5113 20.9898C13.3598 21.1928 13.2821 21.53 13.2821 22.0399C13.2821 22.201 13.2807 22.3811 13.2793 22.5682L13.2792 22.5719C13.2733 23.3454 13.27 23.8129 13.3168 24.1796C13.3486 24.4284 13.3959 24.5557 13.4471 24.64C13.4539 24.6437 13.4616 24.6477 13.4702 24.6522C13.5618 24.6988 13.7105 24.7579 13.921 24.8165C14.3417 24.9338 14.8936 25.0177 15.4718 25.0386C16.0536 25.0597 16.5944 25.0145 17.0043 24.9143C17.3759 24.8234 17.4871 24.7263 17.4896 24.729C18.4565 23.3956 19.7214 22.9025 20.6488 22.9484C21.5762 22.9025 22.8411 23.3957 23.808 24.7291C23.8105 24.7263 23.9217 24.8234 24.2933 24.9143C24.7033 25.0145 25.2441 25.0597 25.8258 25.0386C26.4041 25.0177 26.956 24.9338 27.3766 24.8165C27.5872 24.7579 27.7359 24.6988 27.8274 24.6522C27.8361 24.6477 27.8438 24.6437 27.8505 24.64C27.9017 24.5557 27.949 24.4284 27.9808 24.1796C28.0276 23.8129 28.0243 23.3454 28.0184 22.5719L28.0184 22.5679C28.017 22.3809 28.0156 22.2009 28.0156 22.0399C28.0156 21.53 27.9379 21.1928 27.7863 20.9898C27.6957 20.8684 27.3899 20.5359 26.242 20.5359H15.0556C13.9077 20.5359 13.602 20.8684 13.5113 20.9898Z" fill="url(#paint0_linear_28137_333959)"/>
<path d="M3.73482 10.5407C3.87971 10.791 4.26238 10.6885 4.26273 10.3993L4.26476 8.72695C4.26488 8.62608 4.31868 8.53291 4.40596 8.48237L5.85324 7.64445C6.1035 7.49956 6.00096 7.11688 5.71178 7.11653L4.03944 7.11451C3.93858 7.11439 3.84541 7.06059 3.79487 6.9733L2.95695 5.52603C2.81206 5.27577 2.42938 5.37831 2.42903 5.66748L2.42701 7.33982C2.42688 7.44068 2.37309 7.53386 2.2858 7.58439L0.838528 8.42232C0.58827 8.56721 0.690806 8.94988 0.979982 8.95023L2.65232 8.95226C2.75318 8.95238 2.84636 9.00618 2.89689 9.09346L3.73482 10.5407Z" fill="url(#paint1_linear_28137_333959)"/>
<path d="M37.1585 29.0994C37.1587 29.2922 37.4139 29.3606 37.5104 29.1937L38.0691 28.2289C38.1028 28.1707 38.1649 28.1348 38.2321 28.1348L39.347 28.1334C39.5398 28.1332 39.6081 27.8781 39.4413 27.7815L38.4765 27.2229C38.4183 27.1892 38.3824 27.127 38.3823 27.0598L38.381 25.9449C38.3807 25.7521 38.1256 25.6838 38.029 25.8506L37.4704 26.8155C37.4367 26.8736 37.3746 26.9095 37.3074 26.9096L36.1925 26.9109C35.9997 26.9112 35.9313 27.1663 36.0982 27.2629L37.063 27.8215C37.1212 27.8552 37.1571 27.9173 37.1572 27.9846L37.1585 29.0994Z" fill="url(#paint2_linear_28137_333959)"/>
<path d="M133.749 22.0357C134.88 22.0357 135.633 22.7893 135.633 23.9198V29.1482C135.633 30.2786 134.88 31.0323 133.749 31.0323H120.843C119.713 31.0323 118.959 30.2786 118.959 29.1482V23.9198C118.959 22.7893 119.713 22.0357 120.843 22.0357H133.749ZM132.501 28.63C132.713 28.63 132.854 28.4887 132.854 28.2768V24.7912C132.854 24.5792 132.713 24.4379 132.501 24.4379H122.091C121.879 24.4379 121.738 24.5792 121.738 24.7912V28.2768C121.738 28.4887 121.879 28.63 122.091 28.63H132.501ZM128.733 17.7493H136.128V20.1516H118.7L118.488 17.7493H125.86V15.1116H117.146L116.934 12.6623H125.86V10.3071H128.733V12.6623H137.682V15.1116H128.733V17.7493Z" fill="#1C1D23"/>
<path d="M107.655 28.3476C109.633 28.748 111.964 29.0071 114.814 29.1248L114.108 31.5742C110.033 31.3858 106.83 30.8912 104.098 29.8785C101.414 30.7263 98.0692 31.2916 93.9713 31.6213L93.2648 29.219C96.1616 29.0071 98.6109 28.6538 100.683 28.1592C99.5765 27.4527 98.5403 26.6048 97.5511 25.5921C96.4677 26.2516 95.2902 26.8404 93.9713 27.4056L93.2412 24.8385C95.7376 23.92 97.8337 22.6011 99.3174 20.8583H93.5238L93.2883 18.5974H102.426V17.5847H95.3844L95.1489 15.3709H102.426V14.264H94.3481L94.1126 12.0502H102.426V10.2603H105.205V12.0502H113.236V14.264H105.205V15.3709H112.53V17.5847H105.205V18.5974H114.202V20.8583H102.615C102.332 21.2823 102.026 21.6826 101.696 22.083H110.457C111.917 22.083 112.695 23.3312 111.8 24.6501C110.787 26.1338 109.421 27.3585 107.655 28.3476ZM103.863 27.2172C105.888 26.4635 107.466 25.4979 108.762 24.3204H99.3881C99.1055 24.5323 98.8229 24.7443 98.5167 24.9563H100.165C101.272 25.8748 102.473 26.6284 103.863 27.2172Z" fill="#1C1D23"/>
<path d="M87.5175 26.7462C88.4595 27.6176 89.6371 28.3712 91.0737 29.0542L90.2023 31.951C88.3182 31.1267 86.7638 30.1611 85.5156 28.96C84.1732 30.114 82.5011 31.1031 80.405 31.9745L79.6043 29.4781C79.3216 30.0904 78.9919 30.7028 78.6386 31.3151H75.4592C75.836 30.7028 76.1893 30.0904 76.4955 29.5017L69.9247 30.5379L69.6185 28.0179L76.8016 26.8875L76.7781 28.9129C78.4973 25.3566 79.0626 22.0359 79.1568 17.4198L79.2274 13.5574H77.8144L77.5082 11.0845H87.2584C88.6479 11.0845 89.4251 12.1915 88.7186 13.4161L86.6932 16.9488H88.5302C89.8491 16.9488 90.4378 17.7731 90.2494 19.092C89.802 22.1772 88.9777 24.6736 87.5175 26.7462ZM85.5627 24.3675C86.387 22.9779 86.9523 21.3294 87.3055 19.4217H84.2203L83.7964 16.9959L85.5863 13.5574H82.1007L82.03 17.3727C82.0065 18.3148 81.9829 19.2097 81.9123 20.0576H83.8435C84.291 21.7062 84.8091 23.1193 85.5627 24.3675ZM83.6551 26.7226C82.8308 25.4508 82.1949 23.9907 81.7003 22.295C81.3706 24.7443 80.7818 26.9346 79.7456 29.1719C81.3235 28.489 82.6188 27.6882 83.6551 26.7226ZM74.682 16.9017C75.0589 16.0303 75.365 15.1118 75.6476 14.1462H78.2383C77.6024 17.4198 76.1187 20.1753 73.8577 22.3892L77.2491 22.0594V24.5794L70.0895 25.1918L69.7598 22.766L70.3721 22.7189C71.5968 21.7062 72.5624 20.5993 73.3632 19.3511L69.854 19.5395L69.5479 17.1137L69.854 17.0901C71.5026 14.8999 72.374 12.8273 73.0805 10.2603H75.577C74.9882 12.7802 73.9519 15.0647 72.6566 16.9959L74.682 16.9017Z" fill="#1C1D23"/>
<path d="M64.602 19.6804C65.6618 19.6804 66.2506 20.2692 66.2506 21.329V25.8038C66.2506 26.8636 65.6618 27.4524 64.602 27.4524H58.5729C57.5131 27.4524 56.9243 26.8636 56.9243 25.8038V21.329C56.9243 20.2692 57.5131 19.6804 58.5729 19.6804H64.602ZM59.8917 21.9414C59.6798 21.9414 59.562 22.0591 59.562 22.2711V24.8617C59.562 25.0737 59.6798 25.1914 59.8917 25.1914H63.2831C63.4951 25.1914 63.6128 25.0737 63.6128 24.8617V22.2711C63.6128 22.0591 63.4951 21.9414 63.2831 21.9414H59.8917ZM61.14 13.298C61.1164 15.8416 60.0566 17.6079 57.0891 19.3978L56.1942 16.972C57.8192 16.03 58.5258 15.0408 58.5493 13.298H56.6181L56.4062 11.0371H64.9317C65.9915 11.0371 66.4861 11.5317 66.6274 12.615C66.7923 13.9104 66.7923 15.559 66.5332 16.7601C66.2741 17.9612 65.6854 18.6442 64.6491 18.7619C63.6599 18.8797 62.6472 18.7855 61.7758 18.5971L61.1871 16.3361C61.8936 16.5246 62.6237 16.5717 63.2596 16.501C63.7071 16.4539 63.7777 16.2184 63.8719 15.7945C64.0132 15.0879 64.0368 14.3578 63.9661 13.6513C63.9426 13.4393 63.8248 13.298 63.6128 13.298H61.14ZM53.9568 28.3002C54.6869 28.4651 55.4877 28.5357 56.359 28.5357H67.4753L66.91 31.1028H56.359C52.8264 31.1028 50.5183 30.2314 49.1995 27.6879C48.7049 29.0538 47.9748 30.3727 46.7972 31.668L45.7139 28.6299C47.3154 26.6516 47.4567 24.4613 47.4096 20.8109H49.9531C49.9767 21.5881 49.9767 22.3653 49.9531 23.1425C50.0709 24.8382 50.5419 26.0628 51.3191 26.8871V19.8924H46.2555L46.02 17.6315H50.3535V15.4647H47.0092L46.7737 13.2038H50.3535V10.3306H52.9912V13.2038H55.7232V15.4647H52.9912V17.6315H56.1942V19.8924H53.9568V22.7656H56.0058V25.0266H53.9568V28.3002Z" fill="#1C1D23"/>
<path d="M141.904 13.464C141.904 13.8996 142.481 14.0541 142.699 13.6771L143.961 11.4968C144.037 11.3653 144.178 11.2843 144.33 11.2841L146.849 11.2811C147.284 11.2805 147.439 10.7041 147.062 10.4858L144.882 9.22351C144.75 9.14738 144.669 9.00702 144.669 8.85508L144.666 6.33581C144.665 5.90018 144.089 5.74571 143.871 6.12271L142.608 8.30294C142.532 8.43444 142.392 8.51547 142.24 8.51566L139.721 8.51871C139.285 8.51924 139.131 9.09571 139.508 9.31398L141.688 10.5763C141.819 10.6524 141.9 10.7928 141.9 10.9447L141.904 13.464Z" fill="url(#paint3_linear_28137_333959)"/>
<defs>
<linearGradient id="paint0_linear_28137_333959" x1="7.65808" y1="10.4666" x2="34.0008" y2="33.638" gradientUnits="userSpaceOnUse">
<stop stop-color="#3F8FFF"/>
<stop offset="1" stop-color="#EF2FDF"/>
</linearGradient>
<linearGradient id="paint1_linear_28137_333959" x1="1.61813" y1="10.9964" x2="5.71675" y2="5.48423" gradientUnits="userSpaceOnUse">
<stop stop-color="#3F8FFF"/>
<stop offset="1" stop-color="#EF2FDF"/>
</linearGradient>
<linearGradient id="paint2_linear_28137_333959" x1="35.7845" y1="28.657" x2="39.9883" y2="26.8407" gradientUnits="userSpaceOnUse">
<stop stop-color="#3F8FFF"/>
<stop offset="1" stop-color="#EF2FDF"/>
</linearGradient>
<linearGradient id="paint3_linear_28137_333959" x1="138.799" y1="12.4641" x2="148.298" y2="8.36002" gradientUnits="userSpaceOnUse">
<stop stop-color="#3F8FFF"/>
<stop offset="1" stop-color="#EF2FDF"/>
</linearGradient>
</defs>
</svg>
