<svg preserveAspectRatio="none" width="100%" height="100%" overflow="visible" style="display: block;" viewBox="0 0 16 16" fill="none" xmlns="http://www.w3.org/2000/svg">
<g id="&#233;&#128;&#154;&#231;&#148;&#168; / ModeIcon" clip-path="url(#clip0_0_737)">
<mask id="mask0_0_737" style="mask-type:alpha" maskUnits="userSpaceOnUse" x="-1" y="0" width="17" height="16">
<path id="Ellipse 44" d="M15.9993 8C15.9993 14.2501 14.2494 16 7.9993 16C1.74918 16 -0.000703125 14.2501 -0.000703125 8C-0.000703125 1.74988 1.74918 0 7.9993 0C14.2494 0 15.9993 1.74988 15.9993 8Z" fill="var(--fill-0, #DDEBFF)"/>
</mask>
<g mask="url(#mask0_0_737)">
<path id="Ellipse 43" d="M16 8C16 14.2501 14.2501 16 8 16C1.74988 16 0 14.2501 0 8C0 1.74988 1.74988 0 8 0C14.2501 0 16 1.74988 16 8Z" fill="var(--fill-0, #26DAA7)"/>
<path id="Vector" d="M9.00253 13.1205L11.9699 4.83735C12.0375 4.63513 11.9891 4.41814 11.8449 4.27272C11.7007 4.1273 11.4866 4.07845 11.2816 4.14775L3.0001 7.15496C2.83787 7.21063 2.71733 7.34468 2.67903 7.51282C2.6396 7.69119 2.69593 7.88319 2.82774 8.01611C2.86491 8.0536 2.9066 8.08541 2.95279 8.1104L6.94877 9.31465L8.03818 13.1148L8.05845 13.1637C8.17562 13.375 8.42572 13.4897 8.65216 13.4375C8.81664 13.4 8.94958 13.2796 9.00253 13.1205Z" fill="var(--fill-0, white)"/>
</g>
</g>
<defs>
<clipPath id="clip0_0_737">
<rect width="16" height="16" fill="white"/>
</clipPath>
</defs>
</svg>
