<svg preserveAspectRatio="none" width="100%" height="100%" overflow="visible" style="display: block;" viewBox="0 0 10.6667 10" fill="none" xmlns="http://www.w3.org/2000/svg">
<path id="Vector" d="M5.33333 10C4.71854 10 4.10977 9.87909 3.54178 9.64417C2.97379 9.40925 2.4577 9.06492 2.02297 8.63084C1.58825 8.19677 1.24341 7.68144 1.00814 7.11429C0.772869 6.54715 0.651777 5.93928 0.651777 5.3254C0.651777 4.71153 0.772869 4.10366 1.00814 3.53651C1.24341 2.96936 1.58825 2.45404 2.02297 2.01997C2.4577 1.58589 2.97379 1.24156 3.54178 1.00664C4.10977 0.77172 4.71854 0.650808 5.33333 0.650808C6.57496 0.650808 7.76573 1.14331 8.6437 2.01997C9.52166 2.89662 10.0149 4.08562 10.0149 5.3254C10.0149 6.56518 9.52166 7.75418 8.6437 8.63084C7.76573 9.5075 6.57496 10 5.33333 10ZM5.85351 5.3254V2.72841H4.81316V6.3642H7.41403V5.3254H5.85351ZM0 1.83608L1.83881 0L2.57486 0.733912L0.735004 2.57103L0 1.83608ZM8.82734 0L10.6667 1.83608L9.93114 2.57103L8.09181 0.734431L8.82734 0Z" fill="var(--fill-0, white)"/>
</svg>
