<svg preserveAspectRatio="none" width="100%" height="100%" overflow="visible" style="display: block;" viewBox="0 0 16 16" fill="none" xmlns="http://www.w3.org/2000/svg">
<g id="&#233;&#128;&#154;&#231;&#148;&#168; / ModeIcon" clip-path="url(#clip0_0_1045)">
<mask id="mask0_0_1045" style="mask-type:alpha" maskUnits="userSpaceOnUse" x="-1" y="0" width="17" height="16">
<path id="Ellipse 44" d="M15.9993 8C15.9993 14.2501 14.2494 16 7.9993 16C1.74918 16 -0.000703125 14.2501 -0.000703125 8C-0.000703125 1.74988 1.74918 0 7.9993 0C14.2494 0 15.9993 1.74988 15.9993 8Z" fill="var(--fill-0, #DDEBFF)"/>
</mask>
<g mask="url(#mask0_0_1045)">
<path id="Ellipse 43" d="M16 8C16 14.2501 14.2501 16 8 16C1.74988 16 0 14.2501 0 8C0 1.74988 1.74988 0 8 0C14.2501 0 16 1.74988 16 8Z" fill="var(--fill-0, #FF7777)"/>
<path id="Vector" d="M10.1 4.1167C11.5177 4.1167 12.6667 5.28787 12.6667 6.92751C12.6667 10.2068 9.16667 12.0807 8 12.7834C7.07693 12.2278 4.69413 10.939 3.73887 8.80138H5.9308L6.36667 8.07245L7.76667 10.4148L8.7308 8.80138H10.3333V7.86445H8.20253L7.76667 8.59338L6.36667 6.25104L5.40253 7.86445H3.43133C3.36592 7.55647 3.33307 7.24241 3.33333 6.92751C3.33333 5.28787 4.5 4.1167 5.9 4.1167C6.768 4.1167 7.53333 4.58517 8 5.05364C8.46667 4.58517 9.232 4.1167 10.1 4.1167Z" fill="var(--fill-0, white)"/>
</g>
</g>
<defs>
<clipPath id="clip0_0_1045">
<rect width="16" height="16" fill="white"/>
</clipPath>
</defs>
</svg>
