<svg preserveAspectRatio="none" width="100%" height="100%" overflow="visible" style="display: block;" viewBox="0 0 16 16" fill="none" xmlns="http://www.w3.org/2000/svg">
<g id="&#233;&#128;&#154;&#231;&#148;&#168; / ModeIcon" clip-path="url(#clip0_0_1225)">
<mask id="mask0_0_1225" style="mask-type:alpha" maskUnits="userSpaceOnUse" x="-1" y="0" width="17" height="16">
<path id="Ellipse 44" d="M15.9993 8C15.9993 14.2501 14.2494 16 7.9993 16C1.74918 16 -0.000703125 14.2501 -0.000703125 8C-0.000703125 1.74988 1.74918 0 7.9993 0C14.2494 0 15.9993 1.74988 15.9993 8Z" fill="var(--fill-0, #DDEBFF)"/>
</mask>
<g mask="url(#mask0_0_1225)">
<path id="Ellipse 43" d="M16 8C16 14.2501 14.2501 16 8 16C1.74988 16 0 14.2501 0 8C0 1.74988 1.74988 0 8 0C14.2501 0 16 1.74988 16 8Z" fill="var(--fill-0, #49DD70)"/>
<path id="Vector" d="M11.7314 4.65081C11.5575 4.47192 11.3313 4.37288 11.101 4.37755L9.24714 4.37236C9.15941 4.10779 8.99355 3.87616 8.77151 3.70813C8.54899 3.54061 8.27818 3.45003 7.99984 3.45003C7.7215 3.45003 7.45069 3.54061 7.22817 3.70813C7.01649 3.86369 6.84725 4.09443 6.75305 4.36821H4.89918C4.66835 4.36303 4.4427 4.46207 4.26828 4.64148C4.18186 4.72604 4.11353 4.82735 4.06744 4.93923C4.02135 5.0511 3.99847 5.17121 4.00019 5.29223V11.836C3.99502 12.0808 4.09439 12.3167 4.26828 12.4863C4.42873 12.6703 4.65438 12.774 4.89918 12.7834H11.101C11.336 12.7787 11.5616 12.675 11.7314 12.4863C11.9006 12.326 12 12.0906 12 11.836V5.29689C11.9948 5.04696 11.8965 4.80637 11.7314 4.65081ZM7.59977 4.65081C7.63497 4.56664 7.6947 4.49508 7.77116 4.44549C7.84762 4.3959 7.93725 4.37059 8.0283 4.37288V4.37755C8.08865 4.37497 8.14884 4.3854 8.20482 4.40812C8.2608 4.43084 8.31126 4.46533 8.35281 4.50925C8.39577 4.54971 8.42973 4.59879 8.45247 4.6533C8.47522 4.7078 8.48622 4.7665 8.48478 4.82555C8.48455 4.94835 8.43732 5.06639 8.35281 5.15533C8.31112 5.19974 8.26086 5.23519 8.20507 5.25952C8.14929 5.28386 8.08915 5.29657 8.0283 5.29689C7.96737 5.29664 7.90713 5.28396 7.85125 5.25962C7.79537 5.23529 7.74502 5.1998 7.70328 5.15533C7.63644 5.09204 7.59066 5.00967 7.57214 4.91942C7.55363 4.82916 7.56327 4.73539 7.59977 4.65081ZM6.93627 8.4319C6.82538 8.24421 6.76687 8.03011 6.76687 7.812C6.76687 7.59389 6.82538 7.37979 6.93627 7.1921C7.04495 7.00336 7.20488 6.84314 7.39741 6.7301C7.58374 6.61816 7.79706 6.55935 8.01433 6.56002C8.23067 6.56002 8.447 6.61706 8.63539 6.7301C8.82378 6.83847 8.9837 6.99869 9.09187 7.19158C9.20286 7.37934 9.26142 7.59353 9.26142 7.81174C9.26142 8.02995 9.20286 8.24415 9.09187 8.4319C8.98108 8.6219 8.82403 8.78068 8.63539 8.89339C8.4472 9.00447 8.23275 9.06305 8.01433 9.06305C7.7959 9.06305 7.58146 9.00447 7.39327 8.89339C7.20565 8.77937 7.04888 8.62089 6.93678 8.4319H6.93627ZM5.55803 11.2278V10.6522C5.55803 10.4028 5.70812 10.1716 6.00467 9.96414C6.30608 9.76645 6.64114 9.62585 6.9932 9.54932C7.31512 9.4585 7.64733 9.40936 7.98172 9.4031C8.31554 9.40828 8.64937 9.45495 8.96973 9.54465C9.32057 9.62452 9.65488 9.76488 9.95774 9.95947C10.2543 10.1669 10.4044 10.3976 10.4044 10.6476V11.2231H5.55751V11.2278H5.55803Z" fill="var(--fill-0, white)"/>
</g>
</g>
<defs>
<clipPath id="clip0_0_1225">
<rect width="16" height="16" fill="white"/>
</clipPath>
</defs>
</svg>
