<svg preserveAspectRatio="none" width="100%" height="100%" overflow="visible" style="display: block;" viewBox="0 0 16 16" fill="none" xmlns="http://www.w3.org/2000/svg">
<g id="&#233;&#128;&#154;&#231;&#148;&#168; / ModeIcon" clip-path="url(#clip0_0_1828)">
<mask id="mask0_0_1828" style="mask-type:alpha" maskUnits="userSpaceOnUse" x="-1" y="0" width="17" height="16">
<path id="Ellipse 44" d="M15.9993 8C15.9993 14.2501 14.2494 16 7.9993 16C1.74918 16 -0.000703125 14.2501 -0.000703125 8C-0.000703125 1.74988 1.74918 0 7.9993 0C14.2494 0 15.9993 1.74988 15.9993 8Z" fill="var(--fill-0, #DDEBFF)"/>
</mask>
<g mask="url(#mask0_0_1828)">
<path id="Ellipse 43" d="M16 8C16 14.2501 14.2501 16 8 16C1.74988 16 0 14.2501 0 8C0 1.74988 1.74988 0 8 0C14.2501 0 16 1.74988 16 8Z" fill="var(--fill-0, #6366F1)"/>
<path id="Vector" d="M6.18919 12.3333H4.92793C4.59352 12.333 4.27291 12.2 4.03645 11.9635C3.79999 11.7271 3.667 11.4065 3.66667 11.0721V9.81081H4.54955C4.91751 9.81081 5.27039 9.66464 5.53058 9.40445C5.79077 9.14427 5.93694 8.79138 5.93694 8.42342C5.93694 8.05546 5.79077 7.70258 5.53058 7.44239C5.27039 7.18221 4.91751 7.03604 4.54955 7.03604H3.66667V6.02703C3.667 5.69262 3.79999 5.37201 4.03645 5.13555C4.27291 4.89909 4.59352 4.7661 4.92793 4.76577H6.18919V4.38739C6.18919 4.01943 6.33536 3.66654 6.59555 3.40636C6.85573 3.14617 7.20862 3 7.57658 3C7.94453 3 8.29742 3.14617 8.55761 3.40636C8.81779 3.66654 8.96396 4.01943 8.96396 4.38739V4.76577H9.97297C10.3074 4.7661 10.628 4.89909 10.8644 5.13555C11.1009 5.37201 11.2339 5.69262 11.2342 6.02703V7.03604H11.6126C11.7948 7.03604 11.9752 7.07192 12.1435 7.14164C12.3119 7.21137 12.4648 7.31356 12.5936 7.44239C12.7225 7.57122 12.8247 7.72417 12.8944 7.89249C12.9641 8.06082 13 8.24123 13 8.42342C13 8.60562 12.9641 8.78603 12.8944 8.95435C12.8247 9.12268 12.7225 9.27562 12.5936 9.40445C12.4648 9.53329 12.3119 9.63548 12.1435 9.7052C11.9752 9.77492 11.7948 9.81081 11.6126 9.81081H11.2342V11.0721C11.2339 11.4065 11.1009 11.7271 10.8644 11.9635C10.628 12.2 10.3074 12.333 9.97297 12.3333H8.96396V11.4504C8.96396 11.2683 8.92808 11.0878 8.85835 10.9195C8.78863 10.7512 8.68644 10.5982 8.55761 10.4694C8.42878 10.3406 8.27583 10.2384 8.10751 10.1687C7.93918 10.0989 7.75877 10.0631 7.57658 10.0631C7.39438 10.0631 7.21397 10.0989 7.04565 10.1687C6.87732 10.2384 6.72438 10.3406 6.59555 10.4694C6.46671 10.5982 6.36452 10.7512 6.2948 10.9195C6.22507 11.0878 6.18919 11.2683 6.18919 11.4504V12.3333Z" fill="var(--fill-0, white)"/>
</g>
</g>
<defs>
<clipPath id="clip0_0_1828">
<rect width="16" height="16" fill="white"/>
</clipPath>
</defs>
</svg>
