<svg preserveAspectRatio="none" width="100%" height="100%" overflow="visible" style="display: block;" viewBox="0 0 8.66667 9.33333" fill="none" xmlns="http://www.w3.org/2000/svg">
<path id="Vector" d="M8.5553 5.86401C8.63034 5.78204 8.66667 5.69245 8.66667 5.59599C8.66667 5.29595 8.38007 5.00125 7.80447 4.71532C7.85157 4.45988 7.87951 4.18615 7.8859 3.89183C7.92422 2.67832 7.61607 1.72788 6.96143 1.04545C6.36468 0.426312 5.56675 0.0809047 4.56325 0.0115181C3.55337 -0.0658746 2.67001 0.246746 1.91479 0.94938C1.10609 1.69738 0.701333 2.67413 0.701333 3.88191C0.701333 4.11066 0.718896 4.3478 0.753224 4.59103C0.250276 4.87086 0 5.1465 0 5.41452C0 5.50411 0.0319332 5.59218 0.10059 5.68177C0.207566 5.80263 0.338093 5.86401 0.491771 5.86401C0.645849 5.86401 0.815095 5.80453 1.00111 5.68215C1.00829 5.69816 1.01468 5.71456 1.02027 5.73095C1.28624 6.32931 1.67123 6.87271 2.15389 7.33104C3.33103 8.43665 4.96761 9.10268 7.05963 9.33333C6.51237 8.89223 6.25731 8.44236 6.29842 7.98296C6.37307 7.61316 6.5463 7.22886 6.82013 6.83237C7.18177 6.3154 7.4085 5.9536 7.5027 5.74963C7.75098 5.9536 7.97372 6.05577 8.1745 6.05577C8.32857 6.05577 8.45471 5.99249 8.5553 5.86401ZM1.95711 2.17508C1.95711 2.05461 2.00221 1.95015 2.09202 1.86475C2.13397 1.82283 2.1845 1.78959 2.24046 1.76709C2.29642 1.7446 2.35663 1.73333 2.41734 1.73398C2.47972 1.73288 2.54168 1.74391 2.59946 1.76639C2.65723 1.78887 2.70962 1.82233 2.75344 1.86475C2.84325 1.95053 2.88796 2.05461 2.88796 2.17508C2.88796 2.29556 2.84325 2.40002 2.75344 2.4858C2.66363 2.57158 2.54987 2.61466 2.41734 2.61466C2.29121 2.61466 2.18184 2.57158 2.09202 2.4858C2.04862 2.44549 2.0143 2.39714 1.99117 2.34371C1.96803 2.29028 1.95658 2.23289 1.9575 2.17508H1.95711ZM5.18595 2.77783C5.18595 2.65736 5.23066 2.5529 5.32047 2.4675C5.41028 2.38172 5.51965 2.33864 5.64579 2.33864C5.77192 2.33864 5.88129 2.38172 5.97111 2.4675C6.06092 2.55328 6.10563 2.65736 6.10563 2.77783C6.10563 2.90478 6.06092 3.01306 5.97111 3.09884C5.92891 3.14029 5.87828 3.17307 5.82234 3.19517C5.7664 3.21726 5.70632 3.2282 5.64579 3.22732C5.51965 3.22732 5.41028 3.18462 5.32047 3.09884C5.27624 3.05697 5.24149 3.00688 5.21835 2.95166C5.19521 2.89644 5.18418 2.83728 5.18595 2.77783ZM2.50077 3.84989C2.73149 4.36838 3.62482 5.2502 5.3512 4.62763C4.49619 5.57426 2.72869 6.74354 2.50117 3.84989H2.50077Z" fill="var(--fill-0, white)"/>
</svg>
