<svg preserveAspectRatio="none" width="100%" height="100%" overflow="visible" style="display: block;" viewBox="0 0 16 16" fill="none" xmlns="http://www.w3.org/2000/svg">
<g id="&#233;&#128;&#154;&#231;&#148;&#168; / ModeIcon" clip-path="url(#clip0_0_861)">
<mask id="mask0_0_861" style="mask-type:alpha" maskUnits="userSpaceOnUse" x="-1" y="0" width="17" height="16">
<path id="Ellipse 44" d="M15.9993 8C15.9993 14.2501 14.2494 16 7.9993 16C1.74918 16 -0.000703125 14.2501 -0.000703125 8C-0.000703125 1.74988 1.74918 0 7.9993 0C14.2494 0 15.9993 1.74988 15.9993 8Z" fill="var(--fill-0, #DDEBFF)"/>
</mask>
<g mask="url(#mask0_0_861)">
<path id="Ellipse 43" d="M16 8C16 14.2501 14.2501 16 8 16C1.74988 16 0 14.2501 0 8C0 1.74988 1.74988 0 8 0C14.2501 0 16 1.74988 16 8Z" fill="var(--fill-0, #525252)"/>
<path id="Union" d="M8.88086 4.09132C9.59666 3.39645 10.6378 3.26638 11.4837 3.70069L10.0736 5.09002L11.0065 6.02426L12.4167 4.6128C12.8503 5.45962 12.7199 6.52343 12.026 7.21827C11.4404 7.80456 10.6378 8.00044 9.90039 7.78338L9.32552 8.35825L9.70508 8.73845L10.1823 8.26124L12.3294 10.411C12.7416 10.8236 12.7416 11.5185 12.3294 11.9312L11.7871 12.4741C11.375 12.8865 10.681 12.8866 10.2689 12.4741L8.12174 10.3237L8.59896 9.84653L8.21875 9.46632L5.12826 12.5607C4.84627 12.843 4.39071 12.843 4.10872 12.5607L3.54492 12.0399C3.47789 11.9729 3.4243 11.8931 3.38802 11.8055C3.35179 11.718 3.33336 11.6242 3.33333 11.5295C3.33333 11.4347 3.35174 11.3403 3.38802 11.2528C3.4243 11.1652 3.47792 11.086 3.54492 11.0191L6.6569 7.90252L5.43164 6.6753L5.41016 6.69744L4.34701 6.13299L3.39323 4.8947L4.75911 3.52687L5.99609 4.48194L6.5599 5.5464L6.53841 5.56788L7.76367 6.79444L8.31706 6.24106C8.1219 5.50273 8.29524 4.67763 8.88086 4.09132Z" fill="var(--fill-0, white)"/>
</g>
</g>
<defs>
<clipPath id="clip0_0_861">
<rect width="16" height="16" fill="white"/>
</clipPath>
</defs>
</svg>
