<svg preserveAspectRatio="none" width="100%" height="100%" overflow="visible" style="display: block;" viewBox="0 0 16 16" fill="none" xmlns="http://www.w3.org/2000/svg">
<g id="&#233;&#128;&#154;&#231;&#148;&#168; / ModeIcon" clip-path="url(#clip0_0_799)">
<mask id="mask0_0_799" style="mask-type:alpha" maskUnits="userSpaceOnUse" x="-1" y="0" width="17" height="16">
<path id="Ellipse 44" d="M15.9993 8C15.9993 14.2501 14.2494 16 7.9993 16C1.74918 16 -0.000703125 14.2501 -0.000703125 8C-0.000703125 1.74988 1.74918 0 7.9993 0C14.2494 0 15.9993 1.74988 15.9993 8Z" fill="var(--fill-0, #DDEBFF)"/>
</mask>
<g mask="url(#mask0_0_799)">
<path id="Ellipse 43" d="M16 8C16 14.2501 14.2501 16 8 16C1.74988 16 0 14.2501 0 8C0 1.74988 1.74988 0 8 0C14.2501 0 16 1.74988 16 8Z" fill="var(--fill-0, #739BFF)"/>
<path id="Vector" d="M7.90252 8.11641C9.19556 8.11641 10.2438 7.07159 10.2438 5.78314C10.2438 4.49443 9.19556 3.45003 7.90252 3.45003C6.60954 3.45003 5.56116 4.49443 5.56127 5.78314C5.56125 7.07159 6.60954 8.11641 7.90253 8.11641H7.90252ZM8.97579 8.89433H7.02448C5.35418 8.89433 4 10.2436 4 11.908V12.1024C4 12.7827 5.35418 12.7834 7.02448 12.7834H8.97577C10.6459 12.7834 12 12.7582 12 12.1024V11.908C12 10.2436 10.646 8.89436 8.97577 8.89436L8.97579 8.89433Z" fill="var(--fill-0, white)"/>
</g>
</g>
<defs>
<clipPath id="clip0_0_799">
<rect width="16" height="16" fill="white"/>
</clipPath>
</defs>
</svg>
