<svg width="16" height="16" viewBox="0 0 16 16" fill="none" xmlns="http://www.w3.org/2000/svg">
<path d="M12.583 11.333C12.5828 10.6428 12.0233 10.083 11.333 10.083C10.6429 10.0831 10.0832 10.6429 10.083 11.333C10.083 12.0233 10.6428 12.5829 11.333 12.583C11.6299 12.583 11.9018 12.4785 12.1162 12.3057C12.1414 12.2694 12.1708 12.2354 12.2031 12.2031C12.2353 12.171 12.2696 12.1423 12.3057 12.1172C12.4788 11.9027 12.583 11.6301 12.583 11.333ZM13.25 8.11328V3.33301C13.2499 3.17842 13.1884 3.03022 13.0791 2.9209C12.9698 2.81158 12.8216 2.75009 12.667 2.75H3.33301C3.17842 2.75009 3.03022 2.81158 2.9209 2.9209C2.81158 3.03022 2.75009 3.17842 2.75 3.33301V12.667C2.75009 12.8216 2.81158 12.9698 2.9209 13.0791C3.03022 13.1884 3.17842 13.2499 3.33301 13.25H3.68945L6.80273 10.1367C7.09563 9.84383 7.57039 9.84383 7.86328 10.1367C8.15617 10.4296 8.15617 10.9044 7.86328 11.1973L5.81055 13.25H7.33301C7.74722 13.25 8.08301 13.5858 8.08301 14C8.08301 14.4142 7.74722 14.75 7.33301 14.75H3.33301C2.78059 14.7499 2.25098 14.5303 1.86035 14.1396C1.46973 13.749 1.25009 13.2194 1.25 12.667V3.33301C1.25009 2.78059 1.46973 2.25098 1.86035 1.86035C2.25098 1.46973 2.78059 1.25009 3.33301 1.25H12.667C13.2194 1.25009 13.749 1.46973 14.1396 1.86035C14.5303 2.25098 14.7499 2.78059 14.75 3.33301V8.11328C14.75 8.52749 14.4142 8.86328 14 8.86328C13.5858 8.86328 13.25 8.52749 13.25 8.11328ZM6.58301 6C6.58301 5.67783 6.32217 5.41699 6 5.41699C5.67783 5.41699 5.41699 5.67783 5.41699 6C5.41699 6.32217 5.67783 6.58301 6 6.58301C6.32217 6.58301 6.58301 6.32217 6.58301 6ZM14.083 11.333C14.083 11.8197 13.9552 12.2763 13.7334 12.6729L14.5303 13.4697C14.8232 13.7626 14.8231 14.2374 14.5303 14.5303C14.2374 14.8232 13.7626 14.8232 13.4697 14.5303L12.6729 13.7334C12.2763 13.9552 11.8197 14.083 11.333 14.083C9.81434 14.0829 8.58301 12.8517 8.58301 11.333C8.58318 9.81446 9.81445 8.58315 11.333 8.58301C12.8517 8.58301 14.0828 9.81437 14.083 11.333ZM8.08301 6C8.08301 7.15059 7.15059 8.08301 6 8.08301C4.84941 8.08301 3.91699 7.15059 3.91699 6C3.91699 4.84941 4.84941 3.91699 6 3.91699C7.15059 3.91699 8.08301 4.84941 8.08301 6Z" fill="white"/>
</svg>
