<svg preserveAspectRatio="none" width="100%" height="100%" overflow="visible" style="display: block;" viewBox="0 0 11 11" fill="none" xmlns="http://www.w3.org/2000/svg">
<path id="Vector" d="M2.97297 11H1.48649C1.09237 10.9996 0.714501 10.8429 0.435816 10.5642C0.157131 10.2855 0.000393527 9.90763 0 9.51351V8.02703H1.04054C1.47421 8.02703 1.89011 7.85475 2.19676 7.54811C2.5034 7.24146 2.67568 6.82556 2.67568 6.39189C2.67568 5.95823 2.5034 5.54232 2.19676 5.23568C1.89011 4.92903 1.47421 4.75676 1.04054 4.75676H0V3.56757C0.000393531 3.17345 0.157131 2.79558 0.435816 2.5169C0.714501 2.23821 1.09237 2.08147 1.48649 2.08108H2.97297V1.63514C2.97297 1.20147 3.14525 0.785567 3.45189 0.47892C3.75854 0.172273 4.17444 0 4.60811 0C5.04177 0 5.45768 0.172273 5.76432 0.47892C6.07097 0.785567 6.24324 1.20147 6.24324 1.63514V2.08108H7.43243C7.82655 2.08147 8.20442 2.23821 8.4831 2.5169C8.76179 2.79558 8.91852 3.17345 8.91892 3.56757V4.75676H9.36486C9.57959 4.75676 9.79222 4.79905 9.9906 4.88122C10.189 4.9634 10.3692 5.08384 10.5211 5.23568C10.6729 5.38751 10.7934 5.56777 10.8755 5.76615C10.9577 5.96454 11 6.17716 11 6.39189C11 6.60662 10.9577 6.81925 10.8755 7.01763C10.7934 7.21601 10.6729 7.39627 10.5211 7.54811C10.3692 7.69994 10.189 7.82039 9.9906 7.90256C9.79222 7.98473 9.57959 8.02703 9.36486 8.02703H8.91892V9.51351C8.91852 9.90763 8.76179 10.2855 8.4831 10.5642C8.20442 10.8429 7.82655 10.9996 7.43243 11H6.24324V9.95946C6.24324 9.74473 6.20095 9.5321 6.11878 9.33372C6.0366 9.13534 5.91616 8.95508 5.76432 8.80324C5.61249 8.65141 5.43223 8.53096 5.23385 8.44879C5.03546 8.36662 4.82284 8.32432 4.60811 8.32432C4.39338 8.32432 4.18075 8.36662 3.98237 8.44879C3.78398 8.53096 3.60373 8.65141 3.45189 8.80324C3.30006 8.95508 3.17961 9.13534 3.09744 9.33372C3.01527 9.5321 2.97297 9.74473 2.97297 9.95946V11Z" fill="var(--fill-0, white)"/>
</svg>
