<svg preserveAspectRatio="none" width="100%" height="100%" overflow="visible" style="display: block;" viewBox="0 0 15 14.6667" fill="none" xmlns="http://www.w3.org/2000/svg">
<path id="Vector" fill-rule="evenodd" clip-rule="evenodd" d="M1.33333 7.82448e-08H4.458C4.74817 -9.92965e-05 5.03045 0.094462 5.262 0.269333L6.43333 1.15467C6.66462 1.32964 6.94665 1.42443 7.23667 1.42467H13.6667C14.0203 1.42467 14.3594 1.56514 14.6095 1.81519C14.8595 2.06524 15 2.40438 15 2.758V13.3333C15 13.687 14.8595 14.0261 14.6095 14.2761C14.3594 14.5262 14.0203 14.6667 13.6667 14.6667H1.33333C0.979711 14.6667 0.640573 14.5262 0.390524 14.2761C0.140476 14.0261 0 13.687 0 13.3333V1.33333C0 0.979711 0.140476 0.640573 0.390524 0.390524C0.640573 0.140476 0.979711 7.82448e-08 1.33333 7.82448e-08Z" fill="var(--fill-0, #0078D4)"/>
</svg>
