<svg width="178" height="109" viewBox="0 0 178 109" fill="none" xmlns="http://www.w3.org/2000/svg">
<path fill-rule="evenodd" clip-rule="evenodd" d="M66.5548 8.96821C66.0215 10.0124 65.5265 11.5315 65.1941 13.4887C64.7452 16.1324 64.6487 19.2492 64.9809 22.3444C65.314 25.4487 66.0643 28.402 67.2172 30.7739C67.4758 31.3058 67.7491 31.798 68.0361 32.2502C68.0369 31.9749 68.0392 31.6978 68.0414 31.4204C68.0422 31.3307 68.0429 31.241 68.0436 31.1513C68.0466 30.7571 68.0492 30.4075 68.0492 30.0999C68.0492 28.7539 68.1946 26.4535 69.6709 24.4758C71.2729 22.33 73.9149 21.2177 77.484 21.2177H81.8024C79.9127 18.843 76.883 15.5177 73.6595 12.8907C71.9664 11.5108 70.308 10.3966 68.8053 9.69817C67.9037 9.27913 67.1575 9.05588 66.5548 8.96821ZM96.1977 21.2177H100.516C104.085 21.2177 106.727 22.33 108.329 24.4758C109.805 26.4535 109.951 28.7539 109.951 30.0999C109.951 30.4075 109.953 30.7571 109.956 31.1513C109.957 31.241 109.958 31.3307 109.959 31.4203C109.961 31.6978 109.963 31.9749 109.964 32.2502C110.251 31.798 110.524 31.3058 110.783 30.7739C111.936 28.402 112.686 25.4487 113.019 22.3444C113.351 19.2492 113.255 16.1324 112.806 13.4887C112.474 11.5315 111.979 10.0124 111.445 8.96821C110.842 9.05588 110.096 9.27913 109.195 9.69817C107.692 10.3966 106.034 11.5108 104.34 12.8907C101.117 15.5177 98.0873 18.843 96.1977 21.2177ZM105.449 41.0517C105.106 41.1805 104.755 41.2927 104.404 41.3903C103.032 41.7728 101.436 41.9993 99.868 42.0561C98.3067 42.1126 96.6339 42.0059 95.1307 41.6383C93.735 41.2971 91.9486 40.6014 90.8391 39.0559C90.3094 38.3181 89.8207 37.9979 89.5298 37.8604C89.4022 37.8002 89.3053 37.7715 89.2486 37.7586L89 37.7927L88.7514 37.7586C88.6947 37.7715 88.5978 37.8002 88.4703 37.8604C88.1793 37.9979 87.6906 38.3181 87.1609 39.0559C86.0514 40.6014 84.265 41.2971 82.8693 41.6383C81.3661 42.0059 79.6933 42.1126 78.132 42.0561C76.5635 41.9993 74.968 41.7728 73.5958 41.3903C73.2454 41.2927 72.8941 41.1805 72.5507 41.0517C72.2425 42.3181 71.9637 43.2738 71.7159 43.9868L71.7154 43.9882C74.3463 47.0306 80.3235 51.574 88.9223 51.3429L89 51.3408L89.0777 51.3429C97.6765 51.574 103.654 47.0306 106.285 43.9882L106.284 43.9868C106.036 43.2738 105.758 42.3181 105.449 41.0517ZM66.9681 39.5327C64.8018 37.9428 63.1873 35.713 62.0164 33.3042C60.4976 30.1794 59.6147 26.5392 59.2308 22.9621C58.8459 19.3759 58.9486 15.7236 59.4927 12.5196C60.022 9.40243 61.0287 6.35402 62.7277 4.2838L63.3995 3.46531L64.4406 3.27417C66.8073 2.83968 69.1848 3.49504 71.2418 4.45103C73.3373 5.42493 75.4109 6.85566 77.312 8.40499C80.374 10.9004 83.2175 13.8929 85.2811 16.3393C85.6538 16.2503 86.0058 16.1863 86.3161 16.1386C87.3394 15.9811 88.3263 15.9417 89 15.9566C89.6737 15.9417 90.6606 15.9811 91.6839 16.1386C91.9942 16.1863 92.3462 16.2503 92.7189 16.3393C94.7825 13.8929 97.626 10.9004 100.688 8.40499C102.589 6.85566 104.663 5.42493 106.758 4.45103C108.815 3.49504 111.193 2.83967 113.559 3.27417L114.601 3.46531L115.272 4.2838C116.971 6.35402 117.978 9.40243 118.507 12.5196C119.051 15.7236 119.154 19.3759 118.769 22.9621C118.385 26.5392 117.502 30.1794 115.984 33.3042C114.813 35.713 113.198 37.9428 111.032 39.5327C111.256 40.4658 111.45 41.1634 111.61 41.6735L114.567 42.1077L112.088 45.8966C109.442 49.9403 101.341 57.428 89 57.1285C76.6594 57.428 68.5581 49.9403 65.9121 45.8966L63.433 42.1077L66.3896 41.6735C66.5498 41.1634 66.7439 40.4658 66.9681 39.5327ZM74.3045 27.9379C73.9924 28.3559 73.8324 29.0503 73.8324 30.0999C73.8324 30.4318 73.8295 30.8024 73.8266 31.1878L73.8265 31.1954C73.8144 32.7879 73.8076 33.7505 73.904 34.5054C73.9694 35.0178 74.0668 35.2798 74.1722 35.4534C74.1861 35.461 74.2019 35.4694 74.2198 35.4785C74.4082 35.5745 74.7145 35.6961 75.1479 35.8169C76.0141 36.0583 77.1503 36.2311 78.341 36.2742C79.5387 36.3175 80.6521 36.2245 81.4963 36.0181C82.2613 35.831 82.4902 35.6311 82.4954 35.6367C84.4862 32.8913 87.0906 31.8761 89 31.9705C90.9094 31.8761 93.5138 32.8914 95.5045 35.6368C95.5097 35.6312 95.7387 35.831 96.5037 36.0181C97.3479 36.2245 98.4613 36.3175 99.659 36.2742C100.85 36.2311 101.986 36.0583 102.852 35.8169C103.285 35.6961 103.592 35.5745 103.78 35.4785C103.798 35.4694 103.814 35.461 103.828 35.4534C103.933 35.2798 104.031 35.0178 104.096 34.5054C104.192 33.7505 104.186 32.7879 104.173 31.1954L104.173 31.1872C104.17 30.802 104.168 30.4316 104.168 30.0999C104.168 29.0503 104.008 28.3559 103.696 27.9379C103.509 27.688 102.879 27.0034 100.516 27.0034H77.484C75.1205 27.0034 74.491 27.688 74.3045 27.9379Z" fill="#E6E7EA"/>
<path d="M17.1887 99.71C16.4649 99.71 15.703 99.6529 14.903 99.5386C14.103 99.4243 13.4553 99.2719 12.9601 99.0814C12.1601 98.7576 11.7601 98.2148 11.7601 97.4529C11.7601 96.9005 11.922 96.4624 12.2458 96.1386C12.5887 95.7957 13.122 95.6243 13.8458 95.6243C14.3411 95.6243 14.9411 95.691 15.6458 95.8243C16.3506 95.9576 16.9696 96.0243 17.503 96.0243C18.6839 96.0243 19.5315 95.8719 20.0458 95.5672C20.5601 95.2624 20.8172 94.6433 20.8172 93.71C20.8172 93.1576 20.6172 92.691 20.2172 92.31C19.8363 91.9291 19.0649 91.5672 17.903 91.2243C15.7887 90.5957 14.2553 89.8148 13.303 88.8814C12.3696 87.9481 11.903 86.7386 11.903 85.2529C11.903 83.9576 12.1887 82.8624 12.7601 81.9672C13.3506 81.0529 14.1601 80.3576 15.1887 79.8814C16.2172 79.4053 17.3887 79.1672 18.703 79.1672C20.2458 79.1672 21.522 79.3767 22.5315 79.7957C23.3315 80.1005 23.7315 80.6433 23.7315 81.4243C23.7315 81.9767 23.5601 82.4243 23.2172 82.7672C22.8934 83.091 22.3696 83.2529 21.6458 83.2529C21.1696 83.2529 20.6553 83.2053 20.103 83.11C19.5506 82.9957 19.0077 82.9386 18.4744 82.9386C17.6553 82.9386 17.0363 83.0814 16.6172 83.3672C16.1982 83.6529 15.9887 84.1291 15.9887 84.7957C15.9887 85.4053 16.2839 85.9576 16.8744 86.4529C17.4649 86.9481 18.5506 87.4338 20.1315 87.91C21.9411 88.4433 23.1887 89.1672 23.8744 90.0814C24.5601 90.9767 24.903 92.1195 24.903 93.51C24.903 95.5291 24.2268 97.0719 22.8744 98.1386C21.5411 99.1862 19.6458 99.71 17.1887 99.71ZM33.3733 99.71C32.1161 99.71 31.0114 99.4529 30.059 98.9386C29.1066 98.4243 28.3637 97.7005 27.8304 96.7672C27.3161 95.8338 27.059 94.7481 27.059 93.51V86.8243C27.059 85.5291 27.7447 84.8814 29.1161 84.8814C30.4876 84.8814 31.1733 85.5291 31.1733 86.8243V93.4529C31.1733 94.3481 31.3637 95.0433 31.7447 95.5386C32.1257 96.0338 32.6685 96.2814 33.3733 96.2814C34.078 96.2814 34.6209 96.0338 35.0018 95.5386C35.3828 95.0433 35.5733 94.3481 35.5733 93.4529V86.8243C35.5733 85.5291 36.259 84.8814 37.6304 84.8814C39.0018 84.8814 39.6876 85.5291 39.6876 86.8243V93.51C39.6876 94.7481 39.4209 95.8338 38.8876 96.7672C38.3733 97.7005 37.6399 98.4243 36.6876 98.9386C35.7542 99.4529 34.6495 99.71 33.3733 99.71ZM44.6309 106.053C43.2404 106.053 42.5451 105.31 42.5451 103.824V92.5672C42.5451 89.9767 43.1166 88.0433 44.2594 86.7672C45.4023 85.491 47.0023 84.8529 49.0594 84.8529C51.1547 84.8529 52.8023 85.5195 54.0023 86.8529C55.2213 88.1862 55.8309 90.1386 55.8309 92.71C55.8309 94.4243 55.5832 95.7957 55.088 96.8243C54.5928 97.8338 53.9071 98.5672 53.0309 99.0243C52.1547 99.4814 51.1451 99.71 50.0023 99.71C49.0118 99.71 48.1928 99.5672 47.5451 99.2814C46.9166 98.9957 46.4213 98.5576 46.0594 97.9672C46.1928 98.3481 46.288 98.7195 46.3451 99.0814C46.4213 99.4434 46.469 99.8624 46.488 100.339C46.5261 100.815 46.5451 101.424 46.5451 102.167V103.824C46.5451 105.31 45.9071 106.053 44.6309 106.053ZM49.2594 96.3672C50.0594 96.3672 50.6785 96.091 51.1166 95.5386C51.5737 94.9672 51.8023 93.9005 51.8023 92.3386C51.8023 90.7767 51.5737 89.7195 51.1166 89.1672C50.6785 88.5957 50.0594 88.31 49.2594 88.31C48.4594 88.31 47.8309 88.5957 47.3737 89.1672C46.9356 89.7195 46.7166 90.7767 46.7166 92.3386C46.7166 93.9005 46.9356 94.9672 47.3737 95.5386C47.8309 96.091 48.4594 96.3672 49.2594 96.3672ZM65.2458 99.71C63.3411 99.71 61.8458 99.3957 60.7601 98.7672C59.6934 98.1386 58.9315 97.2719 58.4744 96.1672C58.0363 95.0624 57.8172 93.7957 57.8172 92.3672C57.8172 89.7386 58.3982 87.8529 59.5601 86.71C60.722 85.5481 62.2839 84.9672 64.2458 84.9672C65.4268 84.9672 66.4744 85.1672 67.3887 85.5672C68.303 85.9672 69.0172 86.5386 69.5315 87.2814C70.0458 88.0053 70.303 88.891 70.303 89.9386C70.303 92.9862 68.1315 94.51 63.7887 94.51H62.1315C62.2839 95.1005 62.5315 95.5672 62.8744 95.91C63.2363 96.2338 63.8649 96.3957 64.7601 96.3957C65.2553 96.3957 65.6553 96.3672 65.9601 96.31C66.2649 96.2529 66.5506 96.1957 66.8172 96.1386C67.103 96.0814 67.4268 96.0529 67.7887 96.0529C68.303 96.0529 68.7125 96.1481 69.0172 96.3386C69.322 96.51 69.4744 96.8719 69.4744 97.4243C69.4744 98.2053 69.1315 98.7862 68.4458 99.1672C67.7792 99.5291 66.7125 99.71 65.2458 99.71ZM61.9315 92.3957C62.0839 92.1862 62.2553 92.0529 62.4458 91.9957C62.6363 91.9195 62.9315 91.8814 63.3315 91.8814C64.4553 91.8814 65.2268 91.7767 65.6458 91.5672C66.0839 91.3386 66.303 90.9386 66.303 90.3672C66.303 89.6433 66.103 89.091 65.703 88.71C65.303 88.31 64.7982 88.11 64.1887 88.11C63.4839 88.11 62.9315 88.4053 62.5315 88.9957C62.1315 89.5862 61.9315 90.7195 61.9315 92.3957ZM74.9588 99.71C73.5873 99.71 72.9016 99.0624 72.9016 97.7672V86.9386C72.9016 85.6243 73.5873 84.9672 74.9588 84.9672C75.6445 84.9672 76.1397 85.1195 76.4445 85.4243C76.7492 85.71 76.9016 86.1862 76.9016 86.8529C77.2445 86.2243 77.7302 85.7576 78.3588 85.4529C79.0064 85.1291 79.7588 84.9672 80.6159 84.9672C82.254 84.9672 83.0731 85.6814 83.0731 87.11C83.0731 87.6433 82.8731 88.0433 82.4731 88.31C82.0731 88.5767 81.4159 88.71 80.5016 88.71C79.6064 88.71 78.9016 88.7957 78.3873 88.9672C77.8731 89.1195 77.5111 89.4148 77.3016 89.8529C77.1111 90.2719 77.0159 90.8814 77.0159 91.6814V97.7672C77.0159 99.0624 76.3302 99.71 74.9588 99.71ZM95.3235 97.7957C95.3235 99.0719 94.6568 99.71 93.3235 99.71C92.6759 99.71 92.1616 99.5481 91.7806 99.2243C91.3997 98.9005 91.2092 98.4243 91.2092 97.7957V85.9957C91.2092 83.7481 91.6854 82.0529 92.6378 80.91C93.6092 79.7481 95.0378 79.1672 96.9235 79.1672C98.314 79.1672 99.4664 79.4529 100.381 80.0243C101.295 80.5957 101.904 81.4148 102.209 82.4814C102.514 81.4148 103.123 80.5957 104.038 80.0243C104.952 79.4529 106.123 79.1672 107.552 79.1672C109.495 79.1672 110.933 79.7291 111.866 80.8529C112.8 81.9576 113.266 83.6719 113.266 85.9957V97.51C113.266 98.291 113.114 98.8529 112.809 99.1957C112.504 99.5386 111.99 99.71 111.266 99.71C110.543 99.71 110.009 99.5386 109.666 99.1957C109.323 98.8338 109.152 98.2719 109.152 97.51V85.7672C109.152 83.8814 108.343 82.9386 106.723 82.9386C105.904 82.9386 105.295 83.2148 104.895 83.7672C104.495 84.3005 104.295 85.1576 104.295 86.3386V97.2243C104.295 98.0053 104.143 98.5672 103.838 98.91C103.533 99.2529 103.019 99.4243 102.295 99.4243C101.571 99.4243 101.038 99.2529 100.695 98.91C100.352 98.5481 100.181 97.9862 100.181 97.2243V86.3386C100.181 84.0719 99.3711 82.9386 97.7521 82.9386C96.133 82.9386 95.3235 83.8814 95.3235 85.7672V97.7957ZM121.933 99.71C120.029 99.71 118.543 99.2719 117.476 98.3957C116.41 97.5005 115.876 96.3481 115.876 94.9386C115.876 93.2814 116.571 92.0814 117.962 91.3386C119.371 90.5957 121.429 90.3386 124.133 90.5672C124 89.691 123.724 89.1005 123.305 88.7957C122.886 88.4719 122.381 88.31 121.79 88.31C121.314 88.31 120.914 88.3386 120.59 88.3957C120.286 88.4338 120 88.4814 119.733 88.5386C119.467 88.5957 119.143 88.6243 118.762 88.6243C118.248 88.6243 117.838 88.5386 117.533 88.3672C117.229 88.1767 117.076 87.8053 117.076 87.2529C117.076 86.4719 117.41 85.9005 118.076 85.5386C118.762 85.1576 119.838 84.9672 121.305 84.9672C123.629 84.9672 125.352 85.6338 126.476 86.9672C127.6 88.2814 128.162 90.0433 128.162 92.2529C128.162 94.8053 127.695 96.691 126.762 97.91C125.848 99.11 124.238 99.71 121.933 99.71ZM119.99 94.9386C119.99 96.0243 120.724 96.5672 122.19 96.5672C122.667 96.5672 123.038 96.4814 123.305 96.31C123.571 96.1386 123.762 95.7957 123.876 95.2814C124.01 94.7672 124.105 93.9957 124.162 92.9672C124.067 93.0624 123.943 93.1291 123.79 93.1672C123.638 93.2053 123.486 93.2243 123.333 93.2243C122.076 93.2243 121.2 93.3481 120.705 93.5957C120.229 93.8243 119.99 94.2719 119.99 94.9386ZM149.039 82.51C148.335 82.51 147.744 82.2814 147.268 81.8243C146.792 81.3672 146.554 80.8053 146.554 80.1386C146.554 79.4338 146.792 78.8529 147.268 78.3957C147.744 77.9386 148.335 77.71 149.039 77.71C149.763 77.71 150.354 77.9386 150.811 78.3957C151.287 78.8529 151.525 79.4338 151.525 80.1386C151.525 80.8053 151.287 81.3672 150.811 81.8243C150.354 82.2814 149.763 82.51 149.039 82.51ZM151.096 97.7957C151.096 99.0719 150.43 99.71 149.096 99.71C148.449 99.71 147.935 99.5576 147.554 99.2529C147.173 98.9291 146.982 98.4433 146.982 97.7957V86.91C146.982 86.3005 147.135 85.8243 147.439 85.4814C147.763 85.1386 148.296 84.9672 149.039 84.9672C149.782 84.9672 150.306 85.1386 150.611 85.4814C150.935 85.8243 151.096 86.3005 151.096 86.91V97.7957ZM160.683 99.71C158.359 99.71 156.635 99.0434 155.512 97.71C154.388 96.3576 153.826 94.5767 153.826 92.3672C153.826 90.1576 154.388 88.3767 155.512 87.0243C156.635 85.6529 158.359 84.9672 160.683 84.9672C162.15 84.9672 163.216 85.1195 163.883 85.4243C164.569 85.7291 164.912 86.2719 164.912 87.0529C164.912 87.6053 164.759 88.0053 164.455 88.2529C164.15 88.5005 163.74 88.6243 163.226 88.6243C162.864 88.6243 162.578 88.5957 162.369 88.5386C162.159 88.4814 161.931 88.4338 161.683 88.3957C161.455 88.3386 161.093 88.31 160.597 88.31C159.931 88.31 159.397 88.51 158.997 88.91C158.616 89.31 158.34 89.8243 158.169 90.4529C158.016 91.0624 157.94 91.7005 157.94 92.3672C157.94 93.0148 157.997 93.6529 158.112 94.2814C158.245 94.891 158.502 95.3957 158.883 95.7957C159.264 96.1767 159.845 96.3672 160.626 96.3672C161.35 96.3672 161.883 96.3195 162.226 96.2243C162.569 96.11 162.902 96.0529 163.226 96.0529C163.74 96.0529 164.15 96.1481 164.455 96.3386C164.759 96.51 164.912 96.8719 164.912 97.4243C164.912 98.2053 164.569 98.7862 163.883 99.1672C163.216 99.5291 162.15 99.71 160.683 99.71Z" fill="#E6E7EA"/>
<path d="M131.132 101.224C131.132 102.843 131.894 104.053 133.418 104.853C134.941 105.653 137.122 106.053 139.96 106.053C141.427 106.053 142.503 105.862 143.189 105.481C143.856 105.12 144.189 104.548 144.189 103.767C144.189 103.215 144.037 102.843 143.732 102.653C143.427 102.481 143.018 102.396 142.503 102.396C142.122 102.396 141.798 102.415 141.532 102.453C141.265 102.51 140.979 102.558 140.675 102.596C140.351 102.653 139.951 102.681 139.475 102.681C137.97 102.681 136.894 102.567 136.246 102.339C135.579 102.11 135.246 101.643 135.246 100.939C135.246 100.348 135.484 99.8719 135.96 99.51C136.437 99.1481 137.037 98.9672 137.76 98.9672C142.141 98.9672 144.332 96.6338 144.332 91.9672C144.332 89.5862 143.779 87.8243 142.675 86.6814C141.57 85.5386 139.922 84.9672 137.732 84.9672C136.284 84.9672 135.084 85.2148 134.132 85.71C133.675 83.9957 132.703 83.1386 131.218 83.1386C130.494 83.1386 129.941 83.3291 129.56 83.71C129.16 84.0719 128.96 84.6053 128.96 85.31C128.96 85.9576 129.151 86.4243 129.532 86.71C129.913 86.9957 130.522 87.1386 131.36 87.1386C131.722 87.1386 132.056 87.1672 132.36 87.2243C131.541 88.3672 131.132 89.9576 131.132 91.9957C131.132 93.2719 131.322 94.3291 131.703 95.1672C132.065 96.0053 132.741 96.7005 133.732 97.2529C132.779 97.5957 132.113 98.1291 131.732 98.8529C131.332 99.5576 131.132 100.348 131.132 101.224ZM140.218 91.9672C140.218 94.3481 139.389 95.5386 137.732 95.5386C136.075 95.5386 135.246 94.3481 135.246 91.9672C135.246 90.7291 135.456 89.8243 135.875 89.2529C136.275 88.6814 136.894 88.3957 137.732 88.3957C138.551 88.3957 139.17 88.6814 139.589 89.2529C140.008 89.8243 140.218 90.7291 140.218 91.9672Z" fill="#E6E7EA"/>
<path d="M168.577 81.6204C168.578 82.2041 169.351 82.4111 169.643 81.9059L171.335 78.9844C171.437 78.8082 171.625 78.6996 171.828 78.6994L175.204 78.6953C175.788 78.6946 175.995 77.9221 175.49 77.6296L172.568 75.9382C172.392 75.8362 172.283 75.6481 172.283 75.4445L172.279 72.0686C172.278 71.4849 171.506 71.2779 171.213 71.7831L169.522 74.7046C169.42 74.8808 169.232 74.9894 169.028 74.9896L165.652 74.9937C165.069 74.9944 164.862 75.7669 165.367 76.0594L168.288 77.7509C168.464 77.8529 168.573 78.041 168.573 78.2446L168.577 81.6204Z" fill="#E6E7EA"/>
</svg>
