<svg width="100" height="101" viewBox="0 0 100 101" fill="none" xmlns="http://www.w3.org/2000/svg">
<rect width="100" height="100" transform="translate(0 0.644531)" fill="#F5F5F5"/>
<g clip-path="url(#clip0_1523_1075)">
<path fill-rule="evenodd" clip-rule="evenodd" d="M26.9314 32.1412C26.3485 33.2823 25.8076 34.9424 25.4444 37.0812C24.9538 39.9702 24.8483 43.3763 25.2113 46.7587C25.5754 50.1511 26.3953 53.3785 27.6552 55.9705C27.9377 56.5518 28.2365 57.0896 28.55 57.5838C28.551 57.283 28.5534 56.9801 28.5559 56.677C28.5567 56.579 28.5575 56.4809 28.5583 56.3829C28.5615 55.9522 28.5644 55.57 28.5644 55.234C28.5644 53.763 28.7233 51.2491 30.3367 49.0879C32.0872 46.7429 34.9745 45.5275 38.8748 45.5275H43.5939C41.5288 42.9323 38.218 39.2985 34.6954 36.4277C32.8451 34.9198 31.0329 33.7021 29.3907 32.9389C28.4054 32.481 27.59 32.237 26.9314 32.1412ZM59.3251 45.5275H64.0442C67.9445 45.5275 70.8317 46.7429 72.5823 49.0879C74.1957 51.2491 74.3545 53.763 74.3545 55.234C74.3545 55.57 74.3574 55.9522 74.3607 56.3829C74.3615 56.4809 74.3623 56.5789 74.3631 56.6769C74.3656 56.9801 74.368 57.2829 74.3689 57.5838C74.6825 57.0896 74.9812 56.5518 75.2638 55.9705C76.5237 53.3785 77.3436 50.1511 77.7077 46.7587C78.0707 43.3763 77.9652 39.9702 77.4746 37.0812C77.1114 34.9424 76.5705 33.2823 75.9876 32.1412C75.329 32.237 74.5136 32.481 73.5283 32.9389C71.8861 33.7021 70.0739 34.9198 68.2236 36.4277C64.701 39.2985 61.3901 42.9323 59.3251 45.5275ZM69.4353 67.2021C69.0601 67.3429 68.6761 67.4654 68.2932 67.5721C66.7937 67.9901 65.0501 68.2377 63.3361 68.2997C61.6299 68.3614 59.8018 68.2449 58.1591 67.8432C56.634 67.4702 54.6817 66.71 53.4692 65.021C52.8904 64.2148 52.3563 63.8649 52.0384 63.7147C51.899 63.6488 51.7932 63.6175 51.7312 63.6033L51.4595 63.6406L51.1878 63.6033C51.1258 63.6175 51.02 63.6488 50.8806 63.7147C50.5627 63.8649 50.0285 64.2148 49.4498 65.021C48.2373 66.71 46.285 67.4702 44.7599 67.8432C43.1172 68.2449 41.2891 68.3614 39.5829 68.2997C37.8689 68.2377 36.1253 67.9901 34.6258 67.5721C34.2429 67.4654 33.8589 67.3429 33.4837 67.2021C33.1468 68.5861 32.8422 69.6304 32.5714 70.4095L32.5708 70.4111C35.4459 73.7358 41.9777 78.7009 51.3746 78.4484L51.4595 78.4461L51.5444 78.4484C60.9412 78.7009 67.4731 73.7358 70.3482 70.4111L70.3476 70.4095C70.0768 69.6304 69.7722 68.5861 69.4353 67.2021ZM27.383 65.5421C25.0156 63.8047 23.2513 61.3679 21.9718 58.7356C20.312 55.3209 19.3471 51.3428 18.9276 47.4337C18.507 43.5148 18.6192 39.5235 19.2138 36.0222C19.7923 32.6157 20.8924 29.2844 22.7491 27.022L23.4832 26.1276L24.6209 25.9187C27.2072 25.4439 29.8054 26.1601 32.0533 27.2048C34.3433 28.2691 36.6093 29.8326 38.6868 31.5257C42.033 34.2527 45.1404 37.5229 47.3955 40.1963C47.8028 40.099 48.1874 40.0291 48.5265 39.977C49.6448 39.8049 50.7232 39.7618 51.4595 39.7781C52.1958 39.7618 53.2742 39.8049 54.3925 39.977C54.7315 40.0291 55.1162 40.099 55.5235 40.1963C57.7786 37.5229 60.886 34.2527 64.2322 31.5257C66.3097 29.8326 68.5757 28.2691 70.8657 27.2048C73.1136 26.1601 75.7118 25.4439 78.298 25.9187L79.4358 26.1276L80.1699 27.022C82.0266 29.2844 83.1267 32.6157 83.7052 36.0222C84.2997 39.5235 84.412 43.5148 83.9914 47.4337C83.5719 51.3428 82.607 55.3209 80.9472 58.7356C79.6677 61.3679 77.9034 63.8047 75.536 65.5421C75.781 66.5618 75.9931 67.3242 76.1681 67.8816L79.3992 68.3561L76.69 72.4966C73.7984 76.9155 64.9454 85.0981 51.4595 84.7709C37.9736 85.0981 29.1205 76.9155 26.229 72.4966L23.5198 68.3561L26.7508 67.8816C26.9259 67.3242 27.1379 66.5618 27.383 65.5421ZM35.4002 52.8713C35.0591 53.3281 34.8843 54.0869 34.8843 55.234C34.8843 55.5966 34.8812 56.0017 34.878 56.4228L34.8779 56.4312C34.8646 58.1714 34.8572 59.2234 34.9625 60.0483C35.034 60.6082 35.1405 60.8946 35.2557 61.0843C35.2709 61.0926 35.2881 61.1017 35.3076 61.1116C35.5136 61.2166 35.8483 61.3495 36.3219 61.4815C37.2684 61.7453 38.5101 61.9341 39.8113 61.9812C41.1201 62.0286 42.3369 61.9269 43.2594 61.7014C44.0955 61.4969 44.3456 61.2784 44.3513 61.2846C46.5267 58.2844 49.3729 57.175 51.4595 57.2781C53.5461 57.175 56.3922 58.2845 58.5677 61.2847C58.5733 61.2786 58.8235 61.4969 59.6596 61.7014C60.5821 61.9269 61.7989 62.0286 63.1077 61.9812C64.4089 61.9341 65.6506 61.7453 66.5971 61.4815C67.0707 61.3495 67.4054 61.2166 67.6114 61.1116C67.6308 61.1017 67.6481 61.0926 67.6633 61.0843C67.7785 60.8946 67.885 60.6082 67.9565 60.0483C68.0618 59.2234 68.0544 58.1714 68.0411 56.4312L68.041 56.4221C68.0378 56.0012 68.0347 55.5964 68.0347 55.234C68.0347 54.0869 67.8599 53.3281 67.5188 52.8713C67.315 52.5982 66.627 51.8501 64.0442 51.8501H38.8748C36.292 51.8501 35.604 52.5982 35.4002 52.8713Z" fill="#E9E9E9"/>
<path d="M13.4036 29.3616C13.7296 29.9246 14.5906 29.6939 14.5914 29.0433L14.596 25.2805C14.5962 25.0536 14.7173 24.8439 14.9137 24.7302L18.17 22.8449C18.7331 22.5189 18.5024 21.6579 17.8518 21.6571L14.089 21.6525C13.8621 21.6523 13.6524 21.5312 13.5387 21.3348L11.6534 18.0785C11.3274 17.5154 10.4664 17.7461 10.4656 18.3967L10.461 22.1595C10.4607 22.3864 10.3397 22.5961 10.1433 22.7098L6.88693 24.5951C6.32385 24.9211 6.55456 25.7821 7.2052 25.7829L10.968 25.7875C11.1949 25.7878 11.4045 25.9088 11.5183 26.1052L13.4036 29.3616Z" fill="#E9E9E9"/>
<path d="M88.6057 71.1174C88.6062 71.5512 89.1802 71.705 89.3975 71.3296L90.6544 69.1587C90.7302 69.0278 90.87 68.9471 91.0213 68.9469L93.5298 68.9439C93.9635 68.9433 94.1174 68.3693 93.742 68.152L91.5711 66.8951C91.4401 66.8193 91.3594 66.6795 91.3592 66.5282L91.3562 64.0197C91.3557 63.586 90.7817 63.4322 90.5643 63.8075L89.3074 65.9785C89.2316 66.1094 89.0919 66.1901 88.9406 66.1903L86.4321 66.1933C85.9983 66.1938 85.8445 66.7678 86.2199 66.9852L88.3908 68.2421C88.5217 68.3179 88.6024 68.4576 88.6026 68.6089L88.6057 71.1174Z" fill="#E9E9E9"/>
</g>
<defs>
<clipPath id="clip0_1523_1075">
<rect x="5" y="5.64453" width="90" height="90" rx="4.74074" fill="white"/>
</clipPath>
</defs>
</svg>
