<svg width="24" height="24" viewBox="0 0 24 24" fill="none" xmlns="http://www.w3.org/2000/svg">
<rect width="24" height="24" rx="12" fill="url(#paint0_linear_28301_285655)"/>
<path d="M10.9349 14.38L14.6889 12.2064C14.8606 12.105 14.8606 11.8617 14.6889 11.763L10.9349 9.58935C10.7633 9.48798 10.5512 9.61462 10.5512 9.8122V14.1595C10.5562 14.3546 10.7683 14.4762 10.9349 14.3801V14.38ZM12.0533 6.09326C10.3719 6.09326 8.85218 6.81022 7.78677 7.95275C7.71101 8.0312 7.63529 8.11489 7.5646 8.20354L6.40332 7.03825V10.2303H9.58424L8.39773 9.03955C9.25354 7.96296 10.5764 7.25781 12.0583 7.25781C14.646 7.25781 16.7414 9.37403 16.7414 11.9706C16.7414 14.5674 14.6459 16.6626 12.0583 16.6626C10.0008 16.6626 8.25635 15.335 7.62517 13.4831H6.4058C7.07485 15.9887 9.34947 17.8406 12.0583 17.8406C15.2973 17.8406 17.9203 15.2109 17.9203 11.9681C17.9203 8.72538 15.2923 6.09326 12.0532 6.09326H12.0533Z" fill="white"/>
<defs>
<linearGradient id="paint0_linear_28301_285655" x1="0" y1="12" x2="24" y2="12" gradientUnits="userSpaceOnUse">
<stop stop-color="#FFAFC8"/>
<stop offset="0.5" stop-color="#E08AFF"/>
<stop offset="1" stop-color="#9FC3FF"/>
</linearGradient>
</defs>
</svg>
