<svg width="100" height="100" viewBox="0 0 100 100" fill="none" xmlns="http://www.w3.org/2000/svg">
<g clip-path="url(#clip0_15694_398276)">
<path d="M0 50C0 22.3858 22.3858 0 50 0C77.6142 0 100 22.3858 100 50C100 77.6142 77.6142 100 50 100C22.3858 100 0 77.6142 0 50Z" fill="white"/>
<path d="M70.4327 94.7692C66.3104 92.7514 61.6962 82.6636 61.6962 82.6636L76.258 60.4803C80.3118 62.5216 93.5143 66.2185 93.5159 76.5813C93.5168 82.7125 75.4712 97.2353 70.4327 94.7692Z" fill="url(#paint0_linear_15694_398276)"/>
<g opacity="0.4" filter="url(#filter0_f_15694_398276)">
<path d="M84.4223 63.0474C83.8305 66.9006 83.1484 68.8407 80.2793 71.2094C77.4111 73.5773 71.434 77.306 69.6258 77.9803L69.0339 76.3069C70.7338 75.673 73.5256 74.2162 76.3052 71.9214C79.0838 69.6274 81.8223 66.5188 83.4604 62.5919L84.4223 63.0474Z" fill="black"/>
</g>
<path d="M43.3789 57.1894C46.9298 56.5377 52.0919 61.0421 54.2292 63.3758C54.3321 67.1149 53.4177 75.5907 48.936 79.5813C29.5654 83.6303 14.9068 53.2728 19.6646 48.5742C24.4224 43.8756 27.4865 47.3068 28.4154 48.6395C29.3443 49.9722 29.7307 53.85 31.7027 53.4095C33.6748 52.969 36.0812 53.7949 37.0101 55.1276C37.939 56.4603 38.9403 58.0041 43.3789 57.1894Z" fill="url(#paint1_linear_15694_398276)"/>
<g opacity="0.5" filter="url(#filter1_f_15694_398276)" style="mix-blend-mode:hard-light">
<path d="M30.2697 56.5468C29.6899 56.2735 28.7543 56.8516 28.1453 56.1928C27.6289 55.5498 27.9616 55.1674 27.4353 54.6269C26.917 54.0608 26.9182 53.2761 26.6101 53.0801C26.3003 52.8747 26.8424 52.6084 26.5621 52.2626C26.2833 51.9101 26.2724 51.6314 26.349 51.2208C26.4165 50.8074 26.3049 49.7012 26.0011 49.337C25.6857 48.972 26.0337 48.4221 26.1354 48.1331C26.1667 48.0372 26.2139 47.9677 26.2719 47.9098C26.296 47.8887 26.3367 47.8927 26.3731 47.9051C26.3732 47.9051 26.3732 47.9051 26.3732 47.9051C26.4185 47.9216 26.461 47.9416 26.4631 47.9623C26.4715 48.0739 26.5574 48.273 26.7543 48.4763C27.1277 48.8492 26.7782 48.9489 27.0594 49.4898C27.3506 50.0287 27.7552 50.2597 27.753 50.9647C27.7707 51.6832 28.6484 51.4975 28.5609 52.5233C28.5217 53.5675 29.428 53.2385 29.9476 53.646C30.3132 53.9086 30.4044 54.1644 30.604 54.3021C30.9927 54.3706 31.317 54.4516 31.5579 54.4671C32.2616 54.5064 33.2374 54.6446 34.0714 55.1618C34.892 55.6596 36.055 56.0282 36.7182 56.8495C37.3866 57.6547 38.1576 58.8441 38.4245 59.4415C38.6983 60.0403 38.7554 60.1773 39.2186 60.5814C39.4821 60.8127 39.7197 61.2421 39.7415 61.7095C39.7502 61.9419 39.5837 61.999 39.4055 61.8815C39.1455 61.7118 39.0697 61.4721 38.8111 61.4802C38.2916 61.495 38.0964 61.507 38.0623 61.0659C38.0256 60.6245 37.4791 60.8528 37.3936 60.6543C37.3029 60.4594 37.5644 60.2159 36.6292 59.6241C35.6918 59.054 35.208 58.7722 34.8641 58.5853C34.5277 58.4028 34.0173 57.7084 33.415 57.5273C32.835 57.3199 31.7168 56.8752 31.2394 57.0159C30.8649 57.1117 30.8207 56.9004 30.604 56.6993C30.5056 56.6521 30.3968 56.6017 30.2697 56.5468Z" fill="white"/>
</g>
<path d="M56.1736 20.4944C37.6225 15.087 18.9547 30.3728 19.045 34.4682C19.0684 35.529 20.5148 38.2656 23.117 38.2811C25.7192 38.2967 27.8159 39.6487 28.7605 41.6826C29.7051 43.7165 34.4118 43.7829 35.3288 44.018C36.2459 44.2531 36.9553 47.2041 37.7157 48.0505C38.476 48.897 43.3394 48.352 46.0595 54.2617C52.4716 69.9139 44.5944 68.8718 46.3232 80.5542C52.4608 90.9235 77.8205 77.1795 82.8676 65.1166C87.9147 53.0538 79.3625 27.2536 56.1736 20.4944Z" fill="url(#paint2_linear_15694_398276)"/>
<g filter="url(#filter2_f_15694_398276)" style="mix-blend-mode:hard-light">
<path d="M40.3557 41.6077C40.1875 42.2866 43.8154 47.252 46.2621 49.0111C49.3205 51.2099 56.2908 57.9807 51.8995 66.9815" stroke="white" stroke-width="1.5625"/>
</g>
<g filter="url(#filter3_f_15694_398276)">
<path d="M59.4709 23.8548C60.0261 25.5137 51.7766 24.528 44.1561 25.0636C39.1007 25.4189 22.2545 35.3063 21.6994 33.6474C21.1442 31.9885 32.631 24.611 36.6124 23.2786C47.433 19.0791 58.9157 22.1959 59.4709 23.8548Z" fill="white"/>
</g>
</g>
<path d="M50 0.5C77.3381 0.5 99.5 22.6619 99.5 50C99.5 77.3381 77.3381 99.5 50 99.5C22.6619 99.5 0.5 77.3381 0.5 50C0.5 22.6619 22.6619 0.5 50 0.5Z" stroke="#E5E5E5"/>
<defs>
<filter id="filter0_f_15694_398276" x="62.7839" y="56.3419" width="27.8884" height="27.8884" filterUnits="userSpaceOnUse" color-interpolation-filters="sRGB">
<feFlood flood-opacity="0" result="BackgroundImageFix"/>
<feBlend mode="normal" in="SourceGraphic" in2="BackgroundImageFix" result="shape"/>
<feGaussianBlur stdDeviation="3.125" result="effect1_foregroundBlur_15694_398276"/>
</filter>
<filter id="filter1_f_15694_398276" x="19.6218" y="41.6449" width="26.3701" height="26.5459" filterUnits="userSpaceOnUse" color-interpolation-filters="sRGB">
<feFlood flood-opacity="0" result="BackgroundImageFix"/>
<feBlend mode="normal" in="SourceGraphic" in2="BackgroundImageFix" result="shape"/>
<feGaussianBlur stdDeviation="3.125" result="effect1_foregroundBlur_15694_398276"/>
</filter>
<filter id="filter2_f_15694_398276" x="33.3188" y="35.1698" width="27.0249" height="38.4042" filterUnits="userSpaceOnUse" color-interpolation-filters="sRGB">
<feFlood flood-opacity="0" result="BackgroundImageFix"/>
<feBlend mode="normal" in="SourceGraphic" in2="BackgroundImageFix" result="shape"/>
<feGaussianBlur stdDeviation="3.125" result="effect1_foregroundBlur_15694_398276"/>
</filter>
<filter id="filter3_f_15694_398276" x="12.3049" y="11.8025" width="56.5676" height="31.4074" filterUnits="userSpaceOnUse" color-interpolation-filters="sRGB">
<feFlood flood-opacity="0" result="BackgroundImageFix"/>
<feBlend mode="normal" in="SourceGraphic" in2="BackgroundImageFix" result="shape"/>
<feGaussianBlur stdDeviation="4.6875" result="effect1_foregroundBlur_15694_398276"/>
</filter>
<linearGradient id="paint0_linear_15694_398276" x1="70.4332" y1="80.7781" x2="89.8949" y2="94.9373" gradientUnits="userSpaceOnUse">
<stop stop-color="#EF4444"/>
<stop offset="1" stop-color="#DC2626"/>
</linearGradient>
<linearGradient id="paint1_linear_15694_398276" x1="34.075" y1="57.2639" x2="55.5425" y2="55.7274" gradientUnits="userSpaceOnUse">
<stop stop-color="#EF4444"/>
<stop offset="1" stop-color="#991B1B"/>
</linearGradient>
<linearGradient id="paint2_linear_15694_398276" x1="82.0633" y1="52.9162" x2="29.822" y2="15.2433" gradientUnits="userSpaceOnUse">
<stop stop-color="#EF4444"/>
<stop offset="1" stop-color="#FCA5A5"/>
</linearGradient>
<clipPath id="clip0_15694_398276">
<path d="M0 50C0 22.3858 22.3858 0 50 0C77.6142 0 100 22.3858 100 50C100 77.6142 77.6142 100 50 100C22.3858 100 0 77.6142 0 50Z" fill="white"/>
</clipPath>
</defs>
</svg>
