<svg width="16" height="16" viewBox="0 0 16 16" fill="none" xmlns="http://www.w3.org/2000/svg">
<g clip-path="url(#clip0_30105_60990)">
<path d="M2.4623 10.0487C2.3507 10.6039 2.68334 11.9323 4.78774 11.9323C6.08366 11.9323 7.33134 11.1446 8.34662 9.82273C6.90086 9.11849 5.69638 8.77441 4.35222 8.77441C3.1823 8.77441 2.57246 9.49577 2.4623 10.0487Z" fill="#1678FF"/>
<path d="M15.2001 10.6581H15.2008V2.7198C15.2008 1.6594 14.3412 0.799805 13.2808 0.799805H2.72078C1.66038 0.799805 0.800781 1.6594 0.800781 2.7198V13.2798C0.800781 14.3402 1.66038 15.1998 2.72078 15.1998H13.2808C14.3412 15.1998 15.2008 14.3402 15.2008 13.2798V12.9383L11.2404 11.1994C10.6268 10.9235 10.0455 10.6572 9.58294 10.4362C8.3215 11.9648 6.99966 12.8821 5.00822 12.8821C3.01678 12.8821 1.68702 11.6552 1.84686 10.1533C1.95198 9.16836 2.62806 7.55772 5.56334 7.83348C7.11126 7.97892 7.81894 8.26772 9.0811 8.68452C9.40726 8.08548 9.6787 7.42668 9.88462 6.72612H4.28902V6.17172H7.05798V5.17524H3.68062V4.5654H7.05726V3.129C7.05726 3.129 7.0875 2.90436 7.3359 2.90436H8.72038V4.5654H12.3202V5.17596H8.72038V6.171H11.6571C11.4038 7.21964 11.0021 8.22675 10.4642 9.16188C11.3173 9.47148 15.2001 10.6581 15.2001 10.6581Z" fill="#1678FF"/>
</g>
<defs>
<clipPath id="clip0_30105_60990">
<rect width="16" height="16" fill="white"/>
</clipPath>
</defs>
</svg>
