<svg width="100" height="100" viewBox="0 0 100 100" fill="none" xmlns="http://www.w3.org/2000/svg">
<path d="M12.069 89.6551C12.069 90.7872 13.0501 91.9082 14.9563 92.9541C16.8625 94 19.6565 94.9504 23.1787 95.7509C26.7009 96.5514 30.8824 97.1864 35.4844 97.6196C40.0864 98.0528 45.0188 98.2758 50 98.2758C54.9812 98.2758 59.9136 98.0528 64.5156 97.6196C69.1176 97.1864 73.2991 96.5514 76.8213 95.7509C80.3435 94.9504 83.1375 94 85.0437 92.9541C86.9499 91.9082 87.931 90.7872 87.931 89.6551C87.931 87.3688 83.9347 85.1761 76.8213 83.5594C69.7079 81.9427 60.0599 81.0344 50 81.0344C39.9401 81.0344 30.2922 81.9427 23.1787 83.5594C16.0653 85.1761 12.069 87.3688 12.069 89.6551Z" fill="#F7F7F8"/>
<path d="M22.4138 56.0344H77.5862V88.793C77.5862 89.7076 77.2229 90.5847 76.5763 91.2313C75.9296 91.878 75.0525 92.2413 74.138 92.2413H25.8621C24.9476 92.2413 24.0705 91.878 23.4238 91.2313C22.7771 90.5847 22.4138 89.7076 22.4138 88.793V56.0344Z" fill="#DCE0E6"/>
<path d="M47.4138 75.2811C46.1759 74.6939 45.1747 73.703 44.5747 72.4712C43.9748 71.2394 43.8119 69.8401 44.1129 68.5034C44.4138 67.1668 45.1607 65.9723 46.2306 65.1165C47.3006 64.2607 48.6299 63.7944 50 63.7944C51.3701 63.7944 52.6994 64.2607 53.7694 65.1165C54.8393 65.9723 55.5862 67.1668 55.8871 68.5034C56.1881 69.8401 56.0252 71.2394 55.4253 72.4712C54.8254 73.703 53.8241 74.6939 52.5862 75.2811V81.0346C52.5862 81.261 52.5416 81.4852 52.455 81.6944C52.3683 81.9035 52.2413 82.0936 52.0812 82.2537C51.9211 82.4138 51.7311 82.5408 51.5219 82.6275C51.3127 82.7141 51.0885 82.7587 50.8621 82.7587H49.1379C48.9115 82.7587 48.6873 82.7141 48.4781 82.6275C48.269 82.5408 48.0789 82.4138 47.9188 82.2537C47.7587 82.0936 47.6317 81.9035 47.545 81.6944C47.4584 81.4852 47.4138 81.261 47.4138 81.0346V75.2811Z" fill="white"/>
<path d="M27.5319 50.8621H72.4681C72.721 50.862 72.9708 50.9176 73.1997 51.0249C73.4287 51.1321 73.6313 51.2885 73.7931 51.4828L77.5862 56.0345H22.4138L26.2069 51.4828C26.3688 51.2885 26.5713 51.1321 26.8003 51.0249C27.0293 50.9176 27.2791 50.862 27.5319 50.8621Z" fill="#AEB8C2"/>
<path d="M62.069 52.5862V43.9655C62.069 37.3 56.6655 31.8966 50 31.8966C43.3345 31.8966 37.931 37.3 37.931 43.9655V52.5862C37.931 53.5388 36.3879 54.3103 34.4828 54.3103C32.5776 54.3103 31.0345 53.5388 31.0345 52.5862V43.9655C31.0345 33.4914 39.5259 25 50 25C60.4741 25 68.9655 33.4914 68.9655 43.9655V52.5862C68.9655 53.5388 67.4224 54.3103 65.5172 54.3103C63.6121 54.3103 62.069 53.5388 62.069 52.5862Z" fill="#DCE0E6"/>
<path d="M82.7586 24.138C82.3014 24.138 81.8628 23.9563 81.5395 23.633C81.2161 23.3096 81.0345 22.8711 81.0345 22.4138C81.0345 21.9566 81.2161 21.518 81.5395 21.1947C81.8628 20.8713 82.3014 20.6897 82.7586 20.6897C83.2159 20.6897 83.6544 20.8713 83.9778 21.1947C84.3011 21.518 84.4828 21.9566 84.4828 22.4138C84.4828 22.8711 84.3011 23.3096 83.9778 23.633C83.6544 23.9563 83.2159 24.138 82.7586 24.138ZM87.931 24.138C87.4738 24.138 87.0352 23.9563 86.7119 23.633C86.3885 23.3096 86.2069 22.8711 86.2069 22.4138C86.2069 21.9566 86.3885 21.518 86.7119 21.1947C87.0352 20.8713 87.4738 20.6897 87.931 20.6897C88.3883 20.6897 88.8268 20.8713 89.1502 21.1947C89.4735 21.518 89.6552 21.9566 89.6552 22.4138C89.6552 22.8711 89.4735 23.3096 89.1502 23.633C88.8268 23.9563 88.3883 24.138 87.931 24.138ZM93.1035 24.138C92.6462 24.138 92.2076 23.9563 91.8843 23.633C91.561 23.3096 91.3793 22.8711 91.3793 22.4138C91.3793 21.9566 91.561 21.518 91.8843 21.1947C92.2076 20.8713 92.6462 20.6897 93.1035 20.6897C93.5607 20.6897 93.9993 20.8713 94.3226 21.1947C94.6459 21.518 94.8276 21.9566 94.8276 22.4138C94.8276 22.8711 94.6459 23.3096 94.3226 23.633C93.9993 23.9563 93.5607 24.138 93.1035 24.138Z" fill="white"/>
</svg>
