<svg width="16" height="16" viewBox="0 0 16 16" fill="none" xmlns="http://www.w3.org/2000/svg">
<g clip-path="url(#clip0_30105_60995)">
<path d="M13.2808 0.799805H2.72078C1.66038 0.799805 0.800781 1.6594 0.800781 2.7198V13.2798C0.800781 14.3402 1.66038 15.1998 2.72078 15.1998H13.2808C14.3412 15.1998 15.2008 14.3402 15.2008 13.2798V2.7198C15.2008 1.6594 14.3412 0.799805 13.2808 0.799805ZM8.00078 11.7649C7.47086 11.7653 6.9435 11.6915 6.43406 11.5456C6.38832 11.5316 6.34077 11.5245 6.29294 11.5244C6.20078 11.5244 6.1171 11.5526 6.03806 11.5984L4.98718 12.2049C4.9579 12.2218 4.92958 12.2346 4.89478 12.2346C4.87376 12.2346 4.85295 12.2305 4.83353 12.2224C4.81411 12.2144 4.79646 12.2026 4.78159 12.1878C4.76673 12.1729 4.75493 12.1553 4.74689 12.1359C4.73884 12.1164 4.7347 12.0956 4.7347 12.0746C4.7347 12.0351 4.75054 11.9956 4.76062 11.9577L4.97694 11.1508C4.98614 11.1171 4.99374 11.0844 4.99374 11.049C4.99376 10.998 4.98158 10.9477 4.95822 10.9023C4.93485 10.8569 4.90098 10.8178 4.85942 10.7882C3.84742 10.0551 3.20078 8.97028 3.20078 7.76484C3.20078 5.55572 5.34974 3.76484 8.00078 3.76484C9.62078 3.76484 11.0525 4.43444 11.9216 5.45876L7.07222 7.61716C7.0023 7.64294 6.9273 7.65196 6.85326 7.64348C6.77921 7.63501 6.70819 7.60928 6.6459 7.56836L5.61478 6.83428C5.59099 6.81651 5.56272 6.80571 5.53313 6.80309C5.50355 6.80047 5.47382 6.80614 5.44727 6.81945C5.42072 6.83277 5.39841 6.85322 5.38282 6.8785C5.36724 6.90378 5.35899 6.9329 5.35902 6.9626C5.35902 6.98548 5.36486 7.009 5.3743 7.02996L6.24814 8.94732L6.2691 8.9934C6.30933 9.06537 6.37583 9.119 6.45468 9.14308C6.53354 9.16716 6.61865 9.15982 6.69222 9.1226L6.72726 9.10228L12.254 5.9114C12.6025 6.46564 12.8008 7.09588 12.8008 7.76484C12.8008 9.97404 10.6517 11.7649 8.00078 11.7649Z" fill="#24B340"/>
</g>
<defs>
<clipPath id="clip0_30105_60995">
<rect width="16" height="16" fill="white"/>
</clipPath>
</defs>
</svg>
