<svg width="16" height="16" viewBox="0 0 16 16" fill="none" xmlns="http://www.w3.org/2000/svg">
<g clip-path="url(#clip0_3602_8268)">
<path fill-rule="evenodd" clip-rule="evenodd" d="M10.509 0L15.3337 4.82467V14.6667C15.3337 15.0203 15.1932 15.3594 14.9431 15.6095C14.6931 15.8595 14.3539 16 14.0003 16H2.00033C1.6467 16 1.30757 15.8595 1.05752 15.6095C0.807468 15.3594 0.666992 15.0203 0.666992 14.6667V1.33333C0.666992 0.979711 0.807468 0.640573 1.05752 0.390524C1.30757 0.140476 1.6467 0 2.00033 0L10.509 0Z" fill="#FFA200"/>
<path fill-rule="evenodd" clip-rule="evenodd" d="M11.8421 4.82467C11.4885 4.82467 11.1494 4.68419 10.8993 4.43414C10.6493 4.18409 10.5088 3.84496 10.5088 3.49133V0L15.3335 4.82467H11.8421Z" fill="white" fill-opacity="0.401"/>
<path fill-rule="evenodd" clip-rule="evenodd" d="M4.34476 12.3692H11.6554C11.7527 12.3692 11.8484 12.3446 11.9337 12.2978C12.019 12.251 12.091 12.1834 12.1432 12.1013C12.1954 12.0192 12.226 11.9252 12.2322 11.8281C12.2384 11.731 12.2201 11.6339 12.1788 11.5459L12.1421 11.4692L12.0701 11.3185L11.9981 11.1719L11.9268 11.0299L11.8554 10.8919L11.7848 10.7579C11.773 10.7358 11.7613 10.7138 11.7494 10.6919L11.6794 10.5639C11.6677 10.5429 11.6559 10.5221 11.6441 10.5012L11.5748 10.3792L11.5054 10.2612C10.8488 9.16053 10.2421 8.60986 9.68543 8.60986C8.84609 8.60986 8.05943 9.3592 7.32543 10.8579C6.92809 10.3199 6.35143 10.0512 5.59343 10.0512C4.99476 10.0512 4.41276 10.5339 3.84676 11.4992C3.79539 11.587 3.76808 11.6867 3.76758 11.7884C3.76709 11.8901 3.79343 11.9901 3.84395 12.0783C3.89446 12.1666 3.96736 12.2399 4.0553 12.291C4.14323 12.3421 4.24308 12.3691 4.34476 12.3692Z" fill="white"/>
<path d="M5.01972 8.02137C5.47664 8.02137 5.84705 7.65096 5.84705 7.19403C5.84705 6.73711 5.47664 6.3667 5.01972 6.3667C4.56279 6.3667 4.19238 6.73711 4.19238 7.19403C4.19238 7.65096 4.56279 8.02137 5.01972 8.02137Z" fill="white"/>
</g>
<defs>
<clipPath id="clip0_3602_8268">
<rect width="16" height="16" fill="white"/>
</clipPath>
</defs>
</svg>
