<svg width="36" height="36" viewBox="0 0 36 36" fill="none" xmlns="http://www.w3.org/2000/svg">
<path d="M0 0H4.5V4.5H0V0Z" fill="#F5F5F5"/>
<path d="M4.5 0H9V4.5H4.5V0Z" fill="white"/>
<path d="M9 0H13.5V4.5H9V0Z" fill="#F5F5F5"/>
<path d="M13.5 0H18V4.5H13.5V0Z" fill="white"/>
<path d="M18 0H22.5V4.5H18V0Z" fill="#F5F5F5"/>
<path d="M22.5 0H27V4.5H22.5V0Z" fill="white"/>
<path d="M27 0H31.5V4.5H27V0Z" fill="#F5F5F5"/>
<path d="M31.5 0H36V4.5H31.5V0Z" fill="white"/>
<path d="M0 4.5H4.5V9H0V4.5Z" fill="white"/>
<path d="M4.5 4.5H9V9H4.5V4.5Z" fill="#F5F5F5"/>
<path d="M9 4.5H13.5V9H9V4.5Z" fill="white"/>
<path d="M13.5 4.5H18V9H13.5V4.5Z" fill="#F5F5F5"/>
<path d="M18 4.5H22.5V9H18V4.5Z" fill="white"/>
<path d="M22.5 4.5H27V9H22.5V4.5Z" fill="#F5F5F5"/>
<path d="M27 4.5H31.5V9H27V4.5Z" fill="white"/>
<path d="M31.5 4.5H36V9H31.5V4.5Z" fill="#F5F5F5"/>
<path d="M0 9H4.5V13.5H0V9Z" fill="#F5F5F5"/>
<path d="M4.5 9H9V13.5H4.5V9Z" fill="white"/>
<path d="M9 9H13.5V13.5H9V9Z" fill="#F5F5F5"/>
<path d="M13.5 9H18V13.5H13.5V9Z" fill="white"/>
<path d="M18 9H22.5V13.5H18V9Z" fill="#F5F5F5"/>
<path d="M22.5 9H27V13.5H22.5V9Z" fill="white"/>
<path d="M27 9H31.5V13.5H27V9Z" fill="#F5F5F5"/>
<path d="M31.5 9H36V13.5H31.5V9Z" fill="white"/>
<path d="M0 13.5H4.5V18H0V13.5Z" fill="white"/>
<path d="M4.5 13.5H9V18H4.5V13.5Z" fill="#F5F5F5"/>
<path d="M9 13.5H13.5V18H9V13.5Z" fill="white"/>
<path d="M13.5 13.5H18V18H13.5V13.5Z" fill="#F5F5F5"/>
<path d="M18 13.5H22.5V18H18V13.5Z" fill="white"/>
<path d="M22.5 13.5H27V18H22.5V13.5Z" fill="#F5F5F5"/>
<path d="M27 13.5H31.5V18H27V13.5Z" fill="white"/>
<path d="M31.5 13.5H36V18H31.5V13.5Z" fill="#F5F5F5"/>
<path d="M0 18H4.5V22.5H0V18Z" fill="#F5F5F5"/>
<path d="M4.5 18H9V22.5H4.5V18Z" fill="white"/>
<path d="M9 18H13.5V22.5H9V18Z" fill="#F5F5F5"/>
<path d="M13.5 18H18V22.5H13.5V18Z" fill="white"/>
<path d="M18 18H22.5V22.5H18V18Z" fill="#F5F5F5"/>
<path d="M22.5 18H27V22.5H22.5V18Z" fill="white"/>
<path d="M27 18H31.5V22.5H27V18Z" fill="#F5F5F5"/>
<path d="M31.5 18H36V22.5H31.5V18Z" fill="white"/>
<path d="M0 22.5H4.5V27H0V22.5Z" fill="white"/>
<path d="M4.5 22.5H9V27H4.5V22.5Z" fill="#F5F5F5"/>
<path d="M9 22.5H13.5V27H9V22.5Z" fill="white"/>
<path d="M13.5 22.5H18V27H13.5V22.5Z" fill="#F5F5F5"/>
<path d="M18 22.5H22.5V27H18V22.5Z" fill="white"/>
<path d="M22.5 22.5H27V27H22.5V22.5Z" fill="#F5F5F5"/>
<path d="M27 22.5H31.5V27H27V22.5Z" fill="white"/>
<path d="M31.5 22.5H36V27H31.5V22.5Z" fill="#F5F5F5"/>
<path d="M0 27H4.5V31.5H0V27Z" fill="#F5F5F5"/>
<path d="M4.5 27H9V31.5H4.5V27Z" fill="white"/>
<path d="M9 27H13.5V31.5H9V27Z" fill="#F5F5F5"/>
<path d="M13.5 27H18V31.5H13.5V27Z" fill="white"/>
<path d="M18 27H22.5V31.5H18V27Z" fill="#F5F5F5"/>
<path d="M22.5 27H27V31.5H22.5V27Z" fill="white"/>
<path d="M27 27H31.5V31.5H27V27Z" fill="#F5F5F5"/>
<path d="M31.5 27H36V31.5H31.5V27Z" fill="white"/>
<path d="M0 31.5H4.5V36H0V31.5Z" fill="white"/>
<path d="M4.5 31.5H9V36H4.5V31.5Z" fill="#F5F5F5"/>
<path d="M9 31.5H13.5V36H9V31.5Z" fill="white"/>
<path d="M13.5 31.5H18V36H13.5V31.5Z" fill="#F5F5F5"/>
<path d="M18 31.5H22.5V36H18V31.5Z" fill="white"/>
<path d="M22.5 31.5H27V36H22.5V31.5Z" fill="#F5F5F5"/>
<path d="M27 31.5H31.5V36H27V31.5Z" fill="white"/>
<path d="M31.5 31.5H36V36H31.5V31.5Z" fill="#F5F5F5"/>
</svg>
