<svg width="24" height="24" viewBox="0 0 24 24" fill="none" xmlns="http://www.w3.org/2000/svg">
<g clip-path="url(#clip0_573_31784)">
<circle cx="12" cy="12" r="12" fill="#6366F1"/>
<path d="M13.8994 12.7623V12.7789C13.842 12.8073 13.7936 12.8515 13.7596 12.9065C13.7255 12.9615 13.7073 13.0252 13.7068 13.0902C13.7068 13.1477 13.7219 13.2042 13.7506 13.2537C13.7793 13.3032 13.8205 13.3439 13.8699 13.3716C15.6715 13.9859 16.9268 15.4876 17.2268 17.322C17.2298 17.3399 17.2305 17.3581 17.229 17.3762C17.2386 17.4233 17.2435 17.4712 17.2435 17.5193C17.2431 17.6686 17.1974 17.814 17.1125 17.9357C17.0277 18.0573 16.908 18.1491 16.7699 18.1985C16.7512 18.2203 16.722 18.2334 16.6788 18.2334H16.5731C16.569 18.2334 16.5648 18.2337 16.5606 18.2337C16.5564 18.2337 16.5522 18.2334 16.548 18.2334C15.0917 18.2332 12.0172 18.2337 12.0172 18.2337C12.0172 18.2337 9.00412 18.2637 7.53075 18.2558C7.42617 18.2553 7.35515 18.2333 7.30801 18.1992C7.21453 18.178 7.12646 18.137 7.04953 18.0788C6.9726 18.0206 6.90853 17.9466 6.86149 17.8615C6.81444 17.7764 6.78548 17.6822 6.77647 17.5849C6.76746 17.4877 6.77861 17.3896 6.80919 17.297C7.10788 15.4614 8.33649 13.9625 10.1672 13.359C10.2123 13.3291 10.2491 13.2878 10.2741 13.2392C10.2991 13.1906 10.3115 13.1362 10.31 13.0814C10.3085 13.0265 10.2933 12.9729 10.2657 12.9258C10.2382 12.8786 10.1992 12.8395 10.1526 12.8121V12.806C9.61864 12.4815 9.17655 12.021 8.86962 11.4697C8.56269 10.9184 8.40146 10.2952 8.40172 9.66119C8.40172 7.63917 10.0087 6 11.991 6C13.9732 6 15.5802 7.63917 15.5802 9.66119C15.5805 10.281 15.4264 10.8907 15.1324 11.4331C14.8384 11.9755 14.4141 12.4329 13.8994 12.7623Z" fill="white"/>
<path opacity="0.5" d="M19.4406 16.1942C19.409 16.2171 19.3613 16.2318 19.2911 16.2322C18.8734 16.2344 18.2716 16.2322 17.7153 16.2287C17.4365 14.934 16.4516 13.6964 15.0848 12.9213C15.7238 12.3002 16.1687 11.5002 16.3633 10.622C16.558 9.7437 16.4939 8.82635 16.1789 7.98518C16.2166 7.98339 16.2546 7.98238 16.2928 7.98238C17.6252 7.98238 18.7054 9.08569 18.7054 10.4467C18.7057 10.8733 18.5974 11.2926 18.3911 11.6637C18.1848 12.0347 17.8876 12.3448 17.5286 12.5635V12.5682C17.4971 12.5867 17.4709 12.6132 17.4524 12.645C17.4339 12.6769 17.4238 12.7131 17.423 12.7501C17.4222 12.7871 17.4308 12.8237 17.4479 12.8564C17.465 12.8891 17.49 12.9167 17.5206 12.9366C18.7501 13.3432 19.5748 14.3515 19.7758 15.5861C19.7965 15.6484 19.8042 15.7145 19.7982 15.78C19.7923 15.8456 19.7729 15.9091 19.7413 15.9665C19.7097 16.0238 19.6665 16.0737 19.6147 16.113C19.5629 16.1522 19.5036 16.1799 19.4406 16.1942ZM13.8999 12.7623V12.7789C13.8425 12.8073 13.7941 12.8515 13.76 12.9065C13.726 12.9615 13.7077 13.0252 13.7073 13.0902C13.7073 13.1477 13.7224 13.2042 13.7511 13.2537C13.7798 13.3032 13.821 13.3439 13.8704 13.3716C15.672 13.9859 16.9273 15.4876 17.2273 17.322C17.2303 17.3399 17.231 17.3581 17.2294 17.3762C17.2391 17.4233 17.2439 17.4712 17.2439 17.5193C17.2436 17.6686 17.1978 17.814 17.113 17.9357C17.0282 18.0573 16.9085 18.1491 16.7704 18.1985C16.7517 18.2203 16.7225 18.2334 16.6793 18.2334H16.5736C16.5694 18.2334 16.5653 18.2337 16.5611 18.2337C16.5569 18.2337 16.5527 18.2334 16.5485 18.2334C15.0922 18.2332 12.0177 18.2337 12.0177 18.2337C12.0177 18.2337 9.00459 18.2637 7.53122 18.2558C7.42663 18.2553 7.35561 18.2333 7.30848 18.1992C7.21499 18.178 7.12693 18.137 7.05 18.0788C6.97307 18.0206 6.909 17.9466 6.86196 17.8615C6.81491 17.7764 6.78594 17.6822 6.77693 17.5849C6.76792 17.4877 6.77907 17.3896 6.80966 17.297C7.10834 15.4614 8.33695 13.9625 10.1677 13.359C10.2128 13.3291 10.2496 13.2878 10.2746 13.2392C10.2996 13.1906 10.3119 13.1362 10.3105 13.0814C10.309 13.0265 10.2938 12.9729 10.2662 12.9258C10.2386 12.8786 10.1997 12.8395 10.153 12.8121V12.806C9.61911 12.4815 9.17702 12.021 8.87009 11.4697C8.56316 10.9184 8.40193 10.2952 8.40219 9.66119C8.40219 7.63917 10.0091 6 11.9914 6C13.9737 6 15.5806 7.63917 15.5806 9.66119C15.5809 10.281 15.4269 10.8907 15.1329 11.4331C14.8389 11.9755 14.4146 12.4329 13.8999 12.7622V12.7623ZM8.4488 12.391C8.45734 12.4024 8.46575 12.4138 8.47437 12.425C8.48869 12.4437 8.50331 12.4621 8.5179 12.4806C8.52617 12.491 8.53431 12.5016 8.54266 12.5119C8.55821 12.5312 8.57408 12.5503 8.58993 12.5693C8.59757 12.5785 8.60522 12.5879 8.61297 12.5971C8.63036 12.6177 8.64815 12.6379 8.66582 12.6581C8.67234 12.6655 8.67872 12.6731 8.68528 12.6805C8.70611 12.7039 8.7272 12.7271 8.74856 12.75C8.75224 12.754 8.75582 12.7581 8.75952 12.762C8.81021 12.8164 8.86221 12.8694 8.91551 12.9211C8.15299 13.3512 7.50924 13.9259 7.04006 14.5817C6.66938 15.0963 6.4083 15.6569 6.28516 16.2287C5.72884 16.2321 5.12706 16.2344 4.70936 16.2322C4.63872 16.2318 4.59084 16.2169 4.55915 16.1937C4.49623 16.1794 4.43698 16.1518 4.38525 16.1126C4.33351 16.0733 4.29047 16.0234 4.25891 15.9661C4.22736 15.9088 4.208 15.8453 4.20211 15.7798C4.19622 15.7143 4.20393 15.6483 4.22473 15.5861C4.42566 14.3513 5.25063 13.3428 6.48042 12.9364C6.51098 12.9164 6.53599 12.8887 6.55303 12.856C6.57007 12.8233 6.57857 12.7866 6.57771 12.7496C6.57685 12.7126 6.56666 12.6764 6.54812 12.6446C6.52958 12.6127 6.50331 12.5863 6.47185 12.5678V12.5637C6.11279 12.345 5.81556 12.035 5.60924 11.6639C5.40292 11.2928 5.29459 10.8735 5.29486 10.4469C5.29486 9.0858 6.37511 7.98242 7.70768 7.98242C7.74592 7.98242 7.78381 7.98344 7.82155 7.98523C7.73878 8.20567 7.67303 8.43238 7.62492 8.66328C7.62403 8.66749 7.6231 8.67168 7.62223 8.67591C7.61687 8.70213 7.61177 8.7284 7.60693 8.75472C7.60511 8.76441 7.60323 8.77406 7.60147 8.78378C7.59722 8.80718 7.59325 8.83083 7.58936 8.85443C7.58725 8.86722 7.58513 8.88 7.58312 8.89284C7.57973 8.91452 7.5765 8.93627 7.57344 8.95807C7.57132 8.97307 7.56928 8.98808 7.56733 9.00311C7.56465 9.02342 7.56211 9.04378 7.55968 9.06418C7.55769 9.081 7.5558 9.09784 7.55402 9.11471C7.55197 9.13382 7.54995 9.15293 7.54813 9.1721C7.54641 9.19069 7.54479 9.2093 7.54329 9.22791C7.54176 9.24574 7.54023 9.26356 7.53902 9.28147C7.53749 9.30207 7.53637 9.32277 7.53516 9.34346C7.53423 9.35965 7.53318 9.37583 7.5324 9.39207C7.53132 9.41612 7.53043 9.44018 7.52972 9.46425C7.52929 9.47743 7.52868 9.49058 7.52836 9.50379C7.52747 9.54123 7.52701 9.5788 7.52697 9.61651C7.52697 9.65652 7.52748 9.69641 7.5285 9.73619C7.52883 9.74943 7.52954 9.76257 7.53003 9.77578C7.53091 9.8023 7.53174 9.82882 7.53308 9.85512C7.53388 9.87086 7.53506 9.88651 7.53601 9.9022C7.53744 9.92591 7.53877 9.94965 7.54059 9.97326C7.54186 9.98998 7.5435 10.0066 7.54495 10.0232C7.54689 10.0457 7.54873 10.0681 7.55107 10.0905C7.55281 10.1077 7.55491 10.1247 7.55682 10.1418C7.55927 10.1636 7.56162 10.1853 7.56436 10.207C7.56656 10.2243 7.56908 10.2416 7.57149 10.2589C7.57442 10.2801 7.57727 10.3014 7.58049 10.3225C7.58315 10.34 7.5861 10.3573 7.58896 10.3747C7.59237 10.3955 7.59574 10.4164 7.59944 10.4371C7.6025 10.4545 7.60592 10.4718 7.60923 10.4892C7.61313 10.5097 7.61698 10.5303 7.62116 10.5507C7.6247 10.5681 7.6285 10.5853 7.63223 10.6026C7.63662 10.6229 7.64098 10.6432 7.64562 10.6633C7.64959 10.6806 7.65379 10.6977 7.65795 10.7149C7.66281 10.7349 7.66766 10.755 7.67278 10.7749C7.67717 10.7921 7.68178 10.809 7.68635 10.826C7.69169 10.8459 7.69705 10.8657 7.70262 10.8854C7.70742 10.9023 7.71241 10.9192 7.71738 10.936C7.72319 10.9557 7.72903 10.9753 7.73509 10.9948C7.74029 11.0115 7.74564 11.0282 7.75102 11.0448C7.75729 11.0643 7.76367 11.0837 7.77017 11.103C7.77574 11.1196 7.78142 11.136 7.78722 11.1524C7.79396 11.1717 7.80082 11.1909 7.8078 11.2101C7.81376 11.2264 7.8198 11.2426 7.82594 11.2588C7.83318 11.2779 7.84053 11.297 7.84798 11.3159C7.85428 11.332 7.86068 11.348 7.86717 11.3639C7.87488 11.3828 7.8827 11.4017 7.89065 11.4205C7.8973 11.4363 7.90404 11.452 7.91085 11.4676C7.919 11.4864 7.92731 11.5051 7.93578 11.5238C7.94276 11.5392 7.94981 11.5546 7.95694 11.57C7.96562 11.5886 7.97442 11.6072 7.98335 11.6257C7.99064 11.6409 7.998 11.6559 8.00542 11.671C8.01459 11.6895 8.0239 11.7079 8.03333 11.7262C8.04097 11.741 8.04851 11.7559 8.05627 11.7705C8.06595 11.7889 8.07577 11.8072 8.08571 11.8254C8.09357 11.8399 8.10141 11.8543 8.10941 11.8687C8.11963 11.8869 8.12997 11.9051 8.14042 11.9233C8.14851 11.9373 8.15659 11.9514 8.16482 11.9654C8.17552 11.9836 8.1865 12.0016 8.19748 12.0197C8.20579 12.0333 8.21403 12.047 8.22247 12.0605C8.23381 12.0786 8.24527 12.0967 8.25686 12.1146C8.26534 12.1278 8.27369 12.141 8.28231 12.1541C8.29424 12.1722 8.30641 12.1902 8.31859 12.2081C8.32715 12.2208 8.33564 12.2335 8.34434 12.246C8.35694 12.2642 8.3698 12.2822 8.38266 12.3002C8.39126 12.3122 8.39976 12.3244 8.40848 12.3363C8.42151 12.3547 8.43516 12.3728 8.4488 12.391V12.391Z" fill="white"/>
</g>
<defs>
<clipPath id="clip0_573_31784">
<rect width="24" height="24" fill="white"/>
</clipPath>
</defs>
</svg>
