<svg width="181" height="100" viewBox="0 0 181 100" fill="none" xmlns="http://www.w3.org/2000/svg">
<mask id="path-1-inside-1_59_2248" fill="white">
<path d="M0.666626 12C0.666626 5.37258 6.03921 0 12.6666 0H168.667C175.294 0 180.667 5.37258 180.667 12V100H0.666626V12Z"/>
</mask>
<path d="M0.666626 12C0.666626 5.37258 6.03921 0 12.6666 0H168.667C175.294 0 180.667 5.37258 180.667 12V100H0.666626V12Z" fill="white"/>
<path d="M-0.333374 12C-0.333374 4.8203 5.48692 -1 12.6666 -1H167.667C174.846 -1 180.667 4.8203 180.667 12C180.667 5.92487 175.294 1 168.667 1H12.6666C6.59149 1 1.66663 5.92487 1.66663 12H-0.333374ZM180.667 100H0.666626H180.667ZM-0.333374 100V12C-0.333374 4.8203 5.48692 -1 12.6666 -1V1C6.59149 1 1.66663 5.92487 1.66663 12V100H-0.333374ZM180.667 0V100V0Z" fill="url(#paint0_linear_59_2248)" mask="url(#path-1-inside-1_59_2248)"/>
<rect x="15.1666" y="14.5" width="55" height="16" rx="8" stroke="#1C1D23" stroke-opacity="0.08"/>
<path d="M26.8366 18.23V24.51H26.1966V18.9H24.1266V24.51H23.4766V18.23H26.8366ZM28.2566 17.8L28.9566 17.89C28.8566 18.37 28.7366 18.83 28.5966 19.26H31.9066C31.9066 22.74 31.8466 24.87 31.7466 25.67C31.6466 26.49 31.1866 26.9 30.3866 26.9C30.1166 26.9 29.6466 26.89 28.9866 26.87L28.8166 26.22C29.3766 26.24 29.8566 26.26 30.2766 26.26C30.7166 26.26 30.9766 26 31.0566 25.48C31.1366 24.89 31.1866 23.05 31.2066 19.96H28.3166C28.0466 20.56 27.7166 21.11 27.3166 21.6L26.8766 21.03C27.5566 20.15 28.0166 19.08 28.2566 17.8ZM29.7966 22.23C30.1366 23.03 30.4466 23.9 30.7466 24.84L30.1566 25.14C30.0766 24.88 30.0066 24.64 29.9366 24.42C29.1566 24.6 28.3066 24.73 27.3766 24.83L27.2566 24.21C27.6366 23.91 28.1166 22.79 28.6866 20.85L29.3366 21.06C28.9066 22.36 28.4866 23.39 28.0766 24.15C28.6666 24.07 29.2266 23.97 29.7466 23.84C29.5866 23.36 29.4166 22.91 29.2466 22.5L29.7966 22.23ZM24.8566 19.63H25.4566V22.91C25.4366 24.02 25.2766 24.9 24.9666 25.56C24.6666 26.18 24.1766 26.66 23.4966 27.01L23.1166 26.41C23.7566 26.08 24.2066 25.65 24.4666 25.11C24.7066 24.55 24.8366 23.81 24.8566 22.91V19.63ZM25.8666 24.81C26.4266 25.35 26.8966 25.89 27.2766 26.43L26.7566 26.94C26.4366 26.42 25.9866 25.86 25.4066 25.26L25.8666 24.81ZM34.2066 21.01C34.9666 21.32 35.6666 21.69 36.2966 22.12L35.9266 22.7C35.2566 22.2 34.5666 21.8 33.8566 21.52L34.2066 21.01ZM35.1266 19.61C35.8866 19.92 36.5666 20.29 37.1866 20.73L36.8166 21.3C36.1566 20.8 35.4866 20.4 34.7866 20.12L35.1266 19.61ZM37.8866 19.61H38.5966V21.71C38.5766 22.26 38.5066 22.76 38.3966 23.22H42.1166V23.92H38.1566C38.0866 24.08 38.0066 24.24 37.9266 24.39C39.3866 25.03 40.7066 25.72 41.8966 26.48L41.4066 27.02C40.1666 26.23 38.8866 25.53 37.5666 24.93C37.5166 24.99 37.4666 25.06 37.4166 25.12C36.6866 25.91 35.4966 26.53 33.8466 26.97L33.4366 26.33C35.0966 25.9 36.2466 25.33 36.9066 24.62C37.0866 24.4 37.2366 24.17 37.3566 23.92H33.3866V23.22H37.6466C37.7866 22.76 37.8666 22.25 37.8866 21.71V19.61ZM33.7666 18.42H41.3866V18.87C41.2366 19.47 41.0366 20.06 40.7966 20.65L40.1166 20.46C40.3266 20.05 40.4966 19.59 40.6366 19.09H33.7666V18.42ZM52.3266 24.22C52.2366 25.24 52.0966 25.91 51.9066 26.22C51.7166 26.52 51.3366 26.68 50.7766 26.68H48.1866C47.5666 26.68 47.2566 26.36 47.2566 25.72V21.35H50.8166V19.02H46.7766V18.32H51.5066V22.04H47.9566V25.46C47.9566 25.8 48.1266 25.98 48.4666 25.99H50.6466C51.0366 25.99 51.2866 25.85 51.3966 25.58C51.4966 25.31 51.5666 24.78 51.6166 23.98L52.3266 24.22ZM44.2866 17.93C44.9666 18.44 45.5366 18.95 45.9966 19.47L45.5066 19.97C45.0866 19.48 44.5066 18.96 43.7866 18.42L44.2866 17.93ZM43.1166 20.89H45.2766V25.39C45.6666 25.09 46.0866 24.73 46.5266 24.33L46.7066 25.09C46.0666 25.67 45.3766 26.18 44.6566 26.64L44.3766 25.99C44.5166 25.87 44.5866 25.73 44.5866 25.57V21.58H43.1166V20.89ZM54.3866 18.21H60.1566V21.46H61.9566V22.11H57.9666V23.25C58.2066 23.53 58.4566 23.79 58.7366 24.04C59.4466 23.64 60.0666 23.07 60.5866 22.33L61.1366 22.79C60.5766 23.51 59.9466 24.06 59.2266 24.44C60.0066 25.05 60.9266 25.59 61.9866 26.05L61.6266 26.69C60.0866 25.97 58.8666 25.09 57.9666 24.05V26.11C57.9666 26.71 57.6966 27.01 57.1766 27.01H56.0266L55.8766 26.33C56.2466 26.36 56.5966 26.38 56.9366 26.38C57.1366 26.38 57.2466 26.23 57.2466 25.94V24.11C56.2166 25.05 54.9866 25.89 53.5666 26.65L53.2766 25.98C54.8166 25.25 56.1366 24.38 57.2466 23.36V22.11H53.3866V21.46H59.4266V20.49H54.7266V19.86H59.4266V18.86H54.3866V18.21ZM54.4666 22.49C55.0766 22.91 55.5866 23.34 55.9966 23.76L55.5366 24.23C55.1566 23.83 54.6466 23.4 53.9866 22.95L54.4666 22.49Z" fill="#1C1D23" fill-opacity="0.35"/>
<path d="M16.9166 45C16.9166 44.4033 17.1537 43.831 17.5756 43.409C17.9976 42.9871 18.5699 42.75 19.1666 42.75H28.1666C28.7634 42.75 29.3357 42.9871 29.7576 43.409C30.1796 43.831 30.4166 44.4033 30.4166 45V51C30.4166 51.5967 30.1796 52.169 29.7576 52.591C29.3357 53.0129 28.7634 53.25 28.1666 53.25H19.1666C18.5699 53.25 17.9976 53.0129 17.5756 52.591C17.1537 52.169 16.9166 51.5967 16.9166 51V45Z" stroke="#32C436" stroke-width="1.5" stroke-linecap="round" stroke-linejoin="round"/>
<path d="M16.9166 46.5H30.4166" stroke="#32C436" stroke-width="1.5" stroke-linecap="round" stroke-linejoin="round"/>
<path d="M19.9166 50.25H19.9241" stroke="#32C436" stroke-width="1.5" stroke-linecap="round" stroke-linejoin="round"/>
<path d="M22.9166 50.25H24.4166" stroke="#32C436" stroke-width="1.5" stroke-linecap="round" stroke-linejoin="round"/>
<rect x="42.6666" y="44" width="60" height="8" rx="4" fill="url(#paint1_linear_59_2248)"/>
<rect x="106.667" y="44" width="60" height="8" rx="4" fill="url(#paint2_linear_59_2248)"/>
<rect x="14.6666" y="65" width="152" height="8" rx="4" fill="url(#paint3_linear_59_2248)"/>
<rect x="14.6666" y="81" width="152" height="8" rx="4" fill="url(#paint4_linear_59_2248)"/>
<defs>
<linearGradient id="paint0_linear_59_2248" x1="37.6666" y1="-14.5" x2="76.6666" y2="61.5" gradientUnits="userSpaceOnUse">
<stop stop-color="#A4E7A2"/>
<stop offset="1" stop-color="white"/>
</linearGradient>
<linearGradient id="paint1_linear_59_2248" x1="78.0238" y1="48" x2="102.667" y2="48" gradientUnits="userSpaceOnUse">
<stop stop-color="#ECF9EC"/>
<stop offset="1" stop-color="white" stop-opacity="0"/>
</linearGradient>
<linearGradient id="paint2_linear_59_2248" x1="142.024" y1="48" x2="166.667" y2="48" gradientUnits="userSpaceOnUse">
<stop stop-color="#ECF9EC"/>
<stop offset="1" stop-color="white" stop-opacity="0"/>
</linearGradient>
<linearGradient id="paint3_linear_59_2248" x1="104.238" y1="69" x2="166.667" y2="69" gradientUnits="userSpaceOnUse">
<stop stop-color="#ECF9EC"/>
<stop offset="1" stop-color="white" stop-opacity="0"/>
</linearGradient>
<linearGradient id="paint4_linear_59_2248" x1="104.238" y1="85" x2="166.667" y2="85" gradientUnits="userSpaceOnUse">
<stop stop-color="#ECF9EC"/>
<stop offset="1" stop-color="white" stop-opacity="0"/>
</linearGradient>
</defs>
</svg>
