<svg width="40" height="40" viewBox="0 0 40 40" fill="none" xmlns="http://www.w3.org/2000/svg">
<g clip-path="url(#clip0_162_5886)">
<path opacity="0.1" d="M0 3C0 1.34315 1.34315 0 3 0C4.65685 0 6 1.34315 6 3C6 4.65685 4.65685 6 3 6C1.34315 6 0 4.65685 0 3Z" fill="#1C1D23"/>
<path opacity="0.1" d="M9 3C9 1.34315 10.3431 0 12 0H37C38.6569 0 40 1.34315 40 3C40 4.65685 38.6569 6 37 6H12C10.3431 6 9 4.65685 9 3Z" fill="#1C1D23"/>
<path opacity="0.1" d="M0 14.3333C0 12.6765 1.34315 11.3333 3 11.3333C4.65685 11.3333 6 12.6765 6 14.3333C6 15.9902 4.65685 17.3333 3 17.3333C1.34315 17.3333 0 15.9902 0 14.3333Z" fill="#1C1D23"/>
<path opacity="0.1" d="M9 14.3333C9 12.6765 10.3431 11.3333 12 11.3333H37C38.6569 11.3333 40 12.6765 40 14.3333C40 15.9902 38.6569 17.3333 37 17.3333H12C10.3431 17.3333 9 15.9902 9 14.3333Z" fill="#1C1D23"/>
<path opacity="0.1" d="M0 25.6667C0 24.0098 1.34315 22.6667 3 22.6667C4.65685 22.6667 6 24.0098 6 25.6667C6 27.3235 4.65685 28.6667 3 28.6667C1.34315 28.6667 0 27.3235 0 25.6667Z" fill="#1C1D23"/>
<path opacity="0.1" d="M9 25.6667C9 24.0098 10.3431 22.6667 12 22.6667H37C38.6569 22.6667 40 24.0098 40 25.6667C40 27.3235 38.6569 28.6667 37 28.6667H12C10.3431 28.6667 9 27.3235 9 25.6667Z" fill="#1C1D23"/>
<path opacity="0.1" d="M0 37C0 35.3431 1.34315 34 3 34C4.65685 34 6 35.3431 6 37C6 38.6569 4.65685 40 3 40C1.34315 40 0 38.6569 0 37Z" fill="#1C1D23"/>
<path opacity="0.1" d="M9 37C9 35.3431 10.3431 34 12 34H37C38.6569 34 40 35.3431 40 37C40 38.6569 38.6569 40 37 40H12C10.3431 40 9 38.6569 9 37Z" fill="#1C1D23"/>
</g>
<defs>
<clipPath id="clip0_162_5886">
<rect width="40" height="40" fill="white"/>
</clipPath>
</defs>
</svg>
