<svg width="12" height="12" viewBox="0 0 12 12" fill="none" xmlns="http://www.w3.org/2000/svg">
<rect width="12" height="12" rx="4" fill="url(#paint0_linear_4838_159622)"/>
<path d="M5.3342 7.48685L7.68046 6.12832C7.78776 6.06494 7.78776 5.9129 7.68046 5.85122L5.3342 4.49267C5.22691 4.42931 5.09436 4.50847 5.09436 4.63196V7.34902C5.09752 7.47095 5.23005 7.54698 5.3342 7.48686V7.48685ZM6.03318 2.30762C4.98234 2.30762 4.03249 2.75572 3.36661 3.46979C3.31926 3.51883 3.27194 3.57113 3.22775 3.62654L2.50195 2.89823V4.89326H4.49003L3.74846 4.14905C4.28334 3.47618 5.11013 3.03546 6.03633 3.03546C7.65362 3.03546 8.96324 4.3581 8.96324 5.98096C8.96324 7.60395 7.65358 8.91346 6.03633 8.91346C4.75039 8.91346 3.6601 8.08373 3.26561 6.92625H2.5035C2.92166 8.49226 4.3433 9.64971 6.03632 9.64971C8.06069 9.64971 9.70005 8.00612 9.70005 5.97941C9.70006 3.95269 8.05754 2.30762 6.03315 2.30762H6.03318Z" fill="white"/>
<defs>
<linearGradient id="paint0_linear_4838_159622" x1="0" y1="6" x2="12" y2="6" gradientUnits="userSpaceOnUse">
<stop stop-color="#FFAFC8"/>
<stop offset="0.5" stop-color="#E08AFF"/>
<stop offset="1" stop-color="#9FC3FF"/>
</linearGradient>
</defs>
</svg>

