<svg width="181" height="100" viewBox="0 0 181 100" fill="none" xmlns="http://www.w3.org/2000/svg">
<mask id="path-1-inside-1_59_2265" fill="white">
<path d="M0.333374 12C0.333374 5.37258 5.70596 0 12.3334 0H168.333C174.961 0 180.333 5.37258 180.333 12V100H0.333374V12Z"/>
</mask>
<path d="M0.333374 12C0.333374 5.37258 5.70596 0 12.3334 0H168.333C174.961 0 180.333 5.37258 180.333 12V100H0.333374V12Z" fill="white"/>
<path d="M-0.666626 12C-0.666626 4.8203 5.15367 -1 12.3334 -1H167.333C174.513 -1 180.333 4.8203 180.333 12C180.333 5.92487 174.961 1 168.333 1H12.3334C6.25824 1 1.33337 5.92487 1.33337 12H-0.666626ZM180.333 100H0.333374H180.333ZM-0.666626 100V12C-0.666626 4.8203 5.15367 -1 12.3334 -1V1C6.25824 1 1.33337 5.92487 1.33337 12V100H-0.666626ZM180.333 0V100V0Z" fill="url(#paint0_linear_59_2265)" mask="url(#path-1-inside-1_59_2265)"/>
<rect x="14.8334" y="14.5" width="54" height="16" rx="8" stroke="#1C1D23" stroke-opacity="0.08"/>
<path d="M25.1434 18.86H26.0934L28.9034 26H28.0134L27.2534 24H23.9734L23.2134 26H22.3334L25.1434 18.86ZM24.2334 23.31H26.9934L25.6434 19.74H25.6034L24.2334 23.31ZM29.6256 18.86H32.5456C34.1856 18.86 35.0056 19.56 35.0056 20.96C35.0056 22.37 34.1756 23.08 32.5356 23.08H30.4456V26H29.6256V18.86ZM30.4456 19.57V22.37H32.4956C33.0756 22.37 33.4956 22.25 33.7756 22.02C34.0456 21.79 34.1856 21.44 34.1856 20.96C34.1856 20.48 34.0456 20.13 33.7656 19.92C33.4856 19.68 33.0656 19.57 32.4956 19.57H30.4456ZM36.1017 18.86H36.9117V26H36.1017V18.86ZM45.6948 23.94H46.4148V25.93H48.8748V24.15H49.5848V27.04H48.8748V26.59H42.6048V24.17H43.3148V25.93H45.6948V23.94ZM50.1048 18.51V20.14H49.4048V19.15H42.6448V20.17H41.9448V18.51H45.6148C45.5048 18.29 45.3948 18.09 45.2748 17.91L46.0448 17.79C46.1548 18 46.2548 18.24 46.3548 18.51H50.1048ZM45.6248 19.39C46.0448 19.87 46.3748 20.28 46.6048 20.64L46.0848 21.01C45.8448 20.63 45.5148 20.2 45.0948 19.72L45.6248 19.39ZM48.1348 19.65L48.6648 20.05C47.7248 21.17 46.5248 22.09 45.0648 22.81C45.1248 22.85 45.2248 22.87 45.3448 22.87H47.2248C47.4648 22.87 47.6248 22.83 47.7148 22.75C47.8448 22.65 47.9348 22.35 47.9748 21.85L48.6248 22.06C48.5448 22.76 48.4048 23.18 48.2048 23.33C48.0248 23.46 47.7348 23.53 47.3548 23.53H45.1448C44.7448 23.53 44.4748 23.4 44.3548 23.14C43.5748 23.47 42.7348 23.75 41.8448 23.99L41.5648 23.36C42.5448 23.1 43.4448 22.8 44.2648 22.44V20.52H44.9348V22.12C46.2448 21.44 47.3148 20.62 48.1348 19.65ZM48.8748 20.69C49.5548 21.42 50.0748 22.06 50.4448 22.62L49.8748 23.01C49.4748 22.4 48.9548 21.75 48.3348 21.07L48.8748 20.69ZM43.1648 20.05L43.8248 20.18C43.5448 21.1 43.1548 21.89 42.6548 22.56L42.0448 22.18C42.5648 21.53 42.9348 20.82 43.1648 20.05ZM52.8348 17.85L53.5348 17.99C53.4448 18.33 53.3448 18.65 53.2348 18.97H55.4048V19.64H52.9848C52.7048 20.32 52.3748 20.95 52.0048 21.51L51.4248 21.14C52.0748 20.15 52.5448 19.05 52.8348 17.85ZM52.4948 20.98H55.2848V21.63H54.0048V22.86H55.5448V23.52H54.0048V25.9C54.4348 25.74 54.8648 25.54 55.2948 25.29L55.4048 25.93C54.7948 26.26 54.0848 26.53 53.2848 26.74L52.9848 26.12C53.1948 26.05 53.3048 25.95 53.3048 25.82V23.52H51.7348V22.86H53.3048V21.63H52.4948V20.98ZM56.9048 21.34V22.6C56.9048 22.78 56.8948 22.95 56.8948 23.12H59.4848V21.34H56.9048ZM59.4848 20.65V18.93H56.9048V20.65H59.4848ZM56.8348 23.8C56.6948 25.08 56.3348 26.16 55.7648 27.03L55.2048 26.52C55.8548 25.5 56.1848 24.21 56.2048 22.65V18.23H60.1948V26.1C60.1948 26.62 59.9248 26.88 59.3848 26.88H58.2348L58.0348 26.17C58.4348 26.19 58.8148 26.21 59.1548 26.21C59.3748 26.21 59.4848 26.08 59.4848 25.84V23.8H56.8348Z" fill="#1C1D23" fill-opacity="0.35"/>
<path d="M26.7496 41.8822L29.4511 44.5837C29.6515 44.7841 29.8105 45.022 29.9189 45.2838C30.0274 45.5456 30.0832 45.8262 30.0832 46.1096C30.0832 46.393 30.0274 46.6736 29.9189 46.9354C29.8105 47.1972 29.6515 47.4351 29.4511 47.6355L27.4689 49.6177C27.2685 49.8181 27.0306 49.9771 26.7688 50.0856C26.507 50.194 26.2264 50.2498 25.943 50.2498C25.6596 50.2498 25.379 50.194 25.1172 50.0856C24.8554 49.9771 24.6175 49.8181 24.4171 49.6177L24.1914 49.392L19.2729 54.3105C19.0237 54.5596 18.6947 54.7131 18.3436 54.744L18.2124 54.75H17.3334C17.1497 54.75 16.9724 54.6825 16.8351 54.5604C16.6978 54.4384 16.6101 54.2702 16.5886 54.0877L16.5834 54V53.121C16.5835 52.7688 16.7074 52.4279 16.9336 52.158L17.0229 52.0605L17.3334 51.75H18.8334V50.25H20.3334V48.75L21.9414 47.142L21.7156 46.9162C21.5152 46.7159 21.3563 46.478 21.2478 46.2162C21.1393 45.9544 21.0835 45.6737 21.0835 45.3904C21.0835 45.107 21.1393 44.8264 21.2478 44.5645C21.3563 44.3027 21.5152 44.0648 21.7156 43.8645L23.6979 41.8822C23.8982 41.6818 24.1361 41.5229 24.3979 41.4144C24.6598 41.3059 24.9404 41.2501 25.2237 41.2501C25.5071 41.2501 25.7877 41.3059 26.0496 41.4144C26.3114 41.5229 26.5493 41.6818 26.7496 41.8822Z" stroke="#FF7D00" stroke-width="1.5" stroke-linecap="round" stroke-linejoin="round"/>
<path d="M25.5834 45.75H25.5909" stroke="#FF7D00" stroke-width="1.5" stroke-linecap="round" stroke-linejoin="round"/>
<rect x="42.3334" y="41" width="124" height="14" rx="7" fill="url(#paint1_linear_59_2265)"/>
<path d="M26.7496 67.8822L29.4511 70.5837C29.6515 70.7841 29.8105 71.022 29.9189 71.2838C30.0274 71.5456 30.0832 71.8262 30.0832 72.1096C30.0832 72.393 30.0274 72.6736 29.9189 72.9354C29.8105 73.1972 29.6515 73.4351 29.4511 73.6355L27.4689 75.6177C27.2685 75.8181 27.0306 75.9771 26.7688 76.0856C26.507 76.194 26.2264 76.2498 25.943 76.2498C25.6596 76.2498 25.379 76.194 25.1172 76.0856C24.8554 75.9771 24.6175 75.8181 24.4171 75.6177L24.1914 75.392L19.2729 80.3105C19.0237 80.5596 18.6947 80.7131 18.3436 80.744L18.2124 80.75H17.3334C17.1497 80.75 16.9724 80.6825 16.8351 80.5604C16.6978 80.4384 16.6101 80.2702 16.5886 80.0877L16.5834 80V79.121C16.5835 78.7688 16.7074 78.4279 16.9336 78.158L17.0229 78.0605L17.3334 77.75H18.8334V76.25H20.3334V74.75L21.9414 73.142L21.7156 72.9162C21.5152 72.7159 21.3563 72.478 21.2478 72.2162C21.1393 71.9544 21.0835 71.6737 21.0835 71.3904C21.0835 71.107 21.1393 70.8264 21.2478 70.5645C21.3563 70.3027 21.5152 70.0648 21.7156 69.8645L23.6979 67.8822C23.8982 67.6818 24.1361 67.5229 24.3979 67.4144C24.6598 67.3059 24.9404 67.2501 25.2237 67.2501C25.5071 67.2501 25.7877 67.3059 26.0496 67.4144C26.3114 67.5229 26.5493 67.6818 26.7496 67.8822Z" stroke="#FF7D00" stroke-width="1.5" stroke-linecap="round" stroke-linejoin="round"/>
<path d="M25.5834 71.75H25.5909" stroke="#FF7D00" stroke-width="1.5" stroke-linecap="round" stroke-linejoin="round"/>
<rect x="42.3334" y="67" width="124" height="14" rx="7" fill="url(#paint2_linear_59_2265)"/>
<defs>
<linearGradient id="paint0_linear_59_2265" x1="37.3334" y1="-14.5" x2="76.3334" y2="61.5" gradientUnits="userSpaceOnUse">
<stop stop-color="#FFD599"/>
<stop offset="1" stop-color="white"/>
</linearGradient>
<linearGradient id="paint1_linear_59_2265" x1="115.405" y1="48" x2="166.333" y2="48" gradientUnits="userSpaceOnUse">
<stop stop-color="#FFF8EB"/>
<stop offset="1" stop-color="white" stop-opacity="0"/>
</linearGradient>
<linearGradient id="paint2_linear_59_2265" x1="115.405" y1="74" x2="166.333" y2="74" gradientUnits="userSpaceOnUse">
<stop stop-color="#FFF8EB"/>
<stop offset="1" stop-color="white" stop-opacity="0"/>
</linearGradient>
</defs>
</svg>
