<svg width="180" height="100" viewBox="0 0 180 100" fill="none" xmlns="http://www.w3.org/2000/svg">
<mask id="path-1-inside-1_47_3178" fill="white">
<path d="M0 12C0 5.37258 5.37258 0 12 0H168C174.627 0 180 5.37258 180 12V100H0V12Z"/>
</mask>
<path d="M0 12C0 5.37258 5.37258 0 12 0H168C174.627 0 180 5.37258 180 12V100H0V12Z" fill="white"/>
<path d="M-1 12C-1 4.8203 4.8203 -1 12 -1H167C174.18 -1 180 4.8203 180 12C180 5.92487 174.627 1 168 1H12C5.92487 1 1 5.92487 1 12H-1ZM180 100H0H180ZM-1 100V12C-1 4.8203 4.8203 -1 12 -1V1C5.92487 1 1 5.92487 1 12V100H-1ZM180 0V100V0Z" fill="url(#paint0_linear_47_3178)" mask="url(#path-1-inside-1_47_3178)"/>
<rect x="14.5" y="14.5" width="55" height="16" rx="8" stroke="#1C1D23" stroke-opacity="0.08"/>
<path d="M24.24 22.04H29.8V24.47H24.24V22.04ZM29.08 23.83V22.67H24.96V23.83H29.08ZM25.13 24.69C25.47 25.06 25.78 25.5 26.06 26.02H28.04C28.35 25.58 28.62 25.12 28.85 24.64L29.53 24.87C29.31 25.3 29.07 25.68 28.81 26.02H31.27V26.71H22.71V26.02H25.31C25.07 25.64 24.79 25.28 24.45 24.94L25.13 24.69ZM23.53 19.2C24.07 19.58 24.52 19.95 24.9 20.32C25.36 19.88 25.73 19.39 26.01 18.87H23.51V18.21H26.83V18.75C26.55 19.41 26.16 20.01 25.66 20.54H28.74C28.04 19.84 27.5 19.06 27.12 18.22L27.71 17.89C27.89 18.31 28.12 18.71 28.39 19.09C28.83 18.77 29.2 18.41 29.51 18.01L30.02 18.46C29.67 18.89 29.26 19.27 28.79 19.6C29.01 19.87 29.26 20.12 29.53 20.36C30.02 20 30.43 19.6 30.77 19.16L31.27 19.61C30.93 20.05 30.52 20.45 30.05 20.79C30.55 21.17 31.1 21.52 31.71 21.82L31.24 22.37C30.37 21.9 29.62 21.37 28.99 20.78V21.2H25.34V20.86C24.68 21.46 23.86 21.96 22.88 22.37L22.45 21.81C23.19 21.51 23.84 21.15 24.4 20.74C24.03 20.39 23.58 20.03 23.05 19.66L23.53 19.2ZM33.72 18.21H39.49V21.46H41.29V22.11H37.3V23.25C37.54 23.53 37.79 23.79 38.07 24.04C38.78 23.64 39.4 23.07 39.92 22.33L40.47 22.79C39.91 23.51 39.28 24.06 38.56 24.44C39.34 25.05 40.26 25.59 41.32 26.05L40.96 26.69C39.42 25.97 38.2 25.09 37.3 24.05V26.11C37.3 26.71 37.03 27.01 36.51 27.01H35.36L35.21 26.33C35.58 26.36 35.93 26.38 36.27 26.38C36.47 26.38 36.58 26.23 36.58 25.94V24.11C35.55 25.05 34.32 25.89 32.9 26.65L32.61 25.98C34.15 25.25 35.47 24.38 36.58 23.36V22.11H32.72V21.46H38.76V20.49H34.06V19.86H38.76V18.86H33.72V18.21ZM33.8 22.49C34.41 22.91 34.92 23.34 35.33 23.76L34.87 24.23C34.49 23.83 33.98 23.4 33.32 22.95L33.8 22.49ZM46.27 18.23V24.51H45.63V18.9H43.47V24.51H42.81V18.23H46.27ZM44.22 19.63H44.84V22.88C44.82 24 44.66 24.9 44.34 25.57C44.03 26.19 43.53 26.68 42.83 27.03L42.44 26.43C43.1 26.1 43.57 25.66 43.83 25.11C44.07 24.53 44.2 23.79 44.22 22.88V19.63ZM45.18 24.79C45.74 25.35 46.2 25.9 46.57 26.44L46.06 26.95C45.74 26.41 45.29 25.84 44.72 25.24L45.18 24.79ZM48.99 22.67H48.11V26.07C48.55 25.9 49.01 25.67 49.47 25.38L49.6 26.02C48.98 26.41 48.28 26.73 47.48 26.98L47.18 26.34C47.33 26.27 47.41 26.17 47.41 26.03V22.67H46.69V21.97H47.41V17.84H48.11V21.97H51.43V22.67H49.62C50.08 24.27 50.75 25.49 51.62 26.35L51.13 26.91C50.19 25.95 49.47 24.53 48.99 22.67ZM50.73 18.29L51.28 18.74C50.58 19.86 49.75 20.7 48.81 21.24L48.42 20.68C49.32 20.16 50.09 19.36 50.73 18.29ZM54.07 18.19H59.93V20.89H54.07V18.19ZM59.19 20.24V18.84H54.81V20.24H59.19ZM54.79 22.44H52.5V21.75H61.49V22.44H55.52L55.18 23.61H60.07C60.01 25.21 59.85 26.17 59.61 26.48C59.37 26.78 58.91 26.93 58.23 26.93C57.73 26.93 57.29 26.91 56.9 26.87L56.66 26.21C57.19 26.25 57.66 26.27 58.07 26.27C58.61 26.27 58.94 26.16 59.07 25.94C59.19 25.72 59.28 25.16 59.34 24.26H54.32L54.79 22.44Z" fill="#1C1D23" fill-opacity="0.35"/>
<path d="M20 44.25C20 45.0456 20.3161 45.8087 20.8787 46.3713C21.4413 46.9339 22.2044 47.25 23 47.25C23.7956 47.25 24.5587 46.9339 25.1213 46.3713C25.6839 45.8087 26 45.0456 26 44.25C26 43.4544 25.6839 42.6913 25.1213 42.1287C24.5587 41.5661 23.7956 41.25 23 41.25C22.2044 41.25 21.4413 41.5661 20.8787 42.1287C20.3161 42.6913 20 43.4544 20 44.25Z" stroke="#315CEC" stroke-width="1.5" stroke-linecap="round" stroke-linejoin="round"/>
<path d="M18.5 54.75V53.25C18.5 52.4544 18.8161 51.6913 19.3787 51.1287C19.9413 50.5661 20.7044 50.25 21.5 50.25H24.5C25.2956 50.25 26.0587 50.5661 26.6213 51.1287C27.1839 51.6913 27.5 52.4544 27.5 53.25V54.75" stroke="#315CEC" stroke-width="1.5" stroke-linecap="round" stroke-linejoin="round"/>
<rect x="42" y="41" width="124" height="14" rx="7" fill="url(#paint1_linear_47_3178)"/>
<path d="M17.75 74.75C17.75 74.3522 17.908 73.9706 18.1893 73.6893C18.4706 73.408 18.8522 73.25 19.25 73.25H26.75C27.1478 73.25 27.5294 73.408 27.8107 73.6893C28.092 73.9706 28.25 74.3522 28.25 74.75V79.25C28.25 79.6478 28.092 80.0294 27.8107 80.3107C27.5294 80.592 27.1478 80.75 26.75 80.75H19.25C18.8522 80.75 18.4706 80.592 18.1893 80.3107C17.908 80.0294 17.75 79.6478 17.75 79.25V74.75Z" stroke="#315CEC" stroke-width="1.5" stroke-linecap="round" stroke-linejoin="round"/>
<path d="M22.25 77C22.25 77.1989 22.329 77.3897 22.4697 77.5303C22.6103 77.671 22.8011 77.75 23 77.75C23.1989 77.75 23.3897 77.671 23.5303 77.5303C23.671 77.3897 23.75 77.1989 23.75 77C23.75 76.8011 23.671 76.6103 23.5303 76.4697C23.3897 76.329 23.1989 76.25 23 76.25C22.8011 76.25 22.6103 76.329 22.4697 76.4697C22.329 76.6103 22.25 76.8011 22.25 77Z" stroke="#315CEC" stroke-width="1.5" stroke-linecap="round" stroke-linejoin="round"/>
<path d="M20 73.25V70.25C20 69.4544 20.3161 68.6913 20.8787 68.1287C21.4413 67.5661 22.2044 67.25 23 67.25C23.7956 67.25 24.5587 67.5661 25.1213 68.1287C25.6839 68.6913 26 69.4544 26 70.25V73.25" stroke="#315CEC" stroke-width="1.5" stroke-linecap="round" stroke-linejoin="round"/>
<path d="M42 74C42 70.134 45.134 67 49 67H159C162.866 67 166 70.134 166 74C166 77.866 162.866 81 159 81H49C45.134 81 42 77.866 42 74Z" fill="url(#paint2_linear_47_3178)"/>
<defs>
<linearGradient id="paint0_linear_47_3178" x1="37" y1="-14.5" x2="76" y2="61.5" gradientUnits="userSpaceOnUse">
<stop stop-color="#A9BFF7"/>
<stop offset="1" stop-color="white"/>
</linearGradient>
<linearGradient id="paint1_linear_47_3178" x1="115.071" y1="48" x2="166" y2="48" gradientUnits="userSpaceOnUse">
<stop stop-color="#EEF3FD"/>
<stop offset="1" stop-color="white" stop-opacity="0"/>
</linearGradient>
<linearGradient id="paint2_linear_47_3178" x1="115.071" y1="74" x2="166" y2="74" gradientUnits="userSpaceOnUse">
<stop stop-color="#EEF3FD"/>
<stop offset="1" stop-color="white" stop-opacity="0"/>
</linearGradient>
</defs>
</svg>
