<svg width="40" height="40" viewBox="0 0 40 40" fill="none" xmlns="http://www.w3.org/2000/svg">
<rect x="1" y="1" width="38" height="38" rx="7" stroke="black" stroke-opacity="0.1" stroke-width="2" stroke-linejoin="round"/>
<path opacity="0.1" d="M8 11C8 9.34315 9.34315 8 11 8C12.6569 8 14 9.34315 14 11C14 12.6569 12.6569 14 11 14C9.34315 14 8 12.6569 8 11Z" fill="#1C1D23"/>
<path opacity="0.1" d="M17 11C17 9.34315 18.3431 8 20 8H29C30.6569 8 32 9.34315 32 11C32 12.6569 30.6569 14 29 14H20C18.3431 14 17 12.6569 17 11Z" fill="#1C1D23"/>
<path opacity="0.1" d="M8 20C8 18.3431 9.34315 17 11 17C12.6569 17 14 18.3431 14 20C14 21.6569 12.6569 23 11 23C9.34315 23 8 21.6569 8 20Z" fill="#1C1D23"/>
<path opacity="0.1" d="M17 20C17 18.3431 18.3431 17 20 17H29C30.6569 17 32 18.3431 32 20C32 21.6569 30.6569 23 29 23H20C18.3431 23 17 21.6569 17 20Z" fill="#1C1D23"/>
<path opacity="0.1" d="M8 29C8 27.3431 9.34315 26 11 26C12.6569 26 14 27.3431 14 29C14 30.6569 12.6569 32 11 32C9.34315 32 8 30.6569 8 29Z" fill="#1C1D23"/>
<path opacity="0.1" d="M17 29C17 27.3431 18.3431 26 20 26H29C30.6569 26 32 27.3431 32 29C32 30.6569 30.6569 32 29 32H20C18.3431 32 17 30.6569 17 29Z" fill="#1C1D23"/>
</svg>
