<svg width="38" height="40" viewBox="0 0 38 40" fill="none" xmlns="http://www.w3.org/2000/svg">
<g clip-path="url(#clip0_162_12597)">
<path opacity="0.1" d="M1.45669 8.15465C0.843602 7.53174 0.499749 6.68932 0.500245 5.81143C0.50074 4.93354 0.845542 4.09152 1.45933 3.46931C1.76258 3.16198 2.12304 2.91815 2.52 2.75186C2.91695 2.58557 3.34257 2.50009 3.77238 2.50033C4.20219 2.50058 4.62771 2.58655 5.02448 2.7533C5.42124 2.92005 5.78143 3.16429 6.08433 3.47198L7.00933 4.39198L10.8573 0.49598C11.0125 0.338996 11.1968 0.214444 11.3998 0.129461C11.6027 0.0444776 11.8203 0.000732422 12.04 0.000732422C12.2597 0.000732422 12.4773 0.0444776 12.6803 0.129461C12.8832 0.214444 13.0675 0.338996 13.2227 0.49598L18.963 6.30131C19.2778 6.61933 19.4547 7.05046 19.4547 7.49998C19.4547 7.9495 19.2778 8.38063 18.963 8.69865L15.0885 12.5946L21.9415 19.544C23.1903 18.8964 24.5535 18.5041 25.953 18.3896C27.3524 18.2751 28.7605 18.4407 30.0964 18.8768C31.4323 19.3128 32.6697 20.0109 33.7374 20.9308C34.8052 21.8507 35.6824 22.9744 36.3186 24.2373C37.612 26.7897 37.8513 29.755 36.9841 32.4848C36.1169 35.2147 34.2139 37.4871 31.691 38.8053C30.4422 39.4529 29.0789 39.8452 27.6795 39.9597C26.28 40.0742 24.8719 39.9086 23.536 39.4725C22.2001 39.0364 20.9628 38.3384 19.895 37.4185C18.8272 36.4986 17.95 35.3749 17.3138 34.112C16.5394 32.5815 16.1358 30.8874 16.1363 29.169C16.1368 27.4506 16.5412 25.7567 17.3165 24.2266L1.45669 8.15465ZM22.7475 29.1893C22.7447 30.2917 23.1757 31.3501 23.9458 32.1321C24.7158 32.9141 25.762 33.3557 26.8545 33.36C27.9471 33.3586 28.9944 32.9197 29.7664 32.1397C30.5385 31.3597 30.9721 30.3024 30.9721 29.2C30.9739 28.6535 30.8688 28.1119 30.6631 27.6064C30.4573 27.1008 30.1549 26.6411 29.773 26.2536C29.3911 25.866 28.9372 25.5582 28.4374 25.3476C27.9375 25.1371 27.4015 25.028 26.8598 25.0266C24.5896 25.0266 22.7475 26.888 22.7475 29.1866V29.1893Z" fill="#1C1D23"/>
</g>
<defs>
<clipPath id="clip0_162_12597">
<rect width="37" height="40" fill="white" transform="translate(0.5)"/>
</clipPath>
</defs>
</svg>
