<svg width="120" height="40" viewBox="0 0 120 40" fill="none" xmlns="http://www.w3.org/2000/svg">
<path d="M3.19873 33.5407L1.29623e-06 32.0491L11.9328 6.45927L15.1315 7.95086L3.19873 33.5407Z" fill="black"/>
<path d="M32.759 7.54688H29.6482C29.5913 7.14441 29.4753 6.78693 29.3002 6.47443C29.125 6.1572 28.9001 5.88731 28.6254 5.66477C28.3508 5.44223 28.0336 5.27178 27.6737 5.15341C27.3186 5.03504 26.9327 4.97585 26.5161 4.97585C25.7632 4.97585 25.1074 5.16288 24.5487 5.53693C23.99 5.90625 23.5568 6.44602 23.249 7.15625C22.9413 7.86174 22.7874 8.71875 22.7874 9.72727C22.7874 10.7642 22.9413 11.6354 23.249 12.3409C23.5615 13.0464 23.9971 13.5791 24.5558 13.9389C25.1145 14.2988 25.7609 14.4787 26.4948 14.4787C26.9067 14.4787 27.2878 14.4242 27.6382 14.3153C27.9933 14.2064 28.3082 14.0478 28.5828 13.8395C28.8574 13.6264 29.0847 13.3684 29.2646 13.0653C29.4493 12.7623 29.5771 12.4167 29.6482 12.0284L32.759 12.0426C32.6785 12.7102 32.4772 13.3542 32.1553 13.9744C31.838 14.59 31.4095 15.1416 30.8698 15.6293C30.3347 16.1122 29.6955 16.4957 28.9521 16.7798C28.2135 17.0592 27.3778 17.1989 26.445 17.1989C25.1477 17.1989 23.9877 16.9053 22.9649 16.3182C21.9469 15.7311 21.142 14.8812 20.5502 13.7685C19.963 12.6558 19.6695 11.3087 19.6695 9.72727C19.6695 8.1411 19.9678 6.79167 20.5644 5.67898C21.1609 4.56629 21.9706 3.71875 22.9933 3.13636C24.0161 2.54924 25.1666 2.25568 26.445 2.25568C27.2878 2.25568 28.0691 2.37405 28.7888 2.6108C29.5132 2.84754 30.1548 3.19318 30.7135 3.64773C31.2722 4.09754 31.7268 4.64915 32.0771 5.30256C32.4323 5.95597 32.6595 6.70407 32.759 7.54688ZM48.3307 9.72727C48.3307 11.3134 48.03 12.6629 47.4287 13.7756C46.8321 14.8883 46.0177 15.7382 44.9855 16.3253C43.9581 16.9077 42.8028 17.1989 41.5196 17.1989C40.227 17.1989 39.067 16.9053 38.0395 16.3182C37.012 15.7311 36.2 14.8812 35.6034 13.7685C35.0068 12.6558 34.7085 11.3087 34.7085 9.72727C34.7085 8.1411 35.0068 6.79167 35.6034 5.67898C36.2 4.56629 37.012 3.71875 38.0395 3.13636C39.067 2.54924 40.227 2.25568 41.5196 2.25568C42.8028 2.25568 43.9581 2.54924 44.9855 3.13636C46.0177 3.71875 46.8321 4.56629 47.4287 5.67898C48.03 6.79167 48.3307 8.1411 48.3307 9.72727ZM45.2128 9.72727C45.2128 8.69981 45.0589 7.83333 44.7511 7.12784C44.4481 6.42235 44.0196 5.88731 43.4656 5.52273C42.9117 5.15814 42.263 4.97585 41.5196 4.97585C40.7762 4.97585 40.1276 5.15814 39.5736 5.52273C39.0196 5.88731 38.5887 6.42235 38.281 7.12784C37.9779 7.83333 37.8264 8.69981 37.8264 9.72727C37.8264 10.7547 37.9779 11.6212 38.281 12.3267C38.5887 13.0322 39.0196 13.5672 39.5736 13.9318C40.1276 14.2964 40.7762 14.4787 41.5196 14.4787C42.263 14.4787 42.9117 14.2964 43.4656 13.9318C44.0196 13.5672 44.4481 13.0322 44.7511 12.3267C45.0589 11.6212 45.2128 10.7547 45.2128 9.72727ZM62.7749 2.45455V17H60.1187L53.7906 7.84517H53.684V17H50.6087V2.45455H53.3076L59.586 11.6023H59.7139V2.45455H62.7749ZM77.482 2.45455V17H74.8257L68.4976 7.84517H68.3911V17H65.3158V2.45455H68.0146L74.2931 11.6023H74.4209V2.45455H77.482ZM80.0228 17V2.45455H89.8239V4.99006H83.0981V8.45597H89.3197V10.9915H83.0981V14.4645H89.8524V17H80.0228ZM105.103 7.54688H101.992C101.935 7.14441 101.819 6.78693 101.644 6.47443C101.469 6.1572 101.244 5.88731 100.969 5.66477C100.695 5.44223 100.377 5.27178 100.017 5.15341C99.6624 5.03504 99.2765 4.97585 98.8598 4.97585C98.107 4.97585 97.4512 5.16288 96.8925 5.53693C96.3338 5.90625 95.9005 6.44602 95.5928 7.15625C95.285 7.86174 95.1311 8.71875 95.1311 9.72727C95.1311 10.7642 95.285 11.6354 95.5928 12.3409C95.9053 13.0464 96.3409 13.5791 96.8996 13.9389C97.4583 14.2988 98.1046 14.4787 98.8385 14.4787C99.2504 14.4787 99.6316 14.4242 99.982 14.3153C100.337 14.2064 100.652 14.0478 100.927 13.8395C101.201 13.6264 101.428 13.3684 101.608 13.0653C101.793 12.7623 101.921 12.4167 101.992 12.0284L105.103 12.0426C105.022 12.7102 104.821 13.3542 104.499 13.9744C104.182 14.59 103.753 15.1416 103.214 15.6293C102.678 16.1122 102.039 16.4957 101.296 16.7798C100.557 17.0592 99.7216 17.1989 98.7888 17.1989C97.4914 17.1989 96.3314 16.9053 95.3087 16.3182C94.2907 15.7311 93.4858 14.8812 92.8939 13.7685C92.3068 12.6558 92.0132 11.3087 92.0132 9.72727C92.0132 8.1411 92.3115 6.79167 92.9081 5.67898C93.5047 4.56629 94.3144 3.71875 95.3371 3.13636C96.3598 2.54924 97.5104 2.25568 98.7888 2.25568C99.6316 2.25568 100.413 2.37405 101.133 2.6108C101.857 2.84754 102.499 3.19318 103.057 3.64773C103.616 4.09754 104.071 4.64915 104.421 5.30256C104.776 5.95597 105.003 6.70407 105.103 7.54688ZM106.754 4.99006V2.45455H118.7V4.99006H114.247V17H111.207V4.99006H106.754Z" fill="#1C1D23"/>
<path d="M19.9252 22.4545H23.7178L27.7234 32.2273H27.8939L31.8996 22.4545H35.6922V37H32.7092V27.5327H32.5885L28.8243 36.929H26.7931L23.0288 27.4972H22.9081V37H19.9252V22.4545ZM40.733 37H37.4376L42.4589 22.4545H46.422L51.4362 37H48.1407L44.4972 25.7784H44.3836L40.733 37ZM40.5271 31.2827H48.3112V33.6832H40.5271V31.2827ZM62.1482 27.1562C62.0487 26.8106 61.9091 26.5052 61.7291 26.2401C61.5492 25.9702 61.329 25.7429 61.0686 25.5582C60.8129 25.3688 60.5194 25.2244 60.1879 25.125C59.8612 25.0256 59.499 24.9759 59.1013 24.9759C58.3579 24.9759 57.7045 25.1605 57.1411 25.5298C56.5824 25.8991 56.1467 26.4366 55.8342 27.142C55.5217 27.8428 55.3655 28.6998 55.3655 29.7131C55.3655 30.7263 55.5194 31.5881 55.8271 32.2983C56.1349 33.0085 56.5705 33.5507 57.134 33.9247C57.6974 34.294 58.3627 34.4787 59.1297 34.4787C59.8257 34.4787 60.4199 34.3556 60.9124 34.1094C61.4095 33.8584 61.7883 33.5057 62.0487 33.0511C62.3139 32.5966 62.4465 32.0592 62.4465 31.4389L63.0715 31.5312H59.3215V29.2159H65.4081V31.0483C65.4081 32.3267 65.1382 33.4252 64.5984 34.3438C64.0587 35.2576 63.3153 35.9631 62.3683 36.4602C61.4214 36.9527 60.3371 37.1989 59.1155 37.1989C57.7519 37.1989 56.5539 36.8982 55.5217 36.2969C54.4895 35.6908 53.6846 34.8314 53.107 33.7188C52.5341 32.6013 52.2476 31.2756 52.2476 29.7415C52.2476 28.5625 52.4181 27.5114 52.759 26.5881C53.1046 25.66 53.5876 24.8741 54.2078 24.2301C54.8281 23.5862 55.5502 23.0961 56.374 22.7599C57.1979 22.4238 58.0904 22.2557 59.0516 22.2557C59.8754 22.2557 60.6425 22.3764 61.3527 22.6179C62.0629 22.8546 62.6927 23.1908 63.2419 23.6264C63.7959 24.062 64.2481 24.5805 64.5984 25.1818C64.9488 25.7784 65.1737 26.4366 65.2732 27.1562H62.1482ZM70.7934 22.4545V37H67.7181V22.4545H70.7934ZM86.1574 27.5469H83.0466C82.9898 27.1444 82.8738 26.7869 82.6986 26.4744C82.5234 26.1572 82.2985 25.8873 82.0239 25.6648C81.7493 25.4422 81.432 25.2718 81.0722 25.1534C80.7171 25.035 80.3312 24.9759 79.9145 24.9759C79.1617 24.9759 78.5059 25.1629 77.9472 25.5369C77.3885 25.9062 76.9552 26.446 76.6475 27.1562C76.3397 27.8617 76.1858 28.7187 76.1858 29.7273C76.1858 30.7642 76.3397 31.6354 76.6475 32.3409C76.96 33.0464 77.3956 33.5791 77.9543 33.9389C78.513 34.2988 79.1593 34.4787 79.8932 34.4787C80.3051 34.4787 80.6863 34.4242 81.0367 34.3153C81.3918 34.2064 81.7066 34.0478 81.9813 33.8395C82.2559 33.6264 82.4832 33.3684 82.6631 33.0653C82.8477 32.7623 82.9756 32.4167 83.0466 32.0284L86.1574 32.0426C86.0769 32.7102 85.8757 33.3542 85.5537 33.9744C85.2365 34.59 84.808 35.1416 84.2682 35.6293C83.7332 36.1122 83.094 36.4957 82.3506 36.7798C81.6119 37.0592 80.7762 37.1989 79.8435 37.1989C78.5461 37.1989 77.3861 36.9053 76.3634 36.3182C75.3454 35.7311 74.5404 34.8812 73.9486 33.7685C73.3615 32.6558 73.0679 31.3087 73.0679 29.7273C73.0679 28.1411 73.3662 26.7917 73.9628 25.679C74.5594 24.5663 75.369 23.7187 76.3918 23.1364C77.4145 22.5492 78.5651 22.2557 79.8435 22.2557C80.6863 22.2557 81.4675 22.3741 82.1872 22.6108C82.9117 22.8475 83.5532 23.1932 84.1119 23.6477C84.6707 24.0975 85.1252 24.6491 85.4756 25.3026C85.8307 25.956 86.058 26.7041 86.1574 27.5469Z" fill="url(#paint0_linear_313_6101)"/>
<defs>
<linearGradient id="paint0_linear_313_6101" x1="24.1368" y1="2.32162" x2="56.553" y2="67.1189" gradientUnits="userSpaceOnUse">
<stop stop-color="#3F8FFF"/>
<stop offset="1" stop-color="#EF2FDF"/>
</linearGradient>
</defs>
</svg>
