<svg width="24" height="24" viewBox="0 0 24 24" fill="none" xmlns="http://www.w3.org/2000/svg">
<rect width="24" height="24" rx="12" fill="#FFF8E2"/>
<g clip-path="url(#clip0_9201_1364)">
<path d="M12.0001 7.54567C12.1673 7.54568 12.3328 7.51277 12.4872 7.44882C12.6417 7.38486 12.782 7.2911 12.9002 7.17291C13.0184 7.05471 13.1122 6.91439 13.1762 6.75996C13.2402 6.60552 13.2731 6.44 13.2731 6.27283C13.2731 6.10567 13.2402 5.94015 13.1762 5.78571C13.1122 5.63127 13.0184 5.49095 12.9002 5.37276C12.782 5.25456 12.6417 5.16081 12.4872 5.09685C12.3328 5.03289 12.1673 4.99998 12.0001 5C11.6626 5.00003 11.3388 5.13415 11.1002 5.37285C10.8615 5.61155 10.7274 5.93528 10.7274 6.27283C10.7274 6.61039 10.8615 6.93412 11.1002 7.17282C11.3388 7.41151 11.6626 7.54563 12.0001 7.54567ZM6.27295 16.4549C6.44011 16.4549 6.60564 16.422 6.76008 16.3581C6.91452 16.2941 7.05485 16.2004 7.17306 16.0822C7.29127 15.964 7.38504 15.8236 7.44901 15.6692C7.51298 15.5148 7.54591 15.3492 7.54591 15.1821C7.54591 15.0149 7.51298 14.8494 7.44901 14.695C7.38504 14.5405 7.29127 14.4002 7.17306 14.282C7.05485 14.1638 6.91452 14.0701 6.76008 14.0061C6.60564 13.9421 6.44011 13.9092 6.27295 13.9093C5.93539 13.9093 5.61168 14.0434 5.373 14.2821C5.13433 14.5208 5.00024 14.8445 5.00024 15.1821C5.00024 15.5196 5.13433 15.8434 5.373 16.0821C5.61168 16.3208 5.93539 16.4549 6.27295 16.4549ZM13.2729 17.7272C13.2729 18.0647 13.1388 18.3885 12.9001 18.6272C12.6614 18.8659 12.3377 19 12.0001 19C11.6625 19 11.3388 18.8659 11.1001 18.6272C10.8614 18.3885 10.7273 18.0647 10.7273 17.7272C10.7273 17.3896 10.8614 17.0658 11.1001 16.8271C11.3388 16.5884 11.6625 16.4543 12.0001 16.4543C12.3377 16.4543 12.6614 16.5884 12.9001 16.8271C13.1388 17.0658 13.2729 17.3896 13.2729 17.7272ZM17.7273 16.4549C17.8944 16.4549 18.06 16.422 18.2144 16.3581C18.3689 16.2941 18.5092 16.2004 18.6274 16.0822C18.7456 15.964 18.8394 15.8236 18.9033 15.6692C18.9673 15.5148 19.0002 15.3492 19.0002 15.1821C19.0002 15.0149 18.9673 14.8494 18.9033 14.695C18.8394 14.5405 18.7456 14.4002 18.6274 14.282C18.5092 14.1638 18.3689 14.0701 18.2144 14.0061C18.06 13.9421 17.8944 13.9092 17.7273 13.9093C17.3897 13.9093 17.066 14.0434 16.8273 14.2821C16.5887 14.5208 16.4546 14.8445 16.4546 15.1821C16.4546 15.5196 16.5887 15.8434 16.8273 16.0821C17.066 16.3208 17.3897 16.4549 17.7273 16.4549Z" fill="#FF8400"/>
<path d="M12.3185 15.8442C12.7255 15.9132 13.0992 16.1122 13.3837 16.4113C13.6681 16.7105 13.848 17.0938 13.8964 17.5038L16.2193 16.3528C16.0318 16.1113 15.9051 15.8283 15.8498 15.5276C15.7945 15.227 15.8122 14.9174 15.9013 14.625C15.9905 14.3326 16.1486 14.0658 16.3622 13.8472C16.5759 13.6285 16.839 13.4644 17.1293 13.3685L13.4023 7.56784C13.1161 7.87832 12.7349 8.08494 12.3185 8.15526V15.8448V15.8442ZM11.6821 8.15584C11.2655 8.08564 10.884 7.87901 10.5977 7.56842L6.87134 13.3685C7.16159 13.4644 7.42457 13.6286 7.63819 13.8473C7.8518 14.066 8.0098 14.3327 8.09891 14.6252C8.18802 14.9176 8.20563 15.2271 8.15027 15.5278C8.09491 15.8284 7.96818 16.1113 7.78075 16.3528L10.1036 17.5038C10.1521 17.0938 10.3322 16.7106 10.6167 16.4115C10.9013 16.1125 11.2751 15.9136 11.6821 15.8448V8.15526V8.15584Z" fill="#FF8400" fill-opacity="0.3"/>
</g>
<defs>
<clipPath id="clip0_9201_1364">
<rect width="14" height="14" fill="white" transform="translate(5 5)"/>
</clipPath>
</defs>
</svg>
